%TF.GenerationSoftware,KiCad,Pcbnew,6.0.10-86aedd382b~118~ubuntu22.04.1*%
%TF.CreationDate,2023-01-15T11:44:38+01:00*%
%TF.ProjectId,tandberg-5000,74616e64-6265-4726-972d-353030302e6b,rev?*%
%TF.SameCoordinates,Original*%
%TF.FileFunction,Copper,L2,Bot*%
%TF.FilePolarity,Positive*%
%FSLAX46Y46*%
G04 Gerber Fmt 4.6, Leading zero omitted, Abs format (unit mm)*
G04 Created by KiCad (PCBNEW 6.0.10-86aedd382b~118~ubuntu22.04.1) date 2023-01-15 11:44:38*
%MOMM*%
%LPD*%
G01*
G04 APERTURE LIST*
%TA.AperFunction,ComponentPad*%
%ADD10R,1.700000X1.700000*%
%TD*%
%TA.AperFunction,ComponentPad*%
%ADD11O,1.700000X1.700000*%
%TD*%
%TA.AperFunction,ComponentPad*%
%ADD12C,7.500000*%
%TD*%
%TA.AperFunction,ComponentPad*%
%ADD13R,1.000000X1.000000*%
%TD*%
%TA.AperFunction,ComponentPad*%
%ADD14O,1.000000X1.000000*%
%TD*%
%TA.AperFunction,ComponentPad*%
%ADD15C,1.400000*%
%TD*%
%TA.AperFunction,ComponentPad*%
%ADD16O,1.400000X1.400000*%
%TD*%
%TA.AperFunction,ViaPad*%
%ADD17C,0.800000*%
%TD*%
%TA.AperFunction,Conductor*%
%ADD18C,1.000000*%
%TD*%
%TA.AperFunction,Conductor*%
%ADD19C,0.999800*%
%TD*%
G04 APERTURE END LIST*
D10*
%TO.P,SW2,1,1*%
%TO.N,Net-(SW2-Pad1)*%
X222655000Y-66270000D03*
D11*
%TO.P,SW2,2,2*%
%TO.N,GNDL*%
X222655000Y-68810000D03*
%TD*%
D10*
%TO.P,SW1,1,1*%
%TO.N,Net-(SW1-Pad1)*%
X113345000Y-65000000D03*
D11*
%TO.P,SW1,2,2*%
%TO.N,GNDL*%
X113345000Y-67540000D03*
%TD*%
D12*
%TO.P,H1,1,1*%
%TO.N,GNDL*%
X187000000Y-30000000D03*
%TD*%
D13*
%TO.P,J1,1,Pin_1*%
%TO.N,GNDL*%
X255000000Y-31000000D03*
D14*
%TO.P,J1,2,Pin_2*%
%TO.N,Net-(J1-Pad2)*%
X256270000Y-31000000D03*
%TO.P,J1,3,Pin_3*%
%TO.N,Net-(J1-Pad3)*%
X257540000Y-31000000D03*
%TO.P,J1,4,Pin_4*%
%TO.N,unconnected-(J1-Pad4)*%
X258810000Y-31000000D03*
%TO.P,J1,5,Pin_5*%
%TO.N,unconnected-(J1-Pad5)*%
X260080000Y-31000000D03*
%TO.P,J1,6,Pin_6*%
%TO.N,COL1*%
X261350000Y-31000000D03*
%TO.P,J1,7,Pin_7*%
%TO.N,COL2*%
X262620000Y-31000000D03*
%TO.P,J1,8,Pin_8*%
%TO.N,COL3*%
X263890000Y-31000000D03*
%TO.P,J1,9,Pin_9*%
%TO.N,COL4*%
X265160000Y-31000000D03*
%TO.P,J1,10,Pin_10*%
%TO.N,COL5*%
X266430000Y-31000000D03*
%TO.P,J1,11,Pin_11*%
%TO.N,COL6*%
X267700000Y-31000000D03*
%TO.P,J1,12,Pin_12*%
%TO.N,COL7*%
X268970000Y-31000000D03*
%TO.P,J1,13,Pin_13*%
%TO.N,COL8*%
X270240000Y-31000000D03*
%TO.P,J1,14,Pin_14*%
%TO.N,Net-(J1-Pad14)*%
X271510000Y-31000000D03*
%TO.P,J1,15,Pin_15*%
%TO.N,GNDL*%
X272780000Y-31000000D03*
%TO.P,J1,16,Pin_16*%
%TO.N,unconnected-(J1-Pad16)*%
X274050000Y-31000000D03*
%TD*%
D12*
%TO.P,H3,1,1*%
%TO.N,GNDL*%
X270000000Y-69000000D03*
%TD*%
D15*
%TO.P,R3,1*%
%TO.N,Net-(J1-Pad14)*%
X271000000Y-35000000D03*
D16*
%TO.P,R3,2*%
%TO.N,LED3*%
X271000000Y-40080000D03*
%TD*%
D12*
%TO.P,H4,1,1*%
%TO.N,GNDL*%
X27000000Y-68000000D03*
%TD*%
D15*
%TO.P,R2,1*%
%TO.N,Net-(J1-Pad3)*%
X260000000Y-35000000D03*
D16*
%TO.P,R2,2*%
%TO.N,LED2*%
X260000000Y-40080000D03*
%TD*%
D15*
%TO.P,R1,1*%
%TO.N,Net-(J1-Pad2)*%
X256000000Y-35000000D03*
D16*
%TO.P,R1,2*%
%TO.N,LED1*%
X256000000Y-40080000D03*
%TD*%
D11*
%TO.P,U1,1,GPIO0*%
%TO.N,SDA I2C0*%
X48870000Y-58890000D03*
%TO.P,U1,2,GPIO1*%
%TO.N,SCL I2C0*%
X51410000Y-58890000D03*
D10*
%TO.P,U1,3,GND*%
%TO.N,GNDL*%
X53950000Y-58890000D03*
D11*
%TO.P,U1,4,GPIO2*%
%TO.N,ROW1*%
X56490000Y-58890000D03*
%TO.P,U1,5,GPIO3*%
%TO.N,ROW2*%
X59030000Y-58890000D03*
%TO.P,U1,6,GPIO4*%
%TO.N,ROW3*%
X61570000Y-58890000D03*
%TO.P,U1,7,GPIO5*%
%TO.N,ROW4*%
X64110000Y-58890000D03*
D10*
%TO.P,U1,8,GND*%
%TO.N,GNDL*%
X66650000Y-58890000D03*
D11*
%TO.P,U1,9,GPIO6*%
%TO.N,ROW5*%
X69190000Y-58890000D03*
%TO.P,U1,10,GPIO7*%
%TO.N,ROW6*%
X71730000Y-58890000D03*
%TO.P,U1,11,GPIO8*%
%TO.N,ROW7*%
X74270000Y-58890000D03*
%TO.P,U1,12,GPIO9*%
%TO.N,ROW8*%
X76810000Y-58890000D03*
D10*
%TO.P,U1,13,GND*%
%TO.N,GNDL*%
X79350000Y-58890000D03*
D11*
%TO.P,U1,14,GPIO10*%
%TO.N,ROW9*%
X81890000Y-58890000D03*
%TO.P,U1,15,GPIO11*%
%TO.N,ROW10*%
X84430000Y-58890000D03*
%TO.P,U1,16,GPIO12*%
%TO.N,ROW11*%
X86970000Y-58890000D03*
%TO.P,U1,17,GPIO13*%
%TO.N,ROW12*%
X89510000Y-58890000D03*
D10*
%TO.P,U1,18,GND*%
%TO.N,GNDL*%
X92050000Y-58890000D03*
D11*
%TO.P,U1,19,GPIO14*%
%TO.N,ROW13*%
X94590000Y-58890000D03*
%TO.P,U1,20,GPIO15*%
%TO.N,ROW14*%
X97130000Y-58890000D03*
%TO.P,U1,21,GPIO16*%
%TO.N,LED1*%
X97130000Y-41110000D03*
%TO.P,U1,22,GPIO17*%
%TO.N,LED2*%
X94590000Y-41110000D03*
D10*
%TO.P,U1,23,GND*%
%TO.N,GNDL*%
X92050000Y-41110000D03*
D11*
%TO.P,U1,24,GPIO18*%
%TO.N,LED3*%
X89510000Y-41110000D03*
%TO.P,U1,25,GPIO19*%
%TO.N,ROW16*%
X86970000Y-41110000D03*
%TO.P,U1,26,GPIO20*%
%TO.N,unconnected-(U1-Pad26)*%
X84430000Y-41110000D03*
%TO.P,U1,27,GPIO21*%
%TO.N,ROW15*%
X81890000Y-41110000D03*
D10*
%TO.P,U1,28,GND*%
%TO.N,GNDL*%
X79350000Y-41110000D03*
D11*
%TO.P,U1,29,GPIO22*%
%TO.N,unconnected-(U1-Pad29)*%
X76810000Y-41110000D03*
%TO.P,U1,30,RUN*%
%TO.N,Net-(SW1-Pad1)*%
X74270000Y-41110000D03*
%TO.P,U1,31,GPIO26_ADC0*%
%TO.N,unconnected-(U1-Pad31)*%
X71730000Y-41110000D03*
%TO.P,U1,32,GPIO27_ADC1*%
%TO.N,unconnected-(U1-Pad32)*%
X69190000Y-41110000D03*
D10*
%TO.P,U1,33,AGND*%
%TO.N,GNDL*%
X66650000Y-41110000D03*
D11*
%TO.P,U1,34,GPIO28_ADC2*%
%TO.N,unconnected-(U1-Pad34)*%
X64110000Y-41110000D03*
%TO.P,U1,35,ADC_VREF*%
%TO.N,unconnected-(U1-Pad35)*%
X61570000Y-41110000D03*
%TO.P,U1,36,3V3*%
%TO.N,unconnected-(U1-Pad36)*%
X59030000Y-41110000D03*
%TO.P,U1,37,3V3_EN*%
%TO.N,unconnected-(U1-Pad37)*%
X56490000Y-41110000D03*
D10*
%TO.P,U1,38,GND*%
%TO.N,GNDL*%
X53950000Y-41110000D03*
D11*
%TO.P,U1,39,VSYS*%
%TO.N,unconnected-(U1-Pad39)*%
X51410000Y-41110000D03*
%TO.P,U1,40,VBUS*%
%TO.N,VCCL*%
X48870000Y-41110000D03*
%TO.P,U1,41,SWCLK*%
%TO.N,unconnected-(U1-Pad41)*%
X96900000Y-52540000D03*
D10*
%TO.P,U1,42,GND*%
%TO.N,GNDL*%
X96900000Y-50000000D03*
D11*
%TO.P,U1,43,SWDIO*%
%TO.N,unconnected-(U1-Pad43)*%
X96900000Y-47460000D03*
%TD*%
%TO.P,U2,1,GPIO0*%
%TO.N,sdaR*%
X199870000Y-52890000D03*
%TO.P,U2,2,GPIO1*%
%TO.N,sclR*%
X202410000Y-52890000D03*
D10*
%TO.P,U2,3,GND*%
%TO.N,GNDL*%
X204950000Y-52890000D03*
D11*
%TO.P,U2,4,GPIO2*%
%TO.N,COL1*%
X207490000Y-52890000D03*
%TO.P,U2,5,GPIO3*%
%TO.N,COL2*%
X210030000Y-52890000D03*
%TO.P,U2,6,GPIO4*%
%TO.N,COL3*%
X212570000Y-52890000D03*
%TO.P,U2,7,GPIO5*%
%TO.N,COL4*%
X215110000Y-52890000D03*
D10*
%TO.P,U2,8,GND*%
%TO.N,GNDL*%
X217650000Y-52890000D03*
D11*
%TO.P,U2,9,GPIO6*%
%TO.N,COL5*%
X220190000Y-52890000D03*
%TO.P,U2,10,GPIO7*%
%TO.N,COL6*%
X222730000Y-52890000D03*
%TO.P,U2,11,GPIO8*%
%TO.N,COL7*%
X225270000Y-52890000D03*
%TO.P,U2,12,GPIO9*%
%TO.N,COL8*%
X227810000Y-52890000D03*
D10*
%TO.P,U2,13,GND*%
%TO.N,GNDL*%
X230350000Y-52890000D03*
D11*
%TO.P,U2,14,GPIO10*%
%TO.N,unconnected-(U2-Pad14)*%
X232890000Y-52890000D03*
%TO.P,U2,15,GPIO11*%
%TO.N,unconnected-(U2-Pad15)*%
X235430000Y-52890000D03*
%TO.P,U2,16,GPIO12*%
%TO.N,unconnected-(U2-Pad16)*%
X237970000Y-52890000D03*
%TO.P,U2,17,GPIO13*%
%TO.N,unconnected-(U2-Pad17)*%
X240510000Y-52890000D03*
D10*
%TO.P,U2,18,GND*%
%TO.N,GNDL*%
X243050000Y-52890000D03*
D11*
%TO.P,U2,19,GPIO14*%
%TO.N,unconnected-(U2-Pad19)*%
X245590000Y-52890000D03*
%TO.P,U2,20,GPIO15*%
%TO.N,unconnected-(U2-Pad20)*%
X248130000Y-52890000D03*
%TO.P,U2,21,GPIO16*%
%TO.N,unconnected-(U2-Pad21)*%
X248130000Y-35110000D03*
%TO.P,U2,22,GPIO17*%
%TO.N,unconnected-(U2-Pad22)*%
X245590000Y-35110000D03*
D10*
%TO.P,U2,23,GND*%
%TO.N,GNDL*%
X243050000Y-35110000D03*
D11*
%TO.P,U2,24,GPIO18*%
%TO.N,unconnected-(U2-Pad24)*%
X240510000Y-35110000D03*
%TO.P,U2,25,GPIO19*%
%TO.N,unconnected-(U2-Pad25)*%
X237970000Y-35110000D03*
%TO.P,U2,26,GPIO20*%
%TO.N,unconnected-(U2-Pad26)*%
X235430000Y-35110000D03*
%TO.P,U2,27,GPIO21*%
%TO.N,unconnected-(U2-Pad27)*%
X232890000Y-35110000D03*
D10*
%TO.P,U2,28,GND*%
%TO.N,GNDL*%
X230350000Y-35110000D03*
D11*
%TO.P,U2,29,GPIO22*%
%TO.N,unconnected-(U2-Pad29)*%
X227810000Y-35110000D03*
%TO.P,U2,30,RUN*%
%TO.N,Net-(SW2-Pad1)*%
X225270000Y-35110000D03*
%TO.P,U2,31,GPIO26_ADC0*%
%TO.N,unconnected-(U2-Pad31)*%
X222730000Y-35110000D03*
%TO.P,U2,32,GPIO27_ADC1*%
%TO.N,unconnected-(U2-Pad32)*%
X220190000Y-35110000D03*
D10*
%TO.P,U2,33,AGND*%
%TO.N,GNDL*%
X217650000Y-35110000D03*
D11*
%TO.P,U2,34,GPIO28_ADC2*%
%TO.N,unconnected-(U2-Pad34)*%
X215110000Y-35110000D03*
%TO.P,U2,35,ADC_VREF*%
%TO.N,unconnected-(U2-Pad35)*%
X212570000Y-35110000D03*
%TO.P,U2,36,3V3*%
%TO.N,unconnected-(U2-Pad36)*%
X210030000Y-35110000D03*
%TO.P,U2,37,3V3_EN*%
%TO.N,unconnected-(U2-Pad37)*%
X207490000Y-35110000D03*
D10*
%TO.P,U2,38,GND*%
%TO.N,GNDL*%
X204950000Y-35110000D03*
D11*
%TO.P,U2,39,VSYS*%
%TO.N,unconnected-(U2-Pad39)*%
X202410000Y-35110000D03*
%TO.P,U2,40,VBUS*%
%TO.N,VCCL*%
X199870000Y-35110000D03*
%TO.P,U2,41,SWCLK*%
%TO.N,unconnected-(U2-Pad41)*%
X247900000Y-46540000D03*
D10*
%TO.P,U2,42,GND*%
%TO.N,GNDL*%
X247900000Y-44000000D03*
D11*
%TO.P,U2,43,SWDIO*%
%TO.N,unconnected-(U2-Pad43)*%
X247900000Y-41460000D03*
%TD*%
D12*
%TO.P,H2,1,1*%
%TO.N,GNDL*%
X27000000Y-31000000D03*
%TD*%
D13*
%TO.P,J2,1,Pin_1*%
%TO.N,ROW1*%
X93000000Y-31000000D03*
D14*
%TO.P,J2,2,Pin_2*%
%TO.N,ROW2*%
X94270000Y-31000000D03*
%TO.P,J2,3,Pin_3*%
%TO.N,ROW3*%
X95540000Y-31000000D03*
%TO.P,J2,4,Pin_4*%
%TO.N,ROW4*%
X96810000Y-31000000D03*
%TO.P,J2,5,Pin_5*%
%TO.N,ROW5*%
X98080000Y-31000000D03*
%TO.P,J2,6,Pin_6*%
%TO.N,ROW6*%
X99350000Y-31000000D03*
%TO.P,J2,7,Pin_7*%
%TO.N,ROW7*%
X100620000Y-31000000D03*
%TO.P,J2,8,Pin_8*%
%TO.N,ROW8*%
X101890000Y-31000000D03*
%TO.P,J2,9,Pin_9*%
%TO.N,ROW9*%
X103160000Y-31000000D03*
%TO.P,J2,10,Pin_10*%
%TO.N,ROW10*%
X104430000Y-31000000D03*
%TO.P,J2,11,Pin_11*%
%TO.N,ROW11*%
X105700000Y-31000000D03*
%TO.P,J2,12,Pin_12*%
%TO.N,ROW12*%
X106970000Y-31000000D03*
%TO.P,J2,13,Pin_13*%
%TO.N,ROW13*%
X108240000Y-31000000D03*
%TO.P,J2,14,Pin_14*%
%TO.N,ROW14*%
X109510000Y-31000000D03*
%TO.P,J2,15,Pin_15*%
%TO.N,ROW15*%
X110780000Y-31000000D03*
%TO.P,J2,16,Pin_16*%
%TO.N,ROW16*%
X112050000Y-31000000D03*
%TD*%
D17*
%TO.N,GNDL*%
X105000000Y-51000000D03*
X110000000Y-38000000D03*
X221000000Y-44000000D03*
X252000000Y-39000000D03*
X258000000Y-34000000D03*
%TO.N,Net-(SW1-Pad1)*%
X87586300Y-51149600D03*
%TO.N,LED3*%
X93992000Y-44743900D03*
%TO.N,LED1*%
X253004300Y-32596800D03*
%TO.N,ROW11*%
X103984900Y-34663800D03*
%TO.N,ROW10*%
X102306200Y-34617200D03*
%TO.N,ROW7*%
X97761200Y-34816000D03*
%TD*%
D18*
%TO.N,Net-(J1-Pad3)*%
X260000000Y-35000000D02*
X260000000Y-32200000D01*
X260000000Y-32200000D02*
X258312943Y-32200000D01*
X258312943Y-32200000D02*
X257540000Y-31427057D01*
X257540000Y-31427057D02*
X257540000Y-31000000D01*
%TO.N,Net-(SW2-Pad1)*%
X210959000Y-66270000D02*
X222655000Y-66270000D01*
X198290300Y-53601300D02*
X210959000Y-66270000D01*
X198290300Y-46136700D02*
X198290300Y-53601300D01*
X199454300Y-44972700D02*
X198290300Y-46136700D01*
X202431400Y-44972700D02*
X199454300Y-44972700D01*
X210120100Y-37284000D02*
X202431400Y-44972700D01*
X223096000Y-37284000D02*
X210120100Y-37284000D01*
X225270000Y-35110000D02*
X223096000Y-37284000D01*
%TO.N,Net-(SW1-Pad1)*%
X84309600Y-51149600D02*
X87586300Y-51149600D01*
X74270000Y-41110000D02*
X84309600Y-51149600D01*
%TO.N,LED3*%
X89510000Y-41110000D02*
X89510000Y-42960000D01*
X92208100Y-42960000D02*
X93992000Y-44743900D01*
X89510000Y-42960000D02*
X92208100Y-42960000D01*
%TO.N,LED1*%
X256000000Y-40080000D02*
X256000000Y-38380000D01*
X253004300Y-35384300D02*
X253004300Y-32596800D01*
X256000000Y-38380000D02*
X253004300Y-35384300D01*
%TO.N,ROW16*%
X112050000Y-31000000D02*
X112050000Y-32500000D01*
X86970000Y-41110000D02*
X86970000Y-39260000D01*
X92812900Y-33417100D02*
X86970000Y-39260000D01*
X111132900Y-33417100D02*
X92812900Y-33417100D01*
X112050000Y-32500000D02*
X111132900Y-33417100D01*
%TO.N,ROW14*%
X97130000Y-58890000D02*
X97130000Y-57040000D01*
X113258700Y-40911300D02*
X97130000Y-57040000D01*
X113258700Y-30507400D02*
X113258700Y-40911300D01*
X112537400Y-29786100D02*
X113258700Y-30507400D01*
X110183600Y-29786100D02*
X112537400Y-29786100D01*
X109510000Y-30459700D02*
X110183600Y-29786100D01*
X109510000Y-31000000D02*
X109510000Y-30459700D01*
%TO.N,ROW13*%
X96183000Y-60483000D02*
X94590000Y-58890000D01*
X97780900Y-60483000D02*
X96183000Y-60483000D01*
X114502100Y-43761800D02*
X97780900Y-60483000D01*
X114502100Y-29982000D02*
X114502100Y-43761800D01*
X113103600Y-28583500D02*
X114502100Y-29982000D01*
X109583800Y-28583500D02*
X113103600Y-28583500D01*
X108240000Y-29927300D02*
X109583800Y-28583500D01*
X108240000Y-31000000D02*
X108240000Y-29927300D01*
%TO.N,ROW12*%
X89510000Y-58890000D02*
X89510000Y-60740000D01*
X106970000Y-31000000D02*
X106970000Y-29500000D01*
X90496100Y-61726100D02*
X89510000Y-60740000D01*
X98286600Y-61726100D02*
X90496100Y-61726100D01*
X115702300Y-44310400D02*
X98286600Y-61726100D01*
X115702300Y-29484900D02*
X115702300Y-44310400D01*
X113560900Y-27343500D02*
X115702300Y-29484900D01*
X109126500Y-27343500D02*
X113560900Y-27343500D01*
X106970000Y-29500000D02*
X109126500Y-27343500D01*
%TO.N,ROW11*%
X90543600Y-55316400D02*
X86970000Y-58890000D01*
X96337500Y-55316400D02*
X90543600Y-55316400D01*
X103984800Y-47669100D02*
X96337500Y-55316400D01*
X103984800Y-34663800D02*
X103984800Y-47669100D01*
X103984900Y-34663800D02*
X103984800Y-34663800D01*
%TO.N,ROW10*%
X102306200Y-39824200D02*
X102306200Y-34617200D01*
X85090400Y-57040000D02*
X102306200Y-39824200D01*
X84430000Y-57040000D02*
X85090400Y-57040000D01*
X84430000Y-58890000D02*
X84430000Y-57040000D01*
%TO.N,ROW9*%
X85955600Y-62955600D02*
X81890000Y-58890000D01*
X98762500Y-62955600D02*
X85955600Y-62955600D01*
X116902500Y-44815600D02*
X98762500Y-62955600D01*
X116902500Y-28986100D02*
X116902500Y-44815600D01*
X114039600Y-26123200D02*
X116902500Y-28986100D01*
X107596100Y-26123200D02*
X114039600Y-26123200D01*
X103160000Y-30559300D02*
X107596100Y-26123200D01*
X103160000Y-31000000D02*
X103160000Y-30559300D01*
%TO.N,ROW8*%
X101890000Y-31000000D02*
X101890000Y-29500000D01*
X76810000Y-58890000D02*
X76810000Y-60740000D01*
X106466900Y-24923100D02*
X101890000Y-29500000D01*
X114536700Y-24923100D02*
X106466900Y-24923100D01*
X118102600Y-28489000D02*
X114536700Y-24923100D01*
X118102600Y-45312700D02*
X118102600Y-28489000D01*
X99259600Y-64155700D02*
X118102600Y-45312700D01*
X80225700Y-64155700D02*
X99259600Y-64155700D01*
X76810000Y-60740000D02*
X80225700Y-64155700D01*
%TO.N,ROW7*%
X78113400Y-55046600D02*
X74270000Y-58890000D01*
X85386500Y-55046600D02*
X78113400Y-55046600D01*
X98730600Y-41702500D02*
X85386500Y-55046600D01*
X98730600Y-35785400D02*
X98730600Y-41702500D01*
X97761200Y-34816000D02*
X98730600Y-35785400D01*
%TO.N,ROW6*%
X57466400Y-44626400D02*
X71730000Y-58890000D01*
X50174000Y-44626400D02*
X57466400Y-44626400D01*
X47307700Y-41760100D02*
X50174000Y-44626400D01*
X47307700Y-40455900D02*
X47307700Y-41760100D01*
X55563400Y-32200200D02*
X47307700Y-40455900D01*
X98600000Y-32200200D02*
X55563400Y-32200200D01*
X99350000Y-31450200D02*
X98600000Y-32200200D01*
X99350000Y-31000000D02*
X99350000Y-31450200D01*
D19*
%TO.N,ROW4*%
X96879800Y-30930200D02*
X96810000Y-31000000D01*
X96879800Y-30642800D02*
X96879800Y-30930200D01*
D18*
X62546000Y-60454000D02*
X64110000Y-58890000D01*
X48221300Y-60454000D02*
X62546000Y-60454000D01*
X44895200Y-57127900D02*
X48221300Y-60454000D01*
X44895200Y-39449900D02*
X44895200Y-57127900D01*
X55825100Y-28520000D02*
X44895200Y-39449900D01*
X94842500Y-28520000D02*
X55825100Y-28520000D01*
X96879800Y-30557300D02*
X94842500Y-28520000D01*
X96879800Y-30642800D02*
X96879800Y-30557300D01*
%TO.N,ROW3*%
X52680000Y-50000000D02*
X61570000Y-58890000D01*
X49818300Y-50000000D02*
X52680000Y-50000000D01*
X46095300Y-46277000D02*
X49818300Y-50000000D01*
X46095300Y-39947000D02*
X46095300Y-46277000D01*
X56303400Y-29738900D02*
X46095300Y-39947000D01*
X94278900Y-29738900D02*
X56303400Y-29738900D01*
X95540000Y-31000000D02*
X94278900Y-29738900D01*
%TO.N,Net-(J1-Pad14)*%
X271510000Y-34490000D02*
X271510000Y-31000000D01*
X271000000Y-35000000D02*
X271510000Y-34490000D01*
%TO.N,COL8*%
X227810000Y-52890000D02*
X227810000Y-51040000D01*
X270240000Y-31000000D02*
X270240000Y-32500000D01*
X270240000Y-33560700D02*
X270240000Y-32500000D01*
X268830300Y-34970400D02*
X270240000Y-33560700D01*
X268830300Y-35579700D02*
X268830300Y-34970400D01*
X253370000Y-51040000D02*
X268830300Y-35579700D01*
X227810000Y-51040000D02*
X253370000Y-51040000D01*
%TO.N,COL7*%
X268970000Y-32880500D02*
X268970000Y-31000000D01*
X267630200Y-34220300D02*
X268970000Y-32880500D01*
X267630200Y-35033700D02*
X267630200Y-34220300D01*
X252824100Y-49839800D02*
X267630200Y-35033700D01*
X226470200Y-49839800D02*
X252824100Y-49839800D01*
X225270000Y-51040000D02*
X226470200Y-49839800D01*
X225270000Y-52890000D02*
X225270000Y-51040000D01*
%TO.N,COL6*%
X267700000Y-31000000D02*
X267700000Y-29500000D01*
X274134900Y-29500000D02*
X267700000Y-29500000D01*
X275276300Y-30641400D02*
X274134900Y-29500000D01*
X275276300Y-32772300D02*
X275276300Y-30641400D01*
X253596600Y-54452000D02*
X275276300Y-32772300D01*
X224292000Y-54452000D02*
X253596600Y-54452000D01*
X222730000Y-52890000D02*
X224292000Y-54452000D01*
%TO.N,COL5*%
X224440400Y-48639600D02*
X220190000Y-52890000D01*
X252310900Y-48639600D02*
X224440400Y-48639600D01*
X266430000Y-34520500D02*
X252310900Y-48639600D01*
X266430000Y-31000000D02*
X266430000Y-34520500D01*
%TO.N,COL4*%
X265160000Y-32874700D02*
X265160000Y-31000000D01*
X258000000Y-40034700D02*
X265160000Y-32874700D01*
X258000000Y-40124000D02*
X258000000Y-40034700D01*
X256811400Y-41312600D02*
X258000000Y-40124000D01*
X250273700Y-41312600D02*
X256811400Y-41312600D01*
X249704100Y-40743000D02*
X250273700Y-41312600D01*
X227257000Y-40743000D02*
X249704100Y-40743000D01*
X215110000Y-52890000D02*
X227257000Y-40743000D01*
%TO.N,COL1*%
X261350000Y-31000000D02*
X261350000Y-29500000D01*
X254404000Y-29500000D02*
X261350000Y-29500000D01*
X251283600Y-32620400D02*
X254404000Y-29500000D01*
X251283600Y-33985300D02*
X251283600Y-32620400D01*
X246184800Y-39084100D02*
X251283600Y-33985300D01*
X221295900Y-39084100D02*
X246184800Y-39084100D01*
X207490000Y-52890000D02*
X221295900Y-39084100D01*
%TD*%
%TA.AperFunction,Conductor*%
%TO.N,GNDL*%
G36*
X105219196Y-24528502D02*
G01*
X105265689Y-24582158D01*
X105275793Y-24652432D01*
X105246299Y-24717012D01*
X105240170Y-24723595D01*
X101220621Y-28743145D01*
X101210478Y-28752247D01*
X101180975Y-28775968D01*
X101165040Y-28794959D01*
X101148709Y-28814421D01*
X101145528Y-28818069D01*
X101143885Y-28819881D01*
X101141691Y-28822075D01*
X101114358Y-28855349D01*
X101113696Y-28856147D01*
X101053846Y-28927474D01*
X101051278Y-28932144D01*
X101047897Y-28936261D01*
X101016860Y-28994145D01*
X101004023Y-29018086D01*
X101003394Y-29019245D01*
X100961538Y-29095381D01*
X100961535Y-29095388D01*
X100958567Y-29100787D01*
X100956955Y-29105869D01*
X100954438Y-29110563D01*
X100927238Y-29199531D01*
X100926918Y-29200559D01*
X100898765Y-29289306D01*
X100898171Y-29294602D01*
X100896613Y-29299698D01*
X100895048Y-29315111D01*
X100887218Y-29392187D01*
X100887089Y-29393393D01*
X100881500Y-29443227D01*
X100881500Y-29446754D01*
X100881445Y-29447739D01*
X100880998Y-29453419D01*
X100876626Y-29496462D01*
X100878209Y-29513204D01*
X100880941Y-29542109D01*
X100881500Y-29553967D01*
X100881500Y-29873449D01*
X100861498Y-29941570D01*
X100807842Y-29988063D01*
X100742331Y-29998759D01*
X100627075Y-29986645D01*
X100544576Y-29994153D01*
X100436251Y-30004011D01*
X100436248Y-30004012D01*
X100430112Y-30004570D01*
X100424206Y-30006308D01*
X100424202Y-30006309D01*
X100319076Y-30037249D01*
X100240381Y-30060410D01*
X100234923Y-30063263D01*
X100234919Y-30063265D01*
X100139135Y-30113340D01*
X100065110Y-30152040D01*
X100060310Y-30155900D01*
X100055153Y-30159274D01*
X100053769Y-30157158D01*
X99998365Y-30180027D01*
X99928512Y-30167334D01*
X99918898Y-30161709D01*
X99916675Y-30159870D01*
X99742701Y-30065802D01*
X99553768Y-30007318D01*
X99547643Y-30006674D01*
X99547642Y-30006674D01*
X99363204Y-29987289D01*
X99363202Y-29987289D01*
X99357075Y-29986645D01*
X99274576Y-29994153D01*
X99166251Y-30004011D01*
X99166248Y-30004012D01*
X99160112Y-30004570D01*
X99154206Y-30006308D01*
X99154202Y-30006309D01*
X99049076Y-30037249D01*
X98970381Y-30060410D01*
X98964923Y-30063263D01*
X98964919Y-30063265D01*
X98869135Y-30113340D01*
X98795110Y-30152040D01*
X98790310Y-30155900D01*
X98785153Y-30159274D01*
X98783769Y-30157158D01*
X98728365Y-30180027D01*
X98658512Y-30167334D01*
X98648898Y-30161709D01*
X98646675Y-30159870D01*
X98472701Y-30065802D01*
X98283768Y-30007318D01*
X98277643Y-30006674D01*
X98277642Y-30006674D01*
X98093204Y-29987289D01*
X98093202Y-29987289D01*
X98087075Y-29986645D01*
X97890112Y-30004570D01*
X97884203Y-30006309D01*
X97884198Y-30006310D01*
X97841659Y-30018830D01*
X97770662Y-30018874D01*
X97708443Y-29977593D01*
X97687294Y-29951662D01*
X97665045Y-29924382D01*
X97664354Y-29923526D01*
X97633062Y-29884327D01*
X97630558Y-29881823D01*
X97629916Y-29881105D01*
X97626215Y-29876772D01*
X97598865Y-29843238D01*
X97563537Y-29814012D01*
X97554758Y-29806023D01*
X95599355Y-27850621D01*
X95590253Y-27840478D01*
X95570397Y-27815782D01*
X95566532Y-27810975D01*
X95528078Y-27778708D01*
X95524431Y-27775528D01*
X95522619Y-27773885D01*
X95520425Y-27771691D01*
X95487151Y-27744358D01*
X95486353Y-27743696D01*
X95415026Y-27683846D01*
X95410356Y-27681278D01*
X95406239Y-27677897D01*
X95324414Y-27634023D01*
X95323255Y-27633394D01*
X95247119Y-27591538D01*
X95247111Y-27591535D01*
X95241713Y-27588567D01*
X95236631Y-27586955D01*
X95231937Y-27584438D01*
X95142969Y-27557238D01*
X95141941Y-27556918D01*
X95053194Y-27528765D01*
X95047898Y-27528171D01*
X95042802Y-27526613D01*
X94950243Y-27517210D01*
X94949107Y-27517089D01*
X94915492Y-27513319D01*
X94902770Y-27511892D01*
X94902766Y-27511892D01*
X94899273Y-27511500D01*
X94895746Y-27511500D01*
X94894761Y-27511445D01*
X94889081Y-27510998D01*
X94859675Y-27508011D01*
X94852163Y-27507248D01*
X94852161Y-27507248D01*
X94846038Y-27506626D01*
X94803759Y-27510623D01*
X94800391Y-27510941D01*
X94788533Y-27511500D01*
X55886943Y-27511500D01*
X55873336Y-27510763D01*
X55841838Y-27507341D01*
X55841833Y-27507341D01*
X55835712Y-27506676D01*
X55809462Y-27508973D01*
X55785712Y-27511050D01*
X55780886Y-27511379D01*
X55778414Y-27511500D01*
X55775331Y-27511500D01*
X55763362Y-27512674D01*
X55732594Y-27515690D01*
X55731281Y-27515812D01*
X55687016Y-27519685D01*
X55638687Y-27523913D01*
X55633568Y-27525400D01*
X55628267Y-27525920D01*
X55539266Y-27552791D01*
X55538133Y-27553126D01*
X55454686Y-27577370D01*
X55454682Y-27577372D01*
X55448764Y-27579091D01*
X55444032Y-27581544D01*
X55438931Y-27583084D01*
X55433488Y-27585978D01*
X55356840Y-27626731D01*
X55355674Y-27627343D01*
X55278647Y-27667271D01*
X55273174Y-27670108D01*
X55269011Y-27673431D01*
X55264304Y-27675934D01*
X55259529Y-27679828D01*
X55259528Y-27679829D01*
X55192202Y-27734739D01*
X55191175Y-27735567D01*
X55154892Y-27764531D01*
X55154887Y-27764536D01*
X55152128Y-27766738D01*
X55149627Y-27769239D01*
X55148909Y-27769881D01*
X55144561Y-27773594D01*
X55111038Y-27800935D01*
X55107115Y-27805677D01*
X55107113Y-27805679D01*
X55081803Y-27836273D01*
X55073813Y-27845053D01*
X44225821Y-38693045D01*
X44215678Y-38702147D01*
X44186175Y-38725868D01*
X44156839Y-38760829D01*
X44153909Y-38764321D01*
X44150728Y-38767969D01*
X44149085Y-38769781D01*
X44146891Y-38771975D01*
X44119558Y-38805249D01*
X44118896Y-38806047D01*
X44059046Y-38877374D01*
X44056478Y-38882044D01*
X44053097Y-38886161D01*
X44022960Y-38942367D01*
X44009223Y-38967986D01*
X44008594Y-38969145D01*
X43966738Y-39045281D01*
X43966735Y-39045289D01*
X43963767Y-39050687D01*
X43962155Y-39055769D01*
X43959638Y-39060463D01*
X43932438Y-39149431D01*
X43932118Y-39150459D01*
X43903965Y-39239206D01*
X43903371Y-39244502D01*
X43901813Y-39249598D01*
X43895275Y-39313967D01*
X43892418Y-39342087D01*
X43892289Y-39343293D01*
X43890510Y-39359161D01*
X43887508Y-39385926D01*
X43886700Y-39393127D01*
X43886700Y-39396654D01*
X43886645Y-39397639D01*
X43886198Y-39403319D01*
X43881826Y-39446362D01*
X43884386Y-39473442D01*
X43886141Y-39492009D01*
X43886700Y-39503867D01*
X43886700Y-57066057D01*
X43885963Y-57079664D01*
X43885698Y-57082109D01*
X43881876Y-57117288D01*
X43882413Y-57123423D01*
X43886250Y-57167288D01*
X43886579Y-57172114D01*
X43886700Y-57174586D01*
X43886700Y-57177669D01*
X43887001Y-57180737D01*
X43890890Y-57220406D01*
X43891012Y-57221719D01*
X43899113Y-57314313D01*
X43900600Y-57319432D01*
X43901120Y-57324733D01*
X43927991Y-57413734D01*
X43928326Y-57414867D01*
X43930059Y-57420830D01*
X43954291Y-57504236D01*
X43956744Y-57508968D01*
X43958284Y-57514069D01*
X43961178Y-57519512D01*
X44001931Y-57596160D01*
X44002543Y-57597326D01*
X44045308Y-57679826D01*
X44048631Y-57683989D01*
X44051134Y-57688696D01*
X44109955Y-57760818D01*
X44110646Y-57761674D01*
X44141938Y-57800873D01*
X44144442Y-57803377D01*
X44145084Y-57804095D01*
X44148785Y-57808428D01*
X44176135Y-57841962D01*
X44180882Y-57845889D01*
X44180884Y-57845891D01*
X44211462Y-57871187D01*
X44220242Y-57879177D01*
X47464445Y-61123379D01*
X47473547Y-61133522D01*
X47497268Y-61163025D01*
X47509233Y-61173065D01*
X47535721Y-61195291D01*
X47539369Y-61198472D01*
X47541181Y-61200115D01*
X47543375Y-61202309D01*
X47576649Y-61229642D01*
X47577447Y-61230304D01*
X47648774Y-61290154D01*
X47653444Y-61292722D01*
X47657561Y-61296103D01*
X47739420Y-61339995D01*
X47740580Y-61340624D01*
X47816689Y-61382466D01*
X47816694Y-61382468D01*
X47822087Y-61385433D01*
X47827165Y-61387044D01*
X47831863Y-61389563D01*
X47920798Y-61416753D01*
X47922002Y-61417128D01*
X48010606Y-61445235D01*
X48015897Y-61445828D01*
X48020998Y-61447388D01*
X48113611Y-61456795D01*
X48114731Y-61456915D01*
X48164527Y-61462500D01*
X48168056Y-61462500D01*
X48169039Y-61462555D01*
X48174726Y-61463003D01*
X48194983Y-61465060D01*
X48211636Y-61466752D01*
X48211639Y-61466752D01*
X48217763Y-61467374D01*
X48263412Y-61463059D01*
X48275269Y-61462500D01*
X62484157Y-61462500D01*
X62497764Y-61463237D01*
X62529262Y-61466659D01*
X62529267Y-61466659D01*
X62535388Y-61467324D01*
X62561638Y-61465027D01*
X62585388Y-61462950D01*
X62590214Y-61462621D01*
X62592686Y-61462500D01*
X62595769Y-61462500D01*
X62607738Y-61461326D01*
X62638506Y-61458310D01*
X62639819Y-61458188D01*
X62684084Y-61454315D01*
X62732413Y-61450087D01*
X62737532Y-61448600D01*
X62742833Y-61448080D01*
X62831834Y-61421209D01*
X62832967Y-61420874D01*
X62916414Y-61396630D01*
X62916418Y-61396628D01*
X62922336Y-61394909D01*
X62927068Y-61392456D01*
X62932169Y-61390916D01*
X62948062Y-61382466D01*
X63014260Y-61347269D01*
X63015426Y-61346657D01*
X63092453Y-61306729D01*
X63097926Y-61303892D01*
X63102089Y-61300569D01*
X63106796Y-61298066D01*
X63178918Y-61239245D01*
X63179774Y-61238554D01*
X63218973Y-61207262D01*
X63221477Y-61204758D01*
X63222195Y-61204116D01*
X63226528Y-61200415D01*
X63260062Y-61173065D01*
X63289291Y-61137733D01*
X63297272Y-61128963D01*
X63708956Y-60717279D01*
X64144452Y-60281782D01*
X64206765Y-60247757D01*
X64217534Y-60245899D01*
X64293131Y-60236215D01*
X64388289Y-60224025D01*
X64388292Y-60224024D01*
X64393416Y-60223368D01*
X64398366Y-60221883D01*
X64602429Y-60160661D01*
X64602434Y-60160659D01*
X64607384Y-60159174D01*
X64807994Y-60060896D01*
X64989860Y-59931173D01*
X65148096Y-59773489D01*
X65207594Y-59690689D01*
X65275435Y-59596277D01*
X65278453Y-59592077D01*
X65299320Y-59549857D01*
X65375136Y-59396453D01*
X65375137Y-59396451D01*
X65377430Y-59391811D01*
X65442370Y-59178069D01*
X65471529Y-58956590D01*
X65473156Y-58890000D01*
X65454852Y-58667361D01*
X65400431Y-58450702D01*
X65311354Y-58245840D01*
X65217011Y-58100008D01*
X65192822Y-58062617D01*
X65192820Y-58062614D01*
X65190014Y-58058277D01*
X65039670Y-57893051D01*
X65035619Y-57889852D01*
X65035615Y-57889848D01*
X64868414Y-57757800D01*
X64868410Y-57757798D01*
X64864359Y-57754598D01*
X64668789Y-57646638D01*
X64663920Y-57644914D01*
X64663916Y-57644912D01*
X64463087Y-57573795D01*
X64463083Y-57573794D01*
X64458212Y-57572069D01*
X64453119Y-57571162D01*
X64453116Y-57571161D01*
X64243373Y-57533800D01*
X64243367Y-57533799D01*
X64238284Y-57532894D01*
X64164452Y-57531992D01*
X64020081Y-57530228D01*
X64020079Y-57530228D01*
X64014911Y-57530165D01*
X63794091Y-57563955D01*
X63581756Y-57633357D01*
X63551443Y-57649137D01*
X63416923Y-57719164D01*
X63383607Y-57736507D01*
X63379474Y-57739610D01*
X63379471Y-57739612D01*
X63209100Y-57867530D01*
X63204965Y-57870635D01*
X63149782Y-57928381D01*
X63084684Y-57996502D01*
X63050629Y-58032138D01*
X62943201Y-58189621D01*
X62888293Y-58234621D01*
X62817768Y-58242792D01*
X62754021Y-58211538D01*
X62733324Y-58187054D01*
X62652822Y-58062617D01*
X62652820Y-58062614D01*
X62650014Y-58058277D01*
X62499670Y-57893051D01*
X62495619Y-57889852D01*
X62495615Y-57889848D01*
X62328414Y-57757800D01*
X62328410Y-57757798D01*
X62324359Y-57754598D01*
X62128789Y-57646638D01*
X62123920Y-57644914D01*
X62123916Y-57644912D01*
X61923087Y-57573795D01*
X61923083Y-57573794D01*
X61918212Y-57572069D01*
X61913119Y-57571162D01*
X61913116Y-57571161D01*
X61841361Y-57558380D01*
X61698284Y-57532894D01*
X61689684Y-57532789D01*
X61688351Y-57532380D01*
X61687961Y-57532343D01*
X61687969Y-57532262D01*
X61621813Y-57511957D01*
X61602127Y-57495893D01*
X53436855Y-49330621D01*
X53427753Y-49320478D01*
X53407897Y-49295782D01*
X53404032Y-49290975D01*
X53365578Y-49258708D01*
X53361931Y-49255528D01*
X53360119Y-49253885D01*
X53357925Y-49251691D01*
X53324651Y-49224358D01*
X53323853Y-49223696D01*
X53252526Y-49163846D01*
X53247856Y-49161278D01*
X53243739Y-49157897D01*
X53161914Y-49114023D01*
X53160755Y-49113394D01*
X53084619Y-49071538D01*
X53084611Y-49071535D01*
X53079213Y-49068567D01*
X53074131Y-49066955D01*
X53069437Y-49064438D01*
X52980469Y-49037238D01*
X52979441Y-49036918D01*
X52890694Y-49008765D01*
X52885398Y-49008171D01*
X52880302Y-49006613D01*
X52787743Y-48997210D01*
X52786607Y-48997089D01*
X52752992Y-48993319D01*
X52740270Y-48991892D01*
X52740266Y-48991892D01*
X52736773Y-48991500D01*
X52733246Y-48991500D01*
X52732261Y-48991445D01*
X52726581Y-48990998D01*
X52697175Y-48988011D01*
X52689663Y-48987248D01*
X52689661Y-48987248D01*
X52683538Y-48986626D01*
X52641259Y-48990623D01*
X52637891Y-48990941D01*
X52626033Y-48991500D01*
X52538519Y-48991500D01*
X52470398Y-48971498D01*
X52423905Y-48917842D01*
X52413801Y-48847568D01*
X52443295Y-48782988D01*
X52485269Y-48751305D01*
X52661654Y-48669056D01*
X52762759Y-48598261D01*
X52837527Y-48545908D01*
X52837529Y-48545906D01*
X52842038Y-48542749D01*
X52997749Y-48387038D01*
X53018436Y-48357495D01*
X53120899Y-48211162D01*
X53120900Y-48211160D01*
X53124056Y-48206653D01*
X53126379Y-48201671D01*
X53126382Y-48201666D01*
X53191111Y-48062852D01*
X53217120Y-48007076D01*
X53274115Y-47794371D01*
X53293307Y-47575000D01*
X53274115Y-47355629D01*
X53217120Y-47142924D01*
X53157913Y-47015954D01*
X53126382Y-46948334D01*
X53126379Y-46948329D01*
X53124056Y-46943347D01*
X53067139Y-46862061D01*
X53000908Y-46767473D01*
X53000906Y-46767470D01*
X52997749Y-46762962D01*
X52842038Y-46607251D01*
X52835672Y-46602793D01*
X52741204Y-46536646D01*
X52661654Y-46480944D01*
X52462076Y-46387880D01*
X52249371Y-46330885D01*
X52030000Y-46311693D01*
X51810629Y-46330885D01*
X51597924Y-46387880D01*
X51530061Y-46419525D01*
X51403334Y-46478618D01*
X51403329Y-46478621D01*
X51398347Y-46480944D01*
X51393840Y-46484100D01*
X51393838Y-46484101D01*
X51222473Y-46604092D01*
X51222470Y-46604094D01*
X51217962Y-46607251D01*
X51062251Y-46762962D01*
X51059094Y-46767470D01*
X51059092Y-46767473D01*
X50992861Y-46862061D01*
X50935944Y-46943347D01*
X50933621Y-46948329D01*
X50933618Y-46948334D01*
X50902087Y-47015954D01*
X50842880Y-47142924D01*
X50785885Y-47355629D01*
X50766693Y-47575000D01*
X50785885Y-47794371D01*
X50842880Y-48007076D01*
X50868889Y-48062852D01*
X50933618Y-48201666D01*
X50933621Y-48201671D01*
X50935944Y-48206653D01*
X50939100Y-48211160D01*
X50939101Y-48211162D01*
X51041565Y-48357495D01*
X51062251Y-48387038D01*
X51217962Y-48542749D01*
X51222471Y-48545906D01*
X51222473Y-48545908D01*
X51297241Y-48598261D01*
X51398346Y-48669056D01*
X51574731Y-48751305D01*
X51628016Y-48798222D01*
X51647477Y-48866499D01*
X51626935Y-48934459D01*
X51572913Y-48980525D01*
X51521481Y-48991500D01*
X50288226Y-48991500D01*
X50220105Y-48971498D01*
X50199131Y-48954596D01*
X50027523Y-48782988D01*
X49834673Y-48590139D01*
X49800648Y-48527826D01*
X49805712Y-48457011D01*
X49850599Y-48398465D01*
X49908037Y-48357495D01*
X49908044Y-48357489D01*
X49912243Y-48354494D01*
X50076303Y-48191005D01*
X50211458Y-48002917D01*
X50232454Y-47960436D01*
X50311784Y-47799922D01*
X50311785Y-47799920D01*
X50314078Y-47795280D01*
X50381408Y-47573671D01*
X50411640Y-47344041D01*
X50413327Y-47275000D01*
X50402905Y-47148235D01*
X50394773Y-47049318D01*
X50394772Y-47049312D01*
X50394349Y-47044167D01*
X50346021Y-46851765D01*
X50339184Y-46824544D01*
X50339183Y-46824540D01*
X50337925Y-46819533D01*
X50334429Y-46811492D01*
X50247630Y-46611868D01*
X50247628Y-46611865D01*
X50245570Y-46607131D01*
X50119764Y-46412665D01*
X50097212Y-46387880D01*
X50028477Y-46312342D01*
X49963887Y-46241358D01*
X49959836Y-46238159D01*
X49959832Y-46238155D01*
X49786177Y-46101011D01*
X49786172Y-46101008D01*
X49782123Y-46097810D01*
X49777607Y-46095317D01*
X49777604Y-46095315D01*
X49583879Y-45988373D01*
X49583875Y-45988371D01*
X49579355Y-45985876D01*
X49574486Y-45984152D01*
X49574482Y-45984150D01*
X49365903Y-45910288D01*
X49365899Y-45910287D01*
X49361028Y-45908562D01*
X49355935Y-45907655D01*
X49355932Y-45907654D01*
X49138095Y-45868851D01*
X49138089Y-45868850D01*
X49133006Y-45867945D01*
X49060096Y-45867054D01*
X48906581Y-45865179D01*
X48906579Y-45865179D01*
X48901411Y-45865116D01*
X48672464Y-45900150D01*
X48452314Y-45972106D01*
X48447726Y-45974494D01*
X48447722Y-45974496D01*
X48256006Y-46074297D01*
X48246872Y-46079052D01*
X48242739Y-46082155D01*
X48242736Y-46082157D01*
X48065790Y-46215012D01*
X48061655Y-46218117D01*
X48058083Y-46221855D01*
X47956840Y-46327800D01*
X47901639Y-46385564D01*
X47877199Y-46421392D01*
X47822289Y-46466393D01*
X47751764Y-46474564D01*
X47684017Y-46439482D01*
X47140705Y-45896171D01*
X47106680Y-45833858D01*
X47103800Y-45807075D01*
X47103800Y-43286625D01*
X47123802Y-43218504D01*
X47177458Y-43172011D01*
X47247732Y-43161907D01*
X47312312Y-43191401D01*
X47318895Y-43197530D01*
X49417145Y-45295779D01*
X49426247Y-45305922D01*
X49449968Y-45335425D01*
X49488456Y-45367720D01*
X49492075Y-45370878D01*
X49493890Y-45372524D01*
X49496075Y-45374709D01*
X49498455Y-45376664D01*
X49498465Y-45376673D01*
X49529236Y-45401949D01*
X49530251Y-45402791D01*
X49565182Y-45432102D01*
X49601474Y-45462554D01*
X49606148Y-45465123D01*
X49610261Y-45468502D01*
X49690960Y-45511772D01*
X49692047Y-45512355D01*
X49693177Y-45512968D01*
X49713916Y-45524369D01*
X49747899Y-45543051D01*
X49774787Y-45557833D01*
X49779869Y-45559445D01*
X49784563Y-45561962D01*
X49873531Y-45589162D01*
X49874559Y-45589482D01*
X49963306Y-45617635D01*
X49968602Y-45618229D01*
X49973698Y-45619787D01*
X50066257Y-45629190D01*
X50067393Y-45629311D01*
X50101008Y-45633081D01*
X50113730Y-45634508D01*
X50113734Y-45634508D01*
X50117227Y-45634900D01*
X50120754Y-45634900D01*
X50121739Y-45634955D01*
X50127419Y-45635402D01*
X50156825Y-45638389D01*
X50164337Y-45639152D01*
X50164339Y-45639152D01*
X50170462Y-45639774D01*
X50216108Y-45635459D01*
X50227967Y-45634900D01*
X56996475Y-45634900D01*
X57064596Y-45654902D01*
X57085570Y-45671805D01*
X62987561Y-51573795D01*
X68807087Y-57393321D01*
X68841113Y-57455633D01*
X68836048Y-57526448D01*
X68793501Y-57583284D01*
X68757138Y-57602181D01*
X68725434Y-57612544D01*
X68661756Y-57633357D01*
X68631443Y-57649137D01*
X68496923Y-57719164D01*
X68463607Y-57736507D01*
X68459474Y-57739610D01*
X68459471Y-57739612D01*
X68289100Y-57867530D01*
X68284965Y-57870635D01*
X68229782Y-57928381D01*
X68164684Y-57996502D01*
X68130629Y-58032138D01*
X68004743Y-58216680D01*
X67976884Y-58276698D01*
X67917711Y-58404176D01*
X67910688Y-58419305D01*
X67850989Y-58634570D01*
X67827251Y-58856695D01*
X67827548Y-58861848D01*
X67827548Y-58861851D01*
X67833011Y-58956590D01*
X67840110Y-59079715D01*
X67841247Y-59084761D01*
X67841248Y-59084767D01*
X67861119Y-59172939D01*
X67889222Y-59297639D01*
X67973266Y-59504616D01*
X68024019Y-59587438D01*
X68087291Y-59690688D01*
X68089987Y-59695088D01*
X68236250Y-59863938D01*
X68408126Y-60006632D01*
X68601000Y-60119338D01*
X68809692Y-60199030D01*
X68814760Y-60200061D01*
X68814763Y-60200062D01*
X68922017Y-60221883D01*
X69028597Y-60243567D01*
X69033772Y-60243757D01*
X69033774Y-60243757D01*
X69246673Y-60251564D01*
X69246677Y-60251564D01*
X69251837Y-60251753D01*
X69256957Y-60251097D01*
X69256959Y-60251097D01*
X69468288Y-60224025D01*
X69468289Y-60224025D01*
X69473416Y-60223368D01*
X69478366Y-60221883D01*
X69682429Y-60160661D01*
X69682434Y-60160659D01*
X69687384Y-60159174D01*
X69887994Y-60060896D01*
X70069860Y-59931173D01*
X70228096Y-59773489D01*
X70287594Y-59690689D01*
X70358453Y-59592077D01*
X70359776Y-59593028D01*
X70406645Y-59549857D01*
X70476580Y-59537625D01*
X70542026Y-59565144D01*
X70569875Y-59596994D01*
X70629987Y-59695088D01*
X70776250Y-59863938D01*
X70948126Y-60006632D01*
X71141000Y-60119338D01*
X71349692Y-60199030D01*
X71354760Y-60200061D01*
X71354763Y-60200062D01*
X71462017Y-60221883D01*
X71568597Y-60243567D01*
X71573772Y-60243757D01*
X71573774Y-60243757D01*
X71786673Y-60251564D01*
X71786677Y-60251564D01*
X71791837Y-60251753D01*
X71796957Y-60251097D01*
X71796959Y-60251097D01*
X72008288Y-60224025D01*
X72008289Y-60224025D01*
X72013416Y-60223368D01*
X72018366Y-60221883D01*
X72222429Y-60160661D01*
X72222434Y-60160659D01*
X72227384Y-60159174D01*
X72427994Y-60060896D01*
X72609860Y-59931173D01*
X72768096Y-59773489D01*
X72827594Y-59690689D01*
X72898453Y-59592077D01*
X72899776Y-59593028D01*
X72946645Y-59549857D01*
X73016580Y-59537625D01*
X73082026Y-59565144D01*
X73109875Y-59596994D01*
X73169987Y-59695088D01*
X73316250Y-59863938D01*
X73488126Y-60006632D01*
X73681000Y-60119338D01*
X73889692Y-60199030D01*
X73894760Y-60200061D01*
X73894763Y-60200062D01*
X74002017Y-60221883D01*
X74108597Y-60243567D01*
X74113772Y-60243757D01*
X74113774Y-60243757D01*
X74326673Y-60251564D01*
X74326677Y-60251564D01*
X74331837Y-60251753D01*
X74336957Y-60251097D01*
X74336959Y-60251097D01*
X74548288Y-60224025D01*
X74548289Y-60224025D01*
X74553416Y-60223368D01*
X74558366Y-60221883D01*
X74762429Y-60160661D01*
X74762434Y-60160659D01*
X74767384Y-60159174D01*
X74967994Y-60060896D01*
X75149860Y-59931173D01*
X75308096Y-59773489D01*
X75367594Y-59690689D01*
X75438453Y-59592077D01*
X75439776Y-59593028D01*
X75486645Y-59549857D01*
X75556580Y-59537625D01*
X75622026Y-59565144D01*
X75649875Y-59596994D01*
X75709987Y-59695088D01*
X75713367Y-59698990D01*
X75770737Y-59765219D01*
X75800220Y-59829804D01*
X75801500Y-59847717D01*
X75801500Y-60678157D01*
X75800763Y-60691764D01*
X75797957Y-60717600D01*
X75796676Y-60729388D01*
X75797213Y-60735523D01*
X75801050Y-60779388D01*
X75801379Y-60784214D01*
X75801500Y-60786686D01*
X75801500Y-60789769D01*
X75801801Y-60792837D01*
X75805690Y-60832506D01*
X75805812Y-60833819D01*
X75813913Y-60926413D01*
X75815400Y-60931532D01*
X75815920Y-60936833D01*
X75842791Y-61025834D01*
X75843126Y-61026967D01*
X75869091Y-61116336D01*
X75871544Y-61121068D01*
X75873084Y-61126169D01*
X75875978Y-61131612D01*
X75916731Y-61208260D01*
X75917343Y-61209426D01*
X75932396Y-61238465D01*
X75960108Y-61291926D01*
X75963431Y-61296089D01*
X75965934Y-61300796D01*
X76024755Y-61372918D01*
X76025446Y-61373774D01*
X76056738Y-61412973D01*
X76059242Y-61415477D01*
X76059884Y-61416195D01*
X76063585Y-61420528D01*
X76090935Y-61454062D01*
X76095682Y-61457989D01*
X76095684Y-61457991D01*
X76126262Y-61483287D01*
X76135042Y-61491277D01*
X79468845Y-64825079D01*
X79477947Y-64835222D01*
X79501668Y-64864725D01*
X79540156Y-64897020D01*
X79543775Y-64900178D01*
X79545590Y-64901824D01*
X79547775Y-64904009D01*
X79550155Y-64905964D01*
X79550165Y-64905973D01*
X79580936Y-64931249D01*
X79581951Y-64932091D01*
X79592093Y-64940601D01*
X79653174Y-64991854D01*
X79657848Y-64994423D01*
X79661961Y-64997802D01*
X79667398Y-65000717D01*
X79667399Y-65000718D01*
X79743747Y-65041655D01*
X79744877Y-65042268D01*
X79826487Y-65087133D01*
X79831569Y-65088745D01*
X79836263Y-65091262D01*
X79925231Y-65118462D01*
X79926259Y-65118782D01*
X80015006Y-65146935D01*
X80020302Y-65147529D01*
X80025398Y-65149087D01*
X80117957Y-65158490D01*
X80119093Y-65158611D01*
X80152708Y-65162381D01*
X80165430Y-65163808D01*
X80165434Y-65163808D01*
X80168927Y-65164200D01*
X80172454Y-65164200D01*
X80173439Y-65164255D01*
X80179119Y-65164702D01*
X80208525Y-65167689D01*
X80216037Y-65168452D01*
X80216039Y-65168452D01*
X80222162Y-65169074D01*
X80267808Y-65164759D01*
X80279667Y-65164200D01*
X99197757Y-65164200D01*
X99211364Y-65164937D01*
X99242862Y-65168359D01*
X99242867Y-65168359D01*
X99248988Y-65169024D01*
X99275238Y-65166727D01*
X99298988Y-65164650D01*
X99303814Y-65164321D01*
X99306286Y-65164200D01*
X99309369Y-65164200D01*
X99321338Y-65163026D01*
X99352106Y-65160010D01*
X99353419Y-65159888D01*
X99397684Y-65156015D01*
X99446013Y-65151787D01*
X99451132Y-65150300D01*
X99456433Y-65149780D01*
X99545434Y-65122909D01*
X99546567Y-65122574D01*
X99630014Y-65098330D01*
X99630018Y-65098328D01*
X99635936Y-65096609D01*
X99640668Y-65094156D01*
X99645769Y-65092616D01*
X99652773Y-65088892D01*
X99727860Y-65048969D01*
X99729026Y-65048357D01*
X99806053Y-65008429D01*
X99811526Y-65005592D01*
X99815689Y-65002269D01*
X99820396Y-64999766D01*
X99892518Y-64940945D01*
X99893374Y-64940254D01*
X99932573Y-64908962D01*
X99935077Y-64906458D01*
X99935795Y-64905816D01*
X99940128Y-64902115D01*
X99973662Y-64874765D01*
X100002888Y-64839437D01*
X100010877Y-64830658D01*
X118771979Y-46069555D01*
X118782122Y-46060453D01*
X118806818Y-46040597D01*
X118811625Y-46036732D01*
X118843892Y-45998278D01*
X118847072Y-45994631D01*
X118848715Y-45992819D01*
X118850909Y-45990625D01*
X118878242Y-45957351D01*
X118878948Y-45956500D01*
X118894784Y-45937628D01*
X118938754Y-45885226D01*
X118941322Y-45880556D01*
X118944703Y-45876439D01*
X118988577Y-45794614D01*
X118989206Y-45793455D01*
X119031062Y-45717319D01*
X119031065Y-45717311D01*
X119034033Y-45711913D01*
X119035645Y-45706831D01*
X119038162Y-45702137D01*
X119065362Y-45613169D01*
X119065708Y-45612058D01*
X119066658Y-45609065D01*
X119093835Y-45523394D01*
X119094429Y-45518098D01*
X119095987Y-45513002D01*
X119105390Y-45420443D01*
X119105511Y-45419307D01*
X119109937Y-45379845D01*
X119110708Y-45372970D01*
X119110708Y-45372966D01*
X119111100Y-45369473D01*
X119111100Y-45365946D01*
X119111155Y-45364961D01*
X119111602Y-45359281D01*
X119115974Y-45316238D01*
X119111659Y-45270591D01*
X119111100Y-45258733D01*
X119111100Y-41240469D01*
X198587095Y-41240469D01*
X198587392Y-41245622D01*
X198587392Y-41245625D01*
X198595886Y-41392939D01*
X198600427Y-41471697D01*
X198601564Y-41476743D01*
X198601565Y-41476749D01*
X198630887Y-41606857D01*
X198651346Y-41697642D01*
X198653288Y-41702424D01*
X198653289Y-41702428D01*
X198736540Y-41907450D01*
X198738484Y-41912237D01*
X198791210Y-41998278D01*
X198846773Y-42088948D01*
X198859501Y-42109719D01*
X199011147Y-42284784D01*
X199189349Y-42432730D01*
X199389322Y-42549584D01*
X199605694Y-42632209D01*
X199610760Y-42633240D01*
X199610761Y-42633240D01*
X199663846Y-42644040D01*
X199832656Y-42678385D01*
X199963324Y-42683176D01*
X200058949Y-42686683D01*
X200058953Y-42686683D01*
X200064113Y-42686872D01*
X200069233Y-42686216D01*
X200069235Y-42686216D01*
X200142270Y-42676860D01*
X200293847Y-42657442D01*
X200298795Y-42655957D01*
X200298802Y-42655956D01*
X200510747Y-42592369D01*
X200515690Y-42590886D01*
X200520324Y-42588616D01*
X200719049Y-42491262D01*
X200719052Y-42491260D01*
X200723684Y-42488991D01*
X200912243Y-42354494D01*
X201076303Y-42191005D01*
X201081312Y-42184035D01*
X201121717Y-42127805D01*
X201211458Y-42002917D01*
X201214242Y-41997285D01*
X201311784Y-41799922D01*
X201311785Y-41799920D01*
X201314078Y-41795280D01*
X201381408Y-41573671D01*
X201411640Y-41344041D01*
X201412723Y-41299715D01*
X201413245Y-41278365D01*
X201413245Y-41278361D01*
X201413327Y-41275000D01*
X201402905Y-41148235D01*
X201394773Y-41049318D01*
X201394772Y-41049312D01*
X201394349Y-41044167D01*
X201354250Y-40884524D01*
X201339184Y-40824544D01*
X201339183Y-40824540D01*
X201337925Y-40819533D01*
X201333352Y-40809015D01*
X201247630Y-40611868D01*
X201247628Y-40611865D01*
X201245570Y-40607131D01*
X201119764Y-40412665D01*
X201114659Y-40407054D01*
X201044914Y-40330406D01*
X200963887Y-40241358D01*
X200959836Y-40238159D01*
X200959832Y-40238155D01*
X200786177Y-40101011D01*
X200786172Y-40101008D01*
X200782123Y-40097810D01*
X200777607Y-40095317D01*
X200777604Y-40095315D01*
X200583879Y-39988373D01*
X200583875Y-39988371D01*
X200579355Y-39985876D01*
X200574486Y-39984152D01*
X200574482Y-39984150D01*
X200365903Y-39910288D01*
X200365899Y-39910287D01*
X200361028Y-39908562D01*
X200355935Y-39907655D01*
X200355932Y-39907654D01*
X200138095Y-39868851D01*
X200138089Y-39868850D01*
X200133006Y-39867945D01*
X200060096Y-39867054D01*
X199906581Y-39865179D01*
X199906579Y-39865179D01*
X199901411Y-39865116D01*
X199672464Y-39900150D01*
X199452314Y-39972106D01*
X199447726Y-39974494D01*
X199447722Y-39974496D01*
X199333464Y-40033975D01*
X199246872Y-40079052D01*
X199242739Y-40082155D01*
X199242736Y-40082157D01*
X199086205Y-40199684D01*
X199061655Y-40218117D01*
X198901639Y-40385564D01*
X198898725Y-40389836D01*
X198898724Y-40389837D01*
X198885230Y-40409618D01*
X198771119Y-40576899D01*
X198673602Y-40786981D01*
X198611707Y-41010169D01*
X198587095Y-41240469D01*
X119111100Y-41240469D01*
X119111100Y-35076695D01*
X198507251Y-35076695D01*
X198507548Y-35081848D01*
X198507548Y-35081851D01*
X198516291Y-35233474D01*
X198520110Y-35299715D01*
X198521247Y-35304761D01*
X198521248Y-35304767D01*
X198542275Y-35398069D01*
X198569222Y-35517639D01*
X198607461Y-35611811D01*
X198643262Y-35699978D01*
X198653266Y-35724616D01*
X198693260Y-35789880D01*
X198767291Y-35910688D01*
X198769987Y-35915088D01*
X198916250Y-36083938D01*
X199088126Y-36226632D01*
X199281000Y-36339338D01*
X199489692Y-36419030D01*
X199494760Y-36420061D01*
X199494763Y-36420062D01*
X199602017Y-36441883D01*
X199708597Y-36463567D01*
X199713772Y-36463757D01*
X199713774Y-36463757D01*
X199926673Y-36471564D01*
X199926677Y-36471564D01*
X199931837Y-36471753D01*
X199936957Y-36471097D01*
X199936959Y-36471097D01*
X200148288Y-36444025D01*
X200148289Y-36444025D01*
X200153416Y-36443368D01*
X200158366Y-36441883D01*
X200362429Y-36380661D01*
X200362434Y-36380659D01*
X200367384Y-36379174D01*
X200567994Y-36280896D01*
X200749860Y-36151173D01*
X200758890Y-36142175D01*
X200836485Y-36064850D01*
X200908096Y-35993489D01*
X200922616Y-35973283D01*
X201038453Y-35812077D01*
X201039776Y-35813028D01*
X201086645Y-35769857D01*
X201156580Y-35757625D01*
X201222026Y-35785144D01*
X201249875Y-35816994D01*
X201309987Y-35915088D01*
X201456250Y-36083938D01*
X201628126Y-36226632D01*
X201821000Y-36339338D01*
X202029692Y-36419030D01*
X202034760Y-36420061D01*
X202034763Y-36420062D01*
X202142017Y-36441883D01*
X202248597Y-36463567D01*
X202253772Y-36463757D01*
X202253774Y-36463757D01*
X202466673Y-36471564D01*
X202466677Y-36471564D01*
X202471837Y-36471753D01*
X202476957Y-36471097D01*
X202476959Y-36471097D01*
X202688288Y-36444025D01*
X202688289Y-36444025D01*
X202693416Y-36443368D01*
X202698366Y-36441883D01*
X202902429Y-36380661D01*
X202902434Y-36380659D01*
X202907384Y-36379174D01*
X203107994Y-36280896D01*
X203289860Y-36151173D01*
X203298890Y-36142175D01*
X203376485Y-36064850D01*
X203448096Y-35993489D01*
X203462616Y-35973283D01*
X203575435Y-35816277D01*
X203578453Y-35812077D01*
X203589170Y-35790394D01*
X203675136Y-35616453D01*
X203675137Y-35616451D01*
X203677430Y-35611811D01*
X203739004Y-35409149D01*
X203740865Y-35403023D01*
X203740865Y-35403021D01*
X203742370Y-35398069D01*
X203771529Y-35176590D01*
X203773156Y-35110000D01*
X203754852Y-34887361D01*
X203700431Y-34670702D01*
X203611354Y-34465840D01*
X203558497Y-34384135D01*
X203492822Y-34282617D01*
X203492818Y-34282612D01*
X203490014Y-34278277D01*
X203339670Y-34113051D01*
X203335619Y-34109852D01*
X203335615Y-34109848D01*
X203168414Y-33977800D01*
X203168410Y-33977798D01*
X203164359Y-33974598D01*
X202968789Y-33866638D01*
X202963920Y-33864914D01*
X202963916Y-33864912D01*
X202763087Y-33793795D01*
X202763083Y-33793794D01*
X202758212Y-33792069D01*
X202753119Y-33791162D01*
X202753116Y-33791161D01*
X202543373Y-33753800D01*
X202543367Y-33753799D01*
X202538284Y-33752894D01*
X202464452Y-33751992D01*
X202320081Y-33750228D01*
X202320079Y-33750228D01*
X202314911Y-33750165D01*
X202094091Y-33783955D01*
X201881756Y-33853357D01*
X201851443Y-33869137D01*
X201691178Y-33952566D01*
X201683607Y-33956507D01*
X201679474Y-33959610D01*
X201679471Y-33959612D01*
X201509100Y-34087530D01*
X201504965Y-34090635D01*
X201350629Y-34252138D01*
X201243201Y-34409621D01*
X201188293Y-34454621D01*
X201117768Y-34462792D01*
X201054021Y-34431538D01*
X201033324Y-34407054D01*
X200952822Y-34282617D01*
X200952818Y-34282612D01*
X200950014Y-34278277D01*
X200799670Y-34113051D01*
X200795619Y-34109852D01*
X200795615Y-34109848D01*
X200628414Y-33977800D01*
X200628410Y-33977798D01*
X200624359Y-33974598D01*
X200428789Y-33866638D01*
X200423920Y-33864914D01*
X200423916Y-33864912D01*
X200223087Y-33793795D01*
X200223083Y-33793794D01*
X200218212Y-33792069D01*
X200213119Y-33791162D01*
X200213116Y-33791161D01*
X200003373Y-33753800D01*
X200003367Y-33753799D01*
X199998284Y-33752894D01*
X199924452Y-33751992D01*
X199780081Y-33750228D01*
X199780079Y-33750228D01*
X199774911Y-33750165D01*
X199554091Y-33783955D01*
X199341756Y-33853357D01*
X199311443Y-33869137D01*
X199151178Y-33952566D01*
X199143607Y-33956507D01*
X199139474Y-33959610D01*
X199139471Y-33959612D01*
X198969100Y-34087530D01*
X198964965Y-34090635D01*
X198810629Y-34252138D01*
X198807720Y-34256403D01*
X198807714Y-34256411D01*
X198741448Y-34353554D01*
X198684743Y-34436680D01*
X198651838Y-34507568D01*
X198600453Y-34618269D01*
X198590688Y-34639305D01*
X198530989Y-34854570D01*
X198507251Y-35076695D01*
X119111100Y-35076695D01*
X119111100Y-28550842D01*
X119111837Y-28537235D01*
X119115259Y-28505737D01*
X119115259Y-28505732D01*
X119115924Y-28499611D01*
X119111550Y-28449609D01*
X119111221Y-28444784D01*
X119111100Y-28442313D01*
X119111100Y-28439231D01*
X119106909Y-28396489D01*
X119106787Y-28395174D01*
X119099223Y-28308719D01*
X119098687Y-28302587D01*
X119097200Y-28297468D01*
X119096680Y-28292167D01*
X119069809Y-28203166D01*
X119069474Y-28202033D01*
X119045230Y-28118586D01*
X119045228Y-28118582D01*
X119043509Y-28112664D01*
X119041056Y-28107932D01*
X119039516Y-28102831D01*
X118995869Y-28020740D01*
X118995257Y-28019574D01*
X118955329Y-27942547D01*
X118952492Y-27937074D01*
X118949169Y-27932911D01*
X118946666Y-27928204D01*
X118887845Y-27856082D01*
X118887154Y-27855226D01*
X118855862Y-27816027D01*
X118853358Y-27813523D01*
X118852716Y-27812805D01*
X118849015Y-27808472D01*
X118821665Y-27774938D01*
X118786337Y-27745712D01*
X118777558Y-27737723D01*
X115763429Y-24723595D01*
X115729403Y-24661283D01*
X115734468Y-24590468D01*
X115777015Y-24533632D01*
X115843535Y-24508821D01*
X115852524Y-24508500D01*
X276365500Y-24508500D01*
X276433621Y-24528502D01*
X276480114Y-24582158D01*
X276491500Y-24634500D01*
X276491500Y-30323681D01*
X276471498Y-30391802D01*
X276417842Y-30438295D01*
X276347568Y-30448399D01*
X276282988Y-30418905D01*
X276244881Y-30360111D01*
X276243491Y-30355505D01*
X276243162Y-30354394D01*
X276234239Y-30323681D01*
X276217209Y-30265063D01*
X276214755Y-30260329D01*
X276213216Y-30255231D01*
X276169616Y-30173231D01*
X276169002Y-30172063D01*
X276129026Y-30094941D01*
X276129025Y-30094940D01*
X276126192Y-30089474D01*
X276122869Y-30085311D01*
X276120366Y-30080604D01*
X276061545Y-30008482D01*
X276060854Y-30007626D01*
X276029562Y-29968427D01*
X276027058Y-29965923D01*
X276026416Y-29965205D01*
X276022715Y-29960872D01*
X275995365Y-29927338D01*
X275981780Y-29916099D01*
X275960038Y-29898113D01*
X275951258Y-29890123D01*
X274891755Y-28830621D01*
X274882653Y-28820478D01*
X274862797Y-28795782D01*
X274858932Y-28790975D01*
X274820478Y-28758708D01*
X274816831Y-28755528D01*
X274815019Y-28753885D01*
X274812825Y-28751691D01*
X274779551Y-28724358D01*
X274778753Y-28723696D01*
X274707426Y-28663846D01*
X274702756Y-28661278D01*
X274698639Y-28657897D01*
X274640755Y-28626860D01*
X274616814Y-28614023D01*
X274615655Y-28613394D01*
X274539519Y-28571538D01*
X274539511Y-28571535D01*
X274534113Y-28568567D01*
X274529031Y-28566955D01*
X274524337Y-28564438D01*
X274435359Y-28537235D01*
X274434341Y-28536918D01*
X274345594Y-28508765D01*
X274340298Y-28508171D01*
X274335202Y-28506613D01*
X274242643Y-28497210D01*
X274241507Y-28497089D01*
X274207892Y-28493319D01*
X274195170Y-28491892D01*
X274195166Y-28491892D01*
X274191673Y-28491500D01*
X274188146Y-28491500D01*
X274187161Y-28491445D01*
X274181481Y-28490998D01*
X274152075Y-28488011D01*
X274144563Y-28487248D01*
X274144561Y-28487248D01*
X274138438Y-28486626D01*
X274096159Y-28490623D01*
X274092791Y-28490941D01*
X274080933Y-28491500D01*
X267759873Y-28491500D01*
X267746703Y-28490810D01*
X267713204Y-28487289D01*
X267713202Y-28487289D01*
X267707075Y-28486645D01*
X267656827Y-28491218D01*
X267652793Y-28491500D01*
X267650231Y-28491500D01*
X267647173Y-28491800D01*
X267647169Y-28491800D01*
X267605404Y-28495895D01*
X267604529Y-28495977D01*
X267592432Y-28497078D01*
X267510112Y-28504570D01*
X267506703Y-28505573D01*
X267503167Y-28505920D01*
X267412279Y-28533361D01*
X267411610Y-28533561D01*
X267320381Y-28560410D01*
X267317228Y-28562058D01*
X267313831Y-28563084D01*
X267308401Y-28565971D01*
X267308399Y-28565972D01*
X267297931Y-28571538D01*
X267229899Y-28607711D01*
X267229319Y-28608016D01*
X267145110Y-28652040D01*
X267142342Y-28654265D01*
X267139204Y-28655934D01*
X267129503Y-28663846D01*
X267065628Y-28715941D01*
X267064944Y-28716494D01*
X266995782Y-28772102D01*
X266995776Y-28772108D01*
X266990975Y-28775968D01*
X266988692Y-28778689D01*
X266985938Y-28780935D01*
X266982011Y-28785682D01*
X266982009Y-28785684D01*
X266925441Y-28854064D01*
X266924935Y-28854671D01*
X266863846Y-28927474D01*
X266862134Y-28930589D01*
X266859870Y-28933325D01*
X266854995Y-28942342D01*
X266814700Y-29016865D01*
X266814298Y-29017603D01*
X266768567Y-29100787D01*
X266767494Y-29104170D01*
X266765802Y-29107299D01*
X266759923Y-29126291D01*
X266737725Y-29198002D01*
X266737468Y-29198822D01*
X266708765Y-29289306D01*
X266708369Y-29292837D01*
X266707318Y-29296232D01*
X266697396Y-29390638D01*
X266697311Y-29391421D01*
X266691500Y-29443227D01*
X266691500Y-29445800D01*
X266691180Y-29449776D01*
X266686645Y-29492925D01*
X266687204Y-29499065D01*
X266690981Y-29540570D01*
X266691500Y-29551990D01*
X266691500Y-29873449D01*
X266671498Y-29941570D01*
X266617842Y-29988063D01*
X266552331Y-29998759D01*
X266437075Y-29986645D01*
X266354576Y-29994153D01*
X266246251Y-30004011D01*
X266246248Y-30004012D01*
X266240112Y-30004570D01*
X266234206Y-30006308D01*
X266234202Y-30006309D01*
X266129076Y-30037249D01*
X266050381Y-30060410D01*
X266044923Y-30063263D01*
X266044919Y-30063265D01*
X265949135Y-30113340D01*
X265875110Y-30152040D01*
X265870310Y-30155900D01*
X265865153Y-30159274D01*
X265863769Y-30157158D01*
X265808365Y-30180027D01*
X265738512Y-30167334D01*
X265728898Y-30161709D01*
X265726675Y-30159870D01*
X265552701Y-30065802D01*
X265363768Y-30007318D01*
X265357643Y-30006674D01*
X265357642Y-30006674D01*
X265173204Y-29987289D01*
X265173202Y-29987289D01*
X265167075Y-29986645D01*
X265084576Y-29994153D01*
X264976251Y-30004011D01*
X264976248Y-30004012D01*
X264970112Y-30004570D01*
X264964206Y-30006308D01*
X264964202Y-30006309D01*
X264859076Y-30037249D01*
X264780381Y-30060410D01*
X264774923Y-30063263D01*
X264774919Y-30063265D01*
X264679135Y-30113340D01*
X264605110Y-30152040D01*
X264600310Y-30155900D01*
X264595153Y-30159274D01*
X264593769Y-30157158D01*
X264538365Y-30180027D01*
X264468512Y-30167334D01*
X264458898Y-30161709D01*
X264456675Y-30159870D01*
X264282701Y-30065802D01*
X264093768Y-30007318D01*
X264087643Y-30006674D01*
X264087642Y-30006674D01*
X263903204Y-29987289D01*
X263903202Y-29987289D01*
X263897075Y-29986645D01*
X263814576Y-29994153D01*
X263706251Y-30004011D01*
X263706248Y-30004012D01*
X263700112Y-30004570D01*
X263694206Y-30006308D01*
X263694202Y-30006309D01*
X263589076Y-30037249D01*
X263510381Y-30060410D01*
X263504923Y-30063263D01*
X263504919Y-30063265D01*
X263409135Y-30113340D01*
X263335110Y-30152040D01*
X263330310Y-30155900D01*
X263325153Y-30159274D01*
X263323769Y-30157158D01*
X263268365Y-30180027D01*
X263198512Y-30167334D01*
X263188898Y-30161709D01*
X263186675Y-30159870D01*
X263012701Y-30065802D01*
X262823768Y-30007318D01*
X262817643Y-30006674D01*
X262817642Y-30006674D01*
X262633204Y-29987289D01*
X262633202Y-29987289D01*
X262627075Y-29986645D01*
X262495920Y-29998581D01*
X262426266Y-29984836D01*
X262375102Y-29935615D01*
X262358500Y-29873100D01*
X262358500Y-29559873D01*
X262359190Y-29546703D01*
X262362711Y-29513204D01*
X262362711Y-29513202D01*
X262363355Y-29507075D01*
X262358782Y-29456827D01*
X262358500Y-29452793D01*
X262358500Y-29450231D01*
X262357471Y-29439730D01*
X262354105Y-29405404D01*
X262354023Y-29404529D01*
X262345988Y-29316245D01*
X262345430Y-29310112D01*
X262344427Y-29306703D01*
X262344080Y-29303167D01*
X262316639Y-29212279D01*
X262316414Y-29211525D01*
X262312840Y-29199380D01*
X262289590Y-29120381D01*
X262287942Y-29117228D01*
X262286916Y-29113831D01*
X262242289Y-29029899D01*
X262241922Y-29029201D01*
X262236112Y-29018086D01*
X262197960Y-28945110D01*
X262195735Y-28942342D01*
X262194066Y-28939204D01*
X262179310Y-28921111D01*
X262134059Y-28865628D01*
X262133506Y-28864944D01*
X262077898Y-28795782D01*
X262077892Y-28795776D01*
X262074032Y-28790975D01*
X262071311Y-28788692D01*
X262069065Y-28785938D01*
X262063018Y-28780935D01*
X262036051Y-28758627D01*
X261995864Y-28725381D01*
X261995329Y-28724935D01*
X261922526Y-28663846D01*
X261919411Y-28662134D01*
X261916675Y-28659870D01*
X261833101Y-28614682D01*
X261832363Y-28614279D01*
X261831898Y-28614023D01*
X261749213Y-28568567D01*
X261745830Y-28567494D01*
X261742701Y-28565802D01*
X261651974Y-28537718D01*
X261651158Y-28537462D01*
X261650443Y-28537235D01*
X261636310Y-28532752D01*
X261566565Y-28510627D01*
X261566561Y-28510626D01*
X261560694Y-28508765D01*
X261557163Y-28508369D01*
X261553768Y-28507318D01*
X261459293Y-28497389D01*
X261458579Y-28497311D01*
X261406773Y-28491500D01*
X261404200Y-28491500D01*
X261400224Y-28491180D01*
X261363204Y-28487289D01*
X261363202Y-28487289D01*
X261357075Y-28486645D01*
X261309430Y-28490981D01*
X261298010Y-28491500D01*
X254465843Y-28491500D01*
X254452236Y-28490763D01*
X254420738Y-28487341D01*
X254420733Y-28487341D01*
X254414612Y-28486676D01*
X254388362Y-28488973D01*
X254364612Y-28491050D01*
X254359786Y-28491379D01*
X254357314Y-28491500D01*
X254354231Y-28491500D01*
X254342262Y-28492674D01*
X254311494Y-28495690D01*
X254310181Y-28495812D01*
X254266761Y-28499611D01*
X254217587Y-28503913D01*
X254212468Y-28505400D01*
X254207167Y-28505920D01*
X254118166Y-28532791D01*
X254117033Y-28533126D01*
X254033586Y-28557370D01*
X254033582Y-28557372D01*
X254027664Y-28559091D01*
X254022932Y-28561544D01*
X254017831Y-28563084D01*
X254012388Y-28565978D01*
X253935740Y-28606731D01*
X253934574Y-28607343D01*
X253857547Y-28647271D01*
X253852074Y-28650108D01*
X253847911Y-28653431D01*
X253843204Y-28655934D01*
X253771082Y-28714755D01*
X253770226Y-28715446D01*
X253731027Y-28746738D01*
X253728523Y-28749242D01*
X253727805Y-28749884D01*
X253723472Y-28753585D01*
X253689938Y-28780935D01*
X253686011Y-28785682D01*
X253686009Y-28785684D01*
X253660713Y-28816262D01*
X253652723Y-28825042D01*
X250614221Y-31863545D01*
X250604078Y-31872647D01*
X250574575Y-31896368D01*
X250570608Y-31901096D01*
X250542309Y-31934821D01*
X250539128Y-31938469D01*
X250537485Y-31940281D01*
X250535291Y-31942475D01*
X250507958Y-31975749D01*
X250507296Y-31976547D01*
X250447446Y-32047874D01*
X250444878Y-32052544D01*
X250441497Y-32056661D01*
X250419721Y-32097273D01*
X250397623Y-32138486D01*
X250396994Y-32139645D01*
X250355138Y-32215781D01*
X250355135Y-32215789D01*
X250352167Y-32221187D01*
X250350555Y-32226269D01*
X250348038Y-32230963D01*
X250320838Y-32319931D01*
X250320518Y-32320959D01*
X250292365Y-32409706D01*
X250291771Y-32415002D01*
X250290213Y-32420098D01*
X250289590Y-32426234D01*
X250280818Y-32512587D01*
X250280689Y-32513793D01*
X250275100Y-32563627D01*
X250275100Y-32567154D01*
X250275045Y-32568139D01*
X250274598Y-32573819D01*
X250270226Y-32616862D01*
X250270806Y-32622993D01*
X250274541Y-32662509D01*
X250275100Y-32674367D01*
X250275100Y-33515375D01*
X250255098Y-33583496D01*
X250238195Y-33604470D01*
X249459436Y-34383229D01*
X249397124Y-34417255D01*
X249326309Y-34412190D01*
X249269473Y-34369643D01*
X249264549Y-34362575D01*
X249219929Y-34293604D01*
X249210014Y-34278277D01*
X249059670Y-34113051D01*
X249055619Y-34109852D01*
X249055615Y-34109848D01*
X248888414Y-33977800D01*
X248888410Y-33977798D01*
X248884359Y-33974598D01*
X248688789Y-33866638D01*
X248683920Y-33864914D01*
X248683916Y-33864912D01*
X248483087Y-33793795D01*
X248483083Y-33793794D01*
X248478212Y-33792069D01*
X248473119Y-33791162D01*
X248473116Y-33791161D01*
X248263373Y-33753800D01*
X248263367Y-33753799D01*
X248258284Y-33752894D01*
X248184452Y-33751992D01*
X248040081Y-33750228D01*
X248040079Y-33750228D01*
X248034911Y-33750165D01*
X247814091Y-33783955D01*
X247601756Y-33853357D01*
X247571443Y-33869137D01*
X247411178Y-33952566D01*
X247403607Y-33956507D01*
X247399474Y-33959610D01*
X247399471Y-33959612D01*
X247229100Y-34087530D01*
X247224965Y-34090635D01*
X247070629Y-34252138D01*
X246963201Y-34409621D01*
X246908293Y-34454621D01*
X246837768Y-34462792D01*
X246774021Y-34431538D01*
X246753324Y-34407054D01*
X246672822Y-34282617D01*
X246672818Y-34282612D01*
X246670014Y-34278277D01*
X246519670Y-34113051D01*
X246515619Y-34109852D01*
X246515615Y-34109848D01*
X246348414Y-33977800D01*
X246348410Y-33977798D01*
X246344359Y-33974598D01*
X246148789Y-33866638D01*
X246143920Y-33864914D01*
X246143916Y-33864912D01*
X245943087Y-33793795D01*
X245943083Y-33793794D01*
X245938212Y-33792069D01*
X245933119Y-33791162D01*
X245933116Y-33791161D01*
X245723373Y-33753800D01*
X245723367Y-33753799D01*
X245718284Y-33752894D01*
X245644452Y-33751992D01*
X245500081Y-33750228D01*
X245500079Y-33750228D01*
X245494911Y-33750165D01*
X245274091Y-33783955D01*
X245061756Y-33853357D01*
X245031443Y-33869137D01*
X244871178Y-33952566D01*
X244863607Y-33956507D01*
X244859474Y-33959610D01*
X244859471Y-33959612D01*
X244689100Y-34087530D01*
X244684965Y-34090635D01*
X244530629Y-34252138D01*
X244527720Y-34256403D01*
X244527714Y-34256411D01*
X244461448Y-34353554D01*
X244404743Y-34436680D01*
X244371838Y-34507568D01*
X244320453Y-34618269D01*
X244310688Y-34639305D01*
X244250989Y-34854570D01*
X244227251Y-35076695D01*
X244227548Y-35081848D01*
X244227548Y-35081851D01*
X244236291Y-35233474D01*
X244240110Y-35299715D01*
X244241247Y-35304761D01*
X244241248Y-35304767D01*
X244262275Y-35398069D01*
X244289222Y-35517639D01*
X244327461Y-35611811D01*
X244363262Y-35699978D01*
X244373266Y-35724616D01*
X244413260Y-35789880D01*
X244487291Y-35910688D01*
X244489987Y-35915088D01*
X244636250Y-36083938D01*
X244808126Y-36226632D01*
X245001000Y-36339338D01*
X245209692Y-36419030D01*
X245214760Y-36420061D01*
X245214763Y-36420062D01*
X245322017Y-36441883D01*
X245428597Y-36463567D01*
X245433772Y-36463757D01*
X245433774Y-36463757D01*
X245646673Y-36471564D01*
X245646677Y-36471564D01*
X245651837Y-36471753D01*
X245656957Y-36471097D01*
X245656959Y-36471097D01*
X245868288Y-36444025D01*
X245868289Y-36444025D01*
X245873416Y-36443368D01*
X245878366Y-36441883D01*
X246082429Y-36380661D01*
X246082434Y-36380659D01*
X246087384Y-36379174D01*
X246287994Y-36280896D01*
X246469860Y-36151173D01*
X246478890Y-36142175D01*
X246556485Y-36064850D01*
X246628096Y-35993489D01*
X246642616Y-35973283D01*
X246758453Y-35812077D01*
X246759776Y-35813028D01*
X246806645Y-35769857D01*
X246876580Y-35757625D01*
X246942026Y-35785144D01*
X246969875Y-35816994D01*
X247029987Y-35915088D01*
X247176250Y-36083938D01*
X247348126Y-36226632D01*
X247352587Y-36229239D01*
X247352593Y-36229243D01*
X247361409Y-36234394D01*
X247376212Y-36243044D01*
X247424936Y-36294681D01*
X247438008Y-36364463D01*
X247411278Y-36430236D01*
X247401738Y-36440927D01*
X245803971Y-38038695D01*
X245741659Y-38072720D01*
X245714876Y-38075600D01*
X224034825Y-38075600D01*
X223966704Y-38055598D01*
X223920211Y-38001942D01*
X223910107Y-37931668D01*
X223939601Y-37867088D01*
X223945730Y-37860505D01*
X225304452Y-36501782D01*
X225366764Y-36467757D01*
X225377530Y-36465899D01*
X225491161Y-36451343D01*
X225548289Y-36444025D01*
X225548292Y-36444024D01*
X225553416Y-36443368D01*
X225558366Y-36441883D01*
X225762429Y-36380661D01*
X225762434Y-36380659D01*
X225767384Y-36379174D01*
X225967994Y-36280896D01*
X226149860Y-36151173D01*
X226158890Y-36142175D01*
X226236485Y-36064850D01*
X226308096Y-35993489D01*
X226322616Y-35973283D01*
X226438453Y-35812077D01*
X226439776Y-35813028D01*
X226486645Y-35769857D01*
X226556580Y-35757625D01*
X226622026Y-35785144D01*
X226649875Y-35816994D01*
X226709987Y-35915088D01*
X226856250Y-36083938D01*
X227028126Y-36226632D01*
X227221000Y-36339338D01*
X227429692Y-36419030D01*
X227434760Y-36420061D01*
X227434763Y-36420062D01*
X227542017Y-36441883D01*
X227648597Y-36463567D01*
X227653772Y-36463757D01*
X227653774Y-36463757D01*
X227866673Y-36471564D01*
X227866677Y-36471564D01*
X227871837Y-36471753D01*
X227876957Y-36471097D01*
X227876959Y-36471097D01*
X228088288Y-36444025D01*
X228088289Y-36444025D01*
X228093416Y-36443368D01*
X228098366Y-36441883D01*
X228302429Y-36380661D01*
X228302434Y-36380659D01*
X228307384Y-36379174D01*
X228507994Y-36280896D01*
X228689860Y-36151173D01*
X228698890Y-36142175D01*
X228776485Y-36064850D01*
X228848096Y-35993489D01*
X228862616Y-35973283D01*
X228975435Y-35816277D01*
X228978453Y-35812077D01*
X228989170Y-35790394D01*
X229075136Y-35616453D01*
X229075137Y-35616451D01*
X229077430Y-35611811D01*
X229139004Y-35409149D01*
X229140865Y-35403023D01*
X229140865Y-35403021D01*
X229142370Y-35398069D01*
X229171529Y-35176590D01*
X229173156Y-35110000D01*
X229170418Y-35076695D01*
X231527251Y-35076695D01*
X231527548Y-35081848D01*
X231527548Y-35081851D01*
X231536291Y-35233474D01*
X231540110Y-35299715D01*
X231541247Y-35304761D01*
X231541248Y-35304767D01*
X231562275Y-35398069D01*
X231589222Y-35517639D01*
X231627461Y-35611811D01*
X231663262Y-35699978D01*
X231673266Y-35724616D01*
X231713260Y-35789880D01*
X231787291Y-35910688D01*
X231789987Y-35915088D01*
X231936250Y-36083938D01*
X232108126Y-36226632D01*
X232301000Y-36339338D01*
X232509692Y-36419030D01*
X232514760Y-36420061D01*
X232514763Y-36420062D01*
X232622017Y-36441883D01*
X232728597Y-36463567D01*
X232733772Y-36463757D01*
X232733774Y-36463757D01*
X232946673Y-36471564D01*
X232946677Y-36471564D01*
X232951837Y-36471753D01*
X232956957Y-36471097D01*
X232956959Y-36471097D01*
X233168288Y-36444025D01*
X233168289Y-36444025D01*
X233173416Y-36443368D01*
X233178366Y-36441883D01*
X233382429Y-36380661D01*
X233382434Y-36380659D01*
X233387384Y-36379174D01*
X233587994Y-36280896D01*
X233769860Y-36151173D01*
X233778890Y-36142175D01*
X233856485Y-36064850D01*
X233928096Y-35993489D01*
X233942616Y-35973283D01*
X234058453Y-35812077D01*
X234059776Y-35813028D01*
X234106645Y-35769857D01*
X234176580Y-35757625D01*
X234242026Y-35785144D01*
X234269875Y-35816994D01*
X234329987Y-35915088D01*
X234476250Y-36083938D01*
X234648126Y-36226632D01*
X234841000Y-36339338D01*
X235049692Y-36419030D01*
X235054760Y-36420061D01*
X235054763Y-36420062D01*
X235162017Y-36441883D01*
X235268597Y-36463567D01*
X235273772Y-36463757D01*
X235273774Y-36463757D01*
X235486673Y-36471564D01*
X235486677Y-36471564D01*
X235491837Y-36471753D01*
X235496957Y-36471097D01*
X235496959Y-36471097D01*
X235708288Y-36444025D01*
X235708289Y-36444025D01*
X235713416Y-36443368D01*
X235718366Y-36441883D01*
X235922429Y-36380661D01*
X235922434Y-36380659D01*
X235927384Y-36379174D01*
X236127994Y-36280896D01*
X236309860Y-36151173D01*
X236318890Y-36142175D01*
X236396485Y-36064850D01*
X236468096Y-35993489D01*
X236482616Y-35973283D01*
X236598453Y-35812077D01*
X236599776Y-35813028D01*
X236646645Y-35769857D01*
X236716580Y-35757625D01*
X236782026Y-35785144D01*
X236809875Y-35816994D01*
X236869987Y-35915088D01*
X237016250Y-36083938D01*
X237188126Y-36226632D01*
X237381000Y-36339338D01*
X237589692Y-36419030D01*
X237594760Y-36420061D01*
X237594763Y-36420062D01*
X237702017Y-36441883D01*
X237808597Y-36463567D01*
X237813772Y-36463757D01*
X237813774Y-36463757D01*
X238026673Y-36471564D01*
X238026677Y-36471564D01*
X238031837Y-36471753D01*
X238036957Y-36471097D01*
X238036959Y-36471097D01*
X238248288Y-36444025D01*
X238248289Y-36444025D01*
X238253416Y-36443368D01*
X238258366Y-36441883D01*
X238462429Y-36380661D01*
X238462434Y-36380659D01*
X238467384Y-36379174D01*
X238667994Y-36280896D01*
X238849860Y-36151173D01*
X238858890Y-36142175D01*
X238936485Y-36064850D01*
X239008096Y-35993489D01*
X239022616Y-35973283D01*
X239138453Y-35812077D01*
X239139776Y-35813028D01*
X239186645Y-35769857D01*
X239256580Y-35757625D01*
X239322026Y-35785144D01*
X239349875Y-35816994D01*
X239409987Y-35915088D01*
X239556250Y-36083938D01*
X239728126Y-36226632D01*
X239921000Y-36339338D01*
X240129692Y-36419030D01*
X240134760Y-36420061D01*
X240134763Y-36420062D01*
X240242017Y-36441883D01*
X240348597Y-36463567D01*
X240353772Y-36463757D01*
X240353774Y-36463757D01*
X240566673Y-36471564D01*
X240566677Y-36471564D01*
X240571837Y-36471753D01*
X240576957Y-36471097D01*
X240576959Y-36471097D01*
X240788288Y-36444025D01*
X240788289Y-36444025D01*
X240793416Y-36443368D01*
X240798366Y-36441883D01*
X241002429Y-36380661D01*
X241002434Y-36380659D01*
X241007384Y-36379174D01*
X241207994Y-36280896D01*
X241389860Y-36151173D01*
X241398890Y-36142175D01*
X241476485Y-36064850D01*
X241548096Y-35993489D01*
X241562616Y-35973283D01*
X241675435Y-35816277D01*
X241678453Y-35812077D01*
X241689170Y-35790394D01*
X241775136Y-35616453D01*
X241775137Y-35616451D01*
X241777430Y-35611811D01*
X241839004Y-35409149D01*
X241840865Y-35403023D01*
X241840865Y-35403021D01*
X241842370Y-35398069D01*
X241871529Y-35176590D01*
X241873156Y-35110000D01*
X241854852Y-34887361D01*
X241800431Y-34670702D01*
X241711354Y-34465840D01*
X241658497Y-34384135D01*
X241592822Y-34282617D01*
X241592818Y-34282612D01*
X241590014Y-34278277D01*
X241439670Y-34113051D01*
X241435619Y-34109852D01*
X241435615Y-34109848D01*
X241268414Y-33977800D01*
X241268410Y-33977798D01*
X241264359Y-33974598D01*
X241068789Y-33866638D01*
X241063920Y-33864914D01*
X241063916Y-33864912D01*
X240863087Y-33793795D01*
X240863083Y-33793794D01*
X240858212Y-33792069D01*
X240853119Y-33791162D01*
X240853116Y-33791161D01*
X240643373Y-33753800D01*
X240643367Y-33753799D01*
X240638284Y-33752894D01*
X240564452Y-33751992D01*
X240420081Y-33750228D01*
X240420079Y-33750228D01*
X240414911Y-33750165D01*
X240194091Y-33783955D01*
X239981756Y-33853357D01*
X239951443Y-33869137D01*
X239791178Y-33952566D01*
X239783607Y-33956507D01*
X239779474Y-33959610D01*
X239779471Y-33959612D01*
X239609100Y-34087530D01*
X239604965Y-34090635D01*
X239450629Y-34252138D01*
X239343201Y-34409621D01*
X239288293Y-34454621D01*
X239217768Y-34462792D01*
X239154021Y-34431538D01*
X239133324Y-34407054D01*
X239052822Y-34282617D01*
X239052818Y-34282612D01*
X239050014Y-34278277D01*
X238899670Y-34113051D01*
X238895619Y-34109852D01*
X238895615Y-34109848D01*
X238728414Y-33977800D01*
X238728410Y-33977798D01*
X238724359Y-33974598D01*
X238528789Y-33866638D01*
X238523920Y-33864914D01*
X238523916Y-33864912D01*
X238323087Y-33793795D01*
X238323083Y-33793794D01*
X238318212Y-33792069D01*
X238313119Y-33791162D01*
X238313116Y-33791161D01*
X238103373Y-33753800D01*
X238103367Y-33753799D01*
X238098284Y-33752894D01*
X238024452Y-33751992D01*
X237880081Y-33750228D01*
X237880079Y-33750228D01*
X237874911Y-33750165D01*
X237654091Y-33783955D01*
X237441756Y-33853357D01*
X237411443Y-33869137D01*
X237251178Y-33952566D01*
X237243607Y-33956507D01*
X237239474Y-33959610D01*
X237239471Y-33959612D01*
X237069100Y-34087530D01*
X237064965Y-34090635D01*
X236910629Y-34252138D01*
X236803201Y-34409621D01*
X236748293Y-34454621D01*
X236677768Y-34462792D01*
X236614021Y-34431538D01*
X236593324Y-34407054D01*
X236512822Y-34282617D01*
X236512818Y-34282612D01*
X236510014Y-34278277D01*
X236359670Y-34113051D01*
X236355619Y-34109852D01*
X236355615Y-34109848D01*
X236188414Y-33977800D01*
X236188410Y-33977798D01*
X236184359Y-33974598D01*
X235988789Y-33866638D01*
X235983920Y-33864914D01*
X235983916Y-33864912D01*
X235783087Y-33793795D01*
X235783083Y-33793794D01*
X235778212Y-33792069D01*
X235773119Y-33791162D01*
X235773116Y-33791161D01*
X235563373Y-33753800D01*
X235563367Y-33753799D01*
X235558284Y-33752894D01*
X235484452Y-33751992D01*
X235340081Y-33750228D01*
X235340079Y-33750228D01*
X235334911Y-33750165D01*
X235114091Y-33783955D01*
X234901756Y-33853357D01*
X234871443Y-33869137D01*
X234711178Y-33952566D01*
X234703607Y-33956507D01*
X234699474Y-33959610D01*
X234699471Y-33959612D01*
X234529100Y-34087530D01*
X234524965Y-34090635D01*
X234370629Y-34252138D01*
X234263201Y-34409621D01*
X234208293Y-34454621D01*
X234137768Y-34462792D01*
X234074021Y-34431538D01*
X234053324Y-34407054D01*
X233972822Y-34282617D01*
X233972818Y-34282612D01*
X233970014Y-34278277D01*
X233819670Y-34113051D01*
X233815619Y-34109852D01*
X233815615Y-34109848D01*
X233648414Y-33977800D01*
X233648410Y-33977798D01*
X233644359Y-33974598D01*
X233448789Y-33866638D01*
X233443920Y-33864914D01*
X233443916Y-33864912D01*
X233243087Y-33793795D01*
X233243083Y-33793794D01*
X233238212Y-33792069D01*
X233233119Y-33791162D01*
X233233116Y-33791161D01*
X233023373Y-33753800D01*
X233023367Y-33753799D01*
X233018284Y-33752894D01*
X232944452Y-33751992D01*
X232800081Y-33750228D01*
X232800079Y-33750228D01*
X232794911Y-33750165D01*
X232574091Y-33783955D01*
X232361756Y-33853357D01*
X232331443Y-33869137D01*
X232171178Y-33952566D01*
X232163607Y-33956507D01*
X232159474Y-33959610D01*
X232159471Y-33959612D01*
X231989100Y-34087530D01*
X231984965Y-34090635D01*
X231830629Y-34252138D01*
X231827720Y-34256403D01*
X231827714Y-34256411D01*
X231761448Y-34353554D01*
X231704743Y-34436680D01*
X231671838Y-34507568D01*
X231620453Y-34618269D01*
X231610688Y-34639305D01*
X231550989Y-34854570D01*
X231527251Y-35076695D01*
X229170418Y-35076695D01*
X229154852Y-34887361D01*
X229100431Y-34670702D01*
X229011354Y-34465840D01*
X228958497Y-34384135D01*
X228892822Y-34282617D01*
X228892818Y-34282612D01*
X228890014Y-34278277D01*
X228739670Y-34113051D01*
X228735619Y-34109852D01*
X228735615Y-34109848D01*
X228568414Y-33977800D01*
X228568410Y-33977798D01*
X228564359Y-33974598D01*
X228368789Y-33866638D01*
X228363920Y-33864914D01*
X228363916Y-33864912D01*
X228163087Y-33793795D01*
X228163083Y-33793794D01*
X228158212Y-33792069D01*
X228153119Y-33791162D01*
X228153116Y-33791161D01*
X227943373Y-33753800D01*
X227943367Y-33753799D01*
X227938284Y-33752894D01*
X227864452Y-33751992D01*
X227720081Y-33750228D01*
X227720079Y-33750228D01*
X227714911Y-33750165D01*
X227494091Y-33783955D01*
X227281756Y-33853357D01*
X227251443Y-33869137D01*
X227091178Y-33952566D01*
X227083607Y-33956507D01*
X227079474Y-33959610D01*
X227079471Y-33959612D01*
X226909100Y-34087530D01*
X226904965Y-34090635D01*
X226750629Y-34252138D01*
X226643201Y-34409621D01*
X226588293Y-34454621D01*
X226517768Y-34462792D01*
X226454021Y-34431538D01*
X226433324Y-34407054D01*
X226352822Y-34282617D01*
X226352818Y-34282612D01*
X226350014Y-34278277D01*
X226199670Y-34113051D01*
X226195619Y-34109852D01*
X226195615Y-34109848D01*
X226028414Y-33977800D01*
X226028410Y-33977798D01*
X226024359Y-33974598D01*
X225828789Y-33866638D01*
X225823920Y-33864914D01*
X225823916Y-33864912D01*
X225623087Y-33793795D01*
X225623083Y-33793794D01*
X225618212Y-33792069D01*
X225613119Y-33791162D01*
X225613116Y-33791161D01*
X225403373Y-33753800D01*
X225403367Y-33753799D01*
X225398284Y-33752894D01*
X225324452Y-33751992D01*
X225180081Y-33750228D01*
X225180079Y-33750228D01*
X225174911Y-33750165D01*
X224954091Y-33783955D01*
X224741756Y-33853357D01*
X224711443Y-33869137D01*
X224551178Y-33952566D01*
X224543607Y-33956507D01*
X224539474Y-33959610D01*
X224539471Y-33959612D01*
X224369100Y-34087530D01*
X224364965Y-34090635D01*
X224210629Y-34252138D01*
X224103201Y-34409621D01*
X224048293Y-34454621D01*
X223977768Y-34462792D01*
X223914021Y-34431538D01*
X223893324Y-34407054D01*
X223812822Y-34282617D01*
X223812818Y-34282612D01*
X223810014Y-34278277D01*
X223659670Y-34113051D01*
X223655619Y-34109852D01*
X223655615Y-34109848D01*
X223488414Y-33977800D01*
X223488410Y-33977798D01*
X223484359Y-33974598D01*
X223288789Y-33866638D01*
X223283920Y-33864914D01*
X223283916Y-33864912D01*
X223083087Y-33793795D01*
X223083083Y-33793794D01*
X223078212Y-33792069D01*
X223073119Y-33791162D01*
X223073116Y-33791161D01*
X222863373Y-33753800D01*
X222863367Y-33753799D01*
X222858284Y-33752894D01*
X222784452Y-33751992D01*
X222640081Y-33750228D01*
X222640079Y-33750228D01*
X222634911Y-33750165D01*
X222414091Y-33783955D01*
X222201756Y-33853357D01*
X222171443Y-33869137D01*
X222011178Y-33952566D01*
X222003607Y-33956507D01*
X221999474Y-33959610D01*
X221999471Y-33959612D01*
X221829100Y-34087530D01*
X221824965Y-34090635D01*
X221670629Y-34252138D01*
X221563201Y-34409621D01*
X221508293Y-34454621D01*
X221437768Y-34462792D01*
X221374021Y-34431538D01*
X221353324Y-34407054D01*
X221272822Y-34282617D01*
X221272818Y-34282612D01*
X221270014Y-34278277D01*
X221119670Y-34113051D01*
X221115619Y-34109852D01*
X221115615Y-34109848D01*
X220948414Y-33977800D01*
X220948410Y-33977798D01*
X220944359Y-33974598D01*
X220748789Y-33866638D01*
X220743920Y-33864914D01*
X220743916Y-33864912D01*
X220543087Y-33793795D01*
X220543083Y-33793794D01*
X220538212Y-33792069D01*
X220533119Y-33791162D01*
X220533116Y-33791161D01*
X220323373Y-33753800D01*
X220323367Y-33753799D01*
X220318284Y-33752894D01*
X220244452Y-33751992D01*
X220100081Y-33750228D01*
X220100079Y-33750228D01*
X220094911Y-33750165D01*
X219874091Y-33783955D01*
X219661756Y-33853357D01*
X219631443Y-33869137D01*
X219471178Y-33952566D01*
X219463607Y-33956507D01*
X219459474Y-33959610D01*
X219459471Y-33959612D01*
X219289100Y-34087530D01*
X219284965Y-34090635D01*
X219130629Y-34252138D01*
X219127720Y-34256403D01*
X219127714Y-34256411D01*
X219061448Y-34353554D01*
X219004743Y-34436680D01*
X218971838Y-34507568D01*
X218920453Y-34618269D01*
X218910688Y-34639305D01*
X218850989Y-34854570D01*
X218827251Y-35076695D01*
X218827548Y-35081848D01*
X218827548Y-35081851D01*
X218836291Y-35233474D01*
X218840110Y-35299715D01*
X218841247Y-35304761D01*
X218841248Y-35304767D01*
X218862275Y-35398069D01*
X218889222Y-35517639D01*
X218927461Y-35611811D01*
X218963262Y-35699978D01*
X218973266Y-35724616D01*
X219013260Y-35789880D01*
X219087291Y-35910688D01*
X219089987Y-35915088D01*
X219221568Y-36066988D01*
X219221580Y-36067002D01*
X219251063Y-36131588D01*
X219240949Y-36201860D01*
X219194447Y-36255509D01*
X219126343Y-36275500D01*
X216170042Y-36275500D01*
X216101921Y-36255498D01*
X216055428Y-36201842D01*
X216045324Y-36131568D01*
X216074818Y-36066988D01*
X216081103Y-36060249D01*
X216144430Y-35997144D01*
X216144440Y-35997132D01*
X216148096Y-35993489D01*
X216162616Y-35973283D01*
X216275435Y-35816277D01*
X216278453Y-35812077D01*
X216289170Y-35790394D01*
X216375136Y-35616453D01*
X216375137Y-35616451D01*
X216377430Y-35611811D01*
X216439004Y-35409149D01*
X216440865Y-35403023D01*
X216440865Y-35403021D01*
X216442370Y-35398069D01*
X216471529Y-35176590D01*
X216473156Y-35110000D01*
X216454852Y-34887361D01*
X216400431Y-34670702D01*
X216311354Y-34465840D01*
X216258497Y-34384135D01*
X216192822Y-34282617D01*
X216192818Y-34282612D01*
X216190014Y-34278277D01*
X216039670Y-34113051D01*
X216035619Y-34109852D01*
X216035615Y-34109848D01*
X215868414Y-33977800D01*
X215868410Y-33977798D01*
X215864359Y-33974598D01*
X215668789Y-33866638D01*
X215663920Y-33864914D01*
X215663916Y-33864912D01*
X215463087Y-33793795D01*
X215463083Y-33793794D01*
X215458212Y-33792069D01*
X215453119Y-33791162D01*
X215453116Y-33791161D01*
X215243373Y-33753800D01*
X215243367Y-33753799D01*
X215238284Y-33752894D01*
X215164452Y-33751992D01*
X215020081Y-33750228D01*
X215020079Y-33750228D01*
X215014911Y-33750165D01*
X214794091Y-33783955D01*
X214581756Y-33853357D01*
X214551443Y-33869137D01*
X214391178Y-33952566D01*
X214383607Y-33956507D01*
X214379474Y-33959610D01*
X214379471Y-33959612D01*
X214209100Y-34087530D01*
X214204965Y-34090635D01*
X214050629Y-34252138D01*
X213943201Y-34409621D01*
X213888293Y-34454621D01*
X213817768Y-34462792D01*
X213754021Y-34431538D01*
X213733324Y-34407054D01*
X213652822Y-34282617D01*
X213652818Y-34282612D01*
X213650014Y-34278277D01*
X213499670Y-34113051D01*
X213495619Y-34109852D01*
X213495615Y-34109848D01*
X213328414Y-33977800D01*
X213328410Y-33977798D01*
X213324359Y-33974598D01*
X213128789Y-33866638D01*
X213123920Y-33864914D01*
X213123916Y-33864912D01*
X212923087Y-33793795D01*
X212923083Y-33793794D01*
X212918212Y-33792069D01*
X212913119Y-33791162D01*
X212913116Y-33791161D01*
X212703373Y-33753800D01*
X212703367Y-33753799D01*
X212698284Y-33752894D01*
X212624452Y-33751992D01*
X212480081Y-33750228D01*
X212480079Y-33750228D01*
X212474911Y-33750165D01*
X212254091Y-33783955D01*
X212041756Y-33853357D01*
X212011443Y-33869137D01*
X211851178Y-33952566D01*
X211843607Y-33956507D01*
X211839474Y-33959610D01*
X211839471Y-33959612D01*
X211669100Y-34087530D01*
X211664965Y-34090635D01*
X211510629Y-34252138D01*
X211403201Y-34409621D01*
X211348293Y-34454621D01*
X211277768Y-34462792D01*
X211214021Y-34431538D01*
X211193324Y-34407054D01*
X211112822Y-34282617D01*
X211112818Y-34282612D01*
X211110014Y-34278277D01*
X210959670Y-34113051D01*
X210955619Y-34109852D01*
X210955615Y-34109848D01*
X210788414Y-33977800D01*
X210788410Y-33977798D01*
X210784359Y-33974598D01*
X210588789Y-33866638D01*
X210583920Y-33864914D01*
X210583916Y-33864912D01*
X210383087Y-33793795D01*
X210383083Y-33793794D01*
X210378212Y-33792069D01*
X210373119Y-33791162D01*
X210373116Y-33791161D01*
X210163373Y-33753800D01*
X210163367Y-33753799D01*
X210158284Y-33752894D01*
X210084452Y-33751992D01*
X209940081Y-33750228D01*
X209940079Y-33750228D01*
X209934911Y-33750165D01*
X209714091Y-33783955D01*
X209501756Y-33853357D01*
X209471443Y-33869137D01*
X209311178Y-33952566D01*
X209303607Y-33956507D01*
X209299474Y-33959610D01*
X209299471Y-33959612D01*
X209129100Y-34087530D01*
X209124965Y-34090635D01*
X208970629Y-34252138D01*
X208863201Y-34409621D01*
X208808293Y-34454621D01*
X208737768Y-34462792D01*
X208674021Y-34431538D01*
X208653324Y-34407054D01*
X208572822Y-34282617D01*
X208572818Y-34282612D01*
X208570014Y-34278277D01*
X208419670Y-34113051D01*
X208415619Y-34109852D01*
X208415615Y-34109848D01*
X208248414Y-33977800D01*
X208248410Y-33977798D01*
X208244359Y-33974598D01*
X208048789Y-33866638D01*
X208043920Y-33864914D01*
X208043916Y-33864912D01*
X207843087Y-33793795D01*
X207843083Y-33793794D01*
X207838212Y-33792069D01*
X207833119Y-33791162D01*
X207833116Y-33791161D01*
X207623373Y-33753800D01*
X207623367Y-33753799D01*
X207618284Y-33752894D01*
X207544452Y-33751992D01*
X207400081Y-33750228D01*
X207400079Y-33750228D01*
X207394911Y-33750165D01*
X207174091Y-33783955D01*
X206961756Y-33853357D01*
X206931443Y-33869137D01*
X206771178Y-33952566D01*
X206763607Y-33956507D01*
X206759474Y-33959610D01*
X206759471Y-33959612D01*
X206589100Y-34087530D01*
X206584965Y-34090635D01*
X206430629Y-34252138D01*
X206427720Y-34256403D01*
X206427714Y-34256411D01*
X206361448Y-34353554D01*
X206304743Y-34436680D01*
X206271838Y-34507568D01*
X206220453Y-34618269D01*
X206210688Y-34639305D01*
X206150989Y-34854570D01*
X206127251Y-35076695D01*
X206127548Y-35081848D01*
X206127548Y-35081851D01*
X206136291Y-35233474D01*
X206140110Y-35299715D01*
X206141247Y-35304761D01*
X206141248Y-35304767D01*
X206162275Y-35398069D01*
X206189222Y-35517639D01*
X206227461Y-35611811D01*
X206263262Y-35699978D01*
X206273266Y-35724616D01*
X206313260Y-35789880D01*
X206387291Y-35910688D01*
X206389987Y-35915088D01*
X206536250Y-36083938D01*
X206708126Y-36226632D01*
X206901000Y-36339338D01*
X207109692Y-36419030D01*
X207114760Y-36420061D01*
X207114763Y-36420062D01*
X207222017Y-36441883D01*
X207328597Y-36463567D01*
X207333772Y-36463757D01*
X207333774Y-36463757D01*
X207546673Y-36471564D01*
X207546677Y-36471564D01*
X207551837Y-36471753D01*
X207556957Y-36471097D01*
X207556959Y-36471097D01*
X207768288Y-36444025D01*
X207768289Y-36444025D01*
X207773416Y-36443368D01*
X207778366Y-36441883D01*
X207982429Y-36380661D01*
X207982434Y-36380659D01*
X207987384Y-36379174D01*
X208187994Y-36280896D01*
X208369860Y-36151173D01*
X208378890Y-36142175D01*
X208456485Y-36064850D01*
X208528096Y-35993489D01*
X208542616Y-35973283D01*
X208658453Y-35812077D01*
X208659776Y-35813028D01*
X208706645Y-35769857D01*
X208776580Y-35757625D01*
X208842026Y-35785144D01*
X208869875Y-35816994D01*
X208929987Y-35915088D01*
X209076250Y-36083938D01*
X209248126Y-36226632D01*
X209307498Y-36261326D01*
X209424884Y-36329921D01*
X209473608Y-36381560D01*
X209486679Y-36451343D01*
X209459948Y-36517115D01*
X209446475Y-36531391D01*
X209444639Y-36533227D01*
X209443911Y-36533878D01*
X209439561Y-36537594D01*
X209406038Y-36564935D01*
X209402115Y-36569677D01*
X209402113Y-36569679D01*
X209376803Y-36600273D01*
X209368813Y-36609053D01*
X204493187Y-41484679D01*
X204430875Y-41518705D01*
X204360060Y-41513640D01*
X204303224Y-41471093D01*
X204278571Y-41406565D01*
X204274594Y-41361106D01*
X204274115Y-41355629D01*
X204217120Y-41142924D01*
X204154811Y-41009301D01*
X204126382Y-40948334D01*
X204126379Y-40948329D01*
X204124056Y-40943347D01*
X204076574Y-40875535D01*
X204000908Y-40767473D01*
X204000906Y-40767470D01*
X203997749Y-40762962D01*
X203842038Y-40607251D01*
X203835672Y-40602793D01*
X203681599Y-40494910D01*
X203661654Y-40480944D01*
X203462076Y-40387880D01*
X203249371Y-40330885D01*
X203030000Y-40311693D01*
X202810629Y-40330885D01*
X202597924Y-40387880D01*
X202504562Y-40431415D01*
X202403334Y-40478618D01*
X202403329Y-40478621D01*
X202398347Y-40480944D01*
X202393840Y-40484100D01*
X202393838Y-40484101D01*
X202222473Y-40604092D01*
X202222470Y-40604094D01*
X202217962Y-40607251D01*
X202062251Y-40762962D01*
X202059094Y-40767470D01*
X202059092Y-40767473D01*
X201983426Y-40875535D01*
X201935944Y-40943347D01*
X201933621Y-40948329D01*
X201933618Y-40948334D01*
X201905189Y-41009301D01*
X201842880Y-41142924D01*
X201785885Y-41355629D01*
X201766693Y-41575000D01*
X201785885Y-41794371D01*
X201842880Y-42007076D01*
X201874098Y-42074023D01*
X201933618Y-42201666D01*
X201933621Y-42201671D01*
X201935944Y-42206653D01*
X201939100Y-42211160D01*
X201939101Y-42211162D01*
X202059068Y-42382492D01*
X202062251Y-42387038D01*
X202217962Y-42542749D01*
X202222471Y-42545906D01*
X202222473Y-42545908D01*
X202270079Y-42579242D01*
X202398346Y-42669056D01*
X202597924Y-42762120D01*
X202810629Y-42819115D01*
X202861566Y-42823571D01*
X202927683Y-42849434D01*
X202969323Y-42906937D01*
X202973264Y-42977825D01*
X202939679Y-43038187D01*
X202050571Y-43927295D01*
X201988259Y-43961321D01*
X201961476Y-43964200D01*
X199516150Y-43964200D01*
X199502542Y-43963463D01*
X199495067Y-43962651D01*
X199464912Y-43959375D01*
X199414870Y-43963753D01*
X199410088Y-43964079D01*
X199407610Y-43964200D01*
X199404531Y-43964200D01*
X199401477Y-43964499D01*
X199401466Y-43964500D01*
X199361829Y-43968387D01*
X199360515Y-43968509D01*
X199324988Y-43971617D01*
X199267887Y-43976613D01*
X199262768Y-43978100D01*
X199257467Y-43978620D01*
X199168466Y-44005491D01*
X199167333Y-44005826D01*
X199083886Y-44030070D01*
X199083882Y-44030072D01*
X199077964Y-44031791D01*
X199073232Y-44034244D01*
X199068131Y-44035784D01*
X199062688Y-44038678D01*
X198986040Y-44079431D01*
X198984874Y-44080043D01*
X198933873Y-44106480D01*
X198902374Y-44122808D01*
X198898211Y-44126131D01*
X198893504Y-44128634D01*
X198888729Y-44132528D01*
X198888728Y-44132529D01*
X198821402Y-44187439D01*
X198820375Y-44188267D01*
X198784092Y-44217231D01*
X198784087Y-44217236D01*
X198781328Y-44219438D01*
X198778827Y-44221939D01*
X198778109Y-44222581D01*
X198773761Y-44226294D01*
X198740238Y-44253635D01*
X198736315Y-44258377D01*
X198736313Y-44258379D01*
X198711003Y-44288973D01*
X198703013Y-44297753D01*
X197620921Y-45379845D01*
X197610778Y-45388947D01*
X197587330Y-45407800D01*
X197581275Y-45412668D01*
X197577308Y-45417396D01*
X197549009Y-45451121D01*
X197545828Y-45454769D01*
X197544185Y-45456581D01*
X197541991Y-45458775D01*
X197514658Y-45492049D01*
X197513996Y-45492847D01*
X197454146Y-45564174D01*
X197451578Y-45568844D01*
X197448197Y-45572961D01*
X197423390Y-45619226D01*
X197404323Y-45654786D01*
X197403694Y-45655945D01*
X197361838Y-45732081D01*
X197361835Y-45732089D01*
X197358867Y-45737487D01*
X197357255Y-45742569D01*
X197354738Y-45747263D01*
X197327538Y-45836231D01*
X197327218Y-45837259D01*
X197299065Y-45926006D01*
X197298471Y-45931302D01*
X197296913Y-45936398D01*
X197288120Y-46022964D01*
X197287518Y-46028887D01*
X197287389Y-46030093D01*
X197281800Y-46079927D01*
X197281800Y-46083454D01*
X197281745Y-46084439D01*
X197281298Y-46090119D01*
X197276926Y-46133162D01*
X197280923Y-46175441D01*
X197281241Y-46178809D01*
X197281800Y-46190667D01*
X197281800Y-53539457D01*
X197281063Y-53553064D01*
X197276976Y-53590688D01*
X197277513Y-53596823D01*
X197281350Y-53640688D01*
X197281679Y-53645514D01*
X197281800Y-53647986D01*
X197281800Y-53651069D01*
X197282601Y-53659239D01*
X197285990Y-53693806D01*
X197286112Y-53695119D01*
X197294213Y-53787713D01*
X197295700Y-53792832D01*
X197296220Y-53798133D01*
X197323091Y-53887134D01*
X197323426Y-53888267D01*
X197338213Y-53939161D01*
X197349391Y-53977636D01*
X197351844Y-53982368D01*
X197353384Y-53987469D01*
X197356278Y-53992912D01*
X197397031Y-54069560D01*
X197397643Y-54070726D01*
X197427531Y-54128385D01*
X197440408Y-54153226D01*
X197443731Y-54157389D01*
X197446234Y-54162096D01*
X197505055Y-54234218D01*
X197505746Y-54235074D01*
X197537038Y-54274273D01*
X197539542Y-54276777D01*
X197540184Y-54277495D01*
X197543885Y-54281828D01*
X197571235Y-54315362D01*
X197575982Y-54319289D01*
X197575984Y-54319291D01*
X197606562Y-54344587D01*
X197615342Y-54352577D01*
X210202145Y-66939379D01*
X210211247Y-66949522D01*
X210234968Y-66979025D01*
X210273456Y-67011320D01*
X210277075Y-67014478D01*
X210278890Y-67016124D01*
X210281075Y-67018309D01*
X210283455Y-67020264D01*
X210283465Y-67020273D01*
X210314236Y-67045549D01*
X210315251Y-67046391D01*
X210386474Y-67106154D01*
X210391148Y-67108723D01*
X210395261Y-67112102D01*
X210400698Y-67115017D01*
X210400699Y-67115018D01*
X210477047Y-67155955D01*
X210478177Y-67156568D01*
X210559787Y-67201433D01*
X210564869Y-67203045D01*
X210569563Y-67205562D01*
X210658531Y-67232762D01*
X210659559Y-67233082D01*
X210748306Y-67261235D01*
X210753602Y-67261829D01*
X210758698Y-67263387D01*
X210851257Y-67272790D01*
X210852393Y-67272911D01*
X210886008Y-67276681D01*
X210898730Y-67278108D01*
X210898734Y-67278108D01*
X210902227Y-67278500D01*
X210905754Y-67278500D01*
X210906739Y-67278555D01*
X210912419Y-67279002D01*
X210941825Y-67281989D01*
X210949337Y-67282752D01*
X210949339Y-67282752D01*
X210955462Y-67283374D01*
X211001108Y-67279059D01*
X211012967Y-67278500D01*
X221233991Y-67278500D01*
X221302112Y-67298502D01*
X221348605Y-67352158D01*
X221350903Y-67357694D01*
X221351232Y-67358296D01*
X221354385Y-67366705D01*
X221441739Y-67483261D01*
X221558295Y-67570615D01*
X221694684Y-67621745D01*
X221756866Y-67628500D01*
X223553134Y-67628500D01*
X223615316Y-67621745D01*
X223751705Y-67570615D01*
X223868261Y-67483261D01*
X223955615Y-67366705D01*
X224006745Y-67230316D01*
X224013500Y-67168134D01*
X224013500Y-65371866D01*
X224006745Y-65309684D01*
X223955615Y-65173295D01*
X223868261Y-65056739D01*
X223751705Y-64969385D01*
X223615316Y-64918255D01*
X223553134Y-64911500D01*
X221756866Y-64911500D01*
X221694684Y-64918255D01*
X221558295Y-64969385D01*
X221441739Y-65056739D01*
X221354385Y-65173295D01*
X221351233Y-65181703D01*
X221346923Y-65189575D01*
X221345259Y-65188664D01*
X221309337Y-65236490D01*
X221242776Y-65261193D01*
X221233991Y-65261500D01*
X211428925Y-65261500D01*
X211360804Y-65241498D01*
X211339830Y-65224595D01*
X205887543Y-59772308D01*
X200429656Y-54314422D01*
X200395630Y-54252110D01*
X200400695Y-54181295D01*
X200443242Y-54124459D01*
X200463315Y-54112178D01*
X200567994Y-54060896D01*
X200749860Y-53931173D01*
X200795854Y-53885340D01*
X200883366Y-53798133D01*
X200908096Y-53773489D01*
X200933536Y-53738086D01*
X201038453Y-53592077D01*
X201039776Y-53593028D01*
X201086645Y-53549857D01*
X201156580Y-53537625D01*
X201222026Y-53565144D01*
X201249875Y-53596994D01*
X201259144Y-53612120D01*
X201309987Y-53695088D01*
X201456250Y-53863938D01*
X201593200Y-53977636D01*
X201621857Y-54001427D01*
X201628126Y-54006632D01*
X201821000Y-54119338D01*
X201825825Y-54121180D01*
X201825826Y-54121181D01*
X201865199Y-54136216D01*
X202029692Y-54199030D01*
X202034760Y-54200061D01*
X202034763Y-54200062D01*
X202142017Y-54221883D01*
X202248597Y-54243567D01*
X202253772Y-54243757D01*
X202253774Y-54243757D01*
X202466673Y-54251564D01*
X202466677Y-54251564D01*
X202471837Y-54251753D01*
X202476957Y-54251097D01*
X202476959Y-54251097D01*
X202688288Y-54224025D01*
X202688289Y-54224025D01*
X202693416Y-54223368D01*
X202698366Y-54221883D01*
X202902429Y-54160661D01*
X202902434Y-54160659D01*
X202907384Y-54159174D01*
X203107994Y-54060896D01*
X203289860Y-53931173D01*
X203335854Y-53885340D01*
X203423366Y-53798133D01*
X203448096Y-53773489D01*
X203473536Y-53738086D01*
X203575435Y-53596277D01*
X203578453Y-53592077D01*
X203592517Y-53563622D01*
X203675136Y-53396453D01*
X203675137Y-53396451D01*
X203677430Y-53391811D01*
X203742370Y-53178069D01*
X203771529Y-52956590D01*
X203773156Y-52890000D01*
X203754852Y-52667361D01*
X203700431Y-52450702D01*
X203611354Y-52245840D01*
X203550889Y-52152376D01*
X203492822Y-52062617D01*
X203492820Y-52062614D01*
X203490014Y-52058277D01*
X203339670Y-51893051D01*
X203335619Y-51889852D01*
X203335615Y-51889848D01*
X203168414Y-51757800D01*
X203168410Y-51757798D01*
X203164359Y-51754598D01*
X202968789Y-51646638D01*
X202963920Y-51644914D01*
X202963916Y-51644912D01*
X202763087Y-51573795D01*
X202763083Y-51573794D01*
X202758212Y-51572069D01*
X202753119Y-51571162D01*
X202753116Y-51571161D01*
X202543373Y-51533800D01*
X202543367Y-51533799D01*
X202538284Y-51532894D01*
X202464452Y-51531992D01*
X202320081Y-51530228D01*
X202320079Y-51530228D01*
X202314911Y-51530165D01*
X202094091Y-51563955D01*
X201881756Y-51633357D01*
X201851443Y-51649137D01*
X201716923Y-51719164D01*
X201683607Y-51736507D01*
X201679474Y-51739610D01*
X201679471Y-51739612D01*
X201509794Y-51867009D01*
X201504965Y-51870635D01*
X201464836Y-51912628D01*
X201355636Y-52026899D01*
X201350629Y-52032138D01*
X201243201Y-52189621D01*
X201188293Y-52234621D01*
X201117768Y-52242792D01*
X201054021Y-52211538D01*
X201033324Y-52187054D01*
X200952822Y-52062617D01*
X200952820Y-52062614D01*
X200950014Y-52058277D01*
X200799670Y-51893051D01*
X200795619Y-51889852D01*
X200795615Y-51889848D01*
X200628414Y-51757800D01*
X200628410Y-51757798D01*
X200624359Y-51754598D01*
X200428789Y-51646638D01*
X200423920Y-51644914D01*
X200423916Y-51644912D01*
X200223087Y-51573795D01*
X200223083Y-51573794D01*
X200218212Y-51572069D01*
X200213119Y-51571162D01*
X200213116Y-51571161D01*
X200003373Y-51533800D01*
X200003367Y-51533799D01*
X199998284Y-51532894D01*
X199924452Y-51531992D01*
X199780081Y-51530228D01*
X199780079Y-51530228D01*
X199774911Y-51530165D01*
X199554091Y-51563955D01*
X199523986Y-51573795D01*
X199463945Y-51593419D01*
X199392981Y-51595570D01*
X199332119Y-51559014D01*
X199300683Y-51495356D01*
X199298800Y-51473654D01*
X199298800Y-48148006D01*
X199318802Y-48079885D01*
X199372458Y-48033392D01*
X199442732Y-48023288D01*
X199469747Y-48030295D01*
X199605694Y-48082209D01*
X199610760Y-48083240D01*
X199610761Y-48083240D01*
X199663846Y-48094040D01*
X199832656Y-48128385D01*
X199963324Y-48133176D01*
X200058949Y-48136683D01*
X200058953Y-48136683D01*
X200064113Y-48136872D01*
X200069233Y-48136216D01*
X200069235Y-48136216D01*
X200142270Y-48126860D01*
X200293847Y-48107442D01*
X200298795Y-48105957D01*
X200298802Y-48105956D01*
X200510747Y-48042369D01*
X200515690Y-48040886D01*
X200529969Y-48033891D01*
X200719049Y-47941262D01*
X200719052Y-47941260D01*
X200723684Y-47938991D01*
X200912243Y-47804494D01*
X201076303Y-47641005D01*
X201083421Y-47631100D01*
X201124687Y-47573671D01*
X201211458Y-47452917D01*
X201226029Y-47423436D01*
X201311784Y-47249922D01*
X201311785Y-47249920D01*
X201314078Y-47245280D01*
X201381408Y-47023671D01*
X201411640Y-46794041D01*
X201412289Y-46767473D01*
X201413245Y-46728365D01*
X201413245Y-46728361D01*
X201413327Y-46725000D01*
X201403646Y-46607251D01*
X201394773Y-46499318D01*
X201394772Y-46499312D01*
X201394349Y-46494167D01*
X201352561Y-46327800D01*
X201339184Y-46274544D01*
X201339183Y-46274540D01*
X201337925Y-46269533D01*
X201335867Y-46264800D01*
X201335864Y-46264791D01*
X201289187Y-46157443D01*
X201280366Y-46086996D01*
X201311033Y-46022964D01*
X201371449Y-45985676D01*
X201404736Y-45981200D01*
X201681814Y-45981200D01*
X201749935Y-46001202D01*
X201796428Y-46054858D01*
X201806532Y-46125132D01*
X201803520Y-46139812D01*
X201787310Y-46200308D01*
X201787309Y-46200317D01*
X201785885Y-46205629D01*
X201766693Y-46425000D01*
X201785885Y-46644371D01*
X201842880Y-46857076D01*
X201845205Y-46862061D01*
X201933618Y-47051666D01*
X201933621Y-47051671D01*
X201935944Y-47056653D01*
X201939100Y-47061160D01*
X201939101Y-47061162D01*
X202058963Y-47232342D01*
X202062251Y-47237038D01*
X202217962Y-47392749D01*
X202398346Y-47519056D01*
X202597924Y-47612120D01*
X202810629Y-47669115D01*
X203030000Y-47688307D01*
X203249371Y-47669115D01*
X203462076Y-47612120D01*
X203661654Y-47519056D01*
X203842038Y-47392749D01*
X203997749Y-47237038D01*
X204001038Y-47232342D01*
X204120899Y-47061162D01*
X204120900Y-47061160D01*
X204124056Y-47056653D01*
X204126379Y-47051671D01*
X204126382Y-47051666D01*
X204214795Y-46862061D01*
X204217120Y-46857076D01*
X204274115Y-46644371D01*
X204293307Y-46425000D01*
X204274115Y-46205629D01*
X204217120Y-45992924D01*
X204158252Y-45866680D01*
X204126382Y-45798334D01*
X204126379Y-45798329D01*
X204124056Y-45793347D01*
X204085163Y-45737802D01*
X204000908Y-45617473D01*
X204000906Y-45617470D01*
X203997749Y-45612962D01*
X203842038Y-45457251D01*
X203833284Y-45451121D01*
X203689221Y-45350246D01*
X203644893Y-45294788D01*
X203637584Y-45224169D01*
X203672397Y-45157938D01*
X210500929Y-38329405D01*
X210563241Y-38295379D01*
X210590024Y-38292500D01*
X220357075Y-38292500D01*
X220425196Y-38312502D01*
X220471689Y-38366158D01*
X220481793Y-38436432D01*
X220452299Y-38501012D01*
X220446170Y-38507595D01*
X207457992Y-51495774D01*
X207395680Y-51529800D01*
X207387956Y-51531229D01*
X207310700Y-51543051D01*
X207174091Y-51563955D01*
X206961756Y-51633357D01*
X206931443Y-51649137D01*
X206796923Y-51719164D01*
X206763607Y-51736507D01*
X206759474Y-51739610D01*
X206759471Y-51739612D01*
X206589794Y-51867009D01*
X206584965Y-51870635D01*
X206544836Y-51912628D01*
X206435636Y-52026899D01*
X206430629Y-52032138D01*
X206427720Y-52036403D01*
X206427714Y-52036411D01*
X206357751Y-52138973D01*
X206304743Y-52216680D01*
X206210688Y-52419305D01*
X206150989Y-52634570D01*
X206127251Y-52856695D01*
X206127548Y-52861848D01*
X206127548Y-52861851D01*
X206132899Y-52954659D01*
X206140110Y-53079715D01*
X206141247Y-53084761D01*
X206141248Y-53084767D01*
X206154282Y-53142600D01*
X206189222Y-53297639D01*
X206273266Y-53504616D01*
X206322257Y-53584562D01*
X206387291Y-53690688D01*
X206389987Y-53695088D01*
X206536250Y-53863938D01*
X206673200Y-53977636D01*
X206701857Y-54001427D01*
X206708126Y-54006632D01*
X206901000Y-54119338D01*
X206905825Y-54121180D01*
X206905826Y-54121181D01*
X206945199Y-54136216D01*
X207109692Y-54199030D01*
X207114760Y-54200061D01*
X207114763Y-54200062D01*
X207222017Y-54221883D01*
X207328597Y-54243567D01*
X207333772Y-54243757D01*
X207333774Y-54243757D01*
X207546673Y-54251564D01*
X207546677Y-54251564D01*
X207551837Y-54251753D01*
X207556957Y-54251097D01*
X207556959Y-54251097D01*
X207768288Y-54224025D01*
X207768289Y-54224025D01*
X207773416Y-54223368D01*
X207778366Y-54221883D01*
X207982429Y-54160661D01*
X207982434Y-54160659D01*
X207987384Y-54159174D01*
X208187994Y-54060896D01*
X208369860Y-53931173D01*
X208415854Y-53885340D01*
X208503366Y-53798133D01*
X208528096Y-53773489D01*
X208553536Y-53738086D01*
X208658453Y-53592077D01*
X208659776Y-53593028D01*
X208706645Y-53549857D01*
X208776580Y-53537625D01*
X208842026Y-53565144D01*
X208869875Y-53596994D01*
X208879144Y-53612120D01*
X208929987Y-53695088D01*
X209076250Y-53863938D01*
X209213200Y-53977636D01*
X209241857Y-54001427D01*
X209248126Y-54006632D01*
X209441000Y-54119338D01*
X209445825Y-54121180D01*
X209445826Y-54121181D01*
X209485199Y-54136216D01*
X209649692Y-54199030D01*
X209654760Y-54200061D01*
X209654763Y-54200062D01*
X209762017Y-54221883D01*
X209868597Y-54243567D01*
X209873772Y-54243757D01*
X209873774Y-54243757D01*
X210086673Y-54251564D01*
X210086677Y-54251564D01*
X210091837Y-54251753D01*
X210096957Y-54251097D01*
X210096959Y-54251097D01*
X210308288Y-54224025D01*
X210308289Y-54224025D01*
X210313416Y-54223368D01*
X210318366Y-54221883D01*
X210522429Y-54160661D01*
X210522434Y-54160659D01*
X210527384Y-54159174D01*
X210727994Y-54060896D01*
X210909860Y-53931173D01*
X210955854Y-53885340D01*
X211043366Y-53798133D01*
X211068096Y-53773489D01*
X211093536Y-53738086D01*
X211198453Y-53592077D01*
X211199776Y-53593028D01*
X211246645Y-53549857D01*
X211316580Y-53537625D01*
X211382026Y-53565144D01*
X211409875Y-53596994D01*
X211419144Y-53612120D01*
X211469987Y-53695088D01*
X211616250Y-53863938D01*
X211753200Y-53977636D01*
X211781857Y-54001427D01*
X211788126Y-54006632D01*
X211981000Y-54119338D01*
X211985825Y-54121180D01*
X211985826Y-54121181D01*
X212025199Y-54136216D01*
X212189692Y-54199030D01*
X212194760Y-54200061D01*
X212194763Y-54200062D01*
X212302017Y-54221883D01*
X212408597Y-54243567D01*
X212413772Y-54243757D01*
X212413774Y-54243757D01*
X212626673Y-54251564D01*
X212626677Y-54251564D01*
X212631837Y-54251753D01*
X212636957Y-54251097D01*
X212636959Y-54251097D01*
X212848288Y-54224025D01*
X212848289Y-54224025D01*
X212853416Y-54223368D01*
X212858366Y-54221883D01*
X213062429Y-54160661D01*
X213062434Y-54160659D01*
X213067384Y-54159174D01*
X213267994Y-54060896D01*
X213449860Y-53931173D01*
X213495854Y-53885340D01*
X213583366Y-53798133D01*
X213608096Y-53773489D01*
X213633536Y-53738086D01*
X213738453Y-53592077D01*
X213739776Y-53593028D01*
X213786645Y-53549857D01*
X213856580Y-53537625D01*
X213922026Y-53565144D01*
X213949875Y-53596994D01*
X213959144Y-53612120D01*
X214009987Y-53695088D01*
X214156250Y-53863938D01*
X214293200Y-53977636D01*
X214321857Y-54001427D01*
X214328126Y-54006632D01*
X214521000Y-54119338D01*
X214525825Y-54121180D01*
X214525826Y-54121181D01*
X214565199Y-54136216D01*
X214729692Y-54199030D01*
X214734760Y-54200061D01*
X214734763Y-54200062D01*
X214842017Y-54221883D01*
X214948597Y-54243567D01*
X214953772Y-54243757D01*
X214953774Y-54243757D01*
X215166673Y-54251564D01*
X215166677Y-54251564D01*
X215171837Y-54251753D01*
X215176957Y-54251097D01*
X215176959Y-54251097D01*
X215388288Y-54224025D01*
X215388289Y-54224025D01*
X215393416Y-54223368D01*
X215398366Y-54221883D01*
X215602429Y-54160661D01*
X215602434Y-54160659D01*
X215607384Y-54159174D01*
X215807994Y-54060896D01*
X215989860Y-53931173D01*
X216035854Y-53885340D01*
X216123366Y-53798133D01*
X216148096Y-53773489D01*
X216173536Y-53738086D01*
X216275435Y-53596277D01*
X216278453Y-53592077D01*
X216292517Y-53563622D01*
X216375136Y-53396453D01*
X216375137Y-53396451D01*
X216377430Y-53391811D01*
X216442370Y-53178069D01*
X216466232Y-52996824D01*
X216494955Y-52931897D01*
X216502059Y-52924176D01*
X222065129Y-47361106D01*
X227637829Y-41788405D01*
X227700141Y-41754379D01*
X227726924Y-41751500D01*
X246472285Y-41751500D01*
X246540406Y-41771502D01*
X246586899Y-41825158D01*
X246595201Y-41849795D01*
X246599222Y-41867639D01*
X246641041Y-41970627D01*
X246680465Y-42067717D01*
X246683266Y-42074616D01*
X246712134Y-42121725D01*
X246791339Y-42250975D01*
X246799987Y-42265088D01*
X246946250Y-42433938D01*
X247118126Y-42576632D01*
X247311000Y-42689338D01*
X247519692Y-42769030D01*
X247524760Y-42770061D01*
X247524763Y-42770062D01*
X247632017Y-42791883D01*
X247738597Y-42813567D01*
X247743772Y-42813757D01*
X247743774Y-42813757D01*
X247956673Y-42821564D01*
X247956677Y-42821564D01*
X247961837Y-42821753D01*
X247966957Y-42821097D01*
X247966959Y-42821097D01*
X248178288Y-42794025D01*
X248178289Y-42794025D01*
X248183416Y-42793368D01*
X248188366Y-42791883D01*
X248392429Y-42730661D01*
X248392434Y-42730659D01*
X248397384Y-42729174D01*
X248597994Y-42630896D01*
X248779860Y-42501173D01*
X248790270Y-42490800D01*
X248890484Y-42390935D01*
X248938096Y-42343489D01*
X248953655Y-42321837D01*
X249065435Y-42166277D01*
X249068453Y-42162077D01*
X249072098Y-42154703D01*
X249165136Y-41966453D01*
X249165137Y-41966451D01*
X249167430Y-41961811D01*
X249183073Y-41910325D01*
X249222015Y-41850961D01*
X249286869Y-41822075D01*
X249357045Y-41832837D01*
X249392726Y-41857860D01*
X249516845Y-41981979D01*
X249525947Y-41992122D01*
X249549668Y-42021625D01*
X249561482Y-42031538D01*
X249588121Y-42053891D01*
X249591769Y-42057072D01*
X249593581Y-42058715D01*
X249595775Y-42060909D01*
X249629049Y-42088242D01*
X249629847Y-42088904D01*
X249701174Y-42148754D01*
X249705844Y-42151322D01*
X249709961Y-42154703D01*
X249765522Y-42184494D01*
X249791786Y-42198577D01*
X249792945Y-42199206D01*
X249869081Y-42241062D01*
X249869089Y-42241065D01*
X249874487Y-42244033D01*
X249879569Y-42245645D01*
X249884263Y-42248162D01*
X249973231Y-42275362D01*
X249974259Y-42275682D01*
X250063006Y-42303835D01*
X250068302Y-42304429D01*
X250073398Y-42305987D01*
X250165957Y-42315390D01*
X250167093Y-42315511D01*
X250200708Y-42319281D01*
X250213430Y-42320708D01*
X250213434Y-42320708D01*
X250216927Y-42321100D01*
X250220454Y-42321100D01*
X250221439Y-42321155D01*
X250227119Y-42321602D01*
X250256525Y-42324589D01*
X250264037Y-42325352D01*
X250264039Y-42325352D01*
X250270162Y-42325974D01*
X250315808Y-42321659D01*
X250327667Y-42321100D01*
X256749557Y-42321100D01*
X256763164Y-42321837D01*
X256794662Y-42325259D01*
X256794667Y-42325259D01*
X256800788Y-42325924D01*
X256827038Y-42323627D01*
X256850788Y-42321550D01*
X256855614Y-42321221D01*
X256858091Y-42321100D01*
X256861169Y-42321100D01*
X256864225Y-42320800D01*
X256864232Y-42320800D01*
X256877887Y-42319461D01*
X256890120Y-42318261D01*
X256959867Y-42331520D01*
X257011374Y-42380382D01*
X257028288Y-42449334D01*
X257005239Y-42516485D01*
X256991511Y-42532755D01*
X251930071Y-47594195D01*
X251867759Y-47628221D01*
X251840976Y-47631100D01*
X249033538Y-47631100D01*
X248965417Y-47611098D01*
X248918924Y-47557442D01*
X248908820Y-47487168D01*
X248937124Y-47424458D01*
X248938096Y-47423489D01*
X248982923Y-47361106D01*
X249065435Y-47246277D01*
X249068453Y-47242077D01*
X249070944Y-47237038D01*
X249165136Y-47046453D01*
X249165137Y-47046451D01*
X249167430Y-47041811D01*
X249199900Y-46934940D01*
X249230865Y-46833023D01*
X249230865Y-46833021D01*
X249232370Y-46828069D01*
X249261529Y-46606590D01*
X249263156Y-46540000D01*
X249244852Y-46317361D01*
X249190431Y-46100702D01*
X249101354Y-45895840D01*
X249002553Y-45743117D01*
X248982822Y-45712617D01*
X248982820Y-45712614D01*
X248980014Y-45708277D01*
X248829670Y-45543051D01*
X248825619Y-45539852D01*
X248825615Y-45539848D01*
X248658414Y-45407800D01*
X248658410Y-45407798D01*
X248654359Y-45404598D01*
X248649561Y-45401949D01*
X248536229Y-45339387D01*
X248458789Y-45296638D01*
X248453920Y-45294914D01*
X248453916Y-45294912D01*
X248253087Y-45223795D01*
X248253083Y-45223794D01*
X248248212Y-45222069D01*
X248243119Y-45221162D01*
X248243116Y-45221161D01*
X248033373Y-45183800D01*
X248033367Y-45183799D01*
X248028284Y-45182894D01*
X247954452Y-45181992D01*
X247810081Y-45180228D01*
X247810079Y-45180228D01*
X247804911Y-45180165D01*
X247584091Y-45213955D01*
X247371756Y-45283357D01*
X247341443Y-45299137D01*
X247186405Y-45379845D01*
X247173607Y-45386507D01*
X247169474Y-45389610D01*
X247169471Y-45389612D01*
X246999100Y-45517530D01*
X246994965Y-45520635D01*
X246943753Y-45574225D01*
X246885237Y-45635459D01*
X246840629Y-45682138D01*
X246837715Y-45686410D01*
X246837714Y-45686411D01*
X246792184Y-45753156D01*
X246714743Y-45866680D01*
X246687205Y-45926006D01*
X246642199Y-46022964D01*
X246620688Y-46069305D01*
X246560989Y-46284570D01*
X246537251Y-46506695D01*
X246537548Y-46511848D01*
X246537548Y-46511851D01*
X246543315Y-46611868D01*
X246550110Y-46729715D01*
X246551247Y-46734761D01*
X246551248Y-46734767D01*
X246569284Y-46814797D01*
X246599222Y-46947639D01*
X246683266Y-47154616D01*
X246685965Y-47159020D01*
X246797291Y-47340689D01*
X246797293Y-47340692D01*
X246799987Y-47345088D01*
X246803367Y-47348990D01*
X246867132Y-47422602D01*
X246896615Y-47487188D01*
X246886500Y-47557460D01*
X246839999Y-47611109D01*
X246771895Y-47631100D01*
X224502242Y-47631100D01*
X224488635Y-47630363D01*
X224457137Y-47626941D01*
X224457132Y-47626941D01*
X224451011Y-47626276D01*
X224433011Y-47627851D01*
X224401009Y-47630650D01*
X224396184Y-47630979D01*
X224393713Y-47631100D01*
X224390631Y-47631100D01*
X224368163Y-47633303D01*
X224347889Y-47635291D01*
X224346574Y-47635413D01*
X224314313Y-47638236D01*
X224253987Y-47643513D01*
X224248868Y-47645000D01*
X224243567Y-47645520D01*
X224154594Y-47672382D01*
X224153454Y-47672720D01*
X224064063Y-47698691D01*
X224059329Y-47701145D01*
X224054231Y-47702684D01*
X224048787Y-47705578D01*
X224048786Y-47705579D01*
X223972231Y-47746284D01*
X223971063Y-47746898D01*
X223958188Y-47753572D01*
X223888474Y-47789708D01*
X223884311Y-47793031D01*
X223879604Y-47795534D01*
X223807482Y-47854355D01*
X223806626Y-47855046D01*
X223767427Y-47886338D01*
X223764923Y-47888842D01*
X223764205Y-47889484D01*
X223759872Y-47893185D01*
X223726338Y-47920535D01*
X223722411Y-47925282D01*
X223722409Y-47925284D01*
X223697113Y-47955862D01*
X223689123Y-47964642D01*
X220157992Y-51495774D01*
X220095680Y-51529800D01*
X220087956Y-51531229D01*
X220010700Y-51543051D01*
X219874091Y-51563955D01*
X219661756Y-51633357D01*
X219631443Y-51649137D01*
X219496923Y-51719164D01*
X219463607Y-51736507D01*
X219459474Y-51739610D01*
X219459471Y-51739612D01*
X219289794Y-51867009D01*
X219284965Y-51870635D01*
X219244836Y-51912628D01*
X219135636Y-52026899D01*
X219130629Y-52032138D01*
X219127720Y-52036403D01*
X219127714Y-52036411D01*
X219057751Y-52138973D01*
X219004743Y-52216680D01*
X218910688Y-52419305D01*
X218850989Y-52634570D01*
X218827251Y-52856695D01*
X218827548Y-52861848D01*
X218827548Y-52861851D01*
X218832899Y-52954659D01*
X218840110Y-53079715D01*
X218841247Y-53084761D01*
X218841248Y-53084767D01*
X218854282Y-53142600D01*
X218889222Y-53297639D01*
X218973266Y-53504616D01*
X219022257Y-53584562D01*
X219087291Y-53690688D01*
X219089987Y-53695088D01*
X219236250Y-53863938D01*
X219373200Y-53977636D01*
X219401857Y-54001427D01*
X219408126Y-54006632D01*
X219601000Y-54119338D01*
X219605825Y-54121180D01*
X219605826Y-54121181D01*
X219645199Y-54136216D01*
X219809692Y-54199030D01*
X219814760Y-54200061D01*
X219814763Y-54200062D01*
X219922017Y-54221883D01*
X220028597Y-54243567D01*
X220033772Y-54243757D01*
X220033774Y-54243757D01*
X220246673Y-54251564D01*
X220246677Y-54251564D01*
X220251837Y-54251753D01*
X220256957Y-54251097D01*
X220256959Y-54251097D01*
X220468288Y-54224025D01*
X220468289Y-54224025D01*
X220473416Y-54223368D01*
X220478366Y-54221883D01*
X220682429Y-54160661D01*
X220682434Y-54160659D01*
X220687384Y-54159174D01*
X220887994Y-54060896D01*
X221069860Y-53931173D01*
X221115854Y-53885340D01*
X221203366Y-53798133D01*
X221228096Y-53773489D01*
X221253536Y-53738086D01*
X221358453Y-53592077D01*
X221359776Y-53593028D01*
X221406645Y-53549857D01*
X221476580Y-53537625D01*
X221542026Y-53565144D01*
X221569875Y-53596994D01*
X221579144Y-53612120D01*
X221629987Y-53695088D01*
X221776250Y-53863938D01*
X221913200Y-53977636D01*
X221941857Y-54001427D01*
X221948126Y-54006632D01*
X222141000Y-54119338D01*
X222145825Y-54121180D01*
X222145826Y-54121181D01*
X222185199Y-54136216D01*
X222349692Y-54199030D01*
X222354760Y-54200061D01*
X222354763Y-54200062D01*
X222522331Y-54234154D01*
X222568597Y-54243567D01*
X222573774Y-54243757D01*
X222573775Y-54243757D01*
X222611238Y-54245131D01*
X222678580Y-54267616D01*
X222695715Y-54281950D01*
X223535149Y-55121383D01*
X223544251Y-55131527D01*
X223567968Y-55161025D01*
X223572696Y-55164992D01*
X223606421Y-55193291D01*
X223610070Y-55196473D01*
X223611883Y-55198117D01*
X223614075Y-55200309D01*
X223647276Y-55227580D01*
X223648164Y-55228318D01*
X223683437Y-55257915D01*
X223714753Y-55284193D01*
X223714756Y-55284195D01*
X223719474Y-55288154D01*
X223724147Y-55290723D01*
X223728262Y-55294103D01*
X223733691Y-55297014D01*
X223733694Y-55297016D01*
X223810180Y-55338028D01*
X223811338Y-55338657D01*
X223887388Y-55380465D01*
X223892787Y-55383433D01*
X223897865Y-55385044D01*
X223902563Y-55387563D01*
X223991498Y-55414753D01*
X223992702Y-55415128D01*
X224081306Y-55443235D01*
X224086597Y-55443828D01*
X224091698Y-55445388D01*
X224184311Y-55454795D01*
X224185431Y-55454915D01*
X224235227Y-55460500D01*
X224238756Y-55460500D01*
X224239739Y-55460555D01*
X224245426Y-55461003D01*
X224265683Y-55463060D01*
X224282336Y-55464752D01*
X224282339Y-55464752D01*
X224288463Y-55465374D01*
X224334112Y-55461059D01*
X224345969Y-55460500D01*
X253534757Y-55460500D01*
X253548364Y-55461237D01*
X253579862Y-55464659D01*
X253579867Y-55464659D01*
X253585988Y-55465324D01*
X253612238Y-55463027D01*
X253635988Y-55460950D01*
X253640814Y-55460621D01*
X253643286Y-55460500D01*
X253646369Y-55460500D01*
X253658338Y-55459326D01*
X253689106Y-55456310D01*
X253690419Y-55456188D01*
X253734684Y-55452315D01*
X253783013Y-55448087D01*
X253788132Y-55446600D01*
X253793433Y-55446080D01*
X253882434Y-55419209D01*
X253883567Y-55418874D01*
X253967014Y-55394630D01*
X253967018Y-55394628D01*
X253972936Y-55392909D01*
X253977668Y-55390456D01*
X253982769Y-55388916D01*
X253994960Y-55382434D01*
X254064860Y-55345269D01*
X254066026Y-55344657D01*
X254143053Y-55304729D01*
X254148526Y-55301892D01*
X254152689Y-55298569D01*
X254157396Y-55296066D01*
X254163597Y-55291009D01*
X254171954Y-55284193D01*
X254229518Y-55237245D01*
X254230374Y-55236554D01*
X254269573Y-55205262D01*
X254272077Y-55202758D01*
X254272795Y-55202116D01*
X254277128Y-55198415D01*
X254310662Y-55171065D01*
X254339888Y-55135737D01*
X254347877Y-55126958D01*
X261963200Y-47511635D01*
X269579685Y-39895149D01*
X269641997Y-39861123D01*
X269712812Y-39866188D01*
X269769648Y-39908735D01*
X269794459Y-39975255D01*
X269794301Y-39995223D01*
X269786884Y-40080000D01*
X269805314Y-40290655D01*
X269806738Y-40295968D01*
X269806738Y-40295970D01*
X269855679Y-40478618D01*
X269860044Y-40494910D01*
X269862366Y-40499891D01*
X269862367Y-40499892D01*
X269944357Y-40675719D01*
X269949411Y-40686558D01*
X270070699Y-40859776D01*
X270220224Y-41009301D01*
X270393442Y-41130589D01*
X270398420Y-41132910D01*
X270398423Y-41132912D01*
X270580108Y-41217633D01*
X270585090Y-41219956D01*
X270590398Y-41221378D01*
X270590400Y-41221379D01*
X270784030Y-41273262D01*
X270784032Y-41273262D01*
X270789345Y-41274686D01*
X271000000Y-41293116D01*
X271210655Y-41274686D01*
X271215968Y-41273262D01*
X271215970Y-41273262D01*
X271409600Y-41221379D01*
X271409602Y-41221378D01*
X271414910Y-41219956D01*
X271419892Y-41217633D01*
X271601577Y-41132912D01*
X271601580Y-41132910D01*
X271606558Y-41130589D01*
X271779776Y-41009301D01*
X271929301Y-40859776D01*
X272050589Y-40686558D01*
X272055644Y-40675719D01*
X272137633Y-40499892D01*
X272137634Y-40499891D01*
X272139956Y-40494910D01*
X272144322Y-40478618D01*
X272193262Y-40295970D01*
X272193262Y-40295968D01*
X272194686Y-40290655D01*
X272213116Y-40080000D01*
X272194686Y-39869345D01*
X272191216Y-39856394D01*
X272141379Y-39670400D01*
X272141378Y-39670398D01*
X272139956Y-39665090D01*
X272137633Y-39660108D01*
X272052912Y-39478423D01*
X272052910Y-39478420D01*
X272050589Y-39473442D01*
X271929301Y-39300224D01*
X271779776Y-39150699D01*
X271606558Y-39029411D01*
X271601580Y-39027090D01*
X271601577Y-39027088D01*
X271419892Y-38942367D01*
X271419891Y-38942366D01*
X271414910Y-38940044D01*
X271409602Y-38938622D01*
X271409600Y-38938621D01*
X271215970Y-38886738D01*
X271215968Y-38886738D01*
X271210655Y-38885314D01*
X271000000Y-38866884D01*
X270915225Y-38874301D01*
X270845621Y-38860312D01*
X270794629Y-38810913D01*
X270778438Y-38741787D01*
X270802190Y-38674881D01*
X270815149Y-38659685D01*
X275945679Y-33529155D01*
X275955822Y-33520053D01*
X275980518Y-33500197D01*
X275985325Y-33496332D01*
X276017592Y-33457878D01*
X276020772Y-33454231D01*
X276022415Y-33452419D01*
X276024609Y-33450225D01*
X276051942Y-33416951D01*
X276052648Y-33416100D01*
X276108495Y-33349544D01*
X276112454Y-33344826D01*
X276115022Y-33340156D01*
X276118403Y-33336039D01*
X276162315Y-33254142D01*
X276162924Y-33253020D01*
X276204766Y-33176911D01*
X276204768Y-33176906D01*
X276207733Y-33171513D01*
X276209344Y-33166435D01*
X276211863Y-33161737D01*
X276239054Y-33072801D01*
X276239436Y-33071571D01*
X276245398Y-33052777D01*
X276285062Y-32993894D01*
X276350265Y-32965801D01*
X276420304Y-32977420D01*
X276472944Y-33025060D01*
X276491500Y-33090877D01*
X276491500Y-74365500D01*
X276471498Y-74433621D01*
X276417842Y-74480114D01*
X276365500Y-74491500D01*
X21634500Y-74491500D01*
X21566379Y-74471498D01*
X21519886Y-74417842D01*
X21508500Y-74365500D01*
X21508500Y-65898134D01*
X111986500Y-65898134D01*
X111993255Y-65960316D01*
X112044385Y-66096705D01*
X112131739Y-66213261D01*
X112248295Y-66300615D01*
X112384684Y-66351745D01*
X112446866Y-66358500D01*
X114243134Y-66358500D01*
X114305316Y-66351745D01*
X114441705Y-66300615D01*
X114558261Y-66213261D01*
X114645615Y-66096705D01*
X114696745Y-65960316D01*
X114703500Y-65898134D01*
X114703500Y-64101866D01*
X114696745Y-64039684D01*
X114645615Y-63903295D01*
X114558261Y-63786739D01*
X114441705Y-63699385D01*
X114305316Y-63648255D01*
X114243134Y-63641500D01*
X112446866Y-63641500D01*
X112384684Y-63648255D01*
X112248295Y-63699385D01*
X112131739Y-63786739D01*
X112044385Y-63903295D01*
X111993255Y-64039684D01*
X111986500Y-64101866D01*
X111986500Y-65898134D01*
X21508500Y-65898134D01*
X21508500Y-24634500D01*
X21528502Y-24566379D01*
X21582158Y-24519886D01*
X21634500Y-24508500D01*
X105151075Y-24508500D01*
X105219196Y-24528502D01*
G37*
%TD.AperFunction*%
%TA.AperFunction,Conductor*%
G36*
X83755754Y-56075102D02*
G01*
X83802247Y-56128758D01*
X83812351Y-56199032D01*
X83782857Y-56263612D01*
X83766587Y-56279295D01*
X83720975Y-56315968D01*
X83718692Y-56318689D01*
X83715938Y-56320935D01*
X83682128Y-56361805D01*
X83655441Y-56394064D01*
X83654935Y-56394671D01*
X83593846Y-56467474D01*
X83592134Y-56470589D01*
X83589870Y-56473325D01*
X83586939Y-56478746D01*
X83544700Y-56556865D01*
X83544298Y-56557603D01*
X83498567Y-56640787D01*
X83497494Y-56644170D01*
X83495802Y-56647299D01*
X83492497Y-56657976D01*
X83467725Y-56738002D01*
X83467468Y-56738822D01*
X83438765Y-56829306D01*
X83438369Y-56832837D01*
X83437318Y-56836232D01*
X83436674Y-56842363D01*
X83427396Y-56930638D01*
X83427311Y-56931421D01*
X83421500Y-56983227D01*
X83421500Y-56985800D01*
X83421180Y-56989776D01*
X83416645Y-57032925D01*
X83417204Y-57039065D01*
X83420981Y-57080570D01*
X83421500Y-57091990D01*
X83421500Y-57928381D01*
X83401498Y-57996502D01*
X83386594Y-58015432D01*
X83370629Y-58032138D01*
X83263201Y-58189621D01*
X83208293Y-58234621D01*
X83137768Y-58242792D01*
X83074021Y-58211538D01*
X83053324Y-58187054D01*
X82972822Y-58062617D01*
X82972820Y-58062614D01*
X82970014Y-58058277D01*
X82819670Y-57893051D01*
X82815619Y-57889852D01*
X82815615Y-57889848D01*
X82648414Y-57757800D01*
X82648410Y-57757798D01*
X82644359Y-57754598D01*
X82448789Y-57646638D01*
X82443920Y-57644914D01*
X82443916Y-57644912D01*
X82243087Y-57573795D01*
X82243083Y-57573794D01*
X82238212Y-57572069D01*
X82233119Y-57571162D01*
X82233116Y-57571161D01*
X82023373Y-57533800D01*
X82023367Y-57533799D01*
X82018284Y-57532894D01*
X81944452Y-57531992D01*
X81800081Y-57530228D01*
X81800079Y-57530228D01*
X81794911Y-57530165D01*
X81574091Y-57563955D01*
X81361756Y-57633357D01*
X81331443Y-57649137D01*
X81196923Y-57719164D01*
X81163607Y-57736507D01*
X81159474Y-57739610D01*
X81159471Y-57739612D01*
X80989100Y-57867530D01*
X80984965Y-57870635D01*
X80929782Y-57928381D01*
X80864684Y-57996502D01*
X80830629Y-58032138D01*
X80704743Y-58216680D01*
X80676884Y-58276698D01*
X80617711Y-58404176D01*
X80610688Y-58419305D01*
X80550989Y-58634570D01*
X80527251Y-58856695D01*
X80527548Y-58861848D01*
X80527548Y-58861851D01*
X80533011Y-58956590D01*
X80540110Y-59079715D01*
X80541247Y-59084761D01*
X80541248Y-59084767D01*
X80561119Y-59172939D01*
X80589222Y-59297639D01*
X80673266Y-59504616D01*
X80724019Y-59587438D01*
X80787291Y-59690688D01*
X80789987Y-59695088D01*
X80936250Y-59863938D01*
X81108126Y-60006632D01*
X81301000Y-60119338D01*
X81509692Y-60199030D01*
X81514760Y-60200061D01*
X81514763Y-60200062D01*
X81664931Y-60230614D01*
X81728597Y-60243567D01*
X81733772Y-60243757D01*
X81733774Y-60243757D01*
X81771239Y-60245131D01*
X81838581Y-60267616D01*
X81855716Y-60281951D01*
X84505871Y-62932105D01*
X84539897Y-62994417D01*
X84534832Y-63065232D01*
X84492285Y-63122068D01*
X84425765Y-63146879D01*
X84416776Y-63147200D01*
X80695625Y-63147200D01*
X80627504Y-63127198D01*
X80606530Y-63110295D01*
X77855405Y-60359171D01*
X77821379Y-60296859D01*
X77818500Y-60270076D01*
X77818500Y-59853970D01*
X77838502Y-59785849D01*
X77846460Y-59775120D01*
X77848096Y-59773489D01*
X77978453Y-59592077D01*
X77999320Y-59549857D01*
X78075136Y-59396453D01*
X78075137Y-59396451D01*
X78077430Y-59391811D01*
X78142370Y-59178069D01*
X78171529Y-58956590D01*
X78173156Y-58890000D01*
X78154852Y-58667361D01*
X78100431Y-58450702D01*
X78011354Y-58245840D01*
X77917011Y-58100008D01*
X77892822Y-58062617D01*
X77892820Y-58062614D01*
X77890014Y-58058277D01*
X77739670Y-57893051D01*
X77735619Y-57889852D01*
X77735615Y-57889848D01*
X77568414Y-57757800D01*
X77568410Y-57757798D01*
X77564359Y-57754598D01*
X77368789Y-57646638D01*
X77363920Y-57644914D01*
X77363916Y-57644912D01*
X77240079Y-57601059D01*
X77182543Y-57559465D01*
X77156627Y-57493367D01*
X77170561Y-57423751D01*
X77193044Y-57393191D01*
X78494229Y-56092005D01*
X78556541Y-56057980D01*
X78583324Y-56055100D01*
X83687633Y-56055100D01*
X83755754Y-56075102D01*
G37*
%TD.AperFunction*%
%TA.AperFunction,Conductor*%
G36*
X96226647Y-56344902D02*
G01*
X96273140Y-56398558D01*
X96283244Y-56468832D01*
X96269570Y-56510441D01*
X96244023Y-56558086D01*
X96243394Y-56559245D01*
X96201538Y-56635381D01*
X96201535Y-56635388D01*
X96198567Y-56640787D01*
X96196955Y-56645869D01*
X96194438Y-56650563D01*
X96167238Y-56739531D01*
X96166918Y-56740559D01*
X96138765Y-56829306D01*
X96138171Y-56834602D01*
X96136613Y-56839698D01*
X96135990Y-56845834D01*
X96127218Y-56932187D01*
X96127089Y-56933393D01*
X96121500Y-56983227D01*
X96121500Y-56986754D01*
X96121445Y-56987739D01*
X96120998Y-56993419D01*
X96116626Y-57036462D01*
X96117206Y-57042593D01*
X96120941Y-57082109D01*
X96121500Y-57093967D01*
X96121500Y-57928381D01*
X96101498Y-57996502D01*
X96086594Y-58015432D01*
X96070629Y-58032138D01*
X95963201Y-58189621D01*
X95908293Y-58234621D01*
X95837768Y-58242792D01*
X95774021Y-58211538D01*
X95753324Y-58187054D01*
X95672822Y-58062617D01*
X95672820Y-58062614D01*
X95670014Y-58058277D01*
X95519670Y-57893051D01*
X95515619Y-57889852D01*
X95515615Y-57889848D01*
X95348414Y-57757800D01*
X95348410Y-57757798D01*
X95344359Y-57754598D01*
X95148789Y-57646638D01*
X95143920Y-57644914D01*
X95143916Y-57644912D01*
X94943087Y-57573795D01*
X94943083Y-57573794D01*
X94938212Y-57572069D01*
X94933119Y-57571162D01*
X94933116Y-57571161D01*
X94723373Y-57533800D01*
X94723367Y-57533799D01*
X94718284Y-57532894D01*
X94644452Y-57531992D01*
X94500081Y-57530228D01*
X94500079Y-57530228D01*
X94494911Y-57530165D01*
X94274091Y-57563955D01*
X94061756Y-57633357D01*
X94031443Y-57649137D01*
X93896923Y-57719164D01*
X93863607Y-57736507D01*
X93859474Y-57739610D01*
X93859471Y-57739612D01*
X93689100Y-57867530D01*
X93684965Y-57870635D01*
X93629782Y-57928381D01*
X93564684Y-57996502D01*
X93530629Y-58032138D01*
X93404743Y-58216680D01*
X93376884Y-58276698D01*
X93317711Y-58404176D01*
X93310688Y-58419305D01*
X93250989Y-58634570D01*
X93227251Y-58856695D01*
X93227548Y-58861848D01*
X93227548Y-58861851D01*
X93233011Y-58956590D01*
X93240110Y-59079715D01*
X93241247Y-59084761D01*
X93241248Y-59084767D01*
X93261119Y-59172939D01*
X93289222Y-59297639D01*
X93373266Y-59504616D01*
X93424019Y-59587438D01*
X93487291Y-59690688D01*
X93489987Y-59695088D01*
X93636250Y-59863938D01*
X93808126Y-60006632D01*
X94001000Y-60119338D01*
X94209692Y-60199030D01*
X94214760Y-60200061D01*
X94214763Y-60200062D01*
X94364931Y-60230614D01*
X94428597Y-60243567D01*
X94433774Y-60243757D01*
X94433775Y-60243757D01*
X94471238Y-60245131D01*
X94538580Y-60267616D01*
X94555715Y-60281950D01*
X94776270Y-60502504D01*
X94810295Y-60564816D01*
X94805231Y-60635632D01*
X94762684Y-60692468D01*
X94696164Y-60717279D01*
X94687175Y-60717600D01*
X90966026Y-60717600D01*
X90897905Y-60697598D01*
X90876931Y-60680696D01*
X90555405Y-60359171D01*
X90521380Y-60296858D01*
X90518500Y-60270075D01*
X90518500Y-59853970D01*
X90538502Y-59785849D01*
X90546460Y-59775120D01*
X90548096Y-59773489D01*
X90678453Y-59592077D01*
X90699320Y-59549857D01*
X90775136Y-59396453D01*
X90775137Y-59396451D01*
X90777430Y-59391811D01*
X90842370Y-59178069D01*
X90871529Y-58956590D01*
X90873156Y-58890000D01*
X90854852Y-58667361D01*
X90800431Y-58450702D01*
X90711354Y-58245840D01*
X90617011Y-58100008D01*
X90592822Y-58062617D01*
X90592820Y-58062614D01*
X90590014Y-58058277D01*
X90439670Y-57893051D01*
X90435619Y-57889852D01*
X90435615Y-57889848D01*
X90268414Y-57757800D01*
X90268410Y-57757798D01*
X90264359Y-57754598D01*
X90068789Y-57646638D01*
X90063920Y-57644914D01*
X90063916Y-57644912D01*
X89940079Y-57601059D01*
X89882543Y-57559465D01*
X89856627Y-57493367D01*
X89870561Y-57423751D01*
X89893044Y-57393191D01*
X90924429Y-56361805D01*
X90986741Y-56327780D01*
X91013524Y-56324900D01*
X96158526Y-56324900D01*
X96226647Y-56344902D01*
G37*
%TD.AperFunction*%
%TA.AperFunction,Conductor*%
G36*
X46112212Y-47720601D02*
G01*
X46118795Y-47726730D01*
X49061445Y-50669379D01*
X49070547Y-50679522D01*
X49094268Y-50709025D01*
X49098996Y-50712992D01*
X49132721Y-50741291D01*
X49136369Y-50744472D01*
X49138181Y-50746115D01*
X49140375Y-50748309D01*
X49173649Y-50775642D01*
X49174447Y-50776304D01*
X49245774Y-50836154D01*
X49250444Y-50838722D01*
X49254561Y-50842103D01*
X49312445Y-50873140D01*
X49336386Y-50885977D01*
X49337545Y-50886606D01*
X49413681Y-50928462D01*
X49413689Y-50928465D01*
X49419087Y-50931433D01*
X49424169Y-50933045D01*
X49428863Y-50935562D01*
X49517831Y-50962762D01*
X49518859Y-50963082D01*
X49607606Y-50991235D01*
X49612902Y-50991829D01*
X49617998Y-50993387D01*
X49710557Y-51002790D01*
X49711693Y-51002911D01*
X49745308Y-51006681D01*
X49758030Y-51008108D01*
X49758034Y-51008108D01*
X49761527Y-51008500D01*
X49765054Y-51008500D01*
X49766039Y-51008555D01*
X49771719Y-51009002D01*
X49801125Y-51011989D01*
X49808637Y-51012752D01*
X49808639Y-51012752D01*
X49814762Y-51013374D01*
X49860408Y-51009059D01*
X49872267Y-51008500D01*
X51521481Y-51008500D01*
X51589602Y-51028502D01*
X51636095Y-51082158D01*
X51646199Y-51152432D01*
X51616705Y-51217012D01*
X51574731Y-51248695D01*
X51403334Y-51328618D01*
X51403329Y-51328621D01*
X51398347Y-51330944D01*
X51393840Y-51334100D01*
X51393838Y-51334101D01*
X51222473Y-51454092D01*
X51222470Y-51454094D01*
X51217962Y-51457251D01*
X51062251Y-51612962D01*
X51059094Y-51617470D01*
X51059092Y-51617473D01*
X50940811Y-51786396D01*
X50935944Y-51793347D01*
X50933621Y-51798329D01*
X50933618Y-51798334D01*
X50891172Y-51889362D01*
X50842880Y-51992924D01*
X50785885Y-52205629D01*
X50766693Y-52425000D01*
X50785885Y-52644371D01*
X50842880Y-52857076D01*
X50882759Y-52942596D01*
X50933618Y-53051666D01*
X50933621Y-53051671D01*
X50935944Y-53056653D01*
X50939100Y-53061160D01*
X50939101Y-53061162D01*
X51024429Y-53183022D01*
X51062251Y-53237038D01*
X51217962Y-53392749D01*
X51222471Y-53395906D01*
X51222473Y-53395908D01*
X51297241Y-53448261D01*
X51398346Y-53519056D01*
X51597924Y-53612120D01*
X51810629Y-53669115D01*
X52030000Y-53688307D01*
X52249371Y-53669115D01*
X52462076Y-53612120D01*
X52661654Y-53519056D01*
X52762759Y-53448261D01*
X52837527Y-53395908D01*
X52837529Y-53395906D01*
X52842038Y-53392749D01*
X52997749Y-53237038D01*
X53035572Y-53183022D01*
X53120899Y-53061162D01*
X53120900Y-53061160D01*
X53124056Y-53056653D01*
X53126379Y-53051671D01*
X53126382Y-53051666D01*
X53177241Y-52942596D01*
X53217120Y-52857076D01*
X53274115Y-52644371D01*
X53293307Y-52425000D01*
X53286522Y-52347449D01*
X53300511Y-52277845D01*
X53349910Y-52226853D01*
X53419036Y-52210662D01*
X53485942Y-52234414D01*
X53501138Y-52247373D01*
X58647087Y-57393321D01*
X58681113Y-57455633D01*
X58676048Y-57526448D01*
X58633501Y-57583284D01*
X58597138Y-57602181D01*
X58565434Y-57612544D01*
X58501756Y-57633357D01*
X58471443Y-57649137D01*
X58336923Y-57719164D01*
X58303607Y-57736507D01*
X58299474Y-57739610D01*
X58299471Y-57739612D01*
X58129100Y-57867530D01*
X58124965Y-57870635D01*
X58069782Y-57928381D01*
X58004684Y-57996502D01*
X57970629Y-58032138D01*
X57863201Y-58189621D01*
X57808293Y-58234621D01*
X57737768Y-58242792D01*
X57674021Y-58211538D01*
X57653324Y-58187054D01*
X57572822Y-58062617D01*
X57572820Y-58062614D01*
X57570014Y-58058277D01*
X57419670Y-57893051D01*
X57415619Y-57889852D01*
X57415615Y-57889848D01*
X57248414Y-57757800D01*
X57248410Y-57757798D01*
X57244359Y-57754598D01*
X57048789Y-57646638D01*
X57043920Y-57644914D01*
X57043916Y-57644912D01*
X56843087Y-57573795D01*
X56843083Y-57573794D01*
X56838212Y-57572069D01*
X56833119Y-57571162D01*
X56833116Y-57571161D01*
X56623373Y-57533800D01*
X56623367Y-57533799D01*
X56618284Y-57532894D01*
X56544452Y-57531992D01*
X56400081Y-57530228D01*
X56400079Y-57530228D01*
X56394911Y-57530165D01*
X56174091Y-57563955D01*
X55961756Y-57633357D01*
X55931443Y-57649137D01*
X55796923Y-57719164D01*
X55763607Y-57736507D01*
X55759474Y-57739610D01*
X55759471Y-57739612D01*
X55589100Y-57867530D01*
X55584965Y-57870635D01*
X55529782Y-57928381D01*
X55464684Y-57996502D01*
X55430629Y-58032138D01*
X55304743Y-58216680D01*
X55276884Y-58276698D01*
X55217711Y-58404176D01*
X55210688Y-58419305D01*
X55150989Y-58634570D01*
X55127251Y-58856695D01*
X55127548Y-58861848D01*
X55127548Y-58861851D01*
X55133011Y-58956590D01*
X55140110Y-59079715D01*
X55141247Y-59084761D01*
X55141248Y-59084767D01*
X55187906Y-59291799D01*
X55183370Y-59362650D01*
X55141248Y-59419802D01*
X55074915Y-59445108D01*
X55064989Y-59445500D01*
X52831087Y-59445500D01*
X52762966Y-59425498D01*
X52716473Y-59371842D01*
X52706369Y-59301568D01*
X52710528Y-59282872D01*
X52740867Y-59183015D01*
X52742370Y-59178069D01*
X52771529Y-58956590D01*
X52773156Y-58890000D01*
X52754852Y-58667361D01*
X52700431Y-58450702D01*
X52611354Y-58245840D01*
X52517011Y-58100008D01*
X52492822Y-58062617D01*
X52492820Y-58062614D01*
X52490014Y-58058277D01*
X52339670Y-57893051D01*
X52335619Y-57889852D01*
X52335615Y-57889848D01*
X52168414Y-57757800D01*
X52168410Y-57757798D01*
X52164359Y-57754598D01*
X51968789Y-57646638D01*
X51963920Y-57644914D01*
X51963916Y-57644912D01*
X51763087Y-57573795D01*
X51763083Y-57573794D01*
X51758212Y-57572069D01*
X51753119Y-57571162D01*
X51753116Y-57571161D01*
X51543373Y-57533800D01*
X51543367Y-57533799D01*
X51538284Y-57532894D01*
X51464452Y-57531992D01*
X51320081Y-57530228D01*
X51320079Y-57530228D01*
X51314911Y-57530165D01*
X51094091Y-57563955D01*
X50881756Y-57633357D01*
X50851443Y-57649137D01*
X50716923Y-57719164D01*
X50683607Y-57736507D01*
X50679474Y-57739610D01*
X50679471Y-57739612D01*
X50509100Y-57867530D01*
X50504965Y-57870635D01*
X50449782Y-57928381D01*
X50384684Y-57996502D01*
X50350629Y-58032138D01*
X50243201Y-58189621D01*
X50188293Y-58234621D01*
X50117768Y-58242792D01*
X50054021Y-58211538D01*
X50033324Y-58187054D01*
X49952822Y-58062617D01*
X49952820Y-58062614D01*
X49950014Y-58058277D01*
X49799670Y-57893051D01*
X49795619Y-57889852D01*
X49795615Y-57889848D01*
X49628414Y-57757800D01*
X49628410Y-57757798D01*
X49624359Y-57754598D01*
X49428789Y-57646638D01*
X49423920Y-57644914D01*
X49423916Y-57644912D01*
X49223087Y-57573795D01*
X49223083Y-57573794D01*
X49218212Y-57572069D01*
X49213119Y-57571162D01*
X49213116Y-57571161D01*
X49003373Y-57533800D01*
X49003367Y-57533799D01*
X48998284Y-57532894D01*
X48924452Y-57531992D01*
X48780081Y-57530228D01*
X48780079Y-57530228D01*
X48774911Y-57530165D01*
X48554091Y-57563955D01*
X48341756Y-57633357D01*
X48311443Y-57649137D01*
X48176923Y-57719164D01*
X48143607Y-57736507D01*
X48139474Y-57739610D01*
X48139471Y-57739612D01*
X47969100Y-57867530D01*
X47964965Y-57870635D01*
X47909782Y-57928381D01*
X47844684Y-57996502D01*
X47810629Y-58032138D01*
X47684743Y-58216680D01*
X47682564Y-58221375D01*
X47682562Y-58221379D01*
X47673613Y-58240656D01*
X47626788Y-58294022D01*
X47558545Y-58313601D01*
X47490549Y-58293176D01*
X47470232Y-58276698D01*
X45940605Y-56747071D01*
X45906579Y-56684759D01*
X45903700Y-56657976D01*
X45903700Y-52690469D01*
X47587095Y-52690469D01*
X47587392Y-52695622D01*
X47587392Y-52695625D01*
X47598406Y-52886646D01*
X47600427Y-52921697D01*
X47601564Y-52926743D01*
X47601565Y-52926749D01*
X47629717Y-53051666D01*
X47651346Y-53147642D01*
X47653288Y-53152424D01*
X47653289Y-53152428D01*
X47733105Y-53348990D01*
X47738484Y-53362237D01*
X47859501Y-53559719D01*
X48011147Y-53734784D01*
X48189349Y-53882730D01*
X48389322Y-53999584D01*
X48394147Y-54001426D01*
X48394148Y-54001427D01*
X48468665Y-54029883D01*
X48605694Y-54082209D01*
X48610760Y-54083240D01*
X48610761Y-54083240D01*
X48663846Y-54094040D01*
X48832656Y-54128385D01*
X48963324Y-54133176D01*
X49058949Y-54136683D01*
X49058953Y-54136683D01*
X49064113Y-54136872D01*
X49069233Y-54136216D01*
X49069235Y-54136216D01*
X49161010Y-54124459D01*
X49293847Y-54107442D01*
X49298795Y-54105957D01*
X49298802Y-54105956D01*
X49510747Y-54042369D01*
X49515690Y-54040886D01*
X49522296Y-54037650D01*
X49719049Y-53941262D01*
X49719052Y-53941260D01*
X49723684Y-53938991D01*
X49912243Y-53804494D01*
X50076303Y-53641005D01*
X50211458Y-53452917D01*
X50239634Y-53395908D01*
X50311784Y-53249922D01*
X50311785Y-53249920D01*
X50314078Y-53245280D01*
X50381408Y-53023671D01*
X50411640Y-52794041D01*
X50411722Y-52790691D01*
X50413245Y-52728365D01*
X50413245Y-52728361D01*
X50413327Y-52725000D01*
X50394957Y-52501562D01*
X50394773Y-52499318D01*
X50394772Y-52499312D01*
X50394349Y-52494167D01*
X50363963Y-52373195D01*
X50339184Y-52274544D01*
X50339183Y-52274540D01*
X50337925Y-52269533D01*
X50335866Y-52264797D01*
X50247630Y-52061868D01*
X50247628Y-52061865D01*
X50245570Y-52057131D01*
X50119764Y-51862665D01*
X50085402Y-51824901D01*
X50021174Y-51754316D01*
X49963887Y-51691358D01*
X49959836Y-51688159D01*
X49959832Y-51688155D01*
X49786177Y-51551011D01*
X49786172Y-51551008D01*
X49782123Y-51547810D01*
X49777607Y-51545317D01*
X49777604Y-51545315D01*
X49583879Y-51438373D01*
X49583875Y-51438371D01*
X49579355Y-51435876D01*
X49574486Y-51434152D01*
X49574482Y-51434150D01*
X49365903Y-51360288D01*
X49365899Y-51360287D01*
X49361028Y-51358562D01*
X49355935Y-51357655D01*
X49355932Y-51357654D01*
X49138095Y-51318851D01*
X49138089Y-51318850D01*
X49133006Y-51317945D01*
X49060096Y-51317054D01*
X48906581Y-51315179D01*
X48906579Y-51315179D01*
X48901411Y-51315116D01*
X48672464Y-51350150D01*
X48452314Y-51422106D01*
X48447726Y-51424494D01*
X48447722Y-51424496D01*
X48263041Y-51520635D01*
X48246872Y-51529052D01*
X48242739Y-51532155D01*
X48242736Y-51532157D01*
X48065790Y-51665012D01*
X48061655Y-51668117D01*
X48058083Y-51671855D01*
X47912867Y-51823815D01*
X47901639Y-51835564D01*
X47898725Y-51839836D01*
X47898724Y-51839837D01*
X47863906Y-51890878D01*
X47771119Y-52026899D01*
X47673602Y-52236981D01*
X47611707Y-52460169D01*
X47587095Y-52690469D01*
X45903700Y-52690469D01*
X45903700Y-47815825D01*
X45923702Y-47747704D01*
X45977358Y-47701211D01*
X46047632Y-47691107D01*
X46112212Y-47720601D01*
G37*
%TD.AperFunction*%
%TA.AperFunction,Conductor*%
G36*
X113411632Y-42288768D02*
G01*
X113468468Y-42331315D01*
X113493279Y-42397835D01*
X113493600Y-42406824D01*
X113493600Y-43291876D01*
X113473598Y-43359997D01*
X113456695Y-43380971D01*
X98541143Y-58296523D01*
X98478831Y-58330549D01*
X98408016Y-58325484D01*
X98351180Y-58282937D01*
X98336501Y-58257676D01*
X98333420Y-58250591D01*
X98333419Y-58250589D01*
X98331354Y-58245840D01*
X98210014Y-58058277D01*
X98190117Y-58036410D01*
X98171306Y-58015737D01*
X98140254Y-57951891D01*
X98138500Y-57930938D01*
X98138500Y-57509925D01*
X98158502Y-57441804D01*
X98175405Y-57420830D01*
X105492040Y-50104195D01*
X113278505Y-42317729D01*
X113340817Y-42283703D01*
X113411632Y-42288768D01*
G37*
%TD.AperFunction*%
%TA.AperFunction,Conductor*%
G36*
X91358997Y-33228702D02*
G01*
X91405490Y-33282358D01*
X91415594Y-33352632D01*
X91386100Y-33417212D01*
X91379971Y-33423795D01*
X86300621Y-38503145D01*
X86290478Y-38512247D01*
X86260975Y-38535968D01*
X86257008Y-38540696D01*
X86228709Y-38574421D01*
X86225528Y-38578069D01*
X86223885Y-38579881D01*
X86221691Y-38582075D01*
X86194358Y-38615349D01*
X86193696Y-38616147D01*
X86133846Y-38687474D01*
X86131278Y-38692144D01*
X86127897Y-38696261D01*
X86096860Y-38754145D01*
X86084023Y-38778086D01*
X86083394Y-38779245D01*
X86041538Y-38855381D01*
X86041535Y-38855389D01*
X86038567Y-38860787D01*
X86036955Y-38865869D01*
X86034438Y-38870563D01*
X86007238Y-38959531D01*
X86006918Y-38960559D01*
X85978765Y-39049306D01*
X85978171Y-39054602D01*
X85976613Y-39059698D01*
X85975990Y-39065834D01*
X85967218Y-39152187D01*
X85967089Y-39153393D01*
X85961500Y-39203227D01*
X85961500Y-39206754D01*
X85961445Y-39207739D01*
X85960998Y-39213419D01*
X85956626Y-39256462D01*
X85959104Y-39282676D01*
X85960941Y-39302109D01*
X85961500Y-39313967D01*
X85961500Y-40148381D01*
X85941498Y-40216502D01*
X85926594Y-40235432D01*
X85910629Y-40252138D01*
X85803201Y-40409621D01*
X85748293Y-40454621D01*
X85677768Y-40462792D01*
X85614021Y-40431538D01*
X85593324Y-40407054D01*
X85512822Y-40282617D01*
X85512820Y-40282614D01*
X85510014Y-40278277D01*
X85359670Y-40113051D01*
X85355619Y-40109852D01*
X85355615Y-40109848D01*
X85188414Y-39977800D01*
X85188410Y-39977798D01*
X85184359Y-39974598D01*
X84988789Y-39866638D01*
X84983920Y-39864914D01*
X84983916Y-39864912D01*
X84783087Y-39793795D01*
X84783083Y-39793794D01*
X84778212Y-39792069D01*
X84773119Y-39791162D01*
X84773116Y-39791161D01*
X84563373Y-39753800D01*
X84563367Y-39753799D01*
X84558284Y-39752894D01*
X84484452Y-39751992D01*
X84340081Y-39750228D01*
X84340079Y-39750228D01*
X84334911Y-39750165D01*
X84114091Y-39783955D01*
X83901756Y-39853357D01*
X83703607Y-39956507D01*
X83699474Y-39959610D01*
X83699471Y-39959612D01*
X83531837Y-40085475D01*
X83524965Y-40090635D01*
X83506605Y-40109848D01*
X83380931Y-40241358D01*
X83370629Y-40252138D01*
X83263201Y-40409621D01*
X83208293Y-40454621D01*
X83137768Y-40462792D01*
X83074021Y-40431538D01*
X83053324Y-40407054D01*
X82972822Y-40282617D01*
X82972820Y-40282614D01*
X82970014Y-40278277D01*
X82819670Y-40113051D01*
X82815619Y-40109852D01*
X82815615Y-40109848D01*
X82648414Y-39977800D01*
X82648410Y-39977798D01*
X82644359Y-39974598D01*
X82448789Y-39866638D01*
X82443920Y-39864914D01*
X82443916Y-39864912D01*
X82243087Y-39793795D01*
X82243083Y-39793794D01*
X82238212Y-39792069D01*
X82233119Y-39791162D01*
X82233116Y-39791161D01*
X82023373Y-39753800D01*
X82023367Y-39753799D01*
X82018284Y-39752894D01*
X81944452Y-39751992D01*
X81800081Y-39750228D01*
X81800079Y-39750228D01*
X81794911Y-39750165D01*
X81574091Y-39783955D01*
X81361756Y-39853357D01*
X81163607Y-39956507D01*
X81159474Y-39959610D01*
X81159471Y-39959612D01*
X80991837Y-40085475D01*
X80984965Y-40090635D01*
X80966605Y-40109848D01*
X80840931Y-40241358D01*
X80830629Y-40252138D01*
X80827720Y-40256403D01*
X80827714Y-40256411D01*
X80790003Y-40311693D01*
X80704743Y-40436680D01*
X80678338Y-40493565D01*
X80625623Y-40607131D01*
X80610688Y-40639305D01*
X80550989Y-40854570D01*
X80527251Y-41076695D01*
X80527548Y-41081848D01*
X80527548Y-41081851D01*
X80539812Y-41294547D01*
X80540110Y-41299715D01*
X80541247Y-41304761D01*
X80541248Y-41304767D01*
X80549344Y-41340691D01*
X80589222Y-41517639D01*
X80673266Y-41724616D01*
X80713535Y-41790329D01*
X80787291Y-41910688D01*
X80789987Y-41915088D01*
X80936250Y-42083938D01*
X81108126Y-42226632D01*
X81301000Y-42339338D01*
X81305825Y-42341180D01*
X81305826Y-42341181D01*
X81342656Y-42355245D01*
X81509692Y-42419030D01*
X81514760Y-42420061D01*
X81514763Y-42420062D01*
X81599196Y-42437240D01*
X81728597Y-42463567D01*
X81733772Y-42463757D01*
X81733774Y-42463757D01*
X81946673Y-42471564D01*
X81946677Y-42471564D01*
X81951837Y-42471753D01*
X81956957Y-42471097D01*
X81956959Y-42471097D01*
X82168288Y-42444025D01*
X82168289Y-42444025D01*
X82173416Y-42443368D01*
X82193842Y-42437240D01*
X82382429Y-42380661D01*
X82382434Y-42380659D01*
X82387384Y-42379174D01*
X82587994Y-42280896D01*
X82769860Y-42151173D01*
X82776261Y-42144795D01*
X82891900Y-42029559D01*
X82928096Y-41993489D01*
X82946326Y-41968120D01*
X83058453Y-41812077D01*
X83059776Y-41813028D01*
X83106645Y-41769857D01*
X83176580Y-41757625D01*
X83242026Y-41785144D01*
X83269875Y-41816994D01*
X83329987Y-41915088D01*
X83476250Y-42083938D01*
X83648126Y-42226632D01*
X83841000Y-42339338D01*
X83845825Y-42341180D01*
X83845826Y-42341181D01*
X83882656Y-42355245D01*
X84049692Y-42419030D01*
X84054760Y-42420061D01*
X84054763Y-42420062D01*
X84139196Y-42437240D01*
X84268597Y-42463567D01*
X84273772Y-42463757D01*
X84273774Y-42463757D01*
X84486673Y-42471564D01*
X84486677Y-42471564D01*
X84491837Y-42471753D01*
X84496957Y-42471097D01*
X84496959Y-42471097D01*
X84708288Y-42444025D01*
X84708289Y-42444025D01*
X84713416Y-42443368D01*
X84733842Y-42437240D01*
X84922429Y-42380661D01*
X84922434Y-42380659D01*
X84927384Y-42379174D01*
X85127994Y-42280896D01*
X85309860Y-42151173D01*
X85316261Y-42144795D01*
X85431900Y-42029559D01*
X85468096Y-41993489D01*
X85486326Y-41968120D01*
X85598453Y-41812077D01*
X85599776Y-41813028D01*
X85646645Y-41769857D01*
X85716580Y-41757625D01*
X85782026Y-41785144D01*
X85809875Y-41816994D01*
X85869987Y-41915088D01*
X86016250Y-42083938D01*
X86188126Y-42226632D01*
X86381000Y-42339338D01*
X86385825Y-42341180D01*
X86385826Y-42341181D01*
X86422656Y-42355245D01*
X86589692Y-42419030D01*
X86594760Y-42420061D01*
X86594763Y-42420062D01*
X86679196Y-42437240D01*
X86808597Y-42463567D01*
X86813772Y-42463757D01*
X86813774Y-42463757D01*
X87026673Y-42471564D01*
X87026677Y-42471564D01*
X87031837Y-42471753D01*
X87036957Y-42471097D01*
X87036959Y-42471097D01*
X87248288Y-42444025D01*
X87248289Y-42444025D01*
X87253416Y-42443368D01*
X87273842Y-42437240D01*
X87462429Y-42380661D01*
X87462434Y-42380659D01*
X87467384Y-42379174D01*
X87667994Y-42280896D01*
X87849860Y-42151173D01*
X87856261Y-42144795D01*
X87971900Y-42029559D01*
X88008096Y-41993489D01*
X88026326Y-41968120D01*
X88138453Y-41812077D01*
X88139776Y-41813028D01*
X88186645Y-41769857D01*
X88256580Y-41757625D01*
X88322026Y-41785144D01*
X88349875Y-41816994D01*
X88409987Y-41915088D01*
X88456156Y-41968386D01*
X88470737Y-41985219D01*
X88500220Y-42049804D01*
X88501500Y-42067717D01*
X88501500Y-42900127D01*
X88500810Y-42913297D01*
X88496645Y-42952925D01*
X88501218Y-43003173D01*
X88501500Y-43007207D01*
X88501500Y-43009769D01*
X88501800Y-43012827D01*
X88501800Y-43012831D01*
X88505895Y-43054596D01*
X88505977Y-43055471D01*
X88514570Y-43149888D01*
X88515573Y-43153297D01*
X88515920Y-43156833D01*
X88534540Y-43218504D01*
X88543334Y-43247630D01*
X88543561Y-43248390D01*
X88570410Y-43339619D01*
X88572058Y-43342772D01*
X88573084Y-43346169D01*
X88575971Y-43351599D01*
X88575972Y-43351601D01*
X88617669Y-43430022D01*
X88618016Y-43430681D01*
X88662040Y-43514890D01*
X88664265Y-43517658D01*
X88665934Y-43520796D01*
X88669831Y-43525574D01*
X88725941Y-43594372D01*
X88726494Y-43595056D01*
X88782102Y-43664218D01*
X88782108Y-43664224D01*
X88785968Y-43669025D01*
X88788689Y-43671308D01*
X88790935Y-43674062D01*
X88795682Y-43677989D01*
X88795684Y-43677991D01*
X88814256Y-43693355D01*
X88864136Y-43734619D01*
X88864671Y-43735065D01*
X88870647Y-43740079D01*
X88927373Y-43787678D01*
X88937474Y-43796154D01*
X88940589Y-43797866D01*
X88943325Y-43800130D01*
X88948746Y-43803061D01*
X89026865Y-43845300D01*
X89027603Y-43845702D01*
X89072895Y-43870602D01*
X89099284Y-43885109D01*
X89110787Y-43891433D01*
X89114170Y-43892506D01*
X89117299Y-43894198D01*
X89208002Y-43922275D01*
X89208842Y-43922538D01*
X89293435Y-43949373D01*
X89293439Y-43949374D01*
X89299306Y-43951235D01*
X89302837Y-43951631D01*
X89306232Y-43952682D01*
X89400707Y-43962611D01*
X89401421Y-43962689D01*
X89453227Y-43968500D01*
X89455800Y-43968500D01*
X89459776Y-43968820D01*
X89496796Y-43972711D01*
X89496798Y-43972711D01*
X89502925Y-43973355D01*
X89550570Y-43969019D01*
X89561990Y-43968500D01*
X91738175Y-43968500D01*
X91806296Y-43988502D01*
X91827270Y-44005405D01*
X93314075Y-45492209D01*
X93316815Y-45494459D01*
X93316869Y-45494539D01*
X93318738Y-45496234D01*
X93318329Y-45496685D01*
X93356762Y-45553148D01*
X93358638Y-45624120D01*
X93325941Y-45680924D01*
X88523707Y-50483158D01*
X88461395Y-50517184D01*
X88390580Y-50512119D01*
X88336416Y-50473016D01*
X88314198Y-50445383D01*
X88314196Y-50445381D01*
X88310332Y-50440575D01*
X88158826Y-50313446D01*
X88153428Y-50310479D01*
X88153423Y-50310475D01*
X87990908Y-50221133D01*
X87990909Y-50221133D01*
X87985513Y-50218167D01*
X87979646Y-50216306D01*
X87979644Y-50216305D01*
X87802864Y-50160227D01*
X87802863Y-50160227D01*
X87796994Y-50158365D01*
X87643073Y-50141100D01*
X84779524Y-50141100D01*
X84711403Y-50121098D01*
X84690429Y-50104195D01*
X77193492Y-42607258D01*
X77159466Y-42544946D01*
X77164531Y-42474131D01*
X77207078Y-42417295D01*
X77246378Y-42397478D01*
X77302421Y-42380664D01*
X77302432Y-42380660D01*
X77307384Y-42379174D01*
X77507994Y-42280896D01*
X77689860Y-42151173D01*
X77696261Y-42144795D01*
X77811900Y-42029559D01*
X77848096Y-41993489D01*
X77866326Y-41968120D01*
X77975435Y-41816277D01*
X77978453Y-41812077D01*
X77984461Y-41799922D01*
X78075136Y-41616453D01*
X78075137Y-41616451D01*
X78077430Y-41611811D01*
X78142370Y-41398069D01*
X78171529Y-41176590D01*
X78172352Y-41142924D01*
X78173074Y-41113365D01*
X78173074Y-41113361D01*
X78173156Y-41110000D01*
X78154852Y-40887361D01*
X78100431Y-40670702D01*
X78011354Y-40465840D01*
X77911632Y-40311693D01*
X77892822Y-40282617D01*
X77892820Y-40282614D01*
X77890014Y-40278277D01*
X77739670Y-40113051D01*
X77735619Y-40109852D01*
X77735615Y-40109848D01*
X77568414Y-39977800D01*
X77568410Y-39977798D01*
X77564359Y-39974598D01*
X77368789Y-39866638D01*
X77363920Y-39864914D01*
X77363916Y-39864912D01*
X77163087Y-39793795D01*
X77163083Y-39793794D01*
X77158212Y-39792069D01*
X77153119Y-39791162D01*
X77153116Y-39791161D01*
X76943373Y-39753800D01*
X76943367Y-39753799D01*
X76938284Y-39752894D01*
X76864452Y-39751992D01*
X76720081Y-39750228D01*
X76720079Y-39750228D01*
X76714911Y-39750165D01*
X76494091Y-39783955D01*
X76281756Y-39853357D01*
X76083607Y-39956507D01*
X76079474Y-39959610D01*
X76079471Y-39959612D01*
X75911837Y-40085475D01*
X75904965Y-40090635D01*
X75886605Y-40109848D01*
X75760931Y-40241358D01*
X75750629Y-40252138D01*
X75643201Y-40409621D01*
X75588293Y-40454621D01*
X75517768Y-40462792D01*
X75454021Y-40431538D01*
X75433324Y-40407054D01*
X75352822Y-40282617D01*
X75352820Y-40282614D01*
X75350014Y-40278277D01*
X75199670Y-40113051D01*
X75195619Y-40109852D01*
X75195615Y-40109848D01*
X75028414Y-39977800D01*
X75028410Y-39977798D01*
X75024359Y-39974598D01*
X74828789Y-39866638D01*
X74823920Y-39864914D01*
X74823916Y-39864912D01*
X74623087Y-39793795D01*
X74623083Y-39793794D01*
X74618212Y-39792069D01*
X74613119Y-39791162D01*
X74613116Y-39791161D01*
X74403373Y-39753800D01*
X74403367Y-39753799D01*
X74398284Y-39752894D01*
X74324452Y-39751992D01*
X74180081Y-39750228D01*
X74180079Y-39750228D01*
X74174911Y-39750165D01*
X73954091Y-39783955D01*
X73741756Y-39853357D01*
X73543607Y-39956507D01*
X73539474Y-39959610D01*
X73539471Y-39959612D01*
X73371837Y-40085475D01*
X73364965Y-40090635D01*
X73346605Y-40109848D01*
X73220931Y-40241358D01*
X73210629Y-40252138D01*
X73103201Y-40409621D01*
X73048293Y-40454621D01*
X72977768Y-40462792D01*
X72914021Y-40431538D01*
X72893324Y-40407054D01*
X72812822Y-40282617D01*
X72812820Y-40282614D01*
X72810014Y-40278277D01*
X72659670Y-40113051D01*
X72655619Y-40109852D01*
X72655615Y-40109848D01*
X72488414Y-39977800D01*
X72488410Y-39977798D01*
X72484359Y-39974598D01*
X72288789Y-39866638D01*
X72283920Y-39864914D01*
X72283916Y-39864912D01*
X72083087Y-39793795D01*
X72083083Y-39793794D01*
X72078212Y-39792069D01*
X72073119Y-39791162D01*
X72073116Y-39791161D01*
X71863373Y-39753800D01*
X71863367Y-39753799D01*
X71858284Y-39752894D01*
X71784452Y-39751992D01*
X71640081Y-39750228D01*
X71640079Y-39750228D01*
X71634911Y-39750165D01*
X71414091Y-39783955D01*
X71201756Y-39853357D01*
X71003607Y-39956507D01*
X70999474Y-39959610D01*
X70999471Y-39959612D01*
X70831837Y-40085475D01*
X70824965Y-40090635D01*
X70806605Y-40109848D01*
X70680931Y-40241358D01*
X70670629Y-40252138D01*
X70563201Y-40409621D01*
X70508293Y-40454621D01*
X70437768Y-40462792D01*
X70374021Y-40431538D01*
X70353324Y-40407054D01*
X70272822Y-40282617D01*
X70272820Y-40282614D01*
X70270014Y-40278277D01*
X70119670Y-40113051D01*
X70115619Y-40109852D01*
X70115615Y-40109848D01*
X69948414Y-39977800D01*
X69948410Y-39977798D01*
X69944359Y-39974598D01*
X69748789Y-39866638D01*
X69743920Y-39864914D01*
X69743916Y-39864912D01*
X69543087Y-39793795D01*
X69543083Y-39793794D01*
X69538212Y-39792069D01*
X69533119Y-39791162D01*
X69533116Y-39791161D01*
X69323373Y-39753800D01*
X69323367Y-39753799D01*
X69318284Y-39752894D01*
X69244452Y-39751992D01*
X69100081Y-39750228D01*
X69100079Y-39750228D01*
X69094911Y-39750165D01*
X68874091Y-39783955D01*
X68661756Y-39853357D01*
X68463607Y-39956507D01*
X68459474Y-39959610D01*
X68459471Y-39959612D01*
X68291837Y-40085475D01*
X68284965Y-40090635D01*
X68266605Y-40109848D01*
X68140931Y-40241358D01*
X68130629Y-40252138D01*
X68127720Y-40256403D01*
X68127714Y-40256411D01*
X68090003Y-40311693D01*
X68004743Y-40436680D01*
X67978338Y-40493565D01*
X67925623Y-40607131D01*
X67910688Y-40639305D01*
X67850989Y-40854570D01*
X67827251Y-41076695D01*
X67827548Y-41081848D01*
X67827548Y-41081851D01*
X67839812Y-41294547D01*
X67840110Y-41299715D01*
X67841247Y-41304761D01*
X67841248Y-41304767D01*
X67849344Y-41340691D01*
X67889222Y-41517639D01*
X67973266Y-41724616D01*
X68013535Y-41790329D01*
X68087291Y-41910688D01*
X68089987Y-41915088D01*
X68236250Y-42083938D01*
X68408126Y-42226632D01*
X68601000Y-42339338D01*
X68605825Y-42341180D01*
X68605826Y-42341181D01*
X68642656Y-42355245D01*
X68809692Y-42419030D01*
X68814760Y-42420061D01*
X68814763Y-42420062D01*
X68899196Y-42437240D01*
X69028597Y-42463567D01*
X69033772Y-42463757D01*
X69033774Y-42463757D01*
X69246673Y-42471564D01*
X69246677Y-42471564D01*
X69251837Y-42471753D01*
X69256957Y-42471097D01*
X69256959Y-42471097D01*
X69468288Y-42444025D01*
X69468289Y-42444025D01*
X69473416Y-42443368D01*
X69493842Y-42437240D01*
X69682429Y-42380661D01*
X69682434Y-42380659D01*
X69687384Y-42379174D01*
X69887994Y-42280896D01*
X70069860Y-42151173D01*
X70076261Y-42144795D01*
X70191900Y-42029559D01*
X70228096Y-41993489D01*
X70246326Y-41968120D01*
X70358453Y-41812077D01*
X70359776Y-41813028D01*
X70406645Y-41769857D01*
X70476580Y-41757625D01*
X70542026Y-41785144D01*
X70569875Y-41816994D01*
X70629987Y-41915088D01*
X70776250Y-42083938D01*
X70948126Y-42226632D01*
X71141000Y-42339338D01*
X71145825Y-42341180D01*
X71145826Y-42341181D01*
X71182656Y-42355245D01*
X71349692Y-42419030D01*
X71354760Y-42420061D01*
X71354763Y-42420062D01*
X71439196Y-42437240D01*
X71568597Y-42463567D01*
X71573772Y-42463757D01*
X71573774Y-42463757D01*
X71786673Y-42471564D01*
X71786677Y-42471564D01*
X71791837Y-42471753D01*
X71796957Y-42471097D01*
X71796959Y-42471097D01*
X72008288Y-42444025D01*
X72008289Y-42444025D01*
X72013416Y-42443368D01*
X72033842Y-42437240D01*
X72222429Y-42380661D01*
X72222434Y-42380659D01*
X72227384Y-42379174D01*
X72427994Y-42280896D01*
X72609860Y-42151173D01*
X72616261Y-42144795D01*
X72731900Y-42029559D01*
X72768096Y-41993489D01*
X72786326Y-41968120D01*
X72898453Y-41812077D01*
X72899776Y-41813028D01*
X72946645Y-41769857D01*
X73016580Y-41757625D01*
X73082026Y-41785144D01*
X73109875Y-41816994D01*
X73169987Y-41915088D01*
X73316250Y-42083938D01*
X73488126Y-42226632D01*
X73681000Y-42339338D01*
X73685825Y-42341180D01*
X73685826Y-42341181D01*
X73722656Y-42355245D01*
X73889692Y-42419030D01*
X73894760Y-42420061D01*
X73894763Y-42420062D01*
X74023555Y-42446265D01*
X74108597Y-42463567D01*
X74113772Y-42463757D01*
X74113774Y-42463757D01*
X74151239Y-42465131D01*
X74218581Y-42487616D01*
X74235716Y-42501951D01*
X83552749Y-51818984D01*
X83561851Y-51829127D01*
X83585568Y-51858625D01*
X83624046Y-51890912D01*
X83627662Y-51894067D01*
X83629488Y-51895723D01*
X83631674Y-51897909D01*
X83634054Y-51899864D01*
X83634064Y-51899873D01*
X83664868Y-51925176D01*
X83665883Y-51926018D01*
X83674525Y-51933269D01*
X83737074Y-51985754D01*
X83741748Y-51988323D01*
X83745861Y-51991702D01*
X83827597Y-52035528D01*
X83827647Y-52035555D01*
X83828777Y-52036168D01*
X83862045Y-52054457D01*
X83880514Y-52064610D01*
X83910387Y-52081033D01*
X83915469Y-52082645D01*
X83920163Y-52085162D01*
X84009131Y-52112362D01*
X84010159Y-52112682D01*
X84098906Y-52140835D01*
X84104202Y-52141429D01*
X84109298Y-52142987D01*
X84201822Y-52152385D01*
X84202942Y-52152505D01*
X84236264Y-52156242D01*
X84249330Y-52157708D01*
X84249334Y-52157708D01*
X84252827Y-52158100D01*
X84256354Y-52158100D01*
X84257357Y-52158156D01*
X84263041Y-52158603D01*
X84288457Y-52161185D01*
X84299936Y-52162351D01*
X84299938Y-52162351D01*
X84306062Y-52162973D01*
X84351701Y-52158659D01*
X84363557Y-52158100D01*
X86544576Y-52158100D01*
X86612697Y-52178102D01*
X86659190Y-52231758D01*
X86669294Y-52302032D01*
X86639800Y-52366612D01*
X86633671Y-52373195D01*
X85005671Y-54001195D01*
X84943359Y-54035221D01*
X84916576Y-54038100D01*
X78175240Y-54038100D01*
X78161632Y-54037363D01*
X78130136Y-54033941D01*
X78130132Y-54033941D01*
X78124011Y-54033276D01*
X78106011Y-54034851D01*
X78074009Y-54037650D01*
X78069184Y-54037979D01*
X78066713Y-54038100D01*
X78063631Y-54038100D01*
X78041163Y-54040303D01*
X78020889Y-54042291D01*
X78019574Y-54042413D01*
X77987313Y-54045236D01*
X77926987Y-54050513D01*
X77921868Y-54052000D01*
X77916567Y-54052520D01*
X77827594Y-54079382D01*
X77826454Y-54079720D01*
X77737063Y-54105691D01*
X77732329Y-54108145D01*
X77727231Y-54109684D01*
X77721787Y-54112578D01*
X77721786Y-54112579D01*
X77645231Y-54153284D01*
X77644063Y-54153898D01*
X77592490Y-54180631D01*
X77561474Y-54196708D01*
X77557311Y-54200031D01*
X77552604Y-54202534D01*
X77547830Y-54206428D01*
X77547828Y-54206429D01*
X77480505Y-54261337D01*
X77479560Y-54262100D01*
X77440427Y-54293339D01*
X77437936Y-54295830D01*
X77437209Y-54296480D01*
X77432863Y-54300192D01*
X77418129Y-54312209D01*
X77399338Y-54327535D01*
X77395415Y-54332277D01*
X77395413Y-54332279D01*
X77370103Y-54362873D01*
X77362113Y-54371653D01*
X74237992Y-57495774D01*
X74175680Y-57529800D01*
X74167956Y-57531229D01*
X74085368Y-57543867D01*
X73954091Y-57563955D01*
X73741756Y-57633357D01*
X73711443Y-57649137D01*
X73576923Y-57719164D01*
X73543607Y-57736507D01*
X73539474Y-57739610D01*
X73539471Y-57739612D01*
X73369100Y-57867530D01*
X73364965Y-57870635D01*
X73309782Y-57928381D01*
X73244684Y-57996502D01*
X73210629Y-58032138D01*
X73103201Y-58189621D01*
X73048293Y-58234621D01*
X72977768Y-58242792D01*
X72914021Y-58211538D01*
X72893324Y-58187054D01*
X72812822Y-58062617D01*
X72812820Y-58062614D01*
X72810014Y-58058277D01*
X72659670Y-57893051D01*
X72655619Y-57889852D01*
X72655615Y-57889848D01*
X72488414Y-57757800D01*
X72488410Y-57757798D01*
X72484359Y-57754598D01*
X72288789Y-57646638D01*
X72283920Y-57644914D01*
X72283916Y-57644912D01*
X72083087Y-57573795D01*
X72083083Y-57573794D01*
X72078212Y-57572069D01*
X72073119Y-57571162D01*
X72073116Y-57571161D01*
X72001361Y-57558380D01*
X71858284Y-57532894D01*
X71849684Y-57532789D01*
X71848351Y-57532380D01*
X71847961Y-57532343D01*
X71847969Y-57532262D01*
X71781813Y-57511957D01*
X71762127Y-57495893D01*
X58223255Y-43957021D01*
X58214153Y-43946878D01*
X58194297Y-43922182D01*
X58190432Y-43917375D01*
X58151978Y-43885108D01*
X58148331Y-43881928D01*
X58146519Y-43880285D01*
X58144325Y-43878091D01*
X58111051Y-43850758D01*
X58110253Y-43850096D01*
X58038926Y-43790246D01*
X58034256Y-43787678D01*
X58030139Y-43784297D01*
X57948314Y-43740423D01*
X57947155Y-43739794D01*
X57871019Y-43697938D01*
X57871011Y-43697935D01*
X57865613Y-43694967D01*
X57860531Y-43693355D01*
X57855837Y-43690838D01*
X57766869Y-43663638D01*
X57765841Y-43663318D01*
X57677094Y-43635165D01*
X57671798Y-43634571D01*
X57666702Y-43633013D01*
X57574143Y-43623610D01*
X57573007Y-43623489D01*
X57539392Y-43619719D01*
X57526670Y-43618292D01*
X57526666Y-43618292D01*
X57523173Y-43617900D01*
X57519646Y-43617900D01*
X57518661Y-43617845D01*
X57512981Y-43617398D01*
X57483575Y-43614411D01*
X57476063Y-43613648D01*
X57476061Y-43613648D01*
X57469938Y-43613026D01*
X57427659Y-43617023D01*
X57424291Y-43617341D01*
X57412433Y-43617900D01*
X50643925Y-43617900D01*
X50575804Y-43597898D01*
X50554830Y-43580995D01*
X50028431Y-43054596D01*
X49482411Y-42508577D01*
X49448386Y-42446265D01*
X49453450Y-42375450D01*
X49495997Y-42318614D01*
X49516063Y-42306337D01*
X49567994Y-42280896D01*
X49749860Y-42151173D01*
X49756261Y-42144795D01*
X49871900Y-42029559D01*
X49908096Y-41993489D01*
X49926326Y-41968120D01*
X50038453Y-41812077D01*
X50039776Y-41813028D01*
X50086645Y-41769857D01*
X50156580Y-41757625D01*
X50222026Y-41785144D01*
X50249875Y-41816994D01*
X50309987Y-41915088D01*
X50456250Y-42083938D01*
X50628126Y-42226632D01*
X50821000Y-42339338D01*
X50825825Y-42341180D01*
X50825826Y-42341181D01*
X50862656Y-42355245D01*
X51029692Y-42419030D01*
X51034760Y-42420061D01*
X51034763Y-42420062D01*
X51119196Y-42437240D01*
X51248597Y-42463567D01*
X51253772Y-42463757D01*
X51253774Y-42463757D01*
X51466673Y-42471564D01*
X51466677Y-42471564D01*
X51471837Y-42471753D01*
X51476957Y-42471097D01*
X51476959Y-42471097D01*
X51688288Y-42444025D01*
X51688289Y-42444025D01*
X51693416Y-42443368D01*
X51713842Y-42437240D01*
X51902429Y-42380661D01*
X51902434Y-42380659D01*
X51907384Y-42379174D01*
X52107994Y-42280896D01*
X52289860Y-42151173D01*
X52296261Y-42144795D01*
X52411900Y-42029559D01*
X52448096Y-41993489D01*
X52466326Y-41968120D01*
X52575435Y-41816277D01*
X52578453Y-41812077D01*
X52584461Y-41799922D01*
X52675136Y-41616453D01*
X52675137Y-41616451D01*
X52677430Y-41611811D01*
X52742370Y-41398069D01*
X52771529Y-41176590D01*
X52772352Y-41142924D01*
X52773074Y-41113365D01*
X52773074Y-41113361D01*
X52773156Y-41110000D01*
X52770418Y-41076695D01*
X55127251Y-41076695D01*
X55127548Y-41081848D01*
X55127548Y-41081851D01*
X55139812Y-41294547D01*
X55140110Y-41299715D01*
X55141247Y-41304761D01*
X55141248Y-41304767D01*
X55149344Y-41340691D01*
X55189222Y-41517639D01*
X55273266Y-41724616D01*
X55313535Y-41790329D01*
X55387291Y-41910688D01*
X55389987Y-41915088D01*
X55536250Y-42083938D01*
X55708126Y-42226632D01*
X55901000Y-42339338D01*
X55905825Y-42341180D01*
X55905826Y-42341181D01*
X55942656Y-42355245D01*
X56109692Y-42419030D01*
X56114760Y-42420061D01*
X56114763Y-42420062D01*
X56199196Y-42437240D01*
X56328597Y-42463567D01*
X56333772Y-42463757D01*
X56333774Y-42463757D01*
X56546673Y-42471564D01*
X56546677Y-42471564D01*
X56551837Y-42471753D01*
X56556957Y-42471097D01*
X56556959Y-42471097D01*
X56768288Y-42444025D01*
X56768289Y-42444025D01*
X56773416Y-42443368D01*
X56793842Y-42437240D01*
X56982429Y-42380661D01*
X56982434Y-42380659D01*
X56987384Y-42379174D01*
X57187994Y-42280896D01*
X57369860Y-42151173D01*
X57376261Y-42144795D01*
X57491900Y-42029559D01*
X57528096Y-41993489D01*
X57546326Y-41968120D01*
X57658453Y-41812077D01*
X57659776Y-41813028D01*
X57706645Y-41769857D01*
X57776580Y-41757625D01*
X57842026Y-41785144D01*
X57869875Y-41816994D01*
X57929987Y-41915088D01*
X58076250Y-42083938D01*
X58248126Y-42226632D01*
X58441000Y-42339338D01*
X58445825Y-42341180D01*
X58445826Y-42341181D01*
X58482656Y-42355245D01*
X58649692Y-42419030D01*
X58654760Y-42420061D01*
X58654763Y-42420062D01*
X58739196Y-42437240D01*
X58868597Y-42463567D01*
X58873772Y-42463757D01*
X58873774Y-42463757D01*
X59086673Y-42471564D01*
X59086677Y-42471564D01*
X59091837Y-42471753D01*
X59096957Y-42471097D01*
X59096959Y-42471097D01*
X59308288Y-42444025D01*
X59308289Y-42444025D01*
X59313416Y-42443368D01*
X59333842Y-42437240D01*
X59522429Y-42380661D01*
X59522434Y-42380659D01*
X59527384Y-42379174D01*
X59727994Y-42280896D01*
X59909860Y-42151173D01*
X59916261Y-42144795D01*
X60031900Y-42029559D01*
X60068096Y-41993489D01*
X60086326Y-41968120D01*
X60198453Y-41812077D01*
X60199776Y-41813028D01*
X60246645Y-41769857D01*
X60316580Y-41757625D01*
X60382026Y-41785144D01*
X60409875Y-41816994D01*
X60469987Y-41915088D01*
X60616250Y-42083938D01*
X60788126Y-42226632D01*
X60981000Y-42339338D01*
X60985825Y-42341180D01*
X60985826Y-42341181D01*
X61022656Y-42355245D01*
X61189692Y-42419030D01*
X61194760Y-42420061D01*
X61194763Y-42420062D01*
X61279196Y-42437240D01*
X61408597Y-42463567D01*
X61413772Y-42463757D01*
X61413774Y-42463757D01*
X61626673Y-42471564D01*
X61626677Y-42471564D01*
X61631837Y-42471753D01*
X61636957Y-42471097D01*
X61636959Y-42471097D01*
X61848288Y-42444025D01*
X61848289Y-42444025D01*
X61853416Y-42443368D01*
X61873842Y-42437240D01*
X62062429Y-42380661D01*
X62062434Y-42380659D01*
X62067384Y-42379174D01*
X62267994Y-42280896D01*
X62449860Y-42151173D01*
X62456261Y-42144795D01*
X62571900Y-42029559D01*
X62608096Y-41993489D01*
X62626326Y-41968120D01*
X62738453Y-41812077D01*
X62739776Y-41813028D01*
X62786645Y-41769857D01*
X62856580Y-41757625D01*
X62922026Y-41785144D01*
X62949875Y-41816994D01*
X63009987Y-41915088D01*
X63156250Y-42083938D01*
X63328126Y-42226632D01*
X63521000Y-42339338D01*
X63525825Y-42341180D01*
X63525826Y-42341181D01*
X63562656Y-42355245D01*
X63729692Y-42419030D01*
X63734760Y-42420061D01*
X63734763Y-42420062D01*
X63819196Y-42437240D01*
X63948597Y-42463567D01*
X63953772Y-42463757D01*
X63953774Y-42463757D01*
X64166673Y-42471564D01*
X64166677Y-42471564D01*
X64171837Y-42471753D01*
X64176957Y-42471097D01*
X64176959Y-42471097D01*
X64388288Y-42444025D01*
X64388289Y-42444025D01*
X64393416Y-42443368D01*
X64413842Y-42437240D01*
X64602429Y-42380661D01*
X64602434Y-42380659D01*
X64607384Y-42379174D01*
X64807994Y-42280896D01*
X64989860Y-42151173D01*
X64996261Y-42144795D01*
X65111900Y-42029559D01*
X65148096Y-41993489D01*
X65166326Y-41968120D01*
X65275435Y-41816277D01*
X65278453Y-41812077D01*
X65284461Y-41799922D01*
X65375136Y-41616453D01*
X65375137Y-41616451D01*
X65377430Y-41611811D01*
X65442370Y-41398069D01*
X65471529Y-41176590D01*
X65472352Y-41142924D01*
X65473074Y-41113365D01*
X65473074Y-41113361D01*
X65473156Y-41110000D01*
X65454852Y-40887361D01*
X65400431Y-40670702D01*
X65311354Y-40465840D01*
X65211632Y-40311693D01*
X65192822Y-40282617D01*
X65192820Y-40282614D01*
X65190014Y-40278277D01*
X65039670Y-40113051D01*
X65035619Y-40109852D01*
X65035615Y-40109848D01*
X64868414Y-39977800D01*
X64868410Y-39977798D01*
X64864359Y-39974598D01*
X64668789Y-39866638D01*
X64663920Y-39864914D01*
X64663916Y-39864912D01*
X64463087Y-39793795D01*
X64463083Y-39793794D01*
X64458212Y-39792069D01*
X64453119Y-39791162D01*
X64453116Y-39791161D01*
X64243373Y-39753800D01*
X64243367Y-39753799D01*
X64238284Y-39752894D01*
X64164452Y-39751992D01*
X64020081Y-39750228D01*
X64020079Y-39750228D01*
X64014911Y-39750165D01*
X63794091Y-39783955D01*
X63581756Y-39853357D01*
X63383607Y-39956507D01*
X63379474Y-39959610D01*
X63379471Y-39959612D01*
X63211837Y-40085475D01*
X63204965Y-40090635D01*
X63186605Y-40109848D01*
X63060931Y-40241358D01*
X63050629Y-40252138D01*
X62943201Y-40409621D01*
X62888293Y-40454621D01*
X62817768Y-40462792D01*
X62754021Y-40431538D01*
X62733324Y-40407054D01*
X62652822Y-40282617D01*
X62652820Y-40282614D01*
X62650014Y-40278277D01*
X62499670Y-40113051D01*
X62495619Y-40109852D01*
X62495615Y-40109848D01*
X62328414Y-39977800D01*
X62328410Y-39977798D01*
X62324359Y-39974598D01*
X62128789Y-39866638D01*
X62123920Y-39864914D01*
X62123916Y-39864912D01*
X61923087Y-39793795D01*
X61923083Y-39793794D01*
X61918212Y-39792069D01*
X61913119Y-39791162D01*
X61913116Y-39791161D01*
X61703373Y-39753800D01*
X61703367Y-39753799D01*
X61698284Y-39752894D01*
X61624452Y-39751992D01*
X61480081Y-39750228D01*
X61480079Y-39750228D01*
X61474911Y-39750165D01*
X61254091Y-39783955D01*
X61041756Y-39853357D01*
X60843607Y-39956507D01*
X60839474Y-39959610D01*
X60839471Y-39959612D01*
X60671837Y-40085475D01*
X60664965Y-40090635D01*
X60646605Y-40109848D01*
X60520931Y-40241358D01*
X60510629Y-40252138D01*
X60403201Y-40409621D01*
X60348293Y-40454621D01*
X60277768Y-40462792D01*
X60214021Y-40431538D01*
X60193324Y-40407054D01*
X60112822Y-40282617D01*
X60112820Y-40282614D01*
X60110014Y-40278277D01*
X59959670Y-40113051D01*
X59955619Y-40109852D01*
X59955615Y-40109848D01*
X59788414Y-39977800D01*
X59788410Y-39977798D01*
X59784359Y-39974598D01*
X59588789Y-39866638D01*
X59583920Y-39864914D01*
X59583916Y-39864912D01*
X59383087Y-39793795D01*
X59383083Y-39793794D01*
X59378212Y-39792069D01*
X59373119Y-39791162D01*
X59373116Y-39791161D01*
X59163373Y-39753800D01*
X59163367Y-39753799D01*
X59158284Y-39752894D01*
X59084452Y-39751992D01*
X58940081Y-39750228D01*
X58940079Y-39750228D01*
X58934911Y-39750165D01*
X58714091Y-39783955D01*
X58501756Y-39853357D01*
X58303607Y-39956507D01*
X58299474Y-39959610D01*
X58299471Y-39959612D01*
X58131837Y-40085475D01*
X58124965Y-40090635D01*
X58106605Y-40109848D01*
X57980931Y-40241358D01*
X57970629Y-40252138D01*
X57863201Y-40409621D01*
X57808293Y-40454621D01*
X57737768Y-40462792D01*
X57674021Y-40431538D01*
X57653324Y-40407054D01*
X57572822Y-40282617D01*
X57572820Y-40282614D01*
X57570014Y-40278277D01*
X57419670Y-40113051D01*
X57415619Y-40109852D01*
X57415615Y-40109848D01*
X57248414Y-39977800D01*
X57248410Y-39977798D01*
X57244359Y-39974598D01*
X57048789Y-39866638D01*
X57043920Y-39864914D01*
X57043916Y-39864912D01*
X56843087Y-39793795D01*
X56843083Y-39793794D01*
X56838212Y-39792069D01*
X56833119Y-39791162D01*
X56833116Y-39791161D01*
X56623373Y-39753800D01*
X56623367Y-39753799D01*
X56618284Y-39752894D01*
X56544452Y-39751992D01*
X56400081Y-39750228D01*
X56400079Y-39750228D01*
X56394911Y-39750165D01*
X56174091Y-39783955D01*
X55961756Y-39853357D01*
X55763607Y-39956507D01*
X55759474Y-39959610D01*
X55759471Y-39959612D01*
X55591837Y-40085475D01*
X55584965Y-40090635D01*
X55566605Y-40109848D01*
X55440931Y-40241358D01*
X55430629Y-40252138D01*
X55427720Y-40256403D01*
X55427714Y-40256411D01*
X55390003Y-40311693D01*
X55304743Y-40436680D01*
X55278338Y-40493565D01*
X55225623Y-40607131D01*
X55210688Y-40639305D01*
X55150989Y-40854570D01*
X55127251Y-41076695D01*
X52770418Y-41076695D01*
X52754852Y-40887361D01*
X52700431Y-40670702D01*
X52611354Y-40465840D01*
X52511632Y-40311693D01*
X52492822Y-40282617D01*
X52492820Y-40282614D01*
X52490014Y-40278277D01*
X52339670Y-40113051D01*
X52335619Y-40109852D01*
X52335615Y-40109848D01*
X52168414Y-39977800D01*
X52168410Y-39977798D01*
X52164359Y-39974598D01*
X51968789Y-39866638D01*
X51963920Y-39864914D01*
X51963916Y-39864912D01*
X51763087Y-39793795D01*
X51763083Y-39793794D01*
X51758212Y-39792069D01*
X51753119Y-39791162D01*
X51753116Y-39791161D01*
X51543373Y-39753800D01*
X51543367Y-39753799D01*
X51538284Y-39752894D01*
X51464452Y-39751992D01*
X51320081Y-39750228D01*
X51320079Y-39750228D01*
X51314911Y-39750165D01*
X51094091Y-39783955D01*
X50881756Y-39853357D01*
X50683607Y-39956507D01*
X50679474Y-39959610D01*
X50679471Y-39959612D01*
X50511837Y-40085475D01*
X50504965Y-40090635D01*
X50486605Y-40109848D01*
X50360931Y-40241358D01*
X50350629Y-40252138D01*
X50243201Y-40409621D01*
X50188293Y-40454621D01*
X50117768Y-40462792D01*
X50054021Y-40431538D01*
X50033324Y-40407054D01*
X49952822Y-40282617D01*
X49952820Y-40282614D01*
X49950014Y-40278277D01*
X49799670Y-40113051D01*
X49795619Y-40109852D01*
X49795615Y-40109848D01*
X49628414Y-39977800D01*
X49628410Y-39977798D01*
X49624359Y-39974598D01*
X49507403Y-39910035D01*
X49457433Y-39859603D01*
X49442661Y-39790161D01*
X49467777Y-39723755D01*
X49479202Y-39710632D01*
X55944229Y-33245605D01*
X56006541Y-33211579D01*
X56033324Y-33208700D01*
X91290876Y-33208700D01*
X91358997Y-33228702D01*
G37*
%TD.AperFunction*%
%TA.AperFunction,Conductor*%
G36*
X102894332Y-40766468D02*
G01*
X102951168Y-40809015D01*
X102975979Y-40875535D01*
X102976300Y-40884524D01*
X102976300Y-47199176D01*
X102956298Y-47267297D01*
X102939395Y-47288271D01*
X98301452Y-51926214D01*
X98239140Y-51960240D01*
X98168325Y-51955175D01*
X98111489Y-51912628D01*
X98102566Y-51898627D01*
X98101354Y-51895840D01*
X98055717Y-51825296D01*
X97982822Y-51712617D01*
X97982820Y-51712614D01*
X97980014Y-51708277D01*
X97829670Y-51543051D01*
X97825619Y-51539852D01*
X97825615Y-51539848D01*
X97658414Y-51407800D01*
X97658410Y-51407798D01*
X97654359Y-51404598D01*
X97458789Y-51296638D01*
X97453920Y-51294914D01*
X97453916Y-51294912D01*
X97253087Y-51223795D01*
X97253083Y-51223794D01*
X97248212Y-51222069D01*
X97243119Y-51221162D01*
X97243116Y-51221161D01*
X97033373Y-51183800D01*
X97033367Y-51183799D01*
X97028284Y-51182894D01*
X96954452Y-51181992D01*
X96810081Y-51180228D01*
X96810079Y-51180228D01*
X96804911Y-51180165D01*
X96584091Y-51213955D01*
X96371756Y-51283357D01*
X96173607Y-51386507D01*
X96169474Y-51389610D01*
X96169471Y-51389612D01*
X96009228Y-51509926D01*
X95994965Y-51520635D01*
X95944164Y-51573795D01*
X95865876Y-51655719D01*
X95840629Y-51682138D01*
X95837715Y-51686410D01*
X95837714Y-51686411D01*
X95791200Y-51754598D01*
X95714743Y-51866680D01*
X95684916Y-51930938D01*
X95623791Y-52062621D01*
X95620688Y-52069305D01*
X95560989Y-52284570D01*
X95537251Y-52506695D01*
X95550110Y-52729715D01*
X95551247Y-52734761D01*
X95551248Y-52734767D01*
X95565354Y-52797359D01*
X95599222Y-52947639D01*
X95683266Y-53154616D01*
X95799987Y-53345088D01*
X95946250Y-53513938D01*
X96064511Y-53612120D01*
X96105113Y-53645828D01*
X96118126Y-53656632D01*
X96262981Y-53741278D01*
X96311704Y-53792917D01*
X96324775Y-53862700D01*
X96298043Y-53928472D01*
X96288505Y-53939161D01*
X95956671Y-54270995D01*
X95894359Y-54305021D01*
X95867576Y-54307900D01*
X90605450Y-54307900D01*
X90591842Y-54307163D01*
X90591262Y-54307100D01*
X90554212Y-54303075D01*
X90504170Y-54307453D01*
X90499388Y-54307779D01*
X90496910Y-54307900D01*
X90493831Y-54307900D01*
X90490777Y-54308199D01*
X90490766Y-54308200D01*
X90451129Y-54312087D01*
X90449815Y-54312209D01*
X90414288Y-54315317D01*
X90357187Y-54320313D01*
X90352068Y-54321800D01*
X90346767Y-54322320D01*
X90257766Y-54349191D01*
X90256633Y-54349526D01*
X90173186Y-54373770D01*
X90173182Y-54373772D01*
X90167264Y-54375491D01*
X90162532Y-54377944D01*
X90157431Y-54379484D01*
X90151988Y-54382378D01*
X90075340Y-54423131D01*
X90074174Y-54423743D01*
X89997147Y-54463671D01*
X89991674Y-54466508D01*
X89987511Y-54469831D01*
X89982804Y-54472334D01*
X89978029Y-54476228D01*
X89978028Y-54476229D01*
X89910702Y-54531139D01*
X89909675Y-54531967D01*
X89873392Y-54560931D01*
X89873387Y-54560936D01*
X89870628Y-54563138D01*
X89868127Y-54565639D01*
X89867409Y-54566281D01*
X89863061Y-54569994D01*
X89829538Y-54597335D01*
X89825615Y-54602077D01*
X89825613Y-54602079D01*
X89800303Y-54632673D01*
X89792313Y-54641453D01*
X86937992Y-57495774D01*
X86875680Y-57529800D01*
X86867956Y-57531229D01*
X86785368Y-57543867D01*
X86654091Y-57563955D01*
X86441756Y-57633357D01*
X86411443Y-57649137D01*
X86276923Y-57719164D01*
X86243607Y-57736507D01*
X86239474Y-57739610D01*
X86239471Y-57739612D01*
X86069100Y-57867530D01*
X86064965Y-57870635D01*
X86009782Y-57928381D01*
X85944684Y-57996502D01*
X85910629Y-58032138D01*
X85803201Y-58189621D01*
X85748293Y-58234621D01*
X85677768Y-58242792D01*
X85614021Y-58211538D01*
X85593324Y-58187055D01*
X85537009Y-58100005D01*
X85516803Y-58031948D01*
X85536599Y-57963767D01*
X85584816Y-57919703D01*
X85636853Y-57892729D01*
X85642326Y-57889892D01*
X85646489Y-57886569D01*
X85651196Y-57884066D01*
X85657191Y-57879177D01*
X85661568Y-57875607D01*
X85723318Y-57825245D01*
X85724174Y-57824554D01*
X85763373Y-57793262D01*
X85765877Y-57790758D01*
X85766595Y-57790116D01*
X85770928Y-57786415D01*
X85804462Y-57759065D01*
X85833688Y-57723737D01*
X85841677Y-57714958D01*
X95493783Y-48062852D01*
X95556095Y-48028826D01*
X95626910Y-48033891D01*
X95683746Y-48076438D01*
X95690308Y-48086108D01*
X95721301Y-48136683D01*
X95756825Y-48194653D01*
X95799987Y-48265088D01*
X95946250Y-48433938D01*
X96118126Y-48576632D01*
X96311000Y-48689338D01*
X96519692Y-48769030D01*
X96524760Y-48770061D01*
X96524763Y-48770062D01*
X96588297Y-48782988D01*
X96738597Y-48813567D01*
X96743772Y-48813757D01*
X96743774Y-48813757D01*
X96956673Y-48821564D01*
X96956677Y-48821564D01*
X96961837Y-48821753D01*
X96966957Y-48821097D01*
X96966959Y-48821097D01*
X97178288Y-48794025D01*
X97178289Y-48794025D01*
X97183416Y-48793368D01*
X97218014Y-48782988D01*
X97392429Y-48730661D01*
X97392434Y-48730659D01*
X97397384Y-48729174D01*
X97597994Y-48630896D01*
X97779860Y-48501173D01*
X97938096Y-48343489D01*
X97997594Y-48260689D01*
X98065435Y-48166277D01*
X98068453Y-48162077D01*
X98075408Y-48148006D01*
X98165136Y-47966453D01*
X98165137Y-47966451D01*
X98167430Y-47961811D01*
X98218574Y-47793476D01*
X98230865Y-47753023D01*
X98230865Y-47753021D01*
X98232370Y-47748069D01*
X98261529Y-47526590D01*
X98261611Y-47523240D01*
X98263074Y-47463365D01*
X98263074Y-47463361D01*
X98263156Y-47460000D01*
X98244852Y-47237361D01*
X98190431Y-47020702D01*
X98101354Y-46815840D01*
X97990426Y-46644371D01*
X97982822Y-46632617D01*
X97982820Y-46632614D01*
X97980014Y-46628277D01*
X97829670Y-46463051D01*
X97825619Y-46459852D01*
X97825615Y-46459848D01*
X97658414Y-46327800D01*
X97658410Y-46327798D01*
X97654359Y-46324598D01*
X97528898Y-46255340D01*
X97478928Y-46204908D01*
X97464156Y-46135466D01*
X97489272Y-46069060D01*
X97500697Y-46055937D01*
X102761205Y-40795429D01*
X102823517Y-40761403D01*
X102894332Y-40766468D01*
G37*
%TD.AperFunction*%
%TA.AperFunction,Conductor*%
G36*
X244353530Y-52068502D02*
G01*
X244400023Y-52122158D01*
X244410127Y-52192432D01*
X244399697Y-52227550D01*
X244373230Y-52284570D01*
X244310688Y-52419305D01*
X244250989Y-52634570D01*
X244227251Y-52856695D01*
X244227548Y-52861848D01*
X244227548Y-52861851D01*
X244232899Y-52954659D01*
X244240110Y-53079715D01*
X244241247Y-53084761D01*
X244241248Y-53084767D01*
X244287455Y-53289799D01*
X244282919Y-53360651D01*
X244240797Y-53417802D01*
X244174464Y-53443108D01*
X244164538Y-53443500D01*
X241931694Y-53443500D01*
X241863573Y-53423498D01*
X241817080Y-53369842D01*
X241806976Y-53299568D01*
X241811136Y-53280871D01*
X241821950Y-53245280D01*
X241842370Y-53178069D01*
X241871529Y-52956590D01*
X241873156Y-52890000D01*
X241854852Y-52667361D01*
X241800431Y-52450702D01*
X241711354Y-52245840D01*
X241708541Y-52241491D01*
X241706101Y-52236941D01*
X241707477Y-52236203D01*
X241689271Y-52174877D01*
X241709069Y-52106697D01*
X241762585Y-52060043D01*
X241815270Y-52048500D01*
X244285409Y-52048500D01*
X244353530Y-52068502D01*
G37*
%TD.AperFunction*%
%TA.AperFunction,Conductor*%
G36*
X231653530Y-52068502D02*
G01*
X231700023Y-52122158D01*
X231710127Y-52192432D01*
X231699697Y-52227550D01*
X231673230Y-52284570D01*
X231610688Y-52419305D01*
X231550989Y-52634570D01*
X231527251Y-52856695D01*
X231527548Y-52861848D01*
X231527548Y-52861851D01*
X231532899Y-52954659D01*
X231540110Y-53079715D01*
X231541247Y-53084761D01*
X231541248Y-53084767D01*
X231587455Y-53289799D01*
X231582919Y-53360651D01*
X231540797Y-53417802D01*
X231474464Y-53443108D01*
X231464538Y-53443500D01*
X229231694Y-53443500D01*
X229163573Y-53423498D01*
X229117080Y-53369842D01*
X229106976Y-53299568D01*
X229111136Y-53280871D01*
X229121950Y-53245280D01*
X229142370Y-53178069D01*
X229171529Y-52956590D01*
X229173156Y-52890000D01*
X229154852Y-52667361D01*
X229100431Y-52450702D01*
X229011354Y-52245840D01*
X229008541Y-52241491D01*
X229006101Y-52236941D01*
X229007477Y-52236203D01*
X228989271Y-52174877D01*
X229009069Y-52106697D01*
X229062585Y-52060043D01*
X229115270Y-52048500D01*
X231585409Y-52048500D01*
X231653530Y-52068502D01*
G37*
%TD.AperFunction*%
%TA.AperFunction,Conductor*%
G36*
X226245096Y-40112602D02*
G01*
X226291589Y-40166258D01*
X226301693Y-40236532D01*
X226272199Y-40301112D01*
X226266070Y-40307695D01*
X215077992Y-51495774D01*
X215015680Y-51529800D01*
X215007956Y-51531229D01*
X214930700Y-51543051D01*
X214794091Y-51563955D01*
X214581756Y-51633357D01*
X214551443Y-51649137D01*
X214416923Y-51719164D01*
X214383607Y-51736507D01*
X214379474Y-51739610D01*
X214379471Y-51739612D01*
X214209794Y-51867009D01*
X214204965Y-51870635D01*
X214164836Y-51912628D01*
X214055636Y-52026899D01*
X214050629Y-52032138D01*
X213943201Y-52189621D01*
X213888293Y-52234621D01*
X213817768Y-52242792D01*
X213754021Y-52211538D01*
X213733324Y-52187054D01*
X213652822Y-52062617D01*
X213652820Y-52062614D01*
X213650014Y-52058277D01*
X213499670Y-51893051D01*
X213495619Y-51889852D01*
X213495615Y-51889848D01*
X213328414Y-51757800D01*
X213328410Y-51757798D01*
X213324359Y-51754598D01*
X213128789Y-51646638D01*
X213123920Y-51644914D01*
X213123916Y-51644912D01*
X212923087Y-51573795D01*
X212923083Y-51573794D01*
X212918212Y-51572069D01*
X212913119Y-51571162D01*
X212913116Y-51571161D01*
X212703373Y-51533800D01*
X212703367Y-51533799D01*
X212698284Y-51532894D01*
X212624452Y-51531992D01*
X212480081Y-51530228D01*
X212480079Y-51530228D01*
X212474911Y-51530165D01*
X212254091Y-51563955D01*
X212041756Y-51633357D01*
X212011443Y-51649137D01*
X211876923Y-51719164D01*
X211843607Y-51736507D01*
X211839474Y-51739610D01*
X211839471Y-51739612D01*
X211669794Y-51867009D01*
X211664965Y-51870635D01*
X211624836Y-51912628D01*
X211515636Y-52026899D01*
X211510629Y-52032138D01*
X211403201Y-52189621D01*
X211348293Y-52234621D01*
X211277768Y-52242792D01*
X211214021Y-52211538D01*
X211193324Y-52187054D01*
X211112822Y-52062617D01*
X211112820Y-52062614D01*
X211110014Y-52058277D01*
X210959670Y-51893051D01*
X210955619Y-51889852D01*
X210955615Y-51889848D01*
X210788414Y-51757800D01*
X210788410Y-51757798D01*
X210784359Y-51754598D01*
X210588789Y-51646638D01*
X210583920Y-51644914D01*
X210583916Y-51644912D01*
X210460079Y-51601059D01*
X210402543Y-51559465D01*
X210376627Y-51493367D01*
X210390561Y-51423751D01*
X210413044Y-51393191D01*
X221676729Y-40129505D01*
X221739041Y-40095479D01*
X221765824Y-40092600D01*
X226176975Y-40092600D01*
X226245096Y-40112602D01*
G37*
%TD.AperFunction*%
%TA.AperFunction,Conductor*%
G36*
X112168232Y-33912169D02*
G01*
X112225068Y-33954716D01*
X112249879Y-34021236D01*
X112250200Y-34030225D01*
X112250200Y-40441375D01*
X112230198Y-40509496D01*
X112213295Y-40530470D01*
X105208395Y-47535370D01*
X105146083Y-47569396D01*
X105075268Y-47564331D01*
X105018432Y-47521784D01*
X104993621Y-47455264D01*
X104993300Y-47446275D01*
X104993300Y-34724624D01*
X104993990Y-34711453D01*
X104997611Y-34677002D01*
X104998255Y-34670875D01*
X104993465Y-34618247D01*
X104993300Y-34615884D01*
X104993300Y-34614031D01*
X104990294Y-34583379D01*
X104990245Y-34582864D01*
X104988439Y-34563014D01*
X105002186Y-34493364D01*
X105051408Y-34442201D01*
X105113920Y-34425600D01*
X111071057Y-34425600D01*
X111084664Y-34426337D01*
X111116162Y-34429759D01*
X111116167Y-34429759D01*
X111122288Y-34430424D01*
X111148538Y-34428127D01*
X111172288Y-34426050D01*
X111177114Y-34425721D01*
X111179586Y-34425600D01*
X111182669Y-34425600D01*
X111194638Y-34424426D01*
X111225406Y-34421410D01*
X111226719Y-34421288D01*
X111272814Y-34417255D01*
X111319313Y-34413187D01*
X111324432Y-34411700D01*
X111329733Y-34411180D01*
X111418734Y-34384309D01*
X111419867Y-34383974D01*
X111503314Y-34359730D01*
X111503318Y-34359728D01*
X111509236Y-34358009D01*
X111513968Y-34355556D01*
X111519069Y-34354016D01*
X111557971Y-34333332D01*
X111601160Y-34310369D01*
X111602326Y-34309757D01*
X111679353Y-34269829D01*
X111684826Y-34266992D01*
X111688989Y-34263669D01*
X111693696Y-34261166D01*
X111765818Y-34202345D01*
X111766674Y-34201654D01*
X111805873Y-34170362D01*
X111808377Y-34167858D01*
X111809095Y-34167216D01*
X111813428Y-34163515D01*
X111846962Y-34136165D01*
X111876188Y-34100837D01*
X111884177Y-34092058D01*
X112035105Y-33941130D01*
X112097417Y-33907104D01*
X112168232Y-33912169D01*
G37*
%TD.AperFunction*%
%TA.AperFunction,Conductor*%
G36*
X96723229Y-34445602D02*
G01*
X96769722Y-34499258D01*
X96779826Y-34569532D01*
X96775343Y-34589276D01*
X96769235Y-34608768D01*
X96768570Y-34614891D01*
X96768569Y-34614895D01*
X96749023Y-34794825D01*
X96747876Y-34805388D01*
X96765113Y-35002413D01*
X96766832Y-35008330D01*
X96766833Y-35008335D01*
X96795997Y-35108715D01*
X96820291Y-35192336D01*
X96911308Y-35367926D01*
X97007938Y-35488973D01*
X97359392Y-35840426D01*
X97685195Y-36166229D01*
X97719220Y-36228542D01*
X97722100Y-36255325D01*
X97722100Y-39700148D01*
X97702098Y-39768269D01*
X97648442Y-39814762D01*
X97578168Y-39824866D01*
X97554040Y-39818921D01*
X97483087Y-39793795D01*
X97483083Y-39793794D01*
X97478212Y-39792069D01*
X97473119Y-39791162D01*
X97473116Y-39791161D01*
X97263373Y-39753800D01*
X97263367Y-39753799D01*
X97258284Y-39752894D01*
X97184452Y-39751992D01*
X97040081Y-39750228D01*
X97040079Y-39750228D01*
X97034911Y-39750165D01*
X96814091Y-39783955D01*
X96601756Y-39853357D01*
X96403607Y-39956507D01*
X96399474Y-39959610D01*
X96399471Y-39959612D01*
X96231837Y-40085475D01*
X96224965Y-40090635D01*
X96206605Y-40109848D01*
X96080931Y-40241358D01*
X96070629Y-40252138D01*
X95963201Y-40409621D01*
X95908293Y-40454621D01*
X95837768Y-40462792D01*
X95774021Y-40431538D01*
X95753324Y-40407054D01*
X95672822Y-40282617D01*
X95672820Y-40282614D01*
X95670014Y-40278277D01*
X95519670Y-40113051D01*
X95515619Y-40109852D01*
X95515615Y-40109848D01*
X95348414Y-39977800D01*
X95348410Y-39977798D01*
X95344359Y-39974598D01*
X95148789Y-39866638D01*
X95143920Y-39864914D01*
X95143916Y-39864912D01*
X94943087Y-39793795D01*
X94943083Y-39793794D01*
X94938212Y-39792069D01*
X94933119Y-39791162D01*
X94933116Y-39791161D01*
X94723373Y-39753800D01*
X94723367Y-39753799D01*
X94718284Y-39752894D01*
X94644452Y-39751992D01*
X94500081Y-39750228D01*
X94500079Y-39750228D01*
X94494911Y-39750165D01*
X94274091Y-39783955D01*
X94061756Y-39853357D01*
X93863607Y-39956507D01*
X93859474Y-39959610D01*
X93859471Y-39959612D01*
X93691837Y-40085475D01*
X93684965Y-40090635D01*
X93666605Y-40109848D01*
X93540931Y-40241358D01*
X93530629Y-40252138D01*
X93527720Y-40256403D01*
X93527714Y-40256411D01*
X93490003Y-40311693D01*
X93404743Y-40436680D01*
X93378338Y-40493565D01*
X93325623Y-40607131D01*
X93310688Y-40639305D01*
X93250989Y-40854570D01*
X93227251Y-41076695D01*
X93227548Y-41081848D01*
X93227548Y-41081851D01*
X93239812Y-41294547D01*
X93240110Y-41299715D01*
X93241247Y-41304761D01*
X93241248Y-41304767D01*
X93249344Y-41340691D01*
X93289222Y-41517639D01*
X93373266Y-41724616D01*
X93413535Y-41790329D01*
X93487291Y-41910688D01*
X93489987Y-41915088D01*
X93636250Y-42083938D01*
X93808126Y-42226632D01*
X94001000Y-42339338D01*
X94005825Y-42341180D01*
X94005826Y-42341181D01*
X94042656Y-42355245D01*
X94209692Y-42419030D01*
X94214760Y-42420061D01*
X94214763Y-42420062D01*
X94299196Y-42437240D01*
X94428597Y-42463567D01*
X94433772Y-42463757D01*
X94433774Y-42463757D01*
X94646673Y-42471564D01*
X94646677Y-42471564D01*
X94651837Y-42471753D01*
X94656957Y-42471097D01*
X94656959Y-42471097D01*
X94868288Y-42444025D01*
X94868289Y-42444025D01*
X94873416Y-42443368D01*
X94893842Y-42437240D01*
X95082429Y-42380661D01*
X95082434Y-42380659D01*
X95087384Y-42379174D01*
X95287994Y-42280896D01*
X95469860Y-42151173D01*
X95476261Y-42144795D01*
X95591900Y-42029559D01*
X95628096Y-41993489D01*
X95646326Y-41968120D01*
X95758453Y-41812077D01*
X95759776Y-41813028D01*
X95806645Y-41769857D01*
X95876580Y-41757625D01*
X95942026Y-41785144D01*
X95969875Y-41816994D01*
X96029987Y-41915088D01*
X96176250Y-42083938D01*
X96348126Y-42226632D01*
X96457631Y-42290621D01*
X96479852Y-42303606D01*
X96528575Y-42355245D01*
X96541646Y-42425028D01*
X96514914Y-42490800D01*
X96505376Y-42501489D01*
X94929346Y-44077519D01*
X94867034Y-44111545D01*
X94796219Y-44106480D01*
X94746594Y-44072597D01*
X94745262Y-44070928D01*
X92964955Y-42290621D01*
X92955853Y-42280478D01*
X92951868Y-42275521D01*
X92932132Y-42250975D01*
X92893678Y-42218708D01*
X92890031Y-42215528D01*
X92888219Y-42213885D01*
X92886025Y-42211691D01*
X92852751Y-42184358D01*
X92851953Y-42183696D01*
X92780626Y-42123846D01*
X92775956Y-42121278D01*
X92771839Y-42117897D01*
X92690014Y-42074023D01*
X92688855Y-42073394D01*
X92612719Y-42031538D01*
X92612711Y-42031535D01*
X92607313Y-42028567D01*
X92602231Y-42026955D01*
X92597537Y-42024438D01*
X92508569Y-41997238D01*
X92507541Y-41996918D01*
X92418794Y-41968765D01*
X92413498Y-41968171D01*
X92408402Y-41966613D01*
X92315843Y-41957210D01*
X92314707Y-41957089D01*
X92281092Y-41953319D01*
X92268370Y-41951892D01*
X92268366Y-41951892D01*
X92264873Y-41951500D01*
X92261346Y-41951500D01*
X92260361Y-41951445D01*
X92254681Y-41950998D01*
X92225275Y-41948011D01*
X92217763Y-41947248D01*
X92217761Y-41947248D01*
X92211638Y-41946626D01*
X92169359Y-41950623D01*
X92165991Y-41950941D01*
X92154133Y-41951500D01*
X90812367Y-41951500D01*
X90744246Y-41931498D01*
X90697753Y-41877842D01*
X90687649Y-41807568D01*
X90699410Y-41769673D01*
X90777430Y-41611811D01*
X90842370Y-41398069D01*
X90871529Y-41176590D01*
X90872352Y-41142924D01*
X90873074Y-41113365D01*
X90873074Y-41113361D01*
X90873156Y-41110000D01*
X90854852Y-40887361D01*
X90800431Y-40670702D01*
X90711354Y-40465840D01*
X90611632Y-40311693D01*
X90592822Y-40282617D01*
X90592820Y-40282614D01*
X90590014Y-40278277D01*
X90439670Y-40113051D01*
X90435619Y-40109852D01*
X90435615Y-40109848D01*
X90268414Y-39977800D01*
X90268410Y-39977798D01*
X90264359Y-39974598D01*
X90068789Y-39866638D01*
X90063920Y-39864914D01*
X90063916Y-39864912D01*
X89863087Y-39793795D01*
X89863083Y-39793794D01*
X89858212Y-39792069D01*
X89853119Y-39791162D01*
X89853116Y-39791161D01*
X89643373Y-39753800D01*
X89643367Y-39753799D01*
X89638284Y-39752894D01*
X89564452Y-39751992D01*
X89420081Y-39750228D01*
X89420079Y-39750228D01*
X89414911Y-39750165D01*
X89194091Y-39783955D01*
X88981756Y-39853357D01*
X88783607Y-39956507D01*
X88779474Y-39959610D01*
X88779471Y-39959612D01*
X88611837Y-40085475D01*
X88604965Y-40090635D01*
X88586605Y-40109848D01*
X88460931Y-40241358D01*
X88450629Y-40252138D01*
X88343201Y-40409621D01*
X88288293Y-40454621D01*
X88217768Y-40462792D01*
X88154021Y-40431538D01*
X88133324Y-40407054D01*
X88052825Y-40282621D01*
X88052820Y-40282615D01*
X88050014Y-40278277D01*
X88030117Y-40256410D01*
X88011306Y-40235737D01*
X87980254Y-40171891D01*
X87978500Y-40150938D01*
X87978500Y-39729925D01*
X87998502Y-39661804D01*
X88015405Y-39640830D01*
X93193729Y-34462505D01*
X93256041Y-34428479D01*
X93282824Y-34425600D01*
X96655108Y-34425600D01*
X96723229Y-34445602D01*
G37*
%TD.AperFunction*%
%TA.AperFunction,Conductor*%
G36*
X251913832Y-34885468D02*
G01*
X251970668Y-34928015D01*
X251995479Y-34994535D01*
X251995800Y-35003524D01*
X251995800Y-35322457D01*
X251995063Y-35336064D01*
X251992196Y-35362460D01*
X251990976Y-35373688D01*
X251993109Y-35398069D01*
X251995350Y-35423688D01*
X251995679Y-35428514D01*
X251995800Y-35430986D01*
X251995800Y-35434069D01*
X251996101Y-35437137D01*
X251999990Y-35476806D01*
X252000112Y-35478119D01*
X252001938Y-35498988D01*
X252008213Y-35570713D01*
X252009700Y-35575832D01*
X252010220Y-35581133D01*
X252037091Y-35670134D01*
X252037426Y-35671267D01*
X252057741Y-35741188D01*
X252063391Y-35760636D01*
X252065844Y-35765368D01*
X252067384Y-35770469D01*
X252070278Y-35775912D01*
X252111031Y-35852560D01*
X252111643Y-35853726D01*
X252148799Y-35925406D01*
X252154408Y-35936226D01*
X252157731Y-35940389D01*
X252160234Y-35945096D01*
X252219055Y-36017218D01*
X252219746Y-36018074D01*
X252251038Y-36057273D01*
X252253542Y-36059777D01*
X252254184Y-36060495D01*
X252257885Y-36064828D01*
X252285235Y-36098362D01*
X252289982Y-36102289D01*
X252289984Y-36102291D01*
X252320562Y-36127587D01*
X252329342Y-36135577D01*
X254954595Y-38760829D01*
X254988621Y-38823141D01*
X254991500Y-38849924D01*
X254991500Y-39373604D01*
X254968714Y-39445874D01*
X254949411Y-39473442D01*
X254947088Y-39478423D01*
X254947086Y-39478427D01*
X254862367Y-39660108D01*
X254860044Y-39665090D01*
X254858622Y-39670398D01*
X254858621Y-39670400D01*
X254808784Y-39856394D01*
X254805314Y-39869345D01*
X254786884Y-40080000D01*
X254787363Y-40085475D01*
X254794506Y-40167118D01*
X254780517Y-40236723D01*
X254731118Y-40287715D01*
X254668985Y-40304100D01*
X250743624Y-40304100D01*
X250675503Y-40284098D01*
X250654529Y-40267195D01*
X250460955Y-40073621D01*
X250451853Y-40063478D01*
X250431997Y-40038782D01*
X250428132Y-40033975D01*
X250389678Y-40001708D01*
X250386031Y-39998528D01*
X250384219Y-39996885D01*
X250382025Y-39994691D01*
X250348751Y-39967358D01*
X250347953Y-39966696D01*
X250276626Y-39906846D01*
X250271956Y-39904278D01*
X250267839Y-39900897D01*
X250203946Y-39866638D01*
X250186014Y-39857023D01*
X250184855Y-39856394D01*
X250108719Y-39814538D01*
X250108711Y-39814535D01*
X250103313Y-39811567D01*
X250098231Y-39809955D01*
X250093537Y-39807438D01*
X250004569Y-39780238D01*
X250003541Y-39779918D01*
X249914794Y-39751765D01*
X249909498Y-39751171D01*
X249904402Y-39749613D01*
X249811843Y-39740210D01*
X249810707Y-39740089D01*
X249777092Y-39736319D01*
X249764370Y-39734892D01*
X249764366Y-39734892D01*
X249760873Y-39734500D01*
X249757346Y-39734500D01*
X249756361Y-39734445D01*
X249750681Y-39733998D01*
X249721275Y-39731011D01*
X249713763Y-39730248D01*
X249713761Y-39730248D01*
X249707638Y-39729626D01*
X249665359Y-39733623D01*
X249661991Y-39733941D01*
X249650133Y-39734500D01*
X247264825Y-39734500D01*
X247196704Y-39714498D01*
X247150211Y-39660842D01*
X247140107Y-39590568D01*
X247169601Y-39525988D01*
X247175730Y-39519405D01*
X251780705Y-34914429D01*
X251843017Y-34880403D01*
X251913832Y-34885468D01*
G37*
%TD.AperFunction*%
%TA.AperFunction,Conductor*%
G36*
X255263806Y-30528502D02*
G01*
X255310299Y-30582158D01*
X255320403Y-30652432D01*
X255315788Y-30672597D01*
X255278765Y-30789306D01*
X255256719Y-30985851D01*
X255257235Y-30991995D01*
X255272325Y-31171698D01*
X255273268Y-31182934D01*
X255327783Y-31373050D01*
X255418187Y-31548956D01*
X255541035Y-31703953D01*
X255545728Y-31707947D01*
X255545729Y-31707948D01*
X255677031Y-31819694D01*
X255691650Y-31832136D01*
X255864294Y-31928624D01*
X256052392Y-31989740D01*
X256248777Y-32013158D01*
X256254912Y-32012686D01*
X256254914Y-32012686D01*
X256439830Y-31998457D01*
X256439834Y-31998456D01*
X256445972Y-31997984D01*
X256576887Y-31961432D01*
X256647876Y-31962378D01*
X256708412Y-32003153D01*
X256728224Y-32027444D01*
X256754755Y-32059975D01*
X256755446Y-32060831D01*
X256786738Y-32100030D01*
X256789242Y-32102534D01*
X256789884Y-32103252D01*
X256793585Y-32107585D01*
X256820935Y-32141119D01*
X256825682Y-32145046D01*
X256825684Y-32145048D01*
X256856262Y-32170344D01*
X256865042Y-32178334D01*
X257556092Y-32869384D01*
X257565194Y-32879527D01*
X257588911Y-32909025D01*
X257627389Y-32941312D01*
X257631005Y-32944467D01*
X257632831Y-32946123D01*
X257635017Y-32948309D01*
X257637397Y-32950264D01*
X257637407Y-32950273D01*
X257668211Y-32975576D01*
X257669226Y-32976418D01*
X257677063Y-32982994D01*
X257740417Y-33036154D01*
X257745091Y-33038723D01*
X257749204Y-33042102D01*
X257754641Y-33045017D01*
X257754642Y-33045018D01*
X257830990Y-33085955D01*
X257832120Y-33086568D01*
X257913730Y-33131433D01*
X257918812Y-33133045D01*
X257923506Y-33135562D01*
X258012474Y-33162762D01*
X258013502Y-33163082D01*
X258102249Y-33191235D01*
X258107545Y-33191829D01*
X258112641Y-33193387D01*
X258205165Y-33202785D01*
X258206285Y-33202905D01*
X258239607Y-33206642D01*
X258252673Y-33208108D01*
X258252677Y-33208108D01*
X258256170Y-33208500D01*
X258259697Y-33208500D01*
X258260700Y-33208556D01*
X258266384Y-33209003D01*
X258291743Y-33211579D01*
X258303279Y-33212751D01*
X258303281Y-33212751D01*
X258309405Y-33213373D01*
X258355044Y-33209059D01*
X258366900Y-33208500D01*
X258865500Y-33208500D01*
X258933621Y-33228502D01*
X258980114Y-33282158D01*
X258991500Y-33334500D01*
X258991500Y-34293604D01*
X258968714Y-34365874D01*
X258955779Y-34384348D01*
X258949411Y-34393442D01*
X258947088Y-34398423D01*
X258947086Y-34398427D01*
X258862367Y-34580108D01*
X258860044Y-34585090D01*
X258858622Y-34590398D01*
X258858621Y-34590400D01*
X258837104Y-34670702D01*
X258805314Y-34789345D01*
X258786884Y-35000000D01*
X258805314Y-35210655D01*
X258806738Y-35215968D01*
X258806738Y-35215970D01*
X258858478Y-35409064D01*
X258860044Y-35414910D01*
X258862366Y-35419891D01*
X258862367Y-35419892D01*
X258946447Y-35600201D01*
X258949411Y-35606558D01*
X259070699Y-35779776D01*
X259220224Y-35929301D01*
X259393442Y-36050589D01*
X259398420Y-36052910D01*
X259398423Y-36052912D01*
X259575699Y-36135577D01*
X259585090Y-36139956D01*
X259590398Y-36141378D01*
X259590400Y-36141379D01*
X259784030Y-36193262D01*
X259784032Y-36193262D01*
X259789345Y-36194686D01*
X260000000Y-36213116D01*
X260005475Y-36212637D01*
X260005476Y-36212637D01*
X260088391Y-36205383D01*
X260157995Y-36219372D01*
X260208988Y-36268772D01*
X260225178Y-36337898D01*
X260201425Y-36404803D01*
X260188467Y-36419999D01*
X257330621Y-39277845D01*
X257320478Y-39286947D01*
X257290975Y-39310668D01*
X257264611Y-39342087D01*
X257258709Y-39349121D01*
X257255528Y-39352769D01*
X257253885Y-39354581D01*
X257251691Y-39356775D01*
X257231862Y-39380915D01*
X257173167Y-39420856D01*
X257102195Y-39422724D01*
X257041480Y-39385926D01*
X257010298Y-39322143D01*
X257008500Y-39300936D01*
X257008500Y-38441850D01*
X257009237Y-38428242D01*
X257012659Y-38396739D01*
X257013325Y-38390612D01*
X257008947Y-38340570D01*
X257008621Y-38335788D01*
X257008500Y-38333310D01*
X257008500Y-38330231D01*
X257008201Y-38327177D01*
X257008200Y-38327166D01*
X257004313Y-38287529D01*
X257004191Y-38286215D01*
X256996623Y-38199718D01*
X256996087Y-38193587D01*
X256994600Y-38188468D01*
X256994080Y-38183167D01*
X256967209Y-38094166D01*
X256966874Y-38093033D01*
X256942630Y-38009586D01*
X256942628Y-38009582D01*
X256940909Y-38003664D01*
X256938456Y-37998932D01*
X256936916Y-37993831D01*
X256934022Y-37988388D01*
X256893269Y-37911740D01*
X256892657Y-37910574D01*
X256852729Y-37833547D01*
X256849892Y-37828074D01*
X256846569Y-37823911D01*
X256844066Y-37819204D01*
X256785261Y-37747102D01*
X256784433Y-37746075D01*
X256755469Y-37709792D01*
X256755464Y-37709787D01*
X256753262Y-37707028D01*
X256750761Y-37704527D01*
X256750119Y-37703809D01*
X256746406Y-37699461D01*
X256738642Y-37689941D01*
X256719065Y-37665938D01*
X256714323Y-37662015D01*
X256714321Y-37662013D01*
X256683727Y-37636703D01*
X256674947Y-37628713D01*
X255342940Y-36296706D01*
X255308914Y-36234394D01*
X255313979Y-36163579D01*
X255356526Y-36106743D01*
X255423046Y-36081932D01*
X255485285Y-36093416D01*
X255504317Y-36102291D01*
X255558565Y-36127587D01*
X255585090Y-36139956D01*
X255590398Y-36141378D01*
X255590400Y-36141379D01*
X255784030Y-36193262D01*
X255784032Y-36193262D01*
X255789345Y-36194686D01*
X256000000Y-36213116D01*
X256210655Y-36194686D01*
X256215968Y-36193262D01*
X256215970Y-36193262D01*
X256409600Y-36141379D01*
X256409602Y-36141378D01*
X256414910Y-36139956D01*
X256424301Y-36135577D01*
X256601577Y-36052912D01*
X256601580Y-36052910D01*
X256606558Y-36050589D01*
X256779776Y-35929301D01*
X256929301Y-35779776D01*
X257050589Y-35606558D01*
X257053554Y-35600201D01*
X257137633Y-35419892D01*
X257137634Y-35419891D01*
X257139956Y-35414910D01*
X257141523Y-35409064D01*
X257193262Y-35215970D01*
X257193262Y-35215968D01*
X257194686Y-35210655D01*
X257213116Y-35000000D01*
X257194686Y-34789345D01*
X257162896Y-34670702D01*
X257141379Y-34590400D01*
X257141378Y-34590398D01*
X257139956Y-34585090D01*
X257137633Y-34580108D01*
X257052912Y-34398423D01*
X257052910Y-34398420D01*
X257050589Y-34393442D01*
X256929301Y-34220224D01*
X256779776Y-34070699D01*
X256606558Y-33949411D01*
X256601580Y-33947090D01*
X256601577Y-33947088D01*
X256419892Y-33862367D01*
X256419891Y-33862366D01*
X256414910Y-33860044D01*
X256409602Y-33858622D01*
X256409600Y-33858621D01*
X256215970Y-33806738D01*
X256215968Y-33806738D01*
X256210655Y-33805314D01*
X256000000Y-33786884D01*
X255789345Y-33805314D01*
X255784032Y-33806738D01*
X255784030Y-33806738D01*
X255590400Y-33858621D01*
X255590398Y-33858622D01*
X255585090Y-33860044D01*
X255580109Y-33862366D01*
X255580108Y-33862367D01*
X255398423Y-33947088D01*
X255398420Y-33947090D01*
X255393442Y-33949411D01*
X255220224Y-34070699D01*
X255070699Y-34220224D01*
X254949411Y-34393442D01*
X254947090Y-34398420D01*
X254947088Y-34398423D01*
X254862367Y-34580108D01*
X254860044Y-34585090D01*
X254858622Y-34590398D01*
X254858621Y-34590400D01*
X254837104Y-34670702D01*
X254805314Y-34789345D01*
X254786884Y-35000000D01*
X254805314Y-35210655D01*
X254806738Y-35215968D01*
X254806738Y-35215970D01*
X254858478Y-35409064D01*
X254860044Y-35414910D01*
X254898992Y-35498433D01*
X254906584Y-35514715D01*
X254917245Y-35584907D01*
X254888265Y-35649719D01*
X254828845Y-35688576D01*
X254757851Y-35689139D01*
X254703294Y-35657060D01*
X254049705Y-35003471D01*
X254015679Y-34941159D01*
X254012800Y-34914376D01*
X254012800Y-32547031D01*
X253998380Y-32399967D01*
X253994948Y-32388598D01*
X253947381Y-32231052D01*
X253941216Y-32210631D01*
X253848366Y-32036004D01*
X253758337Y-31925618D01*
X253727254Y-31887506D01*
X253727252Y-31887504D01*
X253723365Y-31882738D01*
X253718629Y-31878820D01*
X253718620Y-31878811D01*
X253679086Y-31846106D01*
X253639348Y-31787273D01*
X253637727Y-31716295D01*
X253670307Y-31659927D01*
X254784829Y-30545405D01*
X254847141Y-30511379D01*
X254873924Y-30508500D01*
X255195685Y-30508500D01*
X255263806Y-30528502D01*
G37*
%TD.AperFunction*%
%TA.AperFunction,Conductor*%
G36*
X273043806Y-30528502D02*
G01*
X273090299Y-30582158D01*
X273100403Y-30652432D01*
X273095788Y-30672597D01*
X273058765Y-30789306D01*
X273036719Y-30985851D01*
X273037235Y-30991995D01*
X273052325Y-31171698D01*
X273053268Y-31182934D01*
X273107783Y-31373050D01*
X273198187Y-31548956D01*
X273321035Y-31703953D01*
X273325728Y-31707947D01*
X273325729Y-31707948D01*
X273457031Y-31819694D01*
X273471650Y-31832136D01*
X273644294Y-31928624D01*
X273832392Y-31989740D01*
X274028777Y-32013158D01*
X274034912Y-32012686D01*
X274034914Y-32012686D01*
X274132133Y-32005205D01*
X274201588Y-32019922D01*
X274252060Y-32069853D01*
X274267800Y-32130834D01*
X274267800Y-32302376D01*
X274247798Y-32370497D01*
X274230895Y-32391471D01*
X272733595Y-33888771D01*
X272671283Y-33922797D01*
X272600468Y-33917732D01*
X272543632Y-33875185D01*
X272518821Y-33808665D01*
X272518500Y-33799676D01*
X272518500Y-31071722D01*
X272519492Y-31055944D01*
X272522985Y-31028295D01*
X272523380Y-31000000D01*
X272504080Y-30803167D01*
X272502299Y-30797268D01*
X272502298Y-30797263D01*
X272464152Y-30670918D01*
X272463611Y-30599923D01*
X272501539Y-30539907D01*
X272565893Y-30509923D01*
X272584774Y-30508500D01*
X272975685Y-30508500D01*
X273043806Y-30528502D01*
G37*
%TD.AperFunction*%
%TD*%
M02*
