%TF.GenerationSoftware,KiCad,Pcbnew,6.0.10-86aedd382b~118~ubuntu22.04.1*%
%TF.CreationDate,2023-01-15T11:44:38+01:00*%
%TF.ProjectId,tandberg-5000,74616e64-6265-4726-972d-353030302e6b,rev?*%
%TF.SameCoordinates,Original*%
%TF.FileFunction,Copper,L1,Top*%
%TF.FilePolarity,Positive*%
%FSLAX46Y46*%
G04 Gerber Fmt 4.6, Leading zero omitted, Abs format (unit mm)*
G04 Created by KiCad (PCBNEW 6.0.10-86aedd382b~118~ubuntu22.04.1) date 2023-01-15 11:44:38*
%MOMM*%
%LPD*%
G01*
G04 APERTURE LIST*
%TA.AperFunction,ComponentPad*%
%ADD10R,1.700000X1.700000*%
%TD*%
%TA.AperFunction,ComponentPad*%
%ADD11O,1.700000X1.700000*%
%TD*%
%TA.AperFunction,ComponentPad*%
%ADD12C,7.500000*%
%TD*%
%TA.AperFunction,ComponentPad*%
%ADD13R,1.000000X1.000000*%
%TD*%
%TA.AperFunction,ComponentPad*%
%ADD14O,1.000000X1.000000*%
%TD*%
%TA.AperFunction,ComponentPad*%
%ADD15C,1.400000*%
%TD*%
%TA.AperFunction,ComponentPad*%
%ADD16O,1.400000X1.400000*%
%TD*%
%TA.AperFunction,SMDPad,CuDef*%
%ADD17R,1.700000X3.500000*%
%TD*%
%TA.AperFunction,SMDPad,CuDef*%
%ADD18R,3.500000X1.700000*%
%TD*%
%TA.AperFunction,ViaPad*%
%ADD19C,0.800000*%
%TD*%
%TA.AperFunction,Conductor*%
%ADD20C,1.000000*%
%TD*%
G04 APERTURE END LIST*
D10*
%TO.P,SW2,1,1*%
%TO.N,Net-(SW2-Pad1)*%
X222655000Y-66270000D03*
D11*
%TO.P,SW2,2,2*%
%TO.N,GNDL*%
X222655000Y-68810000D03*
%TD*%
D10*
%TO.P,SW1,1,1*%
%TO.N,Net-(SW1-Pad1)*%
X113345000Y-65000000D03*
D11*
%TO.P,SW1,2,2*%
%TO.N,GNDL*%
X113345000Y-67540000D03*
%TD*%
D12*
%TO.P,H1,1,1*%
%TO.N,GNDL*%
X187000000Y-30000000D03*
%TD*%
D13*
%TO.P,J1,1,Pin_1*%
%TO.N,GNDL*%
X255000000Y-31000000D03*
D14*
%TO.P,J1,2,Pin_2*%
%TO.N,Net-(J1-Pad2)*%
X256270000Y-31000000D03*
%TO.P,J1,3,Pin_3*%
%TO.N,Net-(J1-Pad3)*%
X257540000Y-31000000D03*
%TO.P,J1,4,Pin_4*%
%TO.N,unconnected-(J1-Pad4)*%
X258810000Y-31000000D03*
%TO.P,J1,5,Pin_5*%
%TO.N,unconnected-(J1-Pad5)*%
X260080000Y-31000000D03*
%TO.P,J1,6,Pin_6*%
%TO.N,COL1*%
X261350000Y-31000000D03*
%TO.P,J1,7,Pin_7*%
%TO.N,COL2*%
X262620000Y-31000000D03*
%TO.P,J1,8,Pin_8*%
%TO.N,COL3*%
X263890000Y-31000000D03*
%TO.P,J1,9,Pin_9*%
%TO.N,COL4*%
X265160000Y-31000000D03*
%TO.P,J1,10,Pin_10*%
%TO.N,COL5*%
X266430000Y-31000000D03*
%TO.P,J1,11,Pin_11*%
%TO.N,COL6*%
X267700000Y-31000000D03*
%TO.P,J1,12,Pin_12*%
%TO.N,COL7*%
X268970000Y-31000000D03*
%TO.P,J1,13,Pin_13*%
%TO.N,COL8*%
X270240000Y-31000000D03*
%TO.P,J1,14,Pin_14*%
%TO.N,Net-(J1-Pad14)*%
X271510000Y-31000000D03*
%TO.P,J1,15,Pin_15*%
%TO.N,GNDL*%
X272780000Y-31000000D03*
%TO.P,J1,16,Pin_16*%
%TO.N,unconnected-(J1-Pad16)*%
X274050000Y-31000000D03*
%TD*%
D12*
%TO.P,H3,1,1*%
%TO.N,GNDL*%
X270000000Y-69000000D03*
%TD*%
D15*
%TO.P,R3,1*%
%TO.N,Net-(J1-Pad14)*%
X271000000Y-35000000D03*
D16*
%TO.P,R3,2*%
%TO.N,LED3*%
X271000000Y-40080000D03*
%TD*%
D12*
%TO.P,H4,1,1*%
%TO.N,GNDL*%
X27000000Y-68000000D03*
%TD*%
D15*
%TO.P,R2,1*%
%TO.N,Net-(J1-Pad3)*%
X260000000Y-35000000D03*
D16*
%TO.P,R2,2*%
%TO.N,LED2*%
X260000000Y-40080000D03*
%TD*%
D15*
%TO.P,R1,1*%
%TO.N,Net-(J1-Pad2)*%
X256000000Y-35000000D03*
D16*
%TO.P,R1,2*%
%TO.N,LED1*%
X256000000Y-40080000D03*
%TD*%
D11*
%TO.P,U1,1,GPIO0*%
%TO.N,SDA I2C0*%
X48870000Y-58890000D03*
D17*
X48870000Y-59790000D03*
%TO.P,U1,2,GPIO1*%
%TO.N,SCL I2C0*%
X51410000Y-59790000D03*
D11*
X51410000Y-58890000D03*
D17*
%TO.P,U1,3,GND*%
%TO.N,GNDL*%
X53950000Y-59790000D03*
D10*
X53950000Y-58890000D03*
D11*
%TO.P,U1,4,GPIO2*%
%TO.N,ROW1*%
X56490000Y-58890000D03*
D17*
X56490000Y-59790000D03*
D11*
%TO.P,U1,5,GPIO3*%
%TO.N,ROW2*%
X59030000Y-58890000D03*
D17*
X59030000Y-59790000D03*
D11*
%TO.P,U1,6,GPIO4*%
%TO.N,ROW3*%
X61570000Y-58890000D03*
D17*
X61570000Y-59790000D03*
D11*
%TO.P,U1,7,GPIO5*%
%TO.N,ROW4*%
X64110000Y-58890000D03*
D17*
X64110000Y-59790000D03*
%TO.P,U1,8,GND*%
%TO.N,GNDL*%
X66650000Y-59790000D03*
D10*
X66650000Y-58890000D03*
D17*
%TO.P,U1,9,GPIO6*%
%TO.N,ROW5*%
X69190000Y-59790000D03*
D11*
X69190000Y-58890000D03*
%TO.P,U1,10,GPIO7*%
%TO.N,ROW6*%
X71730000Y-58890000D03*
D17*
X71730000Y-59790000D03*
D11*
%TO.P,U1,11,GPIO8*%
%TO.N,ROW7*%
X74270000Y-58890000D03*
D17*
X74270000Y-59790000D03*
D11*
%TO.P,U1,12,GPIO9*%
%TO.N,ROW8*%
X76810000Y-58890000D03*
D17*
X76810000Y-59790000D03*
%TO.P,U1,13,GND*%
%TO.N,GNDL*%
X79350000Y-59790000D03*
D10*
X79350000Y-58890000D03*
D17*
%TO.P,U1,14,GPIO10*%
%TO.N,ROW9*%
X81890000Y-59790000D03*
D11*
X81890000Y-58890000D03*
%TO.P,U1,15,GPIO11*%
%TO.N,ROW10*%
X84430000Y-58890000D03*
D17*
X84430000Y-59790000D03*
%TO.P,U1,16,GPIO12*%
%TO.N,ROW11*%
X86970000Y-59790000D03*
D11*
X86970000Y-58890000D03*
D17*
%TO.P,U1,17,GPIO13*%
%TO.N,ROW12*%
X89510000Y-59790000D03*
D11*
X89510000Y-58890000D03*
D10*
%TO.P,U1,18,GND*%
%TO.N,GNDL*%
X92050000Y-58890000D03*
D17*
X92050000Y-59790000D03*
D11*
%TO.P,U1,19,GPIO14*%
%TO.N,ROW13*%
X94590000Y-58890000D03*
D17*
X94590000Y-59790000D03*
D11*
%TO.P,U1,20,GPIO15*%
%TO.N,ROW14*%
X97130000Y-58890000D03*
D17*
X97130000Y-59790000D03*
D11*
%TO.P,U1,21,GPIO16*%
%TO.N,LED1*%
X97130000Y-41110000D03*
D17*
X97130000Y-40210000D03*
%TO.P,U1,22,GPIO17*%
%TO.N,LED2*%
X94590000Y-40210000D03*
D11*
X94590000Y-41110000D03*
D10*
%TO.P,U1,23,GND*%
%TO.N,GNDL*%
X92050000Y-41110000D03*
D17*
X92050000Y-40210000D03*
%TO.P,U1,24,GPIO18*%
%TO.N,LED3*%
X89510000Y-40210000D03*
D11*
X89510000Y-41110000D03*
D17*
%TO.P,U1,25,GPIO19*%
%TO.N,ROW16*%
X86970000Y-40210000D03*
D11*
X86970000Y-41110000D03*
D17*
%TO.P,U1,26,GPIO20*%
%TO.N,unconnected-(U1-Pad26)*%
X84430000Y-40210000D03*
D11*
X84430000Y-41110000D03*
%TO.P,U1,27,GPIO21*%
%TO.N,ROW15*%
X81890000Y-41110000D03*
D17*
X81890000Y-40210000D03*
%TO.P,U1,28,GND*%
%TO.N,GNDL*%
X79350000Y-40210000D03*
D10*
X79350000Y-41110000D03*
D11*
%TO.P,U1,29,GPIO22*%
%TO.N,unconnected-(U1-Pad29)*%
X76810000Y-41110000D03*
D17*
X76810000Y-40210000D03*
D11*
%TO.P,U1,30,RUN*%
%TO.N,Net-(SW1-Pad1)*%
X74270000Y-41110000D03*
D17*
X74270000Y-40210000D03*
%TO.P,U1,31,GPIO26_ADC0*%
%TO.N,unconnected-(U1-Pad31)*%
X71730000Y-40210000D03*
D11*
X71730000Y-41110000D03*
D17*
%TO.P,U1,32,GPIO27_ADC1*%
%TO.N,unconnected-(U1-Pad32)*%
X69190000Y-40210000D03*
D11*
X69190000Y-41110000D03*
D17*
%TO.P,U1,33,AGND*%
%TO.N,GNDL*%
X66650000Y-40210000D03*
D10*
X66650000Y-41110000D03*
D17*
%TO.P,U1,34,GPIO28_ADC2*%
%TO.N,unconnected-(U1-Pad34)*%
X64110000Y-40210000D03*
D11*
X64110000Y-41110000D03*
D17*
%TO.P,U1,35,ADC_VREF*%
%TO.N,unconnected-(U1-Pad35)*%
X61570000Y-40210000D03*
D11*
X61570000Y-41110000D03*
%TO.P,U1,36,3V3*%
%TO.N,unconnected-(U1-Pad36)*%
X59030000Y-41110000D03*
D17*
X59030000Y-40210000D03*
D11*
%TO.P,U1,37,3V3_EN*%
%TO.N,unconnected-(U1-Pad37)*%
X56490000Y-41110000D03*
D17*
X56490000Y-40210000D03*
D10*
%TO.P,U1,38,GND*%
%TO.N,GNDL*%
X53950000Y-41110000D03*
D17*
X53950000Y-40210000D03*
D11*
%TO.P,U1,39,VSYS*%
%TO.N,unconnected-(U1-Pad39)*%
X51410000Y-41110000D03*
D17*
X51410000Y-40210000D03*
D11*
%TO.P,U1,40,VBUS*%
%TO.N,VCCL*%
X48870000Y-41110000D03*
D17*
X48870000Y-40210000D03*
D18*
%TO.P,U1,41,SWCLK*%
%TO.N,unconnected-(U1-Pad41)*%
X97800000Y-52540000D03*
D11*
X96900000Y-52540000D03*
D10*
%TO.P,U1,42,GND*%
%TO.N,GNDL*%
X96900000Y-50000000D03*
D18*
X97800000Y-50000000D03*
%TO.P,U1,43,SWDIO*%
%TO.N,unconnected-(U1-Pad43)*%
X97800000Y-47460000D03*
D11*
X96900000Y-47460000D03*
%TD*%
D17*
%TO.P,U2,1,GPIO0*%
%TO.N,sdaR*%
X199870000Y-53790000D03*
D11*
X199870000Y-52890000D03*
D17*
%TO.P,U2,2,GPIO1*%
%TO.N,sclR*%
X202410000Y-53790000D03*
D11*
X202410000Y-52890000D03*
D17*
%TO.P,U2,3,GND*%
%TO.N,GNDL*%
X204950000Y-53790000D03*
D10*
X204950000Y-52890000D03*
D11*
%TO.P,U2,4,GPIO2*%
%TO.N,COL1*%
X207490000Y-52890000D03*
D17*
X207490000Y-53790000D03*
%TO.P,U2,5,GPIO3*%
%TO.N,COL2*%
X210030000Y-53790000D03*
D11*
X210030000Y-52890000D03*
%TO.P,U2,6,GPIO4*%
%TO.N,COL3*%
X212570000Y-52890000D03*
D17*
X212570000Y-53790000D03*
D11*
%TO.P,U2,7,GPIO5*%
%TO.N,COL4*%
X215110000Y-52890000D03*
D17*
X215110000Y-53790000D03*
D10*
%TO.P,U2,8,GND*%
%TO.N,GNDL*%
X217650000Y-52890000D03*
D17*
X217650000Y-53790000D03*
D11*
%TO.P,U2,9,GPIO6*%
%TO.N,COL5*%
X220190000Y-52890000D03*
D17*
X220190000Y-53790000D03*
D11*
%TO.P,U2,10,GPIO7*%
%TO.N,COL6*%
X222730000Y-52890000D03*
D17*
X222730000Y-53790000D03*
%TO.P,U2,11,GPIO8*%
%TO.N,COL7*%
X225270000Y-53790000D03*
D11*
X225270000Y-52890000D03*
D17*
%TO.P,U2,12,GPIO9*%
%TO.N,COL8*%
X227810000Y-53790000D03*
D11*
X227810000Y-52890000D03*
D10*
%TO.P,U2,13,GND*%
%TO.N,GNDL*%
X230350000Y-52890000D03*
D17*
X230350000Y-53790000D03*
D11*
%TO.P,U2,14,GPIO10*%
%TO.N,unconnected-(U2-Pad14)*%
X232890000Y-52890000D03*
D17*
X232890000Y-53790000D03*
D11*
%TO.P,U2,15,GPIO11*%
%TO.N,unconnected-(U2-Pad15)*%
X235430000Y-52890000D03*
D17*
X235430000Y-53790000D03*
%TO.P,U2,16,GPIO12*%
%TO.N,unconnected-(U2-Pad16)*%
X237970000Y-53790000D03*
D11*
X237970000Y-52890000D03*
D17*
%TO.P,U2,17,GPIO13*%
%TO.N,unconnected-(U2-Pad17)*%
X240510000Y-53790000D03*
D11*
X240510000Y-52890000D03*
D17*
%TO.P,U2,18,GND*%
%TO.N,GNDL*%
X243050000Y-53790000D03*
D10*
X243050000Y-52890000D03*
D11*
%TO.P,U2,19,GPIO14*%
%TO.N,unconnected-(U2-Pad19)*%
X245590000Y-52890000D03*
D17*
X245590000Y-53790000D03*
%TO.P,U2,20,GPIO15*%
%TO.N,unconnected-(U2-Pad20)*%
X248130000Y-53790000D03*
D11*
X248130000Y-52890000D03*
D17*
%TO.P,U2,21,GPIO16*%
%TO.N,unconnected-(U2-Pad21)*%
X248130000Y-34210000D03*
D11*
X248130000Y-35110000D03*
%TO.P,U2,22,GPIO17*%
%TO.N,unconnected-(U2-Pad22)*%
X245590000Y-35110000D03*
D17*
X245590000Y-34210000D03*
%TO.P,U2,23,GND*%
%TO.N,GNDL*%
X243050000Y-34210000D03*
D10*
X243050000Y-35110000D03*
D17*
%TO.P,U2,24,GPIO18*%
%TO.N,unconnected-(U2-Pad24)*%
X240510000Y-34210000D03*
D11*
X240510000Y-35110000D03*
%TO.P,U2,25,GPIO19*%
%TO.N,unconnected-(U2-Pad25)*%
X237970000Y-35110000D03*
D17*
X237970000Y-34210000D03*
D11*
%TO.P,U2,26,GPIO20*%
%TO.N,unconnected-(U2-Pad26)*%
X235430000Y-35110000D03*
D17*
X235430000Y-34210000D03*
D11*
%TO.P,U2,27,GPIO21*%
%TO.N,unconnected-(U2-Pad27)*%
X232890000Y-35110000D03*
D17*
X232890000Y-34210000D03*
D10*
%TO.P,U2,28,GND*%
%TO.N,GNDL*%
X230350000Y-35110000D03*
D17*
X230350000Y-34210000D03*
D11*
%TO.P,U2,29,GPIO22*%
%TO.N,unconnected-(U2-Pad29)*%
X227810000Y-35110000D03*
D17*
X227810000Y-34210000D03*
%TO.P,U2,30,RUN*%
%TO.N,Net-(SW2-Pad1)*%
X225270000Y-34210000D03*
D11*
X225270000Y-35110000D03*
D17*
%TO.P,U2,31,GPIO26_ADC0*%
%TO.N,unconnected-(U2-Pad31)*%
X222730000Y-34210000D03*
D11*
X222730000Y-35110000D03*
D17*
%TO.P,U2,32,GPIO27_ADC1*%
%TO.N,unconnected-(U2-Pad32)*%
X220190000Y-34210000D03*
D11*
X220190000Y-35110000D03*
D10*
%TO.P,U2,33,AGND*%
%TO.N,GNDL*%
X217650000Y-35110000D03*
D17*
X217650000Y-34210000D03*
D11*
%TO.P,U2,34,GPIO28_ADC2*%
%TO.N,unconnected-(U2-Pad34)*%
X215110000Y-35110000D03*
D17*
X215110000Y-34210000D03*
%TO.P,U2,35,ADC_VREF*%
%TO.N,unconnected-(U2-Pad35)*%
X212570000Y-34210000D03*
D11*
X212570000Y-35110000D03*
D17*
%TO.P,U2,36,3V3*%
%TO.N,unconnected-(U2-Pad36)*%
X210030000Y-34210000D03*
D11*
X210030000Y-35110000D03*
D17*
%TO.P,U2,37,3V3_EN*%
%TO.N,unconnected-(U2-Pad37)*%
X207490000Y-34210000D03*
D11*
X207490000Y-35110000D03*
D10*
%TO.P,U2,38,GND*%
%TO.N,GNDL*%
X204950000Y-35110000D03*
D17*
X204950000Y-34210000D03*
%TO.P,U2,39,VSYS*%
%TO.N,unconnected-(U2-Pad39)*%
X202410000Y-34210000D03*
D11*
X202410000Y-35110000D03*
%TO.P,U2,40,VBUS*%
%TO.N,VCCL*%
X199870000Y-35110000D03*
D17*
X199870000Y-34210000D03*
D11*
%TO.P,U2,41,SWCLK*%
%TO.N,unconnected-(U2-Pad41)*%
X247900000Y-46540000D03*
D18*
X248800000Y-46540000D03*
%TO.P,U2,42,GND*%
%TO.N,GNDL*%
X248800000Y-44000000D03*
D10*
X247900000Y-44000000D03*
D11*
%TO.P,U2,43,SWDIO*%
%TO.N,unconnected-(U2-Pad43)*%
X247900000Y-41460000D03*
D18*
X248800000Y-41460000D03*
%TD*%
D12*
%TO.P,H2,1,1*%
%TO.N,GNDL*%
X27000000Y-31000000D03*
%TD*%
D13*
%TO.P,J2,1,Pin_1*%
%TO.N,ROW1*%
X93000000Y-31000000D03*
D14*
%TO.P,J2,2,Pin_2*%
%TO.N,ROW2*%
X94270000Y-31000000D03*
%TO.P,J2,3,Pin_3*%
%TO.N,ROW3*%
X95540000Y-31000000D03*
%TO.P,J2,4,Pin_4*%
%TO.N,ROW4*%
X96810000Y-31000000D03*
%TO.P,J2,5,Pin_5*%
%TO.N,ROW5*%
X98080000Y-31000000D03*
%TO.P,J2,6,Pin_6*%
%TO.N,ROW6*%
X99350000Y-31000000D03*
%TO.P,J2,7,Pin_7*%
%TO.N,ROW7*%
X100620000Y-31000000D03*
%TO.P,J2,8,Pin_8*%
%TO.N,ROW8*%
X101890000Y-31000000D03*
%TO.P,J2,9,Pin_9*%
%TO.N,ROW9*%
X103160000Y-31000000D03*
%TO.P,J2,10,Pin_10*%
%TO.N,ROW10*%
X104430000Y-31000000D03*
%TO.P,J2,11,Pin_11*%
%TO.N,ROW11*%
X105700000Y-31000000D03*
%TO.P,J2,12,Pin_12*%
%TO.N,ROW12*%
X106970000Y-31000000D03*
%TO.P,J2,13,Pin_13*%
%TO.N,ROW13*%
X108240000Y-31000000D03*
%TO.P,J2,14,Pin_14*%
%TO.N,ROW14*%
X109510000Y-31000000D03*
%TO.P,J2,15,Pin_15*%
%TO.N,ROW15*%
X110780000Y-31000000D03*
%TO.P,J2,16,Pin_16*%
%TO.N,ROW16*%
X112050000Y-31000000D03*
%TD*%
D19*
%TO.N,GNDL*%
X105000000Y-51000000D03*
X110000000Y-38000000D03*
X221000000Y-44000000D03*
X252000000Y-39000000D03*
X258000000Y-34000000D03*
%TO.N,Net-(SW1-Pad1)*%
X87586300Y-51149600D03*
%TO.N,LED3*%
X93992000Y-44743900D03*
%TO.N,LED1*%
X253004300Y-32596800D03*
%TO.N,ROW11*%
X103984900Y-34663800D03*
%TO.N,ROW10*%
X102306200Y-34617200D03*
%TO.N,ROW7*%
X97761200Y-34816000D03*
%TD*%
D20*
%TO.N,LED3*%
X93992000Y-44743900D02*
X94391700Y-45143600D01*
X94391700Y-45143600D02*
X103798600Y-45143600D01*
X104655000Y-46000000D02*
X188080000Y-46000000D01*
X103798600Y-45143600D02*
X104655000Y-46000000D01*
X188080000Y-46000000D02*
X198320000Y-56240000D01*
X198320000Y-56240000D02*
X249680000Y-56240000D01*
X249680000Y-56240000D02*
X249680000Y-52240000D01*
X249680000Y-52240000D02*
X253276756Y-52240000D01*
X253276756Y-52240000D02*
X259516756Y-46000000D01*
X259516756Y-46000000D02*
X263380000Y-46000000D01*
X263380000Y-46000000D02*
X269300000Y-40080000D01*
X269300000Y-40080000D02*
X271000000Y-40080000D01*
%TO.N,VCCL*%
X48870000Y-41110000D02*
X48870000Y-42960000D01*
X48870000Y-42960000D02*
X93905400Y-42960000D01*
X93905400Y-42960000D02*
X94827800Y-43882400D01*
X184363756Y-43882400D02*
X193136156Y-35110000D01*
X94827800Y-43882400D02*
X184363756Y-43882400D01*
X193136156Y-35110000D02*
X199870000Y-35110000D01*
%TO.N,Net-(SW1-Pad1)*%
X113345000Y-65000000D02*
X111495000Y-65000000D01*
X103747600Y-57252600D02*
X111495000Y-65000000D01*
X93689300Y-57252600D02*
X103747600Y-57252600D01*
X87586300Y-51149600D02*
X93689300Y-57252600D01*
%TO.N,LED2*%
X249975500Y-31755500D02*
X258300000Y-40080000D01*
X194793600Y-31755500D02*
X249975500Y-31755500D01*
X183866900Y-42682200D02*
X194793600Y-31755500D01*
X96162200Y-42682200D02*
X183866900Y-42682200D01*
X94590000Y-41110000D02*
X96162200Y-42682200D01*
X260000000Y-40080000D02*
X258300000Y-40080000D01*
%TO.N,LED1*%
X250926000Y-30518500D02*
X253004300Y-32596800D01*
X192776300Y-30518500D02*
X250926000Y-30518500D01*
X182184800Y-41110000D02*
X192776300Y-30518500D01*
X97130000Y-41110000D02*
X182184800Y-41110000D01*
%TO.N,ROW15*%
X105820000Y-37460000D02*
X81890000Y-37460000D01*
X110780000Y-32500000D02*
X105820000Y-37460000D01*
X110780000Y-31000000D02*
X110780000Y-32500000D01*
X81890000Y-41110000D02*
X81890000Y-37460000D01*
%TO.N,ROW11*%
X105700000Y-32948700D02*
X103984900Y-34663800D01*
X105700000Y-31000000D02*
X105700000Y-32948700D01*
%TO.N,ROW10*%
X104423400Y-32500000D02*
X102306200Y-34617200D01*
X104430000Y-32500000D02*
X104423400Y-32500000D01*
X104430000Y-31000000D02*
X104430000Y-32500000D01*
%TO.N,ROW7*%
X100077200Y-32500000D02*
X97761200Y-34816000D01*
X100620000Y-32500000D02*
X100077200Y-32500000D01*
X100620000Y-31000000D02*
X100620000Y-32500000D01*
%TO.N,ROW5*%
X57017300Y-44867300D02*
X69190000Y-57040000D01*
X49069400Y-44867300D02*
X57017300Y-44867300D01*
X47319900Y-43117800D02*
X49069400Y-44867300D01*
X47319900Y-38170000D02*
X47319900Y-43117800D01*
X52989900Y-32500000D02*
X47319900Y-38170000D01*
X98080000Y-32500000D02*
X52989900Y-32500000D01*
X98080000Y-31000000D02*
X98080000Y-32500000D01*
X69190000Y-58890000D02*
X69190000Y-57040000D01*
%TO.N,ROW2*%
X48019400Y-62540000D02*
X59030000Y-62540000D01*
X44849700Y-59370300D02*
X48019400Y-62540000D01*
X44849700Y-37195900D02*
X44849700Y-59370300D01*
X52545600Y-29500000D02*
X44849700Y-37195900D01*
X94270000Y-29500000D02*
X52545600Y-29500000D01*
X94270000Y-31000000D02*
X94270000Y-29500000D01*
X59030000Y-58890000D02*
X59030000Y-62540000D01*
%TO.N,ROW1*%
X56490000Y-54803700D02*
X56490000Y-58890000D01*
X51686300Y-50000000D02*
X56490000Y-54803700D01*
X49420000Y-50000000D02*
X51686300Y-50000000D01*
X46100900Y-46680900D02*
X49420000Y-50000000D01*
X46100900Y-37691800D02*
X46100900Y-46680900D01*
X52792700Y-31000000D02*
X46100900Y-37691800D01*
X93000000Y-31000000D02*
X52792700Y-31000000D01*
%TO.N,COL3*%
X252779700Y-51040000D02*
X212570000Y-51040000D01*
X263890000Y-39929700D02*
X252779700Y-51040000D01*
X263890000Y-31000000D02*
X263890000Y-39929700D01*
X212570000Y-52890000D02*
X212570000Y-51040000D01*
%TO.N,COL2*%
X262620000Y-39486600D02*
X262620000Y-31000000D01*
X252266800Y-49839800D02*
X262620000Y-39486600D01*
X211230200Y-49839800D02*
X252266800Y-49839800D01*
X210030000Y-51040000D02*
X211230200Y-49839800D01*
X210030000Y-52890000D02*
X210030000Y-51040000D01*
%TO.N,Net-(J1-Pad2)*%
X256270000Y-34730000D02*
X256270000Y-31000000D01*
X256000000Y-35000000D02*
X256270000Y-34730000D01*
%TD*%
%TA.AperFunction,Conductor*%
%TO.N,GNDL*%
G36*
X276433621Y-24528502D02*
G01*
X276480114Y-24582158D01*
X276491500Y-24634500D01*
X276491500Y-74365500D01*
X276471498Y-74433621D01*
X276417842Y-74480114D01*
X276365500Y-74491500D01*
X21634500Y-74491500D01*
X21566379Y-74471498D01*
X21519886Y-74417842D01*
X21508500Y-74365500D01*
X21508500Y-67168134D01*
X221296500Y-67168134D01*
X221303255Y-67230316D01*
X221354385Y-67366705D01*
X221441739Y-67483261D01*
X221558295Y-67570615D01*
X221694684Y-67621745D01*
X221756866Y-67628500D01*
X223553134Y-67628500D01*
X223615316Y-67621745D01*
X223751705Y-67570615D01*
X223868261Y-67483261D01*
X223955615Y-67366705D01*
X224006745Y-67230316D01*
X224013500Y-67168134D01*
X224013500Y-65371866D01*
X224006745Y-65309684D01*
X223955615Y-65173295D01*
X223868261Y-65056739D01*
X223751705Y-64969385D01*
X223615316Y-64918255D01*
X223553134Y-64911500D01*
X221756866Y-64911500D01*
X221694684Y-64918255D01*
X221558295Y-64969385D01*
X221441739Y-65056739D01*
X221354385Y-65173295D01*
X221303255Y-65309684D01*
X221296500Y-65371866D01*
X221296500Y-67168134D01*
X21508500Y-67168134D01*
X21508500Y-37192362D01*
X43836326Y-37192362D01*
X43836906Y-37198493D01*
X43840641Y-37238009D01*
X43841200Y-37249867D01*
X43841200Y-59308457D01*
X43840463Y-59322064D01*
X43836376Y-59359688D01*
X43836913Y-59365823D01*
X43840750Y-59409688D01*
X43841079Y-59414514D01*
X43841200Y-59416986D01*
X43841200Y-59420069D01*
X43841501Y-59423137D01*
X43845390Y-59462806D01*
X43845512Y-59464119D01*
X43853613Y-59556713D01*
X43855100Y-59561832D01*
X43855620Y-59567133D01*
X43882491Y-59656134D01*
X43882826Y-59657267D01*
X43908791Y-59746636D01*
X43911244Y-59751368D01*
X43912784Y-59756469D01*
X43915678Y-59761912D01*
X43956431Y-59838560D01*
X43957043Y-59839726D01*
X43999808Y-59922226D01*
X44003131Y-59926389D01*
X44005634Y-59931096D01*
X44064455Y-60003218D01*
X44065146Y-60004074D01*
X44096438Y-60043273D01*
X44098942Y-60045777D01*
X44099584Y-60046495D01*
X44103285Y-60050828D01*
X44130635Y-60084362D01*
X44135382Y-60088289D01*
X44135384Y-60088291D01*
X44165962Y-60113587D01*
X44174742Y-60121577D01*
X47262545Y-63209379D01*
X47271647Y-63219522D01*
X47295368Y-63249025D01*
X47317860Y-63267898D01*
X47333821Y-63281291D01*
X47337469Y-63284472D01*
X47339281Y-63286115D01*
X47341475Y-63288309D01*
X47374749Y-63315642D01*
X47375547Y-63316304D01*
X47446874Y-63376154D01*
X47451544Y-63378722D01*
X47455661Y-63382103D01*
X47537520Y-63425995D01*
X47538680Y-63426624D01*
X47614789Y-63468466D01*
X47614794Y-63468468D01*
X47620187Y-63471433D01*
X47625265Y-63473044D01*
X47629963Y-63475563D01*
X47718898Y-63502753D01*
X47720102Y-63503128D01*
X47808706Y-63531235D01*
X47813997Y-63531828D01*
X47819098Y-63533388D01*
X47911711Y-63542795D01*
X47912831Y-63542915D01*
X47962627Y-63548500D01*
X47966156Y-63548500D01*
X47967139Y-63548555D01*
X47972826Y-63549003D01*
X47993083Y-63551060D01*
X48009736Y-63552752D01*
X48009739Y-63552752D01*
X48015863Y-63553374D01*
X48061512Y-63549059D01*
X48073369Y-63548500D01*
X58970127Y-63548500D01*
X58983297Y-63549190D01*
X59016796Y-63552711D01*
X59016798Y-63552711D01*
X59022925Y-63553355D01*
X59073173Y-63548782D01*
X59077207Y-63548500D01*
X59079769Y-63548500D01*
X59082827Y-63548200D01*
X59082831Y-63548200D01*
X59124596Y-63544105D01*
X59125471Y-63544023D01*
X59147170Y-63542048D01*
X59219888Y-63535430D01*
X59223297Y-63534427D01*
X59226833Y-63534080D01*
X59317721Y-63506639D01*
X59318390Y-63506439D01*
X59409619Y-63479590D01*
X59412772Y-63477942D01*
X59416169Y-63476916D01*
X59423452Y-63473044D01*
X59445987Y-63461062D01*
X59500101Y-63432289D01*
X59500681Y-63431984D01*
X59584890Y-63387960D01*
X59587658Y-63385735D01*
X59590796Y-63384066D01*
X59608889Y-63369310D01*
X59664372Y-63324059D01*
X59665056Y-63323506D01*
X59734218Y-63267898D01*
X59734224Y-63267892D01*
X59739025Y-63264032D01*
X59741308Y-63261311D01*
X59744062Y-63259065D01*
X59756345Y-63244218D01*
X59804559Y-63185936D01*
X59805123Y-63185259D01*
X59862193Y-63117247D01*
X59862195Y-63117244D01*
X59866154Y-63112526D01*
X59867866Y-63109411D01*
X59870130Y-63106675D01*
X59915318Y-63023101D01*
X59915721Y-63022363D01*
X59958465Y-62944612D01*
X59958465Y-62944611D01*
X59961433Y-62939213D01*
X59962506Y-62935830D01*
X59964198Y-62932701D01*
X59992282Y-62841974D01*
X59992538Y-62841158D01*
X60019373Y-62756565D01*
X60019374Y-62756561D01*
X60021235Y-62750694D01*
X60021631Y-62747163D01*
X60022682Y-62743768D01*
X60032611Y-62649293D01*
X60032699Y-62648486D01*
X60038500Y-62596773D01*
X60038500Y-62594200D01*
X60038820Y-62590224D01*
X60042711Y-62553204D01*
X60042711Y-62553202D01*
X60043355Y-62547075D01*
X60039019Y-62499430D01*
X60038500Y-62488010D01*
X60038500Y-62111009D01*
X60058502Y-62042888D01*
X60112158Y-61996395D01*
X60117694Y-61994097D01*
X60118297Y-61993767D01*
X60126705Y-61990615D01*
X60224436Y-61917370D01*
X60290941Y-61892522D01*
X60360324Y-61907575D01*
X60375562Y-61917368D01*
X60473295Y-61990615D01*
X60609684Y-62041745D01*
X60671866Y-62048500D01*
X62468134Y-62048500D01*
X62530316Y-62041745D01*
X62666705Y-61990615D01*
X62764436Y-61917370D01*
X62830941Y-61892522D01*
X62900324Y-61907575D01*
X62915562Y-61917368D01*
X63013295Y-61990615D01*
X63149684Y-62041745D01*
X63211866Y-62048500D01*
X65008134Y-62048500D01*
X65070316Y-62041745D01*
X65206705Y-61990615D01*
X65323261Y-61903261D01*
X65410615Y-61786705D01*
X65461745Y-61650316D01*
X65468500Y-61588134D01*
X65468500Y-58987856D01*
X65469578Y-58971409D01*
X65471092Y-58959908D01*
X65471529Y-58956590D01*
X65472258Y-58926763D01*
X65473074Y-58893365D01*
X65473074Y-58893361D01*
X65473156Y-58890000D01*
X65468924Y-58838524D01*
X65468500Y-58828200D01*
X65468500Y-57991866D01*
X65461745Y-57929684D01*
X65410615Y-57793295D01*
X65323261Y-57676739D01*
X65206705Y-57589385D01*
X65070316Y-57538255D01*
X65008134Y-57531500D01*
X64124985Y-57531500D01*
X64123446Y-57531491D01*
X64020081Y-57530228D01*
X64020079Y-57530228D01*
X64014911Y-57530165D01*
X64009797Y-57530948D01*
X64006289Y-57531193D01*
X63997496Y-57531500D01*
X63211866Y-57531500D01*
X63149684Y-57538255D01*
X63013295Y-57589385D01*
X62915565Y-57662630D01*
X62849059Y-57687478D01*
X62779676Y-57672425D01*
X62764435Y-57662630D01*
X62666705Y-57589385D01*
X62530316Y-57538255D01*
X62468134Y-57531500D01*
X61584985Y-57531500D01*
X61583446Y-57531491D01*
X61480081Y-57530228D01*
X61480079Y-57530228D01*
X61474911Y-57530165D01*
X61469797Y-57530948D01*
X61466289Y-57531193D01*
X61457496Y-57531500D01*
X60671866Y-57531500D01*
X60609684Y-57538255D01*
X60473295Y-57589385D01*
X60375565Y-57662630D01*
X60309059Y-57687478D01*
X60239676Y-57672425D01*
X60224435Y-57662630D01*
X60126705Y-57589385D01*
X59990316Y-57538255D01*
X59928134Y-57531500D01*
X59044985Y-57531500D01*
X59043446Y-57531491D01*
X58940081Y-57530228D01*
X58940079Y-57530228D01*
X58934911Y-57530165D01*
X58929797Y-57530948D01*
X58926289Y-57531193D01*
X58917496Y-57531500D01*
X58131866Y-57531500D01*
X58069684Y-57538255D01*
X57933295Y-57589385D01*
X57835565Y-57662630D01*
X57769059Y-57687478D01*
X57699676Y-57672425D01*
X57684435Y-57662630D01*
X57586705Y-57589385D01*
X57578296Y-57586233D01*
X57570425Y-57581923D01*
X57571336Y-57580259D01*
X57523510Y-57544337D01*
X57498807Y-57477776D01*
X57498500Y-57468991D01*
X57498500Y-54865550D01*
X57499237Y-54851942D01*
X57499300Y-54851362D01*
X57503325Y-54814312D01*
X57498947Y-54764270D01*
X57498621Y-54759488D01*
X57498500Y-54757010D01*
X57498500Y-54753931D01*
X57498201Y-54750877D01*
X57498200Y-54750866D01*
X57494313Y-54711229D01*
X57494191Y-54709915D01*
X57486623Y-54623418D01*
X57486087Y-54617287D01*
X57484600Y-54612168D01*
X57484080Y-54606867D01*
X57457209Y-54517866D01*
X57456874Y-54516733D01*
X57432630Y-54433286D01*
X57432628Y-54433282D01*
X57430909Y-54427364D01*
X57428456Y-54422632D01*
X57426916Y-54417531D01*
X57383269Y-54335440D01*
X57382657Y-54334274D01*
X57342729Y-54257247D01*
X57339892Y-54251774D01*
X57336569Y-54247611D01*
X57334066Y-54242904D01*
X57275261Y-54170802D01*
X57274433Y-54169775D01*
X57245469Y-54133492D01*
X57245464Y-54133487D01*
X57243262Y-54130728D01*
X57240761Y-54128227D01*
X57240119Y-54127509D01*
X57236406Y-54123161D01*
X57224121Y-54108099D01*
X57209065Y-54089638D01*
X57204323Y-54085715D01*
X57204321Y-54085713D01*
X57173727Y-54060403D01*
X57164947Y-54052413D01*
X52443155Y-49330621D01*
X52434053Y-49320478D01*
X52414197Y-49295782D01*
X52410332Y-49290975D01*
X52371878Y-49258708D01*
X52368231Y-49255528D01*
X52366419Y-49253885D01*
X52364225Y-49251691D01*
X52330951Y-49224358D01*
X52330153Y-49223696D01*
X52258826Y-49163846D01*
X52254156Y-49161278D01*
X52250039Y-49157897D01*
X52168214Y-49114023D01*
X52167055Y-49113394D01*
X52090912Y-49071535D01*
X52090911Y-49071535D01*
X52089226Y-49070608D01*
X52089222Y-49070605D01*
X52085514Y-49068567D01*
X52085901Y-49067862D01*
X52035004Y-49025812D01*
X52013408Y-48958179D01*
X52031804Y-48889608D01*
X52084353Y-48841867D01*
X52128392Y-48829699D01*
X52143000Y-48828421D01*
X52249371Y-48819115D01*
X52462076Y-48762120D01*
X52661654Y-48669056D01*
X52773292Y-48590886D01*
X52837527Y-48545908D01*
X52837529Y-48545906D01*
X52842038Y-48542749D01*
X52997749Y-48387038D01*
X53015610Y-48361531D01*
X53120899Y-48211162D01*
X53120900Y-48211160D01*
X53124056Y-48206653D01*
X53126379Y-48201671D01*
X53126382Y-48201666D01*
X53199945Y-48043907D01*
X53217120Y-48007076D01*
X53274115Y-47794371D01*
X53293307Y-47575000D01*
X53274115Y-47355629D01*
X53217120Y-47142924D01*
X53154494Y-47008621D01*
X53126382Y-46948334D01*
X53126379Y-46948329D01*
X53124056Y-46943347D01*
X53120899Y-46938838D01*
X53000908Y-46767473D01*
X53000906Y-46767470D01*
X52997749Y-46762962D01*
X52842038Y-46607251D01*
X52835672Y-46602793D01*
X52762759Y-46551739D01*
X52661654Y-46480944D01*
X52462076Y-46387880D01*
X52249371Y-46330885D01*
X52030000Y-46311693D01*
X51810629Y-46330885D01*
X51597924Y-46387880D01*
X51530061Y-46419525D01*
X51403334Y-46478618D01*
X51403329Y-46478621D01*
X51398347Y-46480944D01*
X51393840Y-46484100D01*
X51393838Y-46484101D01*
X51222473Y-46604092D01*
X51222470Y-46604094D01*
X51217962Y-46607251D01*
X51062251Y-46762962D01*
X51059094Y-46767470D01*
X51059092Y-46767473D01*
X50939101Y-46938838D01*
X50935944Y-46943347D01*
X50933621Y-46948329D01*
X50933618Y-46948334D01*
X50905506Y-47008621D01*
X50842880Y-47142924D01*
X50785885Y-47355629D01*
X50766693Y-47575000D01*
X50785885Y-47794371D01*
X50842880Y-48007076D01*
X50860055Y-48043907D01*
X50933618Y-48201666D01*
X50933621Y-48201671D01*
X50935944Y-48206653D01*
X50939100Y-48211160D01*
X50939101Y-48211162D01*
X51044391Y-48361531D01*
X51062251Y-48387038D01*
X51217962Y-48542749D01*
X51222471Y-48545906D01*
X51222473Y-48545908D01*
X51286708Y-48590886D01*
X51398346Y-48669056D01*
X51419856Y-48679086D01*
X51574731Y-48751305D01*
X51628016Y-48798222D01*
X51647477Y-48866499D01*
X51626935Y-48934459D01*
X51572913Y-48980525D01*
X51521481Y-48991500D01*
X49889925Y-48991500D01*
X49821804Y-48971498D01*
X49800830Y-48954595D01*
X49587633Y-48741398D01*
X49553607Y-48679086D01*
X49558672Y-48608271D01*
X49601219Y-48551435D01*
X49621295Y-48539152D01*
X49719043Y-48491265D01*
X49719047Y-48491263D01*
X49723684Y-48488991D01*
X49912243Y-48354494D01*
X50076303Y-48191005D01*
X50211458Y-48002917D01*
X50261550Y-47901564D01*
X50311784Y-47799922D01*
X50311785Y-47799920D01*
X50314078Y-47795280D01*
X50381408Y-47573671D01*
X50411640Y-47344041D01*
X50413327Y-47275000D01*
X50402856Y-47147642D01*
X50394773Y-47049318D01*
X50394772Y-47049312D01*
X50394349Y-47044167D01*
X50365783Y-46930441D01*
X50339184Y-46824544D01*
X50339183Y-46824540D01*
X50337925Y-46819533D01*
X50335866Y-46814797D01*
X50247630Y-46611868D01*
X50247628Y-46611865D01*
X50245570Y-46607131D01*
X50119764Y-46412665D01*
X50097212Y-46387880D01*
X50044914Y-46330406D01*
X49963887Y-46241358D01*
X49959836Y-46238159D01*
X49959832Y-46238155D01*
X49785760Y-46100682D01*
X49744697Y-46042765D01*
X49741465Y-45971842D01*
X49777090Y-45910430D01*
X49840261Y-45878028D01*
X49863852Y-45875800D01*
X56547375Y-45875800D01*
X56615496Y-45895802D01*
X56636470Y-45912705D01*
X62388778Y-51665012D01*
X68117426Y-57393660D01*
X68151452Y-57455972D01*
X68146387Y-57526787D01*
X68103840Y-57583623D01*
X68097105Y-57587957D01*
X68093295Y-57589385D01*
X67976739Y-57676739D01*
X67889385Y-57793295D01*
X67838255Y-57929684D01*
X67831500Y-57991866D01*
X67831500Y-58810219D01*
X67830787Y-58823607D01*
X67827251Y-58856695D01*
X67827548Y-58861848D01*
X67827548Y-58861851D01*
X67831291Y-58926763D01*
X67831500Y-58934016D01*
X67831500Y-61588134D01*
X67838255Y-61650316D01*
X67889385Y-61786705D01*
X67976739Y-61903261D01*
X68093295Y-61990615D01*
X68229684Y-62041745D01*
X68291866Y-62048500D01*
X70088134Y-62048500D01*
X70150316Y-62041745D01*
X70286705Y-61990615D01*
X70384436Y-61917370D01*
X70450941Y-61892522D01*
X70520324Y-61907575D01*
X70535562Y-61917368D01*
X70633295Y-61990615D01*
X70769684Y-62041745D01*
X70831866Y-62048500D01*
X72628134Y-62048500D01*
X72690316Y-62041745D01*
X72826705Y-61990615D01*
X72924436Y-61917370D01*
X72990941Y-61892522D01*
X73060324Y-61907575D01*
X73075562Y-61917368D01*
X73173295Y-61990615D01*
X73309684Y-62041745D01*
X73371866Y-62048500D01*
X75168134Y-62048500D01*
X75230316Y-62041745D01*
X75366705Y-61990615D01*
X75464436Y-61917370D01*
X75530941Y-61892522D01*
X75600324Y-61907575D01*
X75615562Y-61917368D01*
X75713295Y-61990615D01*
X75849684Y-62041745D01*
X75911866Y-62048500D01*
X77708134Y-62048500D01*
X77770316Y-62041745D01*
X77906705Y-61990615D01*
X78023261Y-61903261D01*
X78110615Y-61786705D01*
X78161745Y-61650316D01*
X78168500Y-61588134D01*
X78168500Y-58987856D01*
X78169578Y-58971409D01*
X78171092Y-58959908D01*
X78171529Y-58956590D01*
X78172258Y-58926763D01*
X78173074Y-58893365D01*
X78173074Y-58893361D01*
X78173156Y-58890000D01*
X78170418Y-58856695D01*
X80527251Y-58856695D01*
X80527548Y-58861848D01*
X80527548Y-58861851D01*
X80531291Y-58926763D01*
X80531500Y-58934016D01*
X80531500Y-61588134D01*
X80538255Y-61650316D01*
X80589385Y-61786705D01*
X80676739Y-61903261D01*
X80793295Y-61990615D01*
X80929684Y-62041745D01*
X80991866Y-62048500D01*
X82788134Y-62048500D01*
X82850316Y-62041745D01*
X82986705Y-61990615D01*
X83084436Y-61917370D01*
X83150941Y-61892522D01*
X83220324Y-61907575D01*
X83235562Y-61917368D01*
X83333295Y-61990615D01*
X83469684Y-62041745D01*
X83531866Y-62048500D01*
X85328134Y-62048500D01*
X85390316Y-62041745D01*
X85526705Y-61990615D01*
X85624436Y-61917370D01*
X85690941Y-61892522D01*
X85760324Y-61907575D01*
X85775562Y-61917368D01*
X85873295Y-61990615D01*
X86009684Y-62041745D01*
X86071866Y-62048500D01*
X87868134Y-62048500D01*
X87930316Y-62041745D01*
X88066705Y-61990615D01*
X88164436Y-61917370D01*
X88230941Y-61892522D01*
X88300324Y-61907575D01*
X88315562Y-61917368D01*
X88413295Y-61990615D01*
X88549684Y-62041745D01*
X88611866Y-62048500D01*
X90408134Y-62048500D01*
X90470316Y-62041745D01*
X90606705Y-61990615D01*
X90723261Y-61903261D01*
X90810615Y-61786705D01*
X90861745Y-61650316D01*
X90868500Y-61588134D01*
X90868500Y-58987856D01*
X90869578Y-58971409D01*
X90871092Y-58959908D01*
X90871529Y-58956590D01*
X90872258Y-58926763D01*
X90873074Y-58893365D01*
X90873074Y-58893361D01*
X90873156Y-58890000D01*
X90868924Y-58838524D01*
X90868500Y-58828200D01*
X90868500Y-57991866D01*
X90861745Y-57929684D01*
X90810615Y-57793295D01*
X90723261Y-57676739D01*
X90606705Y-57589385D01*
X90470316Y-57538255D01*
X90408134Y-57531500D01*
X89524985Y-57531500D01*
X89523446Y-57531491D01*
X89420081Y-57530228D01*
X89420079Y-57530228D01*
X89414911Y-57530165D01*
X89409797Y-57530948D01*
X89406289Y-57531193D01*
X89397496Y-57531500D01*
X88611866Y-57531500D01*
X88549684Y-57538255D01*
X88413295Y-57589385D01*
X88315565Y-57662630D01*
X88249059Y-57687478D01*
X88179676Y-57672425D01*
X88164435Y-57662630D01*
X88066705Y-57589385D01*
X87930316Y-57538255D01*
X87868134Y-57531500D01*
X86984985Y-57531500D01*
X86983446Y-57531491D01*
X86880081Y-57530228D01*
X86880079Y-57530228D01*
X86874911Y-57530165D01*
X86869797Y-57530948D01*
X86866289Y-57531193D01*
X86857496Y-57531500D01*
X86071866Y-57531500D01*
X86009684Y-57538255D01*
X85873295Y-57589385D01*
X85775565Y-57662630D01*
X85709059Y-57687478D01*
X85639676Y-57672425D01*
X85624435Y-57662630D01*
X85526705Y-57589385D01*
X85390316Y-57538255D01*
X85328134Y-57531500D01*
X84444985Y-57531500D01*
X84443446Y-57531491D01*
X84340081Y-57530228D01*
X84340079Y-57530228D01*
X84334911Y-57530165D01*
X84329797Y-57530948D01*
X84326289Y-57531193D01*
X84317496Y-57531500D01*
X83531866Y-57531500D01*
X83469684Y-57538255D01*
X83333295Y-57589385D01*
X83235565Y-57662630D01*
X83169059Y-57687478D01*
X83099676Y-57672425D01*
X83084435Y-57662630D01*
X82986705Y-57589385D01*
X82850316Y-57538255D01*
X82788134Y-57531500D01*
X81904985Y-57531500D01*
X81903446Y-57531491D01*
X81800081Y-57530228D01*
X81800079Y-57530228D01*
X81794911Y-57530165D01*
X81789797Y-57530948D01*
X81786289Y-57531193D01*
X81777496Y-57531500D01*
X80991866Y-57531500D01*
X80929684Y-57538255D01*
X80793295Y-57589385D01*
X80676739Y-57676739D01*
X80589385Y-57793295D01*
X80538255Y-57929684D01*
X80531500Y-57991866D01*
X80531500Y-58810219D01*
X80530787Y-58823607D01*
X80527251Y-58856695D01*
X78170418Y-58856695D01*
X78168924Y-58838524D01*
X78168500Y-58828200D01*
X78168500Y-57991866D01*
X78161745Y-57929684D01*
X78110615Y-57793295D01*
X78023261Y-57676739D01*
X77906705Y-57589385D01*
X77770316Y-57538255D01*
X77708134Y-57531500D01*
X76824985Y-57531500D01*
X76823446Y-57531491D01*
X76720081Y-57530228D01*
X76720079Y-57530228D01*
X76714911Y-57530165D01*
X76709797Y-57530948D01*
X76706289Y-57531193D01*
X76697496Y-57531500D01*
X75911866Y-57531500D01*
X75849684Y-57538255D01*
X75713295Y-57589385D01*
X75615565Y-57662630D01*
X75549059Y-57687478D01*
X75479676Y-57672425D01*
X75464435Y-57662630D01*
X75366705Y-57589385D01*
X75230316Y-57538255D01*
X75168134Y-57531500D01*
X74284985Y-57531500D01*
X74283446Y-57531491D01*
X74180081Y-57530228D01*
X74180079Y-57530228D01*
X74174911Y-57530165D01*
X74169797Y-57530948D01*
X74166289Y-57531193D01*
X74157496Y-57531500D01*
X73371866Y-57531500D01*
X73309684Y-57538255D01*
X73173295Y-57589385D01*
X73075565Y-57662630D01*
X73009059Y-57687478D01*
X72939676Y-57672425D01*
X72924435Y-57662630D01*
X72826705Y-57589385D01*
X72690316Y-57538255D01*
X72628134Y-57531500D01*
X71744985Y-57531500D01*
X71743446Y-57531491D01*
X71640081Y-57530228D01*
X71640079Y-57530228D01*
X71634911Y-57530165D01*
X71629797Y-57530948D01*
X71626289Y-57531193D01*
X71617496Y-57531500D01*
X70831866Y-57531500D01*
X70769684Y-57538255D01*
X70633295Y-57589385D01*
X70535565Y-57662630D01*
X70469059Y-57687478D01*
X70399676Y-57672425D01*
X70384435Y-57662630D01*
X70286705Y-57589385D01*
X70278296Y-57586233D01*
X70270425Y-57581923D01*
X70271336Y-57580259D01*
X70223510Y-57544337D01*
X70198807Y-57477776D01*
X70198500Y-57468991D01*
X70198500Y-57101840D01*
X70199237Y-57088232D01*
X70202659Y-57056736D01*
X70202659Y-57056732D01*
X70203324Y-57050611D01*
X70200953Y-57023506D01*
X70198950Y-57000609D01*
X70198621Y-56995784D01*
X70198500Y-56993313D01*
X70198500Y-56990231D01*
X70195444Y-56959065D01*
X70194309Y-56947489D01*
X70194187Y-56946174D01*
X70186623Y-56859719D01*
X70186087Y-56853587D01*
X70184600Y-56848468D01*
X70184080Y-56843167D01*
X70157218Y-56754194D01*
X70156862Y-56752994D01*
X70148187Y-56723135D01*
X70130909Y-56663663D01*
X70128455Y-56658929D01*
X70126916Y-56653831D01*
X70120905Y-56642526D01*
X70083316Y-56571831D01*
X70082702Y-56570663D01*
X70042726Y-56493541D01*
X70042725Y-56493540D01*
X70039892Y-56488074D01*
X70036569Y-56483911D01*
X70034066Y-56479204D01*
X69975164Y-56406983D01*
X69974492Y-56406150D01*
X69943261Y-56367027D01*
X69940770Y-56364536D01*
X69940120Y-56363809D01*
X69936408Y-56359463D01*
X69912955Y-56330708D01*
X69909065Y-56325938D01*
X69904323Y-56322015D01*
X69904321Y-56322013D01*
X69873727Y-56296703D01*
X69864947Y-56288713D01*
X64715222Y-51138988D01*
X86572976Y-51138988D01*
X86590213Y-51336013D01*
X86591932Y-51341930D01*
X86591933Y-51341935D01*
X86619226Y-51435876D01*
X86645391Y-51525936D01*
X86736408Y-51701526D01*
X86740248Y-51706336D01*
X86830842Y-51819823D01*
X86830849Y-51819830D01*
X86833038Y-51822573D01*
X86835533Y-51825068D01*
X92932445Y-57921979D01*
X92941547Y-57932122D01*
X92965268Y-57961625D01*
X93003756Y-57993920D01*
X93007375Y-57997078D01*
X93009190Y-57998724D01*
X93011375Y-58000909D01*
X93013755Y-58002864D01*
X93013765Y-58002873D01*
X93044536Y-58028149D01*
X93045551Y-58028991D01*
X93116774Y-58088754D01*
X93121448Y-58091323D01*
X93125561Y-58094702D01*
X93130998Y-58097617D01*
X93130999Y-58097618D01*
X93165041Y-58115871D01*
X93215624Y-58165689D01*
X93231500Y-58226915D01*
X93231500Y-58810219D01*
X93230787Y-58823607D01*
X93227251Y-58856695D01*
X93227548Y-58861848D01*
X93227548Y-58861851D01*
X93231291Y-58926763D01*
X93231500Y-58934016D01*
X93231500Y-61588134D01*
X93238255Y-61650316D01*
X93289385Y-61786705D01*
X93376739Y-61903261D01*
X93493295Y-61990615D01*
X93629684Y-62041745D01*
X93691866Y-62048500D01*
X95488134Y-62048500D01*
X95550316Y-62041745D01*
X95686705Y-61990615D01*
X95784436Y-61917370D01*
X95850941Y-61892522D01*
X95920324Y-61907575D01*
X95935562Y-61917368D01*
X96033295Y-61990615D01*
X96169684Y-62041745D01*
X96231866Y-62048500D01*
X98028134Y-62048500D01*
X98090316Y-62041745D01*
X98226705Y-61990615D01*
X98343261Y-61903261D01*
X98430615Y-61786705D01*
X98481745Y-61650316D01*
X98488500Y-61588134D01*
X98488500Y-58987856D01*
X98489578Y-58971409D01*
X98491092Y-58959908D01*
X98491529Y-58956590D01*
X98492258Y-58926763D01*
X98493074Y-58893365D01*
X98493074Y-58893361D01*
X98493156Y-58890000D01*
X98488924Y-58838524D01*
X98488500Y-58828200D01*
X98488500Y-58387100D01*
X98508502Y-58318979D01*
X98562158Y-58272486D01*
X98614500Y-58261100D01*
X103277675Y-58261100D01*
X103345796Y-58281102D01*
X103366770Y-58298005D01*
X110738145Y-65669379D01*
X110747247Y-65679522D01*
X110770968Y-65709025D01*
X110775696Y-65712992D01*
X110809421Y-65741291D01*
X110813069Y-65744472D01*
X110814881Y-65746115D01*
X110817075Y-65748309D01*
X110850349Y-65775642D01*
X110851147Y-65776304D01*
X110922474Y-65836154D01*
X110927144Y-65838722D01*
X110931261Y-65842103D01*
X110989145Y-65873140D01*
X111013086Y-65885977D01*
X111014245Y-65886606D01*
X111090381Y-65928462D01*
X111090389Y-65928465D01*
X111095787Y-65931433D01*
X111100869Y-65933045D01*
X111105563Y-65935562D01*
X111194531Y-65962762D01*
X111195559Y-65963082D01*
X111284306Y-65991235D01*
X111289602Y-65991829D01*
X111294698Y-65993387D01*
X111387257Y-66002790D01*
X111388393Y-66002911D01*
X111422008Y-66006681D01*
X111434730Y-66008108D01*
X111434734Y-66008108D01*
X111438227Y-66008500D01*
X111441754Y-66008500D01*
X111442739Y-66008555D01*
X111448419Y-66009002D01*
X111477825Y-66011989D01*
X111485337Y-66012752D01*
X111485339Y-66012752D01*
X111491462Y-66013374D01*
X111537108Y-66009059D01*
X111548967Y-66008500D01*
X111923991Y-66008500D01*
X111992112Y-66028502D01*
X112038605Y-66082158D01*
X112040903Y-66087694D01*
X112041232Y-66088296D01*
X112044385Y-66096705D01*
X112131739Y-66213261D01*
X112248295Y-66300615D01*
X112384684Y-66351745D01*
X112446866Y-66358500D01*
X114243134Y-66358500D01*
X114305316Y-66351745D01*
X114441705Y-66300615D01*
X114558261Y-66213261D01*
X114645615Y-66096705D01*
X114696745Y-65960316D01*
X114703500Y-65898134D01*
X114703500Y-64101866D01*
X114696745Y-64039684D01*
X114645615Y-63903295D01*
X114558261Y-63786739D01*
X114441705Y-63699385D01*
X114305316Y-63648255D01*
X114243134Y-63641500D01*
X112446866Y-63641500D01*
X112384684Y-63648255D01*
X112248295Y-63699385D01*
X112131739Y-63786739D01*
X112044385Y-63903295D01*
X112044057Y-63903049D01*
X111998012Y-63948987D01*
X111928621Y-63963998D01*
X111862129Y-63939111D01*
X111848660Y-63927425D01*
X104504455Y-56583221D01*
X104495353Y-56573078D01*
X104475497Y-56548382D01*
X104471632Y-56543575D01*
X104433178Y-56511308D01*
X104429531Y-56508128D01*
X104427719Y-56506485D01*
X104425525Y-56504291D01*
X104392251Y-56476958D01*
X104391453Y-56476296D01*
X104320126Y-56416446D01*
X104315456Y-56413878D01*
X104311339Y-56410497D01*
X104229514Y-56366623D01*
X104228355Y-56365994D01*
X104152219Y-56324138D01*
X104152211Y-56324135D01*
X104146813Y-56321167D01*
X104141731Y-56319555D01*
X104137037Y-56317038D01*
X104048069Y-56289838D01*
X104047041Y-56289518D01*
X103958294Y-56261365D01*
X103952998Y-56260771D01*
X103947902Y-56259213D01*
X103855343Y-56249810D01*
X103854207Y-56249689D01*
X103820592Y-56245919D01*
X103807870Y-56244492D01*
X103807866Y-56244492D01*
X103804373Y-56244100D01*
X103800846Y-56244100D01*
X103799861Y-56244045D01*
X103794181Y-56243598D01*
X103764775Y-56240611D01*
X103757263Y-56239848D01*
X103757261Y-56239848D01*
X103751138Y-56239226D01*
X103708859Y-56243223D01*
X103705491Y-56243541D01*
X103693633Y-56244100D01*
X94159224Y-56244100D01*
X94091103Y-56224098D01*
X94070129Y-56207195D01*
X90369629Y-52506695D01*
X95537251Y-52506695D01*
X95537548Y-52511848D01*
X95537548Y-52511851D01*
X95541291Y-52576763D01*
X95541500Y-52584016D01*
X95541500Y-53438134D01*
X95548255Y-53500316D01*
X95599385Y-53636705D01*
X95686739Y-53753261D01*
X95803295Y-53840615D01*
X95939684Y-53891745D01*
X96001866Y-53898500D01*
X96870826Y-53898500D01*
X96875443Y-53898585D01*
X96956673Y-53901564D01*
X96956677Y-53901564D01*
X96961837Y-53901753D01*
X96966957Y-53901097D01*
X96966959Y-53901097D01*
X96979261Y-53899521D01*
X96995271Y-53898500D01*
X99598134Y-53898500D01*
X99660316Y-53891745D01*
X99796705Y-53840615D01*
X99913261Y-53753261D01*
X100000615Y-53636705D01*
X100051745Y-53500316D01*
X100058500Y-53438134D01*
X100058500Y-51641866D01*
X100051745Y-51579684D01*
X100000615Y-51443295D01*
X99913261Y-51326739D01*
X99796705Y-51239385D01*
X99660316Y-51188255D01*
X99598134Y-51181500D01*
X96914985Y-51181500D01*
X96913446Y-51181491D01*
X96810081Y-51180228D01*
X96810079Y-51180228D01*
X96804911Y-51180165D01*
X96799797Y-51180948D01*
X96796289Y-51181193D01*
X96787496Y-51181500D01*
X96001866Y-51181500D01*
X95939684Y-51188255D01*
X95803295Y-51239385D01*
X95686739Y-51326739D01*
X95599385Y-51443295D01*
X95548255Y-51579684D01*
X95541500Y-51641866D01*
X95541500Y-52460219D01*
X95540787Y-52473607D01*
X95537251Y-52506695D01*
X90369629Y-52506695D01*
X88264225Y-50401291D01*
X88258028Y-50396200D01*
X88207165Y-50354421D01*
X88150039Y-50307497D01*
X87975737Y-50214038D01*
X87867081Y-50180818D01*
X87792500Y-50158016D01*
X87792498Y-50158016D01*
X87786602Y-50156213D01*
X87728749Y-50150336D01*
X87595966Y-50136848D01*
X87595961Y-50136848D01*
X87589838Y-50136226D01*
X87465775Y-50147954D01*
X87399071Y-50154259D01*
X87399069Y-50154259D01*
X87392938Y-50154839D01*
X87298171Y-50183090D01*
X87209307Y-50209581D01*
X87209305Y-50209582D01*
X87203404Y-50211341D01*
X87028454Y-50303582D01*
X87023668Y-50307458D01*
X87023666Y-50307459D01*
X86910210Y-50399334D01*
X86874753Y-50428047D01*
X86870808Y-50432782D01*
X86833530Y-50477525D01*
X86748154Y-50579996D01*
X86653478Y-50753641D01*
X86630072Y-50828331D01*
X86596642Y-50935007D01*
X86594335Y-50942368D01*
X86593670Y-50948491D01*
X86593669Y-50948495D01*
X86575494Y-51115805D01*
X86572976Y-51138988D01*
X64715222Y-51138988D01*
X57774155Y-44197921D01*
X57765052Y-44187776D01*
X57753534Y-44173450D01*
X57726439Y-44107828D01*
X57739123Y-44037973D01*
X57787560Y-43986066D01*
X57851732Y-43968500D01*
X93056467Y-43968500D01*
X93124588Y-43988502D01*
X93171081Y-44042158D01*
X93181185Y-44112432D01*
X93160681Y-44165320D01*
X93157799Y-44169561D01*
X93153854Y-44174296D01*
X93059178Y-44347941D01*
X93000035Y-44536668D01*
X92999370Y-44542791D01*
X92999369Y-44542795D01*
X92979417Y-44726466D01*
X92978676Y-44733288D01*
X92995913Y-44930313D01*
X92997632Y-44936230D01*
X92997633Y-44936235D01*
X93026991Y-45037285D01*
X93051091Y-45120236D01*
X93142108Y-45295826D01*
X93145948Y-45300636D01*
X93236542Y-45414123D01*
X93236549Y-45414130D01*
X93238738Y-45416873D01*
X93634852Y-45812987D01*
X93643942Y-45823117D01*
X93667668Y-45852625D01*
X93672392Y-45856589D01*
X93706121Y-45884891D01*
X93709769Y-45888072D01*
X93711581Y-45889715D01*
X93713775Y-45891909D01*
X93747049Y-45919242D01*
X93747847Y-45919904D01*
X93819174Y-45979754D01*
X93823844Y-45982322D01*
X93827961Y-45985703D01*
X93885845Y-46016740D01*
X93909786Y-46029577D01*
X93910945Y-46030206D01*
X93987081Y-46072062D01*
X93987089Y-46072065D01*
X93992487Y-46075033D01*
X93997569Y-46076645D01*
X94002263Y-46079162D01*
X94091231Y-46106362D01*
X94092259Y-46106682D01*
X94181006Y-46134835D01*
X94186302Y-46135429D01*
X94191398Y-46136987D01*
X94283957Y-46146390D01*
X94285093Y-46146511D01*
X94318708Y-46150281D01*
X94331430Y-46151708D01*
X94331434Y-46151708D01*
X94334927Y-46152100D01*
X94338454Y-46152100D01*
X94339439Y-46152155D01*
X94345119Y-46152602D01*
X94374525Y-46155589D01*
X94382037Y-46156352D01*
X94382039Y-46156352D01*
X94388162Y-46156974D01*
X94433808Y-46152659D01*
X94445667Y-46152100D01*
X95505776Y-46152100D01*
X95573897Y-46172102D01*
X95620390Y-46225758D01*
X95630494Y-46296032D01*
X95608894Y-46348139D01*
X95609079Y-46348240D01*
X95608144Y-46349947D01*
X95606604Y-46353662D01*
X95599385Y-46363295D01*
X95548255Y-46499684D01*
X95541500Y-46561866D01*
X95541500Y-47380219D01*
X95540787Y-47393607D01*
X95537251Y-47426695D01*
X95537548Y-47431848D01*
X95537548Y-47431851D01*
X95541291Y-47496763D01*
X95541500Y-47504016D01*
X95541500Y-48358134D01*
X95548255Y-48420316D01*
X95599385Y-48556705D01*
X95686739Y-48673261D01*
X95803295Y-48760615D01*
X95939684Y-48811745D01*
X96001866Y-48818500D01*
X96870826Y-48818500D01*
X96875443Y-48818585D01*
X96956673Y-48821564D01*
X96956677Y-48821564D01*
X96961837Y-48821753D01*
X96966957Y-48821097D01*
X96966959Y-48821097D01*
X96979261Y-48819521D01*
X96995271Y-48818500D01*
X99598134Y-48818500D01*
X99660316Y-48811745D01*
X99796705Y-48760615D01*
X99913261Y-48673261D01*
X100000615Y-48556705D01*
X100051745Y-48420316D01*
X100058500Y-48358134D01*
X100058500Y-46561866D01*
X100051745Y-46499684D01*
X100000615Y-46363295D01*
X99993396Y-46353662D01*
X99992335Y-46350822D01*
X99990921Y-46348240D01*
X99991294Y-46348036D01*
X99968550Y-46287156D01*
X99983604Y-46217774D01*
X100033779Y-46167545D01*
X100094224Y-46152100D01*
X103328675Y-46152100D01*
X103396796Y-46172102D01*
X103417770Y-46189005D01*
X103898149Y-46669384D01*
X103907251Y-46679527D01*
X103930968Y-46709025D01*
X103969446Y-46741312D01*
X103973062Y-46744467D01*
X103974888Y-46746123D01*
X103977074Y-46748309D01*
X103979454Y-46750264D01*
X103979464Y-46750273D01*
X104010268Y-46775576D01*
X104011283Y-46776418D01*
X104082474Y-46836154D01*
X104087148Y-46838723D01*
X104091261Y-46842102D01*
X104096698Y-46845017D01*
X104096699Y-46845018D01*
X104173047Y-46885955D01*
X104174177Y-46886568D01*
X104186367Y-46893269D01*
X104247267Y-46926749D01*
X104255787Y-46931433D01*
X104260869Y-46933045D01*
X104265563Y-46935562D01*
X104354531Y-46962762D01*
X104355559Y-46963082D01*
X104444306Y-46991235D01*
X104449602Y-46991829D01*
X104454698Y-46993387D01*
X104547222Y-47002785D01*
X104548342Y-47002905D01*
X104581664Y-47006642D01*
X104594730Y-47008108D01*
X104594734Y-47008108D01*
X104598227Y-47008500D01*
X104601754Y-47008500D01*
X104602757Y-47008556D01*
X104608441Y-47009003D01*
X104631831Y-47011379D01*
X104645336Y-47012751D01*
X104645338Y-47012751D01*
X104651462Y-47013373D01*
X104697101Y-47009059D01*
X104708957Y-47008500D01*
X187610075Y-47008500D01*
X187678196Y-47028502D01*
X187699170Y-47045405D01*
X197563145Y-56909379D01*
X197572247Y-56919522D01*
X197595968Y-56949025D01*
X197618460Y-56967898D01*
X197634421Y-56981291D01*
X197638069Y-56984472D01*
X197639881Y-56986115D01*
X197642075Y-56988309D01*
X197675349Y-57015642D01*
X197676147Y-57016304D01*
X197747474Y-57076154D01*
X197752144Y-57078722D01*
X197756261Y-57082103D01*
X197780344Y-57095016D01*
X197838086Y-57125977D01*
X197839245Y-57126606D01*
X197915381Y-57168462D01*
X197915389Y-57168465D01*
X197920787Y-57171433D01*
X197925869Y-57173045D01*
X197930563Y-57175562D01*
X198003771Y-57197945D01*
X198019477Y-57202747D01*
X198020735Y-57203139D01*
X198109306Y-57231235D01*
X198114597Y-57231829D01*
X198119698Y-57233388D01*
X198212263Y-57242790D01*
X198213450Y-57242916D01*
X198242838Y-57246213D01*
X198259730Y-57248108D01*
X198259735Y-57248108D01*
X198263227Y-57248500D01*
X198266752Y-57248500D01*
X198267737Y-57248555D01*
X198273432Y-57249003D01*
X198285342Y-57250213D01*
X198310334Y-57252752D01*
X198310339Y-57252752D01*
X198316462Y-57253374D01*
X198362108Y-57249059D01*
X198373967Y-57248500D01*
X249620127Y-57248500D01*
X249633297Y-57249190D01*
X249666796Y-57252711D01*
X249666798Y-57252711D01*
X249672925Y-57253355D01*
X249723173Y-57248782D01*
X249727207Y-57248500D01*
X249729769Y-57248500D01*
X249732827Y-57248200D01*
X249732831Y-57248200D01*
X249774596Y-57244105D01*
X249775471Y-57244023D01*
X249797170Y-57242048D01*
X249869888Y-57235430D01*
X249873297Y-57234427D01*
X249876833Y-57234080D01*
X249967721Y-57206639D01*
X249968390Y-57206439D01*
X250059619Y-57179590D01*
X250062772Y-57177942D01*
X250066169Y-57176916D01*
X250073168Y-57173195D01*
X250095987Y-57161062D01*
X250150101Y-57132289D01*
X250150681Y-57131984D01*
X250234890Y-57087960D01*
X250237658Y-57085735D01*
X250240796Y-57084066D01*
X250289339Y-57044475D01*
X250314372Y-57024059D01*
X250315056Y-57023506D01*
X250384218Y-56967898D01*
X250384224Y-56967892D01*
X250389025Y-56964032D01*
X250391308Y-56961311D01*
X250394062Y-56959065D01*
X250403639Y-56947489D01*
X250454559Y-56885936D01*
X250455123Y-56885259D01*
X250512193Y-56817247D01*
X250512195Y-56817244D01*
X250516154Y-56812526D01*
X250517866Y-56809411D01*
X250520130Y-56806675D01*
X250565318Y-56723101D01*
X250565721Y-56722363D01*
X250608465Y-56644612D01*
X250608465Y-56644611D01*
X250611433Y-56639213D01*
X250612506Y-56635830D01*
X250614198Y-56632701D01*
X250642282Y-56541974D01*
X250642538Y-56541158D01*
X250669373Y-56456565D01*
X250669374Y-56456561D01*
X250671235Y-56450694D01*
X250671631Y-56447163D01*
X250672682Y-56443768D01*
X250682611Y-56349293D01*
X250682699Y-56348486D01*
X250688500Y-56296773D01*
X250688500Y-56294200D01*
X250688820Y-56290224D01*
X250692711Y-56253204D01*
X250692711Y-56253202D01*
X250693355Y-56247075D01*
X250689019Y-56199430D01*
X250688500Y-56188010D01*
X250688500Y-53374500D01*
X250708502Y-53306379D01*
X250762158Y-53259886D01*
X250814500Y-53248500D01*
X253214913Y-53248500D01*
X253228520Y-53249237D01*
X253260018Y-53252659D01*
X253260023Y-53252659D01*
X253266144Y-53253324D01*
X253292394Y-53251027D01*
X253316144Y-53248950D01*
X253320970Y-53248621D01*
X253323442Y-53248500D01*
X253326525Y-53248500D01*
X253338494Y-53247326D01*
X253369262Y-53244310D01*
X253370575Y-53244188D01*
X253414840Y-53240315D01*
X253463169Y-53236087D01*
X253468288Y-53234600D01*
X253473589Y-53234080D01*
X253562590Y-53207209D01*
X253563723Y-53206874D01*
X253647170Y-53182630D01*
X253647174Y-53182628D01*
X253653092Y-53180909D01*
X253657824Y-53178456D01*
X253662925Y-53176916D01*
X253668368Y-53174022D01*
X253745016Y-53133269D01*
X253746182Y-53132657D01*
X253823209Y-53092729D01*
X253828682Y-53089892D01*
X253832845Y-53086569D01*
X253837552Y-53084066D01*
X253909674Y-53025245D01*
X253910530Y-53024554D01*
X253949729Y-52993262D01*
X253952233Y-52990758D01*
X253952951Y-52990116D01*
X253957284Y-52986415D01*
X253990818Y-52959065D01*
X254020044Y-52923737D01*
X254028033Y-52914958D01*
X259897585Y-47045405D01*
X259959897Y-47011379D01*
X259986680Y-47008500D01*
X263318157Y-47008500D01*
X263331764Y-47009237D01*
X263363262Y-47012659D01*
X263363267Y-47012659D01*
X263369388Y-47013324D01*
X263395638Y-47011027D01*
X263419388Y-47008950D01*
X263424214Y-47008621D01*
X263426686Y-47008500D01*
X263429769Y-47008500D01*
X263441738Y-47007326D01*
X263472506Y-47004310D01*
X263473819Y-47004188D01*
X263518084Y-47000315D01*
X263566413Y-46996087D01*
X263571532Y-46994600D01*
X263576833Y-46994080D01*
X263665834Y-46967209D01*
X263666967Y-46966874D01*
X263750414Y-46942630D01*
X263750418Y-46942628D01*
X263756336Y-46940909D01*
X263761068Y-46938456D01*
X263766169Y-46936916D01*
X263773173Y-46933192D01*
X263848260Y-46893269D01*
X263849426Y-46892657D01*
X263926453Y-46852729D01*
X263931926Y-46849892D01*
X263936089Y-46846569D01*
X263940796Y-46844066D01*
X264012918Y-46785245D01*
X264013774Y-46784554D01*
X264052973Y-46753262D01*
X264055477Y-46750758D01*
X264056195Y-46750116D01*
X264060528Y-46746415D01*
X264094062Y-46719065D01*
X264106188Y-46704408D01*
X264123287Y-46683738D01*
X264131277Y-46674958D01*
X269680829Y-41125405D01*
X269743141Y-41091379D01*
X269769924Y-41088500D01*
X270293604Y-41088500D01*
X270365874Y-41111286D01*
X270388937Y-41127435D01*
X270388940Y-41127437D01*
X270393442Y-41130589D01*
X270398423Y-41132912D01*
X270398427Y-41132914D01*
X270541430Y-41199597D01*
X270585090Y-41219956D01*
X270590398Y-41221378D01*
X270590400Y-41221379D01*
X270784030Y-41273262D01*
X270784032Y-41273262D01*
X270789345Y-41274686D01*
X271000000Y-41293116D01*
X271210655Y-41274686D01*
X271215968Y-41273262D01*
X271215970Y-41273262D01*
X271409600Y-41221379D01*
X271409602Y-41221378D01*
X271414910Y-41219956D01*
X271458570Y-41199597D01*
X271601577Y-41132912D01*
X271601580Y-41132910D01*
X271606558Y-41130589D01*
X271779776Y-41009301D01*
X271929301Y-40859776D01*
X272050589Y-40686558D01*
X272085671Y-40611326D01*
X272137633Y-40499892D01*
X272137634Y-40499891D01*
X272139956Y-40494910D01*
X272144322Y-40478618D01*
X272193262Y-40295970D01*
X272193262Y-40295968D01*
X272194686Y-40290655D01*
X272213116Y-40080000D01*
X272194686Y-39869345D01*
X272139956Y-39665090D01*
X272137633Y-39660108D01*
X272052912Y-39478423D01*
X272052910Y-39478420D01*
X272050589Y-39473442D01*
X271929301Y-39300224D01*
X271779776Y-39150699D01*
X271606558Y-39029411D01*
X271601580Y-39027090D01*
X271601577Y-39027088D01*
X271419892Y-38942367D01*
X271419891Y-38942366D01*
X271414910Y-38940044D01*
X271409602Y-38938622D01*
X271409600Y-38938621D01*
X271215970Y-38886738D01*
X271215968Y-38886738D01*
X271210655Y-38885314D01*
X271000000Y-38866884D01*
X270789345Y-38885314D01*
X270784032Y-38886738D01*
X270784030Y-38886738D01*
X270590400Y-38938621D01*
X270590398Y-38938622D01*
X270585090Y-38940044D01*
X270580109Y-38942366D01*
X270580108Y-38942367D01*
X270398427Y-39027086D01*
X270398423Y-39027088D01*
X270393442Y-39029411D01*
X270388940Y-39032563D01*
X270388937Y-39032565D01*
X270365874Y-39048714D01*
X270293604Y-39071500D01*
X269361842Y-39071500D01*
X269348235Y-39070763D01*
X269316737Y-39067341D01*
X269316732Y-39067341D01*
X269310611Y-39066676D01*
X269292611Y-39068251D01*
X269260609Y-39071050D01*
X269255784Y-39071379D01*
X269253313Y-39071500D01*
X269250231Y-39071500D01*
X269227763Y-39073703D01*
X269207489Y-39075691D01*
X269206174Y-39075813D01*
X269173913Y-39078636D01*
X269113587Y-39083913D01*
X269108468Y-39085400D01*
X269103167Y-39085920D01*
X269014194Y-39112782D01*
X269013054Y-39113120D01*
X268923663Y-39139091D01*
X268918929Y-39141545D01*
X268913831Y-39143084D01*
X268908387Y-39145978D01*
X268908386Y-39145979D01*
X268831831Y-39186684D01*
X268830663Y-39187298D01*
X268748074Y-39230108D01*
X268743911Y-39233431D01*
X268739204Y-39235934D01*
X268667082Y-39294755D01*
X268666226Y-39295446D01*
X268627027Y-39326738D01*
X268624523Y-39329242D01*
X268623805Y-39329884D01*
X268619472Y-39333585D01*
X268585938Y-39360935D01*
X268582011Y-39365682D01*
X268582009Y-39365684D01*
X268556713Y-39396262D01*
X268548723Y-39405042D01*
X265759113Y-42194653D01*
X262999171Y-44954595D01*
X262936859Y-44988621D01*
X262910076Y-44991500D01*
X260558624Y-44991500D01*
X260490503Y-44971498D01*
X260444010Y-44917842D01*
X260433906Y-44847568D01*
X260463400Y-44782988D01*
X260469529Y-44776405D01*
X264559379Y-40686555D01*
X264569522Y-40677453D01*
X264594218Y-40657597D01*
X264599025Y-40653732D01*
X264631292Y-40615278D01*
X264634472Y-40611631D01*
X264636115Y-40609819D01*
X264638309Y-40607625D01*
X264665642Y-40574351D01*
X264666348Y-40573500D01*
X264678961Y-40558469D01*
X264726154Y-40502226D01*
X264728722Y-40497556D01*
X264732103Y-40493439D01*
X264775977Y-40411614D01*
X264776606Y-40410455D01*
X264818462Y-40334319D01*
X264818465Y-40334311D01*
X264821433Y-40328913D01*
X264823045Y-40323831D01*
X264825562Y-40319137D01*
X264852762Y-40230169D01*
X264853108Y-40229058D01*
X264875211Y-40159385D01*
X264881235Y-40140394D01*
X264881829Y-40135098D01*
X264883387Y-40130002D01*
X264892790Y-40037443D01*
X264892911Y-40036307D01*
X264898500Y-39986473D01*
X264898500Y-39982946D01*
X264898555Y-39981961D01*
X264899002Y-39976281D01*
X264903374Y-39933238D01*
X264899059Y-39887591D01*
X264898500Y-39875733D01*
X264898500Y-35000000D01*
X269786884Y-35000000D01*
X269805314Y-35210655D01*
X269806738Y-35215968D01*
X269806738Y-35215970D01*
X269848160Y-35370557D01*
X269860044Y-35414910D01*
X269862366Y-35419891D01*
X269862367Y-35419892D01*
X269944778Y-35596622D01*
X269949411Y-35606558D01*
X270070699Y-35779776D01*
X270220224Y-35929301D01*
X270393442Y-36050589D01*
X270398420Y-36052910D01*
X270398423Y-36052912D01*
X270580108Y-36137633D01*
X270585090Y-36139956D01*
X270590398Y-36141378D01*
X270590400Y-36141379D01*
X270784030Y-36193262D01*
X270784032Y-36193262D01*
X270789345Y-36194686D01*
X271000000Y-36213116D01*
X271210655Y-36194686D01*
X271215968Y-36193262D01*
X271215970Y-36193262D01*
X271409600Y-36141379D01*
X271409602Y-36141378D01*
X271414910Y-36139956D01*
X271419892Y-36137633D01*
X271601577Y-36052912D01*
X271601580Y-36052910D01*
X271606558Y-36050589D01*
X271779776Y-35929301D01*
X271929301Y-35779776D01*
X272050589Y-35606558D01*
X272055223Y-35596622D01*
X272137633Y-35419892D01*
X272137634Y-35419891D01*
X272139956Y-35414910D01*
X272151841Y-35370557D01*
X272193262Y-35215970D01*
X272193262Y-35215968D01*
X272194686Y-35210655D01*
X272213116Y-35000000D01*
X272194686Y-34789345D01*
X272179732Y-34733537D01*
X272141379Y-34590400D01*
X272141378Y-34590398D01*
X272139956Y-34585090D01*
X272137633Y-34580108D01*
X272052912Y-34398423D01*
X272052910Y-34398420D01*
X272050589Y-34393442D01*
X271929301Y-34220224D01*
X271779776Y-34070699D01*
X271606558Y-33949411D01*
X271601580Y-33947090D01*
X271601577Y-33947088D01*
X271419892Y-33862367D01*
X271419891Y-33862366D01*
X271414910Y-33860044D01*
X271409602Y-33858622D01*
X271409600Y-33858621D01*
X271215970Y-33806738D01*
X271215968Y-33806738D01*
X271210655Y-33805314D01*
X271000000Y-33786884D01*
X270789345Y-33805314D01*
X270784032Y-33806738D01*
X270784030Y-33806738D01*
X270590400Y-33858621D01*
X270590398Y-33858622D01*
X270585090Y-33860044D01*
X270580109Y-33862366D01*
X270580108Y-33862367D01*
X270398423Y-33947088D01*
X270398420Y-33947090D01*
X270393442Y-33949411D01*
X270220224Y-34070699D01*
X270070699Y-34220224D01*
X269949411Y-34393442D01*
X269947090Y-34398420D01*
X269947088Y-34398423D01*
X269862367Y-34580108D01*
X269860044Y-34585090D01*
X269858622Y-34590398D01*
X269858621Y-34590400D01*
X269820268Y-34733537D01*
X269805314Y-34789345D01*
X269786884Y-35000000D01*
X264898500Y-35000000D01*
X264898500Y-32126424D01*
X264918502Y-32058303D01*
X264972158Y-32011810D01*
X265039419Y-32001310D01*
X265138777Y-32013158D01*
X265144912Y-32012686D01*
X265144914Y-32012686D01*
X265329830Y-31998457D01*
X265329834Y-31998456D01*
X265335972Y-31997984D01*
X265526463Y-31944798D01*
X265531967Y-31942018D01*
X265531969Y-31942017D01*
X265697493Y-31858405D01*
X265697495Y-31858404D01*
X265702996Y-31855625D01*
X265707850Y-31851833D01*
X265707859Y-31851827D01*
X265716548Y-31845038D01*
X265782542Y-31818860D01*
X265855592Y-31834339D01*
X266024294Y-31928624D01*
X266212392Y-31989740D01*
X266408777Y-32013158D01*
X266414912Y-32012686D01*
X266414914Y-32012686D01*
X266599830Y-31998457D01*
X266599834Y-31998456D01*
X266605972Y-31997984D01*
X266796463Y-31944798D01*
X266801967Y-31942018D01*
X266801969Y-31942017D01*
X266967493Y-31858405D01*
X266967495Y-31858404D01*
X266972996Y-31855625D01*
X266977850Y-31851833D01*
X266977859Y-31851827D01*
X266986548Y-31845038D01*
X267052542Y-31818860D01*
X267125592Y-31834339D01*
X267294294Y-31928624D01*
X267482392Y-31989740D01*
X267678777Y-32013158D01*
X267684912Y-32012686D01*
X267684914Y-32012686D01*
X267869830Y-31998457D01*
X267869834Y-31998456D01*
X267875972Y-31997984D01*
X268066463Y-31944798D01*
X268071967Y-31942018D01*
X268071969Y-31942017D01*
X268237493Y-31858405D01*
X268237495Y-31858404D01*
X268242996Y-31855625D01*
X268247850Y-31851833D01*
X268247859Y-31851827D01*
X268256548Y-31845038D01*
X268322542Y-31818860D01*
X268395592Y-31834339D01*
X268564294Y-31928624D01*
X268752392Y-31989740D01*
X268948777Y-32013158D01*
X268954912Y-32012686D01*
X268954914Y-32012686D01*
X269139830Y-31998457D01*
X269139834Y-31998456D01*
X269145972Y-31997984D01*
X269336463Y-31944798D01*
X269341967Y-31942018D01*
X269341969Y-31942017D01*
X269507493Y-31858405D01*
X269507495Y-31858404D01*
X269512996Y-31855625D01*
X269517850Y-31851833D01*
X269517859Y-31851827D01*
X269526548Y-31845038D01*
X269592542Y-31818860D01*
X269665592Y-31834339D01*
X269834294Y-31928624D01*
X270022392Y-31989740D01*
X270218777Y-32013158D01*
X270224912Y-32012686D01*
X270224914Y-32012686D01*
X270409830Y-31998457D01*
X270409834Y-31998456D01*
X270415972Y-31997984D01*
X270606463Y-31944798D01*
X270611967Y-31942018D01*
X270611969Y-31942017D01*
X270777493Y-31858405D01*
X270777495Y-31858404D01*
X270782996Y-31855625D01*
X270787850Y-31851833D01*
X270787859Y-31851827D01*
X270796548Y-31845038D01*
X270862542Y-31818860D01*
X270935592Y-31834339D01*
X271104294Y-31928624D01*
X271292392Y-31989740D01*
X271488777Y-32013158D01*
X271494912Y-32012686D01*
X271494914Y-32012686D01*
X271679830Y-31998457D01*
X271679834Y-31998456D01*
X271685972Y-31997984D01*
X271876463Y-31944798D01*
X271881967Y-31942018D01*
X271881969Y-31942017D01*
X272047495Y-31858404D01*
X272047497Y-31858403D01*
X272052996Y-31855625D01*
X272208847Y-31733861D01*
X272302489Y-31625376D01*
X272334049Y-31588813D01*
X272334050Y-31588811D01*
X272338078Y-31584145D01*
X272435769Y-31412179D01*
X272498197Y-31224513D01*
X272522985Y-31028295D01*
X272523380Y-31000000D01*
X272521993Y-30985851D01*
X273036719Y-30985851D01*
X273053268Y-31182934D01*
X273107783Y-31373050D01*
X273198187Y-31548956D01*
X273321035Y-31703953D01*
X273325728Y-31707947D01*
X273325729Y-31707948D01*
X273456051Y-31818860D01*
X273471650Y-31832136D01*
X273644294Y-31928624D01*
X273832392Y-31989740D01*
X274028777Y-32013158D01*
X274034912Y-32012686D01*
X274034914Y-32012686D01*
X274219830Y-31998457D01*
X274219834Y-31998456D01*
X274225972Y-31997984D01*
X274416463Y-31944798D01*
X274421967Y-31942018D01*
X274421969Y-31942017D01*
X274587495Y-31858404D01*
X274587497Y-31858403D01*
X274592996Y-31855625D01*
X274748847Y-31733861D01*
X274842489Y-31625376D01*
X274874049Y-31588813D01*
X274874050Y-31588811D01*
X274878078Y-31584145D01*
X274975769Y-31412179D01*
X275038197Y-31224513D01*
X275062985Y-31028295D01*
X275063380Y-31000000D01*
X275044080Y-30803167D01*
X274986916Y-30613831D01*
X274894066Y-30439204D01*
X274823709Y-30352938D01*
X274772960Y-30290713D01*
X274772957Y-30290710D01*
X274769065Y-30285938D01*
X274762724Y-30280692D01*
X274621425Y-30163799D01*
X274621421Y-30163797D01*
X274616675Y-30159870D01*
X274442701Y-30065802D01*
X274253768Y-30007318D01*
X274247643Y-30006674D01*
X274247642Y-30006674D01*
X274063204Y-29987289D01*
X274063202Y-29987289D01*
X274057075Y-29986645D01*
X273974576Y-29994153D01*
X273866251Y-30004011D01*
X273866248Y-30004012D01*
X273860112Y-30004570D01*
X273854206Y-30006308D01*
X273854202Y-30006309D01*
X273749076Y-30037249D01*
X273670381Y-30060410D01*
X273664923Y-30063263D01*
X273664919Y-30063265D01*
X273574147Y-30110720D01*
X273495110Y-30152040D01*
X273340975Y-30275968D01*
X273213846Y-30427474D01*
X273210879Y-30432872D01*
X273210875Y-30432877D01*
X273207397Y-30439204D01*
X273118567Y-30600787D01*
X273116706Y-30606654D01*
X273116705Y-30606656D01*
X273060627Y-30783436D01*
X273058765Y-30789306D01*
X273036719Y-30985851D01*
X272521993Y-30985851D01*
X272504080Y-30803167D01*
X272446916Y-30613831D01*
X272354066Y-30439204D01*
X272283709Y-30352938D01*
X272232960Y-30290713D01*
X272232957Y-30290710D01*
X272229065Y-30285938D01*
X272222724Y-30280692D01*
X272081425Y-30163799D01*
X272081421Y-30163797D01*
X272076675Y-30159870D01*
X271902701Y-30065802D01*
X271713768Y-30007318D01*
X271707643Y-30006674D01*
X271707642Y-30006674D01*
X271523204Y-29987289D01*
X271523202Y-29987289D01*
X271517075Y-29986645D01*
X271434576Y-29994153D01*
X271326251Y-30004011D01*
X271326248Y-30004012D01*
X271320112Y-30004570D01*
X271314206Y-30006308D01*
X271314202Y-30006309D01*
X271209076Y-30037249D01*
X271130381Y-30060410D01*
X271124923Y-30063263D01*
X271124919Y-30063265D01*
X271029135Y-30113340D01*
X270955110Y-30152040D01*
X270950310Y-30155900D01*
X270945153Y-30159274D01*
X270943769Y-30157158D01*
X270888365Y-30180027D01*
X270818512Y-30167334D01*
X270808898Y-30161709D01*
X270806675Y-30159870D01*
X270632701Y-30065802D01*
X270443768Y-30007318D01*
X270437643Y-30006674D01*
X270437642Y-30006674D01*
X270253204Y-29987289D01*
X270253202Y-29987289D01*
X270247075Y-29986645D01*
X270164576Y-29994153D01*
X270056251Y-30004011D01*
X270056248Y-30004012D01*
X270050112Y-30004570D01*
X270044206Y-30006308D01*
X270044202Y-30006309D01*
X269939076Y-30037249D01*
X269860381Y-30060410D01*
X269854923Y-30063263D01*
X269854919Y-30063265D01*
X269759135Y-30113340D01*
X269685110Y-30152040D01*
X269680310Y-30155900D01*
X269675153Y-30159274D01*
X269673769Y-30157158D01*
X269618365Y-30180027D01*
X269548512Y-30167334D01*
X269538898Y-30161709D01*
X269536675Y-30159870D01*
X269362701Y-30065802D01*
X269173768Y-30007318D01*
X269167643Y-30006674D01*
X269167642Y-30006674D01*
X268983204Y-29987289D01*
X268983202Y-29987289D01*
X268977075Y-29986645D01*
X268894576Y-29994153D01*
X268786251Y-30004011D01*
X268786248Y-30004012D01*
X268780112Y-30004570D01*
X268774206Y-30006308D01*
X268774202Y-30006309D01*
X268669076Y-30037249D01*
X268590381Y-30060410D01*
X268584923Y-30063263D01*
X268584919Y-30063265D01*
X268489135Y-30113340D01*
X268415110Y-30152040D01*
X268410310Y-30155900D01*
X268405153Y-30159274D01*
X268403769Y-30157158D01*
X268348365Y-30180027D01*
X268278512Y-30167334D01*
X268268898Y-30161709D01*
X268266675Y-30159870D01*
X268092701Y-30065802D01*
X267903768Y-30007318D01*
X267897643Y-30006674D01*
X267897642Y-30006674D01*
X267713204Y-29987289D01*
X267713202Y-29987289D01*
X267707075Y-29986645D01*
X267624576Y-29994153D01*
X267516251Y-30004011D01*
X267516248Y-30004012D01*
X267510112Y-30004570D01*
X267504206Y-30006308D01*
X267504202Y-30006309D01*
X267399076Y-30037249D01*
X267320381Y-30060410D01*
X267314923Y-30063263D01*
X267314919Y-30063265D01*
X267219135Y-30113340D01*
X267145110Y-30152040D01*
X267140310Y-30155900D01*
X267135153Y-30159274D01*
X267133769Y-30157158D01*
X267078365Y-30180027D01*
X267008512Y-30167334D01*
X266998898Y-30161709D01*
X266996675Y-30159870D01*
X266822701Y-30065802D01*
X266633768Y-30007318D01*
X266627643Y-30006674D01*
X266627642Y-30006674D01*
X266443204Y-29987289D01*
X266443202Y-29987289D01*
X266437075Y-29986645D01*
X266354576Y-29994153D01*
X266246251Y-30004011D01*
X266246248Y-30004012D01*
X266240112Y-30004570D01*
X266234206Y-30006308D01*
X266234202Y-30006309D01*
X266129076Y-30037249D01*
X266050381Y-30060410D01*
X266044923Y-30063263D01*
X266044919Y-30063265D01*
X265949135Y-30113340D01*
X265875110Y-30152040D01*
X265870310Y-30155900D01*
X265865153Y-30159274D01*
X265863769Y-30157158D01*
X265808365Y-30180027D01*
X265738512Y-30167334D01*
X265728898Y-30161709D01*
X265726675Y-30159870D01*
X265552701Y-30065802D01*
X265363768Y-30007318D01*
X265357643Y-30006674D01*
X265357642Y-30006674D01*
X265173204Y-29987289D01*
X265173202Y-29987289D01*
X265167075Y-29986645D01*
X265084576Y-29994153D01*
X264976251Y-30004011D01*
X264976248Y-30004012D01*
X264970112Y-30004570D01*
X264964206Y-30006308D01*
X264964202Y-30006309D01*
X264859076Y-30037249D01*
X264780381Y-30060410D01*
X264774923Y-30063263D01*
X264774919Y-30063265D01*
X264679135Y-30113340D01*
X264605110Y-30152040D01*
X264600310Y-30155900D01*
X264595153Y-30159274D01*
X264593769Y-30157158D01*
X264538365Y-30180027D01*
X264468512Y-30167334D01*
X264458898Y-30161709D01*
X264456675Y-30159870D01*
X264282701Y-30065802D01*
X264093768Y-30007318D01*
X264087643Y-30006674D01*
X264087642Y-30006674D01*
X263903204Y-29987289D01*
X263903202Y-29987289D01*
X263897075Y-29986645D01*
X263814576Y-29994153D01*
X263706251Y-30004011D01*
X263706248Y-30004012D01*
X263700112Y-30004570D01*
X263694206Y-30006308D01*
X263694202Y-30006309D01*
X263589076Y-30037249D01*
X263510381Y-30060410D01*
X263504923Y-30063263D01*
X263504919Y-30063265D01*
X263409135Y-30113340D01*
X263335110Y-30152040D01*
X263330310Y-30155900D01*
X263325153Y-30159274D01*
X263323769Y-30157158D01*
X263268365Y-30180027D01*
X263198512Y-30167334D01*
X263188898Y-30161709D01*
X263186675Y-30159870D01*
X263012701Y-30065802D01*
X262823768Y-30007318D01*
X262817643Y-30006674D01*
X262817642Y-30006674D01*
X262633204Y-29987289D01*
X262633202Y-29987289D01*
X262627075Y-29986645D01*
X262544576Y-29994153D01*
X262436251Y-30004011D01*
X262436248Y-30004012D01*
X262430112Y-30004570D01*
X262424206Y-30006308D01*
X262424202Y-30006309D01*
X262319076Y-30037249D01*
X262240381Y-30060410D01*
X262234923Y-30063263D01*
X262234919Y-30063265D01*
X262139135Y-30113340D01*
X262065110Y-30152040D01*
X262060310Y-30155900D01*
X262055153Y-30159274D01*
X262053769Y-30157158D01*
X261998365Y-30180027D01*
X261928512Y-30167334D01*
X261918898Y-30161709D01*
X261916675Y-30159870D01*
X261742701Y-30065802D01*
X261553768Y-30007318D01*
X261547643Y-30006674D01*
X261547642Y-30006674D01*
X261363204Y-29987289D01*
X261363202Y-29987289D01*
X261357075Y-29986645D01*
X261274576Y-29994153D01*
X261166251Y-30004011D01*
X261166248Y-30004012D01*
X261160112Y-30004570D01*
X261154206Y-30006308D01*
X261154202Y-30006309D01*
X261049076Y-30037249D01*
X260970381Y-30060410D01*
X260964923Y-30063263D01*
X260964919Y-30063265D01*
X260869135Y-30113340D01*
X260795110Y-30152040D01*
X260790310Y-30155900D01*
X260785153Y-30159274D01*
X260783769Y-30157158D01*
X260728365Y-30180027D01*
X260658512Y-30167334D01*
X260648898Y-30161709D01*
X260646675Y-30159870D01*
X260472701Y-30065802D01*
X260283768Y-30007318D01*
X260277643Y-30006674D01*
X260277642Y-30006674D01*
X260093204Y-29987289D01*
X260093202Y-29987289D01*
X260087075Y-29986645D01*
X260004576Y-29994153D01*
X259896251Y-30004011D01*
X259896248Y-30004012D01*
X259890112Y-30004570D01*
X259884206Y-30006308D01*
X259884202Y-30006309D01*
X259779076Y-30037249D01*
X259700381Y-30060410D01*
X259694923Y-30063263D01*
X259694919Y-30063265D01*
X259599135Y-30113340D01*
X259525110Y-30152040D01*
X259520310Y-30155900D01*
X259515153Y-30159274D01*
X259513769Y-30157158D01*
X259458365Y-30180027D01*
X259388512Y-30167334D01*
X259378898Y-30161709D01*
X259376675Y-30159870D01*
X259202701Y-30065802D01*
X259013768Y-30007318D01*
X259007643Y-30006674D01*
X259007642Y-30006674D01*
X258823204Y-29987289D01*
X258823202Y-29987289D01*
X258817075Y-29986645D01*
X258734576Y-29994153D01*
X258626251Y-30004011D01*
X258626248Y-30004012D01*
X258620112Y-30004570D01*
X258614206Y-30006308D01*
X258614202Y-30006309D01*
X258509076Y-30037249D01*
X258430381Y-30060410D01*
X258424923Y-30063263D01*
X258424919Y-30063265D01*
X258329135Y-30113340D01*
X258255110Y-30152040D01*
X258250310Y-30155900D01*
X258245153Y-30159274D01*
X258243769Y-30157158D01*
X258188365Y-30180027D01*
X258118512Y-30167334D01*
X258108898Y-30161709D01*
X258106675Y-30159870D01*
X257932701Y-30065802D01*
X257743768Y-30007318D01*
X257737643Y-30006674D01*
X257737642Y-30006674D01*
X257553204Y-29987289D01*
X257553202Y-29987289D01*
X257547075Y-29986645D01*
X257464576Y-29994153D01*
X257356251Y-30004011D01*
X257356248Y-30004012D01*
X257350112Y-30004570D01*
X257344206Y-30006308D01*
X257344202Y-30006309D01*
X257239076Y-30037249D01*
X257160381Y-30060410D01*
X257154923Y-30063263D01*
X257154919Y-30063265D01*
X257059135Y-30113340D01*
X256985110Y-30152040D01*
X256980310Y-30155900D01*
X256975153Y-30159274D01*
X256973769Y-30157158D01*
X256918365Y-30180027D01*
X256848512Y-30167334D01*
X256838898Y-30161709D01*
X256836675Y-30159870D01*
X256662701Y-30065802D01*
X256473768Y-30007318D01*
X256467643Y-30006674D01*
X256467642Y-30006674D01*
X256283204Y-29987289D01*
X256283202Y-29987289D01*
X256277075Y-29986645D01*
X256194576Y-29994153D01*
X256086251Y-30004011D01*
X256086248Y-30004012D01*
X256080112Y-30004570D01*
X256074206Y-30006308D01*
X256074202Y-30006309D01*
X255969076Y-30037249D01*
X255890381Y-30060410D01*
X255884923Y-30063263D01*
X255884919Y-30063265D01*
X255794147Y-30110720D01*
X255715110Y-30152040D01*
X255560975Y-30275968D01*
X255433846Y-30427474D01*
X255430879Y-30432872D01*
X255430875Y-30432877D01*
X255427397Y-30439204D01*
X255338567Y-30600787D01*
X255336706Y-30606654D01*
X255336705Y-30606656D01*
X255280627Y-30783436D01*
X255278765Y-30789306D01*
X255256719Y-30985851D01*
X255257235Y-30991995D01*
X255261058Y-31037524D01*
X255261500Y-31048067D01*
X255261500Y-33977936D01*
X255241498Y-34046057D01*
X255219999Y-34070474D01*
X255220224Y-34070699D01*
X255070699Y-34220224D01*
X254949411Y-34393442D01*
X254947090Y-34398420D01*
X254947088Y-34398423D01*
X254862367Y-34580108D01*
X254860044Y-34585090D01*
X254858622Y-34590398D01*
X254858621Y-34590400D01*
X254820268Y-34733537D01*
X254805314Y-34789345D01*
X254804835Y-34794821D01*
X254804834Y-34794826D01*
X254799119Y-34860155D01*
X254773256Y-34926274D01*
X254715752Y-34967913D01*
X254644865Y-34971854D01*
X254584503Y-34938269D01*
X253373222Y-33726988D01*
X253339196Y-33664676D01*
X253344261Y-33593861D01*
X253386808Y-33537025D01*
X253403552Y-33526436D01*
X253516914Y-33466666D01*
X253562146Y-33442818D01*
X253568168Y-33437942D01*
X253711057Y-33322232D01*
X253711058Y-33322231D01*
X253715847Y-33318353D01*
X253791883Y-33227092D01*
X253838502Y-33171138D01*
X253838503Y-33171137D01*
X253842446Y-33166404D01*
X253937122Y-32992759D01*
X253969903Y-32888154D01*
X253994422Y-32809914D01*
X253994423Y-32809911D01*
X253996265Y-32804032D01*
X254006299Y-32711669D01*
X254016959Y-32613537D01*
X254016959Y-32613533D01*
X254017624Y-32607412D01*
X254000387Y-32410387D01*
X253998668Y-32404470D01*
X253998667Y-32404465D01*
X253946927Y-32226378D01*
X253945209Y-32220464D01*
X253854192Y-32044874D01*
X253817138Y-31998457D01*
X253759758Y-31926577D01*
X253759751Y-31926570D01*
X253757562Y-31923827D01*
X251682855Y-29849121D01*
X251673753Y-29838978D01*
X251653897Y-29814282D01*
X251650032Y-29809475D01*
X251611578Y-29777208D01*
X251607931Y-29774028D01*
X251606119Y-29772385D01*
X251603925Y-29770191D01*
X251570651Y-29742858D01*
X251569853Y-29742196D01*
X251498526Y-29682346D01*
X251493856Y-29679778D01*
X251489739Y-29676397D01*
X251407914Y-29632523D01*
X251406755Y-29631894D01*
X251330619Y-29590038D01*
X251330611Y-29590035D01*
X251325213Y-29587067D01*
X251320131Y-29585455D01*
X251315437Y-29582938D01*
X251226469Y-29555738D01*
X251225441Y-29555418D01*
X251136694Y-29527265D01*
X251131398Y-29526671D01*
X251126302Y-29525113D01*
X251033743Y-29515710D01*
X251032607Y-29515589D01*
X250998992Y-29511819D01*
X250986270Y-29510392D01*
X250986266Y-29510392D01*
X250982773Y-29510000D01*
X250979246Y-29510000D01*
X250978261Y-29509945D01*
X250972581Y-29509498D01*
X250943175Y-29506511D01*
X250935663Y-29505748D01*
X250935661Y-29505748D01*
X250929538Y-29505126D01*
X250887259Y-29509123D01*
X250883891Y-29509441D01*
X250872033Y-29510000D01*
X192838143Y-29510000D01*
X192824536Y-29509263D01*
X192793038Y-29505841D01*
X192793033Y-29505841D01*
X192786912Y-29505176D01*
X192765206Y-29507075D01*
X192736912Y-29509550D01*
X192732086Y-29509879D01*
X192729614Y-29510000D01*
X192726531Y-29510000D01*
X192714562Y-29511174D01*
X192683794Y-29514190D01*
X192682481Y-29514312D01*
X192638216Y-29518185D01*
X192589887Y-29522413D01*
X192584768Y-29523900D01*
X192579467Y-29524420D01*
X192490466Y-29551291D01*
X192489333Y-29551626D01*
X192405886Y-29575870D01*
X192405882Y-29575872D01*
X192399964Y-29577591D01*
X192395232Y-29580044D01*
X192390131Y-29581584D01*
X192384688Y-29584478D01*
X192308040Y-29625231D01*
X192306874Y-29625843D01*
X192229847Y-29665771D01*
X192224374Y-29668608D01*
X192220211Y-29671931D01*
X192215504Y-29674434D01*
X192143382Y-29733255D01*
X192142526Y-29733946D01*
X192103327Y-29765238D01*
X192100823Y-29767742D01*
X192100105Y-29768384D01*
X192095772Y-29772085D01*
X192062238Y-29799435D01*
X192058311Y-29804182D01*
X192058309Y-29804184D01*
X192033013Y-29834762D01*
X192025023Y-29843542D01*
X186900653Y-34967913D01*
X181803971Y-40064595D01*
X181741659Y-40098621D01*
X181714876Y-40101500D01*
X98614500Y-40101500D01*
X98546379Y-40081498D01*
X98499886Y-40027842D01*
X98488500Y-39975500D01*
X98488500Y-38594500D01*
X98508502Y-38526379D01*
X98562158Y-38479886D01*
X98614500Y-38468500D01*
X105758157Y-38468500D01*
X105771764Y-38469237D01*
X105803262Y-38472659D01*
X105803267Y-38472659D01*
X105809388Y-38473324D01*
X105835638Y-38471027D01*
X105859388Y-38468950D01*
X105864214Y-38468621D01*
X105866686Y-38468500D01*
X105869769Y-38468500D01*
X105881738Y-38467326D01*
X105912506Y-38464310D01*
X105913819Y-38464188D01*
X105958084Y-38460315D01*
X106006413Y-38456087D01*
X106011532Y-38454600D01*
X106016833Y-38454080D01*
X106105834Y-38427209D01*
X106106967Y-38426874D01*
X106190414Y-38402630D01*
X106190418Y-38402628D01*
X106196336Y-38400909D01*
X106201068Y-38398456D01*
X106206169Y-38396916D01*
X106211612Y-38394022D01*
X106288260Y-38353269D01*
X106289426Y-38352657D01*
X106366453Y-38312729D01*
X106371926Y-38309892D01*
X106376089Y-38306569D01*
X106380796Y-38304066D01*
X106452918Y-38245245D01*
X106453774Y-38244554D01*
X106492973Y-38213262D01*
X106495477Y-38210758D01*
X106496195Y-38210116D01*
X106500528Y-38206415D01*
X106534062Y-38179065D01*
X106563288Y-38143737D01*
X106571277Y-38134958D01*
X111449379Y-33256855D01*
X111459522Y-33247753D01*
X111484218Y-33227897D01*
X111489025Y-33224032D01*
X111521320Y-33185544D01*
X111524478Y-33181925D01*
X111526124Y-33180110D01*
X111528309Y-33177925D01*
X111530264Y-33175545D01*
X111530273Y-33175535D01*
X111555549Y-33144764D01*
X111556391Y-33143749D01*
X111585702Y-33108818D01*
X111616154Y-33072526D01*
X111618723Y-33067852D01*
X111622102Y-33063739D01*
X111626353Y-33055812D01*
X111665321Y-32983135D01*
X111665975Y-32981915D01*
X111666584Y-32980793D01*
X111708464Y-32904614D01*
X111708465Y-32904612D01*
X111711433Y-32899213D01*
X111713045Y-32894131D01*
X111715562Y-32889437D01*
X111742762Y-32800469D01*
X111743108Y-32799358D01*
X111747980Y-32784002D01*
X111771235Y-32710694D01*
X111771829Y-32705398D01*
X111773387Y-32700302D01*
X111782790Y-32607743D01*
X111782911Y-32606607D01*
X111788500Y-32556773D01*
X111788500Y-32553246D01*
X111788555Y-32552261D01*
X111789002Y-32546581D01*
X111793374Y-32503538D01*
X111789059Y-32457891D01*
X111788500Y-32446033D01*
X111788500Y-32126424D01*
X111808502Y-32058303D01*
X111862158Y-32011810D01*
X111929419Y-32001310D01*
X112028777Y-32013158D01*
X112034912Y-32012686D01*
X112034914Y-32012686D01*
X112219830Y-31998457D01*
X112219834Y-31998456D01*
X112225972Y-31997984D01*
X112416463Y-31944798D01*
X112421967Y-31942018D01*
X112421969Y-31942017D01*
X112587495Y-31858404D01*
X112587497Y-31858403D01*
X112592996Y-31855625D01*
X112748847Y-31733861D01*
X112842489Y-31625376D01*
X112874049Y-31588813D01*
X112874050Y-31588811D01*
X112878078Y-31584145D01*
X112975769Y-31412179D01*
X113038197Y-31224513D01*
X113062985Y-31028295D01*
X113063380Y-31000000D01*
X113044080Y-30803167D01*
X112986916Y-30613831D01*
X112894066Y-30439204D01*
X112823709Y-30352938D01*
X112772960Y-30290713D01*
X112772957Y-30290710D01*
X112769065Y-30285938D01*
X112762724Y-30280692D01*
X112621425Y-30163799D01*
X112621421Y-30163797D01*
X112616675Y-30159870D01*
X112442701Y-30065802D01*
X112253768Y-30007318D01*
X112247643Y-30006674D01*
X112247642Y-30006674D01*
X112063204Y-29987289D01*
X112063202Y-29987289D01*
X112057075Y-29986645D01*
X111974576Y-29994153D01*
X111866251Y-30004011D01*
X111866248Y-30004012D01*
X111860112Y-30004570D01*
X111854206Y-30006308D01*
X111854202Y-30006309D01*
X111749076Y-30037249D01*
X111670381Y-30060410D01*
X111664923Y-30063263D01*
X111664919Y-30063265D01*
X111569135Y-30113340D01*
X111495110Y-30152040D01*
X111490310Y-30155900D01*
X111485153Y-30159274D01*
X111483769Y-30157158D01*
X111428365Y-30180027D01*
X111358512Y-30167334D01*
X111348898Y-30161709D01*
X111346675Y-30159870D01*
X111172701Y-30065802D01*
X110983768Y-30007318D01*
X110977643Y-30006674D01*
X110977642Y-30006674D01*
X110793204Y-29987289D01*
X110793202Y-29987289D01*
X110787075Y-29986645D01*
X110704576Y-29994153D01*
X110596251Y-30004011D01*
X110596248Y-30004012D01*
X110590112Y-30004570D01*
X110584206Y-30006308D01*
X110584202Y-30006309D01*
X110479076Y-30037249D01*
X110400381Y-30060410D01*
X110394923Y-30063263D01*
X110394919Y-30063265D01*
X110299135Y-30113340D01*
X110225110Y-30152040D01*
X110220310Y-30155900D01*
X110215153Y-30159274D01*
X110213769Y-30157158D01*
X110158365Y-30180027D01*
X110088512Y-30167334D01*
X110078898Y-30161709D01*
X110076675Y-30159870D01*
X109902701Y-30065802D01*
X109713768Y-30007318D01*
X109707643Y-30006674D01*
X109707642Y-30006674D01*
X109523204Y-29987289D01*
X109523202Y-29987289D01*
X109517075Y-29986645D01*
X109434576Y-29994153D01*
X109326251Y-30004011D01*
X109326248Y-30004012D01*
X109320112Y-30004570D01*
X109314206Y-30006308D01*
X109314202Y-30006309D01*
X109209076Y-30037249D01*
X109130381Y-30060410D01*
X109124923Y-30063263D01*
X109124919Y-30063265D01*
X109029135Y-30113340D01*
X108955110Y-30152040D01*
X108950310Y-30155900D01*
X108945153Y-30159274D01*
X108943769Y-30157158D01*
X108888365Y-30180027D01*
X108818512Y-30167334D01*
X108808898Y-30161709D01*
X108806675Y-30159870D01*
X108632701Y-30065802D01*
X108443768Y-30007318D01*
X108437643Y-30006674D01*
X108437642Y-30006674D01*
X108253204Y-29987289D01*
X108253202Y-29987289D01*
X108247075Y-29986645D01*
X108164576Y-29994153D01*
X108056251Y-30004011D01*
X108056248Y-30004012D01*
X108050112Y-30004570D01*
X108044206Y-30006308D01*
X108044202Y-30006309D01*
X107939076Y-30037249D01*
X107860381Y-30060410D01*
X107854923Y-30063263D01*
X107854919Y-30063265D01*
X107759135Y-30113340D01*
X107685110Y-30152040D01*
X107680310Y-30155900D01*
X107675153Y-30159274D01*
X107673769Y-30157158D01*
X107618365Y-30180027D01*
X107548512Y-30167334D01*
X107538898Y-30161709D01*
X107536675Y-30159870D01*
X107362701Y-30065802D01*
X107173768Y-30007318D01*
X107167643Y-30006674D01*
X107167642Y-30006674D01*
X106983204Y-29987289D01*
X106983202Y-29987289D01*
X106977075Y-29986645D01*
X106894576Y-29994153D01*
X106786251Y-30004011D01*
X106786248Y-30004012D01*
X106780112Y-30004570D01*
X106774206Y-30006308D01*
X106774202Y-30006309D01*
X106669076Y-30037249D01*
X106590381Y-30060410D01*
X106584923Y-30063263D01*
X106584919Y-30063265D01*
X106489135Y-30113340D01*
X106415110Y-30152040D01*
X106410310Y-30155900D01*
X106405153Y-30159274D01*
X106403769Y-30157158D01*
X106348365Y-30180027D01*
X106278512Y-30167334D01*
X106268898Y-30161709D01*
X106266675Y-30159870D01*
X106092701Y-30065802D01*
X105903768Y-30007318D01*
X105897643Y-30006674D01*
X105897642Y-30006674D01*
X105713204Y-29987289D01*
X105713202Y-29987289D01*
X105707075Y-29986645D01*
X105624576Y-29994153D01*
X105516251Y-30004011D01*
X105516248Y-30004012D01*
X105510112Y-30004570D01*
X105504206Y-30006308D01*
X105504202Y-30006309D01*
X105399076Y-30037249D01*
X105320381Y-30060410D01*
X105314923Y-30063263D01*
X105314919Y-30063265D01*
X105219135Y-30113340D01*
X105145110Y-30152040D01*
X105140310Y-30155900D01*
X105135153Y-30159274D01*
X105133769Y-30157158D01*
X105078365Y-30180027D01*
X105008512Y-30167334D01*
X104998898Y-30161709D01*
X104996675Y-30159870D01*
X104822701Y-30065802D01*
X104633768Y-30007318D01*
X104627643Y-30006674D01*
X104627642Y-30006674D01*
X104443204Y-29987289D01*
X104443202Y-29987289D01*
X104437075Y-29986645D01*
X104354576Y-29994153D01*
X104246251Y-30004011D01*
X104246248Y-30004012D01*
X104240112Y-30004570D01*
X104234206Y-30006308D01*
X104234202Y-30006309D01*
X104129076Y-30037249D01*
X104050381Y-30060410D01*
X104044923Y-30063263D01*
X104044919Y-30063265D01*
X103949135Y-30113340D01*
X103875110Y-30152040D01*
X103870310Y-30155900D01*
X103865153Y-30159274D01*
X103863769Y-30157158D01*
X103808365Y-30180027D01*
X103738512Y-30167334D01*
X103728898Y-30161709D01*
X103726675Y-30159870D01*
X103552701Y-30065802D01*
X103363768Y-30007318D01*
X103357643Y-30006674D01*
X103357642Y-30006674D01*
X103173204Y-29987289D01*
X103173202Y-29987289D01*
X103167075Y-29986645D01*
X103084576Y-29994153D01*
X102976251Y-30004011D01*
X102976248Y-30004012D01*
X102970112Y-30004570D01*
X102964206Y-30006308D01*
X102964202Y-30006309D01*
X102859076Y-30037249D01*
X102780381Y-30060410D01*
X102774923Y-30063263D01*
X102774919Y-30063265D01*
X102679135Y-30113340D01*
X102605110Y-30152040D01*
X102600310Y-30155900D01*
X102595153Y-30159274D01*
X102593769Y-30157158D01*
X102538365Y-30180027D01*
X102468512Y-30167334D01*
X102458898Y-30161709D01*
X102456675Y-30159870D01*
X102282701Y-30065802D01*
X102093768Y-30007318D01*
X102087643Y-30006674D01*
X102087642Y-30006674D01*
X101903204Y-29987289D01*
X101903202Y-29987289D01*
X101897075Y-29986645D01*
X101814576Y-29994153D01*
X101706251Y-30004011D01*
X101706248Y-30004012D01*
X101700112Y-30004570D01*
X101694206Y-30006308D01*
X101694202Y-30006309D01*
X101589076Y-30037249D01*
X101510381Y-30060410D01*
X101504923Y-30063263D01*
X101504919Y-30063265D01*
X101409135Y-30113340D01*
X101335110Y-30152040D01*
X101330310Y-30155900D01*
X101325153Y-30159274D01*
X101323769Y-30157158D01*
X101268365Y-30180027D01*
X101198512Y-30167334D01*
X101188898Y-30161709D01*
X101186675Y-30159870D01*
X101012701Y-30065802D01*
X100823768Y-30007318D01*
X100817643Y-30006674D01*
X100817642Y-30006674D01*
X100633204Y-29987289D01*
X100633202Y-29987289D01*
X100627075Y-29986645D01*
X100544576Y-29994153D01*
X100436251Y-30004011D01*
X100436248Y-30004012D01*
X100430112Y-30004570D01*
X100424206Y-30006308D01*
X100424202Y-30006309D01*
X100319076Y-30037249D01*
X100240381Y-30060410D01*
X100234923Y-30063263D01*
X100234919Y-30063265D01*
X100139135Y-30113340D01*
X100065110Y-30152040D01*
X100060310Y-30155900D01*
X100055153Y-30159274D01*
X100053769Y-30157158D01*
X99998365Y-30180027D01*
X99928512Y-30167334D01*
X99918898Y-30161709D01*
X99916675Y-30159870D01*
X99742701Y-30065802D01*
X99553768Y-30007318D01*
X99547643Y-30006674D01*
X99547642Y-30006674D01*
X99363204Y-29987289D01*
X99363202Y-29987289D01*
X99357075Y-29986645D01*
X99274576Y-29994153D01*
X99166251Y-30004011D01*
X99166248Y-30004012D01*
X99160112Y-30004570D01*
X99154206Y-30006308D01*
X99154202Y-30006309D01*
X99049076Y-30037249D01*
X98970381Y-30060410D01*
X98964923Y-30063263D01*
X98964919Y-30063265D01*
X98869135Y-30113340D01*
X98795110Y-30152040D01*
X98790310Y-30155900D01*
X98785153Y-30159274D01*
X98783769Y-30157158D01*
X98728365Y-30180027D01*
X98658512Y-30167334D01*
X98648898Y-30161709D01*
X98646675Y-30159870D01*
X98472701Y-30065802D01*
X98283768Y-30007318D01*
X98277643Y-30006674D01*
X98277642Y-30006674D01*
X98093204Y-29987289D01*
X98093202Y-29987289D01*
X98087075Y-29986645D01*
X98004576Y-29994153D01*
X97896251Y-30004011D01*
X97896248Y-30004012D01*
X97890112Y-30004570D01*
X97884206Y-30006308D01*
X97884202Y-30006309D01*
X97779076Y-30037249D01*
X97700381Y-30060410D01*
X97694923Y-30063263D01*
X97694919Y-30063265D01*
X97599135Y-30113340D01*
X97525110Y-30152040D01*
X97520310Y-30155900D01*
X97515153Y-30159274D01*
X97513769Y-30157158D01*
X97458365Y-30180027D01*
X97388512Y-30167334D01*
X97378898Y-30161709D01*
X97376675Y-30159870D01*
X97202701Y-30065802D01*
X97013768Y-30007318D01*
X97007643Y-30006674D01*
X97007642Y-30006674D01*
X96823204Y-29987289D01*
X96823202Y-29987289D01*
X96817075Y-29986645D01*
X96734576Y-29994153D01*
X96626251Y-30004011D01*
X96626248Y-30004012D01*
X96620112Y-30004570D01*
X96614206Y-30006308D01*
X96614202Y-30006309D01*
X96509076Y-30037249D01*
X96430381Y-30060410D01*
X96424923Y-30063263D01*
X96424919Y-30063265D01*
X96329135Y-30113340D01*
X96255110Y-30152040D01*
X96250310Y-30155900D01*
X96245153Y-30159274D01*
X96243769Y-30157158D01*
X96188365Y-30180027D01*
X96118512Y-30167334D01*
X96108898Y-30161709D01*
X96106675Y-30159870D01*
X95932701Y-30065802D01*
X95743768Y-30007318D01*
X95737643Y-30006674D01*
X95737642Y-30006674D01*
X95553204Y-29987289D01*
X95553202Y-29987289D01*
X95547075Y-29986645D01*
X95415920Y-29998581D01*
X95346266Y-29984836D01*
X95295102Y-29935615D01*
X95278500Y-29873100D01*
X95278500Y-29559873D01*
X95279190Y-29546703D01*
X95282711Y-29513204D01*
X95282711Y-29513202D01*
X95283355Y-29507075D01*
X95278782Y-29456827D01*
X95278500Y-29452793D01*
X95278500Y-29450231D01*
X95274105Y-29405404D01*
X95274023Y-29404529D01*
X95265988Y-29316245D01*
X95265430Y-29310112D01*
X95264427Y-29306703D01*
X95264080Y-29303167D01*
X95236639Y-29212279D01*
X95236414Y-29211525D01*
X95211329Y-29126291D01*
X95209590Y-29120381D01*
X95207942Y-29117228D01*
X95206916Y-29113831D01*
X95162289Y-29029899D01*
X95161922Y-29029201D01*
X95120814Y-28950569D01*
X95117960Y-28945110D01*
X95115735Y-28942342D01*
X95114066Y-28939204D01*
X95099310Y-28921111D01*
X95054059Y-28865628D01*
X95053506Y-28864944D01*
X94997898Y-28795782D01*
X94997892Y-28795776D01*
X94994032Y-28790975D01*
X94991311Y-28788692D01*
X94989065Y-28785938D01*
X94983018Y-28780935D01*
X94939021Y-28744538D01*
X94915864Y-28725381D01*
X94915329Y-28724935D01*
X94842526Y-28663846D01*
X94839411Y-28662134D01*
X94836675Y-28659870D01*
X94753101Y-28614682D01*
X94752363Y-28614279D01*
X94739747Y-28607343D01*
X94669213Y-28568567D01*
X94665830Y-28567494D01*
X94662701Y-28565802D01*
X94571974Y-28537718D01*
X94571158Y-28537462D01*
X94486565Y-28510627D01*
X94486561Y-28510626D01*
X94480694Y-28508765D01*
X94477163Y-28508369D01*
X94473768Y-28507318D01*
X94379293Y-28497389D01*
X94378579Y-28497311D01*
X94326773Y-28491500D01*
X94324200Y-28491500D01*
X94320224Y-28491180D01*
X94283204Y-28487289D01*
X94283202Y-28487289D01*
X94277075Y-28486645D01*
X94229430Y-28490981D01*
X94218010Y-28491500D01*
X52607442Y-28491500D01*
X52593835Y-28490763D01*
X52562337Y-28487341D01*
X52562332Y-28487341D01*
X52556211Y-28486676D01*
X52538211Y-28488251D01*
X52506209Y-28491050D01*
X52501384Y-28491379D01*
X52498913Y-28491500D01*
X52495831Y-28491500D01*
X52473363Y-28493703D01*
X52453089Y-28495691D01*
X52451774Y-28495813D01*
X52419513Y-28498636D01*
X52359187Y-28503913D01*
X52354068Y-28505400D01*
X52348767Y-28505920D01*
X52259766Y-28532791D01*
X52258633Y-28533126D01*
X52175186Y-28557370D01*
X52175182Y-28557372D01*
X52169264Y-28559091D01*
X52164532Y-28561544D01*
X52159431Y-28563084D01*
X52153988Y-28565978D01*
X52077340Y-28606731D01*
X52076174Y-28607343D01*
X51999147Y-28647271D01*
X51993674Y-28650108D01*
X51989511Y-28653431D01*
X51984804Y-28655934D01*
X51912682Y-28714755D01*
X51911826Y-28715446D01*
X51872627Y-28746738D01*
X51870123Y-28749242D01*
X51869405Y-28749884D01*
X51865072Y-28753585D01*
X51831538Y-28780935D01*
X51827611Y-28785682D01*
X51827609Y-28785684D01*
X51802313Y-28816262D01*
X51794323Y-28825042D01*
X44180321Y-36439045D01*
X44170178Y-36448147D01*
X44146138Y-36467476D01*
X44140675Y-36471868D01*
X44108409Y-36510321D01*
X44105228Y-36513969D01*
X44103585Y-36515781D01*
X44101391Y-36517975D01*
X44074058Y-36551249D01*
X44073396Y-36552047D01*
X44013546Y-36623374D01*
X44010978Y-36628044D01*
X44007597Y-36632161D01*
X43984123Y-36675941D01*
X43963723Y-36713986D01*
X43963094Y-36715145D01*
X43921238Y-36791281D01*
X43921235Y-36791289D01*
X43918267Y-36796687D01*
X43916655Y-36801769D01*
X43914138Y-36806463D01*
X43886938Y-36895431D01*
X43886618Y-36896459D01*
X43858465Y-36985206D01*
X43857871Y-36990502D01*
X43856313Y-36995598D01*
X43848646Y-37071078D01*
X43846918Y-37088087D01*
X43846789Y-37089293D01*
X43841200Y-37139127D01*
X43841200Y-37142654D01*
X43841145Y-37143639D01*
X43840698Y-37149319D01*
X43836326Y-37192362D01*
X21508500Y-37192362D01*
X21508500Y-24634500D01*
X21528502Y-24566379D01*
X21582158Y-24519886D01*
X21634500Y-24508500D01*
X276365500Y-24508500D01*
X276433621Y-24528502D01*
G37*
%TD.AperFunction*%
%TA.AperFunction,Conductor*%
G36*
X46066712Y-48073401D02*
G01*
X46073295Y-48079530D01*
X48663145Y-50669379D01*
X48672247Y-50679522D01*
X48695968Y-50709025D01*
X48734456Y-50741320D01*
X48738075Y-50744478D01*
X48739890Y-50746124D01*
X48742075Y-50748309D01*
X48744455Y-50750264D01*
X48744465Y-50750273D01*
X48775236Y-50775549D01*
X48776251Y-50776391D01*
X48847474Y-50836154D01*
X48852148Y-50838723D01*
X48856261Y-50842102D01*
X48861698Y-50845017D01*
X48861699Y-50845018D01*
X48938047Y-50885955D01*
X48939177Y-50886568D01*
X49020787Y-50931433D01*
X49025869Y-50933045D01*
X49030563Y-50935562D01*
X49119531Y-50962762D01*
X49120559Y-50963082D01*
X49209306Y-50991235D01*
X49214602Y-50991829D01*
X49219698Y-50993387D01*
X49312257Y-51002790D01*
X49313393Y-51002911D01*
X49347008Y-51006681D01*
X49359730Y-51008108D01*
X49359734Y-51008108D01*
X49363227Y-51008500D01*
X49366754Y-51008500D01*
X49367739Y-51008555D01*
X49373419Y-51009002D01*
X49402825Y-51011989D01*
X49410337Y-51012752D01*
X49410339Y-51012752D01*
X49416462Y-51013374D01*
X49462108Y-51009059D01*
X49473967Y-51008500D01*
X51216375Y-51008500D01*
X51284496Y-51028502D01*
X51305470Y-51045405D01*
X51405484Y-51145419D01*
X51439510Y-51207731D01*
X51434445Y-51278546D01*
X51388660Y-51337727D01*
X51222473Y-51454092D01*
X51222470Y-51454094D01*
X51217962Y-51457251D01*
X51062251Y-51612962D01*
X51059094Y-51617470D01*
X51059092Y-51617473D01*
X50964583Y-51752446D01*
X50935944Y-51793347D01*
X50933621Y-51798329D01*
X50933618Y-51798334D01*
X50901595Y-51867009D01*
X50842880Y-51992924D01*
X50785885Y-52205629D01*
X50766693Y-52425000D01*
X50785885Y-52644371D01*
X50842880Y-52857076D01*
X50877066Y-52930388D01*
X50933618Y-53051666D01*
X50933621Y-53051671D01*
X50935944Y-53056653D01*
X50939100Y-53061160D01*
X50939101Y-53061162D01*
X51058933Y-53232299D01*
X51062251Y-53237038D01*
X51217962Y-53392749D01*
X51398346Y-53519056D01*
X51597924Y-53612120D01*
X51810629Y-53669115D01*
X52030000Y-53688307D01*
X52249371Y-53669115D01*
X52462076Y-53612120D01*
X52661654Y-53519056D01*
X52842038Y-53392749D01*
X52997749Y-53237038D01*
X53001068Y-53232299D01*
X53117273Y-53066340D01*
X53172730Y-53022012D01*
X53243349Y-53014703D01*
X53309581Y-53049516D01*
X55444595Y-55184529D01*
X55478620Y-55246841D01*
X55481500Y-55273624D01*
X55481500Y-57468991D01*
X55461498Y-57537112D01*
X55407842Y-57583605D01*
X55402306Y-57585903D01*
X55401704Y-57586232D01*
X55393295Y-57589385D01*
X55276739Y-57676739D01*
X55189385Y-57793295D01*
X55138255Y-57929684D01*
X55131500Y-57991866D01*
X55131500Y-58810219D01*
X55130787Y-58823607D01*
X55127251Y-58856695D01*
X55127548Y-58861848D01*
X55127548Y-58861851D01*
X55131291Y-58926763D01*
X55131500Y-58934016D01*
X55131500Y-61405500D01*
X55111498Y-61473621D01*
X55057842Y-61520114D01*
X55005500Y-61531500D01*
X52894500Y-61531500D01*
X52826379Y-61511498D01*
X52779886Y-61457842D01*
X52768500Y-61405500D01*
X52768500Y-58987856D01*
X52769578Y-58971409D01*
X52771092Y-58959908D01*
X52771529Y-58956590D01*
X52772258Y-58926763D01*
X52773074Y-58893365D01*
X52773074Y-58893361D01*
X52773156Y-58890000D01*
X52768924Y-58838524D01*
X52768500Y-58828200D01*
X52768500Y-57991866D01*
X52761745Y-57929684D01*
X52710615Y-57793295D01*
X52623261Y-57676739D01*
X52506705Y-57589385D01*
X52370316Y-57538255D01*
X52308134Y-57531500D01*
X51424985Y-57531500D01*
X51423446Y-57531491D01*
X51320081Y-57530228D01*
X51320079Y-57530228D01*
X51314911Y-57530165D01*
X51309797Y-57530948D01*
X51306289Y-57531193D01*
X51297496Y-57531500D01*
X50511866Y-57531500D01*
X50449684Y-57538255D01*
X50313295Y-57589385D01*
X50215565Y-57662630D01*
X50149059Y-57687478D01*
X50079676Y-57672425D01*
X50064435Y-57662630D01*
X49966705Y-57589385D01*
X49830316Y-57538255D01*
X49768134Y-57531500D01*
X48884985Y-57531500D01*
X48883446Y-57531491D01*
X48780081Y-57530228D01*
X48780079Y-57530228D01*
X48774911Y-57530165D01*
X48769797Y-57530948D01*
X48766289Y-57531193D01*
X48757496Y-57531500D01*
X47971866Y-57531500D01*
X47909684Y-57538255D01*
X47773295Y-57589385D01*
X47656739Y-57676739D01*
X47569385Y-57793295D01*
X47518255Y-57929684D01*
X47511500Y-57991866D01*
X47511500Y-58810219D01*
X47510787Y-58823607D01*
X47507251Y-58856695D01*
X47507548Y-58861848D01*
X47507548Y-58861851D01*
X47511291Y-58926763D01*
X47511500Y-58934016D01*
X47511500Y-60301676D01*
X47491498Y-60369797D01*
X47437842Y-60416290D01*
X47367568Y-60426394D01*
X47302988Y-60396900D01*
X47296405Y-60390771D01*
X45895105Y-58989471D01*
X45861079Y-58927159D01*
X45858200Y-58900376D01*
X45858200Y-52690469D01*
X47587095Y-52690469D01*
X47587392Y-52695622D01*
X47587392Y-52695625D01*
X47598406Y-52886646D01*
X47600427Y-52921697D01*
X47601564Y-52926743D01*
X47601565Y-52926749D01*
X47629232Y-53049516D01*
X47651346Y-53147642D01*
X47653288Y-53152424D01*
X47653289Y-53152428D01*
X47715802Y-53306379D01*
X47738484Y-53362237D01*
X47859501Y-53559719D01*
X48011147Y-53734784D01*
X48189349Y-53882730D01*
X48389322Y-53999584D01*
X48605694Y-54082209D01*
X48610760Y-54083240D01*
X48610761Y-54083240D01*
X48663846Y-54094040D01*
X48832656Y-54128385D01*
X48963324Y-54133176D01*
X49058949Y-54136683D01*
X49058953Y-54136683D01*
X49064113Y-54136872D01*
X49069233Y-54136216D01*
X49069235Y-54136216D01*
X49142270Y-54126860D01*
X49293847Y-54107442D01*
X49298795Y-54105957D01*
X49298802Y-54105956D01*
X49510747Y-54042369D01*
X49515690Y-54040886D01*
X49596236Y-54001427D01*
X49719049Y-53941262D01*
X49719052Y-53941260D01*
X49723684Y-53938991D01*
X49912243Y-53804494D01*
X50076303Y-53641005D01*
X50211458Y-53452917D01*
X50217086Y-53441531D01*
X50311784Y-53249922D01*
X50311785Y-53249920D01*
X50314078Y-53245280D01*
X50381408Y-53023671D01*
X50411640Y-52794041D01*
X50413327Y-52725000D01*
X50394957Y-52501562D01*
X50394773Y-52499318D01*
X50394772Y-52499312D01*
X50394349Y-52494167D01*
X50337925Y-52269533D01*
X50335866Y-52264797D01*
X50247630Y-52061868D01*
X50247628Y-52061865D01*
X50245570Y-52057131D01*
X50119764Y-51862665D01*
X50085554Y-51825068D01*
X50052587Y-51788838D01*
X49963887Y-51691358D01*
X49959836Y-51688159D01*
X49959832Y-51688155D01*
X49786177Y-51551011D01*
X49786172Y-51551008D01*
X49782123Y-51547810D01*
X49777607Y-51545317D01*
X49777604Y-51545315D01*
X49583879Y-51438373D01*
X49583875Y-51438371D01*
X49579355Y-51435876D01*
X49574486Y-51434152D01*
X49574482Y-51434150D01*
X49365903Y-51360288D01*
X49365899Y-51360287D01*
X49361028Y-51358562D01*
X49355935Y-51357655D01*
X49355932Y-51357654D01*
X49138095Y-51318851D01*
X49138089Y-51318850D01*
X49133006Y-51317945D01*
X49060096Y-51317054D01*
X48906581Y-51315179D01*
X48906579Y-51315179D01*
X48901411Y-51315116D01*
X48672464Y-51350150D01*
X48452314Y-51422106D01*
X48447726Y-51424494D01*
X48447722Y-51424496D01*
X48252858Y-51525936D01*
X48246872Y-51529052D01*
X48242739Y-51532155D01*
X48242736Y-51532157D01*
X48135114Y-51612962D01*
X48061655Y-51668117D01*
X47901639Y-51835564D01*
X47898725Y-51839836D01*
X47898724Y-51839837D01*
X47883152Y-51862665D01*
X47771119Y-52026899D01*
X47673602Y-52236981D01*
X47611707Y-52460169D01*
X47587095Y-52690469D01*
X45858200Y-52690469D01*
X45858200Y-48168625D01*
X45878202Y-48100504D01*
X45931858Y-48054011D01*
X46002132Y-48043907D01*
X46066712Y-48073401D01*
G37*
%TD.AperFunction*%
%TA.AperFunction,Conductor*%
G36*
X231473621Y-52068502D02*
G01*
X231520114Y-52122158D01*
X231531500Y-52174500D01*
X231531500Y-52810219D01*
X231530787Y-52823607D01*
X231527251Y-52856695D01*
X231527548Y-52861848D01*
X231527548Y-52861851D01*
X231531291Y-52926763D01*
X231531500Y-52934016D01*
X231531500Y-55105500D01*
X231511498Y-55173621D01*
X231457842Y-55220114D01*
X231405500Y-55231500D01*
X229294500Y-55231500D01*
X229226379Y-55211498D01*
X229179886Y-55157842D01*
X229168500Y-55105500D01*
X229168500Y-52987856D01*
X229169578Y-52971409D01*
X229169614Y-52971134D01*
X229171529Y-52956590D01*
X229172258Y-52926749D01*
X229173074Y-52893365D01*
X229173074Y-52893361D01*
X229173156Y-52890000D01*
X229168924Y-52838524D01*
X229168500Y-52828200D01*
X229168500Y-52174500D01*
X229188502Y-52106379D01*
X229242158Y-52059886D01*
X229294500Y-52048500D01*
X231405500Y-52048500D01*
X231473621Y-52068502D01*
G37*
%TD.AperFunction*%
%TA.AperFunction,Conductor*%
G36*
X218773621Y-52068502D02*
G01*
X218820114Y-52122158D01*
X218831500Y-52174500D01*
X218831500Y-52810219D01*
X218830787Y-52823607D01*
X218827251Y-52856695D01*
X218827548Y-52861848D01*
X218827548Y-52861851D01*
X218831291Y-52926763D01*
X218831500Y-52934016D01*
X218831500Y-55105500D01*
X218811498Y-55173621D01*
X218757842Y-55220114D01*
X218705500Y-55231500D01*
X216594500Y-55231500D01*
X216526379Y-55211498D01*
X216479886Y-55157842D01*
X216468500Y-55105500D01*
X216468500Y-52987856D01*
X216469578Y-52971409D01*
X216469614Y-52971134D01*
X216471529Y-52956590D01*
X216472258Y-52926749D01*
X216473074Y-52893365D01*
X216473074Y-52893361D01*
X216473156Y-52890000D01*
X216468924Y-52838524D01*
X216468500Y-52828200D01*
X216468500Y-52174500D01*
X216488502Y-52106379D01*
X216542158Y-52059886D01*
X216594500Y-52048500D01*
X218705500Y-52048500D01*
X218773621Y-52068502D01*
G37*
%TD.AperFunction*%
%TA.AperFunction,Conductor*%
G36*
X244173621Y-52068502D02*
G01*
X244220114Y-52122158D01*
X244231500Y-52174500D01*
X244231500Y-52810219D01*
X244230787Y-52823607D01*
X244227251Y-52856695D01*
X244227548Y-52861848D01*
X244227548Y-52861851D01*
X244231291Y-52926763D01*
X244231500Y-52934016D01*
X244231500Y-55105500D01*
X244211498Y-55173621D01*
X244157842Y-55220114D01*
X244105500Y-55231500D01*
X241994500Y-55231500D01*
X241926379Y-55211498D01*
X241879886Y-55157842D01*
X241868500Y-55105500D01*
X241868500Y-52987856D01*
X241869578Y-52971409D01*
X241869614Y-52971134D01*
X241871529Y-52956590D01*
X241872258Y-52926749D01*
X241873074Y-52893365D01*
X241873074Y-52893361D01*
X241873156Y-52890000D01*
X241868924Y-52838524D01*
X241868500Y-52828200D01*
X241868500Y-52174500D01*
X241888502Y-52106379D01*
X241942158Y-52059886D01*
X241994500Y-52048500D01*
X244105500Y-52048500D01*
X244173621Y-52068502D01*
G37*
%TD.AperFunction*%
%TA.AperFunction,Conductor*%
G36*
X206073621Y-32784002D02*
G01*
X206120114Y-32837658D01*
X206131500Y-32890000D01*
X206131500Y-35030219D01*
X206130787Y-35043607D01*
X206127251Y-35076695D01*
X206127548Y-35081848D01*
X206127548Y-35081851D01*
X206131291Y-35146763D01*
X206131500Y-35154016D01*
X206131500Y-36008134D01*
X206138255Y-36070316D01*
X206189385Y-36206705D01*
X206276739Y-36323261D01*
X206393295Y-36410615D01*
X206529684Y-36461745D01*
X206591866Y-36468500D01*
X207460826Y-36468500D01*
X207465443Y-36468585D01*
X207546673Y-36471564D01*
X207546677Y-36471564D01*
X207551837Y-36471753D01*
X207556957Y-36471097D01*
X207556959Y-36471097D01*
X207569261Y-36469521D01*
X207585271Y-36468500D01*
X208388134Y-36468500D01*
X208450316Y-36461745D01*
X208586705Y-36410615D01*
X208684436Y-36337370D01*
X208750941Y-36312522D01*
X208820324Y-36327575D01*
X208835562Y-36337368D01*
X208933295Y-36410615D01*
X209069684Y-36461745D01*
X209131866Y-36468500D01*
X210000826Y-36468500D01*
X210005443Y-36468585D01*
X210086673Y-36471564D01*
X210086677Y-36471564D01*
X210091837Y-36471753D01*
X210096957Y-36471097D01*
X210096959Y-36471097D01*
X210109261Y-36469521D01*
X210125271Y-36468500D01*
X210928134Y-36468500D01*
X210990316Y-36461745D01*
X211126705Y-36410615D01*
X211224436Y-36337370D01*
X211290941Y-36312522D01*
X211360324Y-36327575D01*
X211375562Y-36337368D01*
X211473295Y-36410615D01*
X211609684Y-36461745D01*
X211671866Y-36468500D01*
X212540826Y-36468500D01*
X212545443Y-36468585D01*
X212626673Y-36471564D01*
X212626677Y-36471564D01*
X212631837Y-36471753D01*
X212636957Y-36471097D01*
X212636959Y-36471097D01*
X212649261Y-36469521D01*
X212665271Y-36468500D01*
X213468134Y-36468500D01*
X213530316Y-36461745D01*
X213666705Y-36410615D01*
X213764436Y-36337370D01*
X213830941Y-36312522D01*
X213900324Y-36327575D01*
X213915562Y-36337368D01*
X214013295Y-36410615D01*
X214149684Y-36461745D01*
X214211866Y-36468500D01*
X215080826Y-36468500D01*
X215085443Y-36468585D01*
X215166673Y-36471564D01*
X215166677Y-36471564D01*
X215171837Y-36471753D01*
X215176957Y-36471097D01*
X215176959Y-36471097D01*
X215189261Y-36469521D01*
X215205271Y-36468500D01*
X216008134Y-36468500D01*
X216070316Y-36461745D01*
X216206705Y-36410615D01*
X216323261Y-36323261D01*
X216410615Y-36206705D01*
X216461745Y-36070316D01*
X216468500Y-36008134D01*
X216468500Y-35207856D01*
X216469578Y-35191409D01*
X216471092Y-35179908D01*
X216471529Y-35176590D01*
X216472917Y-35119791D01*
X216473074Y-35113365D01*
X216473074Y-35113361D01*
X216473156Y-35110000D01*
X216468924Y-35058524D01*
X216468500Y-35048200D01*
X216468500Y-32890000D01*
X216488502Y-32821879D01*
X216542158Y-32775386D01*
X216594500Y-32764000D01*
X218705500Y-32764000D01*
X218773621Y-32784002D01*
X218820114Y-32837658D01*
X218831500Y-32890000D01*
X218831500Y-35030219D01*
X218830787Y-35043607D01*
X218827251Y-35076695D01*
X218827548Y-35081848D01*
X218827548Y-35081851D01*
X218831291Y-35146763D01*
X218831500Y-35154016D01*
X218831500Y-36008134D01*
X218838255Y-36070316D01*
X218889385Y-36206705D01*
X218976739Y-36323261D01*
X219093295Y-36410615D01*
X219229684Y-36461745D01*
X219291866Y-36468500D01*
X220160826Y-36468500D01*
X220165443Y-36468585D01*
X220246673Y-36471564D01*
X220246677Y-36471564D01*
X220251837Y-36471753D01*
X220256957Y-36471097D01*
X220256959Y-36471097D01*
X220269261Y-36469521D01*
X220285271Y-36468500D01*
X221088134Y-36468500D01*
X221150316Y-36461745D01*
X221286705Y-36410615D01*
X221384436Y-36337370D01*
X221450941Y-36312522D01*
X221520324Y-36327575D01*
X221535562Y-36337368D01*
X221633295Y-36410615D01*
X221769684Y-36461745D01*
X221831866Y-36468500D01*
X222700826Y-36468500D01*
X222705443Y-36468585D01*
X222786673Y-36471564D01*
X222786677Y-36471564D01*
X222791837Y-36471753D01*
X222796957Y-36471097D01*
X222796959Y-36471097D01*
X222809261Y-36469521D01*
X222825271Y-36468500D01*
X223628134Y-36468500D01*
X223690316Y-36461745D01*
X223826705Y-36410615D01*
X223924436Y-36337370D01*
X223990941Y-36312522D01*
X224060324Y-36327575D01*
X224075562Y-36337368D01*
X224173295Y-36410615D01*
X224309684Y-36461745D01*
X224371866Y-36468500D01*
X225240826Y-36468500D01*
X225245443Y-36468585D01*
X225326673Y-36471564D01*
X225326677Y-36471564D01*
X225331837Y-36471753D01*
X225336957Y-36471097D01*
X225336959Y-36471097D01*
X225349261Y-36469521D01*
X225365271Y-36468500D01*
X226168134Y-36468500D01*
X226230316Y-36461745D01*
X226366705Y-36410615D01*
X226464436Y-36337370D01*
X226530941Y-36312522D01*
X226600324Y-36327575D01*
X226615562Y-36337368D01*
X226713295Y-36410615D01*
X226849684Y-36461745D01*
X226911866Y-36468500D01*
X227780826Y-36468500D01*
X227785443Y-36468585D01*
X227866673Y-36471564D01*
X227866677Y-36471564D01*
X227871837Y-36471753D01*
X227876957Y-36471097D01*
X227876959Y-36471097D01*
X227889261Y-36469521D01*
X227905271Y-36468500D01*
X228708134Y-36468500D01*
X228770316Y-36461745D01*
X228906705Y-36410615D01*
X229023261Y-36323261D01*
X229110615Y-36206705D01*
X229161745Y-36070316D01*
X229168500Y-36008134D01*
X229168500Y-35207856D01*
X229169578Y-35191409D01*
X229171092Y-35179908D01*
X229171529Y-35176590D01*
X229172917Y-35119791D01*
X229173074Y-35113365D01*
X229173074Y-35113361D01*
X229173156Y-35110000D01*
X229168924Y-35058524D01*
X229168500Y-35048200D01*
X229168500Y-32890000D01*
X229188502Y-32821879D01*
X229242158Y-32775386D01*
X229294500Y-32764000D01*
X231405500Y-32764000D01*
X231473621Y-32784002D01*
X231520114Y-32837658D01*
X231531500Y-32890000D01*
X231531500Y-35030219D01*
X231530787Y-35043607D01*
X231527251Y-35076695D01*
X231527548Y-35081848D01*
X231527548Y-35081851D01*
X231531291Y-35146763D01*
X231531500Y-35154016D01*
X231531500Y-36008134D01*
X231538255Y-36070316D01*
X231589385Y-36206705D01*
X231676739Y-36323261D01*
X231793295Y-36410615D01*
X231929684Y-36461745D01*
X231991866Y-36468500D01*
X232860826Y-36468500D01*
X232865443Y-36468585D01*
X232946673Y-36471564D01*
X232946677Y-36471564D01*
X232951837Y-36471753D01*
X232956957Y-36471097D01*
X232956959Y-36471097D01*
X232969261Y-36469521D01*
X232985271Y-36468500D01*
X233788134Y-36468500D01*
X233850316Y-36461745D01*
X233986705Y-36410615D01*
X234084436Y-36337370D01*
X234150941Y-36312522D01*
X234220324Y-36327575D01*
X234235562Y-36337368D01*
X234333295Y-36410615D01*
X234469684Y-36461745D01*
X234531866Y-36468500D01*
X235400826Y-36468500D01*
X235405443Y-36468585D01*
X235486673Y-36471564D01*
X235486677Y-36471564D01*
X235491837Y-36471753D01*
X235496957Y-36471097D01*
X235496959Y-36471097D01*
X235509261Y-36469521D01*
X235525271Y-36468500D01*
X236328134Y-36468500D01*
X236390316Y-36461745D01*
X236526705Y-36410615D01*
X236624436Y-36337370D01*
X236690941Y-36312522D01*
X236760324Y-36327575D01*
X236775562Y-36337368D01*
X236873295Y-36410615D01*
X237009684Y-36461745D01*
X237071866Y-36468500D01*
X237940826Y-36468500D01*
X237945443Y-36468585D01*
X238026673Y-36471564D01*
X238026677Y-36471564D01*
X238031837Y-36471753D01*
X238036957Y-36471097D01*
X238036959Y-36471097D01*
X238049261Y-36469521D01*
X238065271Y-36468500D01*
X238868134Y-36468500D01*
X238930316Y-36461745D01*
X239066705Y-36410615D01*
X239164436Y-36337370D01*
X239230941Y-36312522D01*
X239300324Y-36327575D01*
X239315562Y-36337368D01*
X239413295Y-36410615D01*
X239549684Y-36461745D01*
X239611866Y-36468500D01*
X240480826Y-36468500D01*
X240485443Y-36468585D01*
X240566673Y-36471564D01*
X240566677Y-36471564D01*
X240571837Y-36471753D01*
X240576957Y-36471097D01*
X240576959Y-36471097D01*
X240589261Y-36469521D01*
X240605271Y-36468500D01*
X241408134Y-36468500D01*
X241470316Y-36461745D01*
X241606705Y-36410615D01*
X241723261Y-36323261D01*
X241810615Y-36206705D01*
X241861745Y-36070316D01*
X241868500Y-36008134D01*
X241868500Y-35207856D01*
X241869578Y-35191409D01*
X241871092Y-35179908D01*
X241871529Y-35176590D01*
X241872917Y-35119791D01*
X241873074Y-35113365D01*
X241873074Y-35113361D01*
X241873156Y-35110000D01*
X241868924Y-35058524D01*
X241868500Y-35048200D01*
X241868500Y-32890000D01*
X241888502Y-32821879D01*
X241942158Y-32775386D01*
X241994500Y-32764000D01*
X244105500Y-32764000D01*
X244173621Y-32784002D01*
X244220114Y-32837658D01*
X244231500Y-32890000D01*
X244231500Y-35030219D01*
X244230787Y-35043607D01*
X244227251Y-35076695D01*
X244227548Y-35081848D01*
X244227548Y-35081851D01*
X244231291Y-35146763D01*
X244231500Y-35154016D01*
X244231500Y-36008134D01*
X244238255Y-36070316D01*
X244289385Y-36206705D01*
X244376739Y-36323261D01*
X244493295Y-36410615D01*
X244629684Y-36461745D01*
X244691866Y-36468500D01*
X245560826Y-36468500D01*
X245565443Y-36468585D01*
X245646673Y-36471564D01*
X245646677Y-36471564D01*
X245651837Y-36471753D01*
X245656957Y-36471097D01*
X245656959Y-36471097D01*
X245669261Y-36469521D01*
X245685271Y-36468500D01*
X246488134Y-36468500D01*
X246550316Y-36461745D01*
X246686705Y-36410615D01*
X246784436Y-36337370D01*
X246850941Y-36312522D01*
X246920324Y-36327575D01*
X246935562Y-36337368D01*
X247033295Y-36410615D01*
X247169684Y-36461745D01*
X247231866Y-36468500D01*
X248100826Y-36468500D01*
X248105443Y-36468585D01*
X248186673Y-36471564D01*
X248186677Y-36471564D01*
X248191837Y-36471753D01*
X248196957Y-36471097D01*
X248196959Y-36471097D01*
X248209261Y-36469521D01*
X248225271Y-36468500D01*
X249028134Y-36468500D01*
X249090316Y-36461745D01*
X249226705Y-36410615D01*
X249343261Y-36323261D01*
X249430615Y-36206705D01*
X249481745Y-36070316D01*
X249488500Y-36008134D01*
X249488500Y-35207856D01*
X249489578Y-35191409D01*
X249491092Y-35179908D01*
X249491529Y-35176590D01*
X249492917Y-35119791D01*
X249493074Y-35113365D01*
X249493074Y-35113361D01*
X249493156Y-35110000D01*
X249488924Y-35058524D01*
X249488500Y-35048200D01*
X249488500Y-32998925D01*
X249508502Y-32930804D01*
X249562158Y-32884311D01*
X249632432Y-32874207D01*
X249697012Y-32903701D01*
X249703595Y-32909830D01*
X255559273Y-38765507D01*
X255593299Y-38827819D01*
X255588234Y-38898634D01*
X255545687Y-38955470D01*
X255523428Y-38968797D01*
X255398423Y-39027088D01*
X255398420Y-39027090D01*
X255393442Y-39029411D01*
X255220224Y-39150699D01*
X255070699Y-39300224D01*
X254949411Y-39473442D01*
X254947090Y-39478420D01*
X254947088Y-39478423D01*
X254862367Y-39660108D01*
X254860044Y-39665090D01*
X254805314Y-39869345D01*
X254786884Y-40080000D01*
X254805314Y-40290655D01*
X254806738Y-40295968D01*
X254806738Y-40295970D01*
X254855679Y-40478618D01*
X254860044Y-40494910D01*
X254862366Y-40499891D01*
X254862367Y-40499892D01*
X254914330Y-40611326D01*
X254949411Y-40686558D01*
X255070699Y-40859776D01*
X255220224Y-41009301D01*
X255393442Y-41130589D01*
X255398420Y-41132910D01*
X255398423Y-41132912D01*
X255541430Y-41199597D01*
X255585090Y-41219956D01*
X255590398Y-41221378D01*
X255590400Y-41221379D01*
X255784030Y-41273262D01*
X255784032Y-41273262D01*
X255789345Y-41274686D01*
X256000000Y-41293116D01*
X256210655Y-41274686D01*
X256215968Y-41273262D01*
X256215970Y-41273262D01*
X256409600Y-41221379D01*
X256409602Y-41221378D01*
X256414910Y-41219956D01*
X256458570Y-41199597D01*
X256601577Y-41132912D01*
X256601580Y-41132910D01*
X256606558Y-41130589D01*
X256779776Y-41009301D01*
X256929301Y-40859776D01*
X257050589Y-40686558D01*
X257085528Y-40611631D01*
X257111203Y-40556572D01*
X257158121Y-40503287D01*
X257226398Y-40483826D01*
X257294358Y-40504368D01*
X257314493Y-40520727D01*
X257543145Y-40749379D01*
X257552247Y-40759522D01*
X257575968Y-40789025D01*
X257580696Y-40792992D01*
X257614421Y-40821291D01*
X257618069Y-40824472D01*
X257619881Y-40826115D01*
X257622075Y-40828309D01*
X257655349Y-40855642D01*
X257656147Y-40856304D01*
X257727474Y-40916154D01*
X257732144Y-40918722D01*
X257736261Y-40922103D01*
X257785182Y-40948334D01*
X257818120Y-40965995D01*
X257819280Y-40966624D01*
X257895389Y-41008466D01*
X257895394Y-41008468D01*
X257900787Y-41011433D01*
X257905865Y-41013044D01*
X257910563Y-41015563D01*
X257999498Y-41042753D01*
X258000702Y-41043128D01*
X258089306Y-41071235D01*
X258094597Y-41071828D01*
X258099698Y-41073388D01*
X258105830Y-41074011D01*
X258105836Y-41074012D01*
X258166338Y-41080157D01*
X258192263Y-41082790D01*
X258193450Y-41082916D01*
X258222838Y-41086213D01*
X258239730Y-41088108D01*
X258239735Y-41088108D01*
X258243227Y-41088500D01*
X258246752Y-41088500D01*
X258247737Y-41088555D01*
X258253432Y-41089003D01*
X258265342Y-41090213D01*
X258290334Y-41092752D01*
X258290339Y-41092752D01*
X258296462Y-41093374D01*
X258342108Y-41089059D01*
X258353967Y-41088500D01*
X259287676Y-41088500D01*
X259355797Y-41108502D01*
X259402290Y-41162158D01*
X259412394Y-41232432D01*
X259382900Y-41297012D01*
X259376771Y-41303595D01*
X251885971Y-48794395D01*
X251823659Y-48828421D01*
X251796876Y-48831300D01*
X211292042Y-48831300D01*
X211278435Y-48830563D01*
X211246937Y-48827141D01*
X211246932Y-48827141D01*
X211240811Y-48826476D01*
X211222811Y-48828051D01*
X211190809Y-48830850D01*
X211185984Y-48831179D01*
X211183513Y-48831300D01*
X211180431Y-48831300D01*
X211157963Y-48833503D01*
X211137689Y-48835491D01*
X211136374Y-48835613D01*
X211105582Y-48838307D01*
X211043787Y-48843713D01*
X211038668Y-48845200D01*
X211033367Y-48845720D01*
X210944366Y-48872591D01*
X210943233Y-48872926D01*
X210859786Y-48897170D01*
X210859782Y-48897172D01*
X210853864Y-48898891D01*
X210849132Y-48901344D01*
X210844031Y-48902884D01*
X210838588Y-48905778D01*
X210761940Y-48946531D01*
X210760774Y-48947143D01*
X210683747Y-48987071D01*
X210678274Y-48989908D01*
X210674111Y-48993231D01*
X210669404Y-48995734D01*
X210597282Y-49054555D01*
X210596426Y-49055246D01*
X210557227Y-49086538D01*
X210554723Y-49089042D01*
X210554005Y-49089684D01*
X210549672Y-49093385D01*
X210516138Y-49120735D01*
X210512211Y-49125482D01*
X210512209Y-49125484D01*
X210486913Y-49156062D01*
X210478923Y-49164842D01*
X209360621Y-50283145D01*
X209350478Y-50292247D01*
X209320975Y-50315968D01*
X209317008Y-50320696D01*
X209288709Y-50354421D01*
X209285528Y-50358069D01*
X209283885Y-50359881D01*
X209281691Y-50362075D01*
X209254358Y-50395349D01*
X209253696Y-50396147D01*
X209193846Y-50467474D01*
X209191278Y-50472144D01*
X209187897Y-50476261D01*
X209156860Y-50534145D01*
X209144023Y-50558086D01*
X209143394Y-50559245D01*
X209101538Y-50635381D01*
X209101535Y-50635389D01*
X209098567Y-50640787D01*
X209096955Y-50645869D01*
X209094438Y-50650563D01*
X209067238Y-50739531D01*
X209066918Y-50740559D01*
X209038765Y-50829306D01*
X209038171Y-50834602D01*
X209036613Y-50839698D01*
X209027295Y-50931433D01*
X209027218Y-50932187D01*
X209027089Y-50933393D01*
X209021500Y-50983227D01*
X209021500Y-50986754D01*
X209021445Y-50987739D01*
X209021001Y-50993387D01*
X209019030Y-51012794D01*
X209017435Y-51028502D01*
X209016626Y-51036462D01*
X209020623Y-51078741D01*
X209020941Y-51082109D01*
X209021500Y-51093967D01*
X209021500Y-51468991D01*
X209001498Y-51537112D01*
X208947842Y-51583605D01*
X208942306Y-51585903D01*
X208941704Y-51586232D01*
X208933295Y-51589385D01*
X208863270Y-51641866D01*
X208835565Y-51662630D01*
X208769059Y-51687478D01*
X208699676Y-51672425D01*
X208684435Y-51662630D01*
X208656730Y-51641866D01*
X208586705Y-51589385D01*
X208450316Y-51538255D01*
X208388134Y-51531500D01*
X207504985Y-51531500D01*
X207503446Y-51531491D01*
X207400081Y-51530228D01*
X207400079Y-51530228D01*
X207394911Y-51530165D01*
X207389797Y-51530948D01*
X207386289Y-51531193D01*
X207377496Y-51531500D01*
X206591866Y-51531500D01*
X206529684Y-51538255D01*
X206393295Y-51589385D01*
X206276739Y-51676739D01*
X206189385Y-51793295D01*
X206138255Y-51929684D01*
X206131500Y-51991866D01*
X206131500Y-52810219D01*
X206130787Y-52823607D01*
X206127251Y-52856695D01*
X206127548Y-52861848D01*
X206127548Y-52861851D01*
X206131291Y-52926763D01*
X206131500Y-52934016D01*
X206131500Y-55105500D01*
X206111498Y-55173621D01*
X206057842Y-55220114D01*
X206005500Y-55231500D01*
X203894500Y-55231500D01*
X203826379Y-55211498D01*
X203779886Y-55157842D01*
X203768500Y-55105500D01*
X203768500Y-52987856D01*
X203769578Y-52971409D01*
X203769614Y-52971134D01*
X203771529Y-52956590D01*
X203772258Y-52926749D01*
X203773074Y-52893365D01*
X203773074Y-52893361D01*
X203773156Y-52890000D01*
X203768924Y-52838524D01*
X203768500Y-52828200D01*
X203768500Y-51991866D01*
X203761745Y-51929684D01*
X203710615Y-51793295D01*
X203623261Y-51676739D01*
X203506705Y-51589385D01*
X203370316Y-51538255D01*
X203308134Y-51531500D01*
X202424985Y-51531500D01*
X202423446Y-51531491D01*
X202320081Y-51530228D01*
X202320079Y-51530228D01*
X202314911Y-51530165D01*
X202309797Y-51530948D01*
X202306289Y-51531193D01*
X202297496Y-51531500D01*
X201511866Y-51531500D01*
X201449684Y-51538255D01*
X201313295Y-51589385D01*
X201243270Y-51641866D01*
X201215565Y-51662630D01*
X201149059Y-51687478D01*
X201079676Y-51672425D01*
X201064435Y-51662630D01*
X201036730Y-51641866D01*
X200966705Y-51589385D01*
X200830316Y-51538255D01*
X200768134Y-51531500D01*
X199884985Y-51531500D01*
X199883446Y-51531491D01*
X199780081Y-51530228D01*
X199780079Y-51530228D01*
X199774911Y-51530165D01*
X199769797Y-51530948D01*
X199766289Y-51531193D01*
X199757496Y-51531500D01*
X198971866Y-51531500D01*
X198909684Y-51538255D01*
X198773295Y-51589385D01*
X198656739Y-51676739D01*
X198569385Y-51793295D01*
X198518255Y-51929684D01*
X198511500Y-51991866D01*
X198511500Y-52810219D01*
X198510787Y-52823607D01*
X198507251Y-52856695D01*
X198507548Y-52861848D01*
X198507548Y-52861851D01*
X198511291Y-52926763D01*
X198511500Y-52934016D01*
X198511500Y-54701075D01*
X198491498Y-54769196D01*
X198437842Y-54815689D01*
X198367568Y-54825793D01*
X198302988Y-54796299D01*
X198296405Y-54790170D01*
X190196703Y-46690469D01*
X198587095Y-46690469D01*
X198587392Y-46695622D01*
X198587392Y-46695625D01*
X198598366Y-46885955D01*
X198600427Y-46921697D01*
X198601564Y-46926743D01*
X198601565Y-46926749D01*
X198628027Y-47044167D01*
X198651346Y-47147642D01*
X198653288Y-47152424D01*
X198653289Y-47152428D01*
X198735801Y-47355629D01*
X198738484Y-47362237D01*
X198859501Y-47559719D01*
X199011147Y-47734784D01*
X199189349Y-47882730D01*
X199389322Y-47999584D01*
X199605694Y-48082209D01*
X199610760Y-48083240D01*
X199610761Y-48083240D01*
X199663846Y-48094040D01*
X199832656Y-48128385D01*
X199963324Y-48133176D01*
X200058949Y-48136683D01*
X200058953Y-48136683D01*
X200064113Y-48136872D01*
X200069233Y-48136216D01*
X200069235Y-48136216D01*
X200142270Y-48126860D01*
X200293847Y-48107442D01*
X200298795Y-48105957D01*
X200298802Y-48105956D01*
X200510747Y-48042369D01*
X200515690Y-48040886D01*
X200520324Y-48038616D01*
X200719049Y-47941262D01*
X200719052Y-47941260D01*
X200723684Y-47938991D01*
X200912243Y-47804494D01*
X201076303Y-47641005D01*
X201211458Y-47452917D01*
X201217086Y-47441531D01*
X201311784Y-47249922D01*
X201311785Y-47249920D01*
X201314078Y-47245280D01*
X201381408Y-47023671D01*
X201411640Y-46794041D01*
X201412071Y-46776418D01*
X201413245Y-46728365D01*
X201413245Y-46728361D01*
X201413327Y-46725000D01*
X201403646Y-46607251D01*
X201394773Y-46499318D01*
X201394772Y-46499312D01*
X201394349Y-46494167D01*
X201376976Y-46425000D01*
X201766693Y-46425000D01*
X201785885Y-46644371D01*
X201842880Y-46857076D01*
X201880110Y-46936916D01*
X201933618Y-47051666D01*
X201933621Y-47051671D01*
X201935944Y-47056653D01*
X201939100Y-47061160D01*
X201939101Y-47061162D01*
X201996352Y-47142924D01*
X202062251Y-47237038D01*
X202217962Y-47392749D01*
X202222471Y-47395906D01*
X202222473Y-47395908D01*
X202273805Y-47431851D01*
X202398346Y-47519056D01*
X202597924Y-47612120D01*
X202810629Y-47669115D01*
X203030000Y-47688307D01*
X203249371Y-47669115D01*
X203462076Y-47612120D01*
X203661654Y-47519056D01*
X203786195Y-47431851D01*
X203837527Y-47395908D01*
X203837529Y-47395906D01*
X203842038Y-47392749D01*
X203997749Y-47237038D01*
X204063649Y-47142924D01*
X204120899Y-47061162D01*
X204120900Y-47061160D01*
X204124056Y-47056653D01*
X204126379Y-47051671D01*
X204126382Y-47051666D01*
X204179890Y-46936916D01*
X204217120Y-46857076D01*
X204274115Y-46644371D01*
X204286160Y-46506695D01*
X246537251Y-46506695D01*
X246537548Y-46511848D01*
X246537548Y-46511851D01*
X246541291Y-46576763D01*
X246541500Y-46584016D01*
X246541500Y-47438134D01*
X246548255Y-47500316D01*
X246599385Y-47636705D01*
X246686739Y-47753261D01*
X246803295Y-47840615D01*
X246939684Y-47891745D01*
X247001866Y-47898500D01*
X247870826Y-47898500D01*
X247875443Y-47898585D01*
X247956673Y-47901564D01*
X247956677Y-47901564D01*
X247961837Y-47901753D01*
X247966957Y-47901097D01*
X247966959Y-47901097D01*
X247979261Y-47899521D01*
X247995271Y-47898500D01*
X250598134Y-47898500D01*
X250660316Y-47891745D01*
X250796705Y-47840615D01*
X250913261Y-47753261D01*
X251000615Y-47636705D01*
X251051745Y-47500316D01*
X251058500Y-47438134D01*
X251058500Y-45641866D01*
X251051745Y-45579684D01*
X251000615Y-45443295D01*
X250913261Y-45326739D01*
X250796705Y-45239385D01*
X250660316Y-45188255D01*
X250598134Y-45181500D01*
X247914985Y-45181500D01*
X247913446Y-45181491D01*
X247810081Y-45180228D01*
X247810079Y-45180228D01*
X247804911Y-45180165D01*
X247799797Y-45180948D01*
X247796289Y-45181193D01*
X247787496Y-45181500D01*
X247001866Y-45181500D01*
X246939684Y-45188255D01*
X246803295Y-45239385D01*
X246686739Y-45326739D01*
X246599385Y-45443295D01*
X246548255Y-45579684D01*
X246541500Y-45641866D01*
X246541500Y-46460219D01*
X246540787Y-46473607D01*
X246537251Y-46506695D01*
X204286160Y-46506695D01*
X204293307Y-46425000D01*
X204274115Y-46205629D01*
X204217120Y-45992924D01*
X204157596Y-45865273D01*
X204126382Y-45798334D01*
X204126379Y-45798329D01*
X204124056Y-45793347D01*
X204096245Y-45753629D01*
X204000908Y-45617473D01*
X204000906Y-45617470D01*
X203997749Y-45612962D01*
X203842038Y-45457251D01*
X203811845Y-45436109D01*
X203701096Y-45358562D01*
X203661654Y-45330944D01*
X203462076Y-45237880D01*
X203249371Y-45180885D01*
X203030000Y-45161693D01*
X202810629Y-45180885D01*
X202597924Y-45237880D01*
X202560078Y-45255528D01*
X202403334Y-45328618D01*
X202403329Y-45328621D01*
X202398347Y-45330944D01*
X202393840Y-45334100D01*
X202393838Y-45334101D01*
X202222473Y-45454092D01*
X202222470Y-45454094D01*
X202217962Y-45457251D01*
X202062251Y-45612962D01*
X202059094Y-45617470D01*
X202059092Y-45617473D01*
X201963755Y-45753629D01*
X201935944Y-45793347D01*
X201933621Y-45798329D01*
X201933618Y-45798334D01*
X201902404Y-45865273D01*
X201842880Y-45992924D01*
X201785885Y-46205629D01*
X201766693Y-46425000D01*
X201376976Y-46425000D01*
X201357695Y-46348240D01*
X201339184Y-46274544D01*
X201339183Y-46274540D01*
X201337925Y-46269533D01*
X201328014Y-46246739D01*
X201247630Y-46061868D01*
X201247628Y-46061865D01*
X201245570Y-46057131D01*
X201119764Y-45862665D01*
X201114236Y-45856589D01*
X201020549Y-45753629D01*
X200963887Y-45691358D01*
X200959836Y-45688159D01*
X200959832Y-45688155D01*
X200786177Y-45551011D01*
X200786172Y-45551008D01*
X200782123Y-45547810D01*
X200777607Y-45545317D01*
X200777604Y-45545315D01*
X200583879Y-45438373D01*
X200583875Y-45438371D01*
X200579355Y-45435876D01*
X200574486Y-45434152D01*
X200574482Y-45434150D01*
X200365903Y-45360288D01*
X200365899Y-45360287D01*
X200361028Y-45358562D01*
X200355935Y-45357655D01*
X200355932Y-45357654D01*
X200138095Y-45318851D01*
X200138089Y-45318850D01*
X200133006Y-45317945D01*
X200060096Y-45317054D01*
X199906581Y-45315179D01*
X199906579Y-45315179D01*
X199901411Y-45315116D01*
X199672464Y-45350150D01*
X199452314Y-45422106D01*
X199447726Y-45424494D01*
X199447722Y-45424496D01*
X199251461Y-45526663D01*
X199246872Y-45529052D01*
X199242739Y-45532155D01*
X199242736Y-45532157D01*
X199092067Y-45645283D01*
X199061655Y-45668117D01*
X199009660Y-45722527D01*
X198936836Y-45798733D01*
X198901639Y-45835564D01*
X198898725Y-45839836D01*
X198898724Y-45839837D01*
X198883152Y-45862665D01*
X198771119Y-46026899D01*
X198673602Y-46236981D01*
X198611707Y-46460169D01*
X198587095Y-46690469D01*
X190196703Y-46690469D01*
X188836855Y-45330621D01*
X188827753Y-45320478D01*
X188807897Y-45295782D01*
X188804032Y-45290975D01*
X188765578Y-45258708D01*
X188761931Y-45255528D01*
X188760119Y-45253885D01*
X188757925Y-45251691D01*
X188724651Y-45224358D01*
X188723853Y-45223696D01*
X188652526Y-45163846D01*
X188647856Y-45161278D01*
X188643739Y-45157897D01*
X188573501Y-45120236D01*
X188561914Y-45114023D01*
X188560755Y-45113394D01*
X188484619Y-45071538D01*
X188484611Y-45071535D01*
X188479213Y-45068567D01*
X188474131Y-45066955D01*
X188469437Y-45064438D01*
X188380469Y-45037238D01*
X188379441Y-45036918D01*
X188290694Y-45008765D01*
X188285398Y-45008171D01*
X188280302Y-45006613D01*
X188187743Y-44997210D01*
X188186607Y-44997089D01*
X188152992Y-44993319D01*
X188140270Y-44991892D01*
X188140266Y-44991892D01*
X188136773Y-44991500D01*
X188133246Y-44991500D01*
X188132261Y-44991445D01*
X188126581Y-44990998D01*
X188097175Y-44988011D01*
X188089663Y-44987248D01*
X188089661Y-44987248D01*
X188083538Y-44986626D01*
X188041259Y-44990623D01*
X188037891Y-44990941D01*
X188026033Y-44991500D01*
X184932492Y-44991500D01*
X184864371Y-44971498D01*
X184817878Y-44917842D01*
X184807774Y-44847568D01*
X184837268Y-44782988D01*
X184874506Y-44753636D01*
X184910209Y-44735129D01*
X184915682Y-44732292D01*
X184919845Y-44728969D01*
X184924552Y-44726466D01*
X184996674Y-44667645D01*
X184997530Y-44666954D01*
X185036729Y-44635662D01*
X185039233Y-44633158D01*
X185039951Y-44632516D01*
X185044284Y-44628815D01*
X185077818Y-44601465D01*
X185107044Y-44566137D01*
X185115033Y-44557358D01*
X188431922Y-41240469D01*
X198587095Y-41240469D01*
X198587392Y-41245622D01*
X198587392Y-41245625D01*
X198597536Y-41421562D01*
X198600427Y-41471697D01*
X198601564Y-41476743D01*
X198601565Y-41476749D01*
X198624941Y-41580475D01*
X198651346Y-41697642D01*
X198653288Y-41702424D01*
X198653289Y-41702428D01*
X198730925Y-41893621D01*
X198738484Y-41912237D01*
X198859501Y-42109719D01*
X199011147Y-42284784D01*
X199189349Y-42432730D01*
X199389322Y-42549584D01*
X199605694Y-42632209D01*
X199610760Y-42633240D01*
X199610761Y-42633240D01*
X199663846Y-42644040D01*
X199832656Y-42678385D01*
X199963324Y-42683176D01*
X200058949Y-42686683D01*
X200058953Y-42686683D01*
X200064113Y-42686872D01*
X200069233Y-42686216D01*
X200069235Y-42686216D01*
X200170362Y-42673261D01*
X200293847Y-42657442D01*
X200298795Y-42655957D01*
X200298802Y-42655956D01*
X200510747Y-42592369D01*
X200515690Y-42590886D01*
X200570794Y-42563891D01*
X200719049Y-42491262D01*
X200719052Y-42491260D01*
X200723684Y-42488991D01*
X200912243Y-42354494D01*
X201076303Y-42191005D01*
X201211458Y-42002917D01*
X201246756Y-41931498D01*
X201311784Y-41799922D01*
X201311785Y-41799920D01*
X201314078Y-41795280D01*
X201381004Y-41575000D01*
X201766693Y-41575000D01*
X201785885Y-41794371D01*
X201842880Y-42007076D01*
X201845205Y-42012061D01*
X201933618Y-42201666D01*
X201933621Y-42201671D01*
X201935944Y-42206653D01*
X201939100Y-42211160D01*
X201939101Y-42211162D01*
X202044391Y-42361531D01*
X202062251Y-42387038D01*
X202217962Y-42542749D01*
X202222471Y-42545906D01*
X202222473Y-42545908D01*
X202283466Y-42588616D01*
X202398346Y-42669056D01*
X202597924Y-42762120D01*
X202810629Y-42819115D01*
X203030000Y-42838307D01*
X203249371Y-42819115D01*
X203462076Y-42762120D01*
X203661654Y-42669056D01*
X203776534Y-42588616D01*
X203837527Y-42545908D01*
X203837529Y-42545906D01*
X203842038Y-42542749D01*
X203997749Y-42387038D01*
X204015610Y-42361531D01*
X204120899Y-42211162D01*
X204120900Y-42211160D01*
X204124056Y-42206653D01*
X204126379Y-42201671D01*
X204126382Y-42201666D01*
X204214795Y-42012061D01*
X204217120Y-42007076D01*
X204274115Y-41794371D01*
X204293307Y-41575000D01*
X204280332Y-41426695D01*
X246537251Y-41426695D01*
X246537548Y-41431848D01*
X246537548Y-41431851D01*
X246541291Y-41496763D01*
X246541500Y-41504016D01*
X246541500Y-42358134D01*
X246548255Y-42420316D01*
X246599385Y-42556705D01*
X246686739Y-42673261D01*
X246803295Y-42760615D01*
X246939684Y-42811745D01*
X247001866Y-42818500D01*
X247870826Y-42818500D01*
X247875443Y-42818585D01*
X247956673Y-42821564D01*
X247956677Y-42821564D01*
X247961837Y-42821753D01*
X247966957Y-42821097D01*
X247966959Y-42821097D01*
X247979261Y-42819521D01*
X247995271Y-42818500D01*
X250598134Y-42818500D01*
X250660316Y-42811745D01*
X250796705Y-42760615D01*
X250913261Y-42673261D01*
X251000615Y-42556705D01*
X251051745Y-42420316D01*
X251058500Y-42358134D01*
X251058500Y-40561866D01*
X251051745Y-40499684D01*
X251000615Y-40363295D01*
X250913261Y-40246739D01*
X250796705Y-40159385D01*
X250660316Y-40108255D01*
X250598134Y-40101500D01*
X247914985Y-40101500D01*
X247913446Y-40101491D01*
X247810081Y-40100228D01*
X247810079Y-40100228D01*
X247804911Y-40100165D01*
X247799797Y-40100948D01*
X247796289Y-40101193D01*
X247787496Y-40101500D01*
X247001866Y-40101500D01*
X246939684Y-40108255D01*
X246803295Y-40159385D01*
X246686739Y-40246739D01*
X246599385Y-40363295D01*
X246548255Y-40499684D01*
X246541500Y-40561866D01*
X246541500Y-41380219D01*
X246540787Y-41393607D01*
X246537251Y-41426695D01*
X204280332Y-41426695D01*
X204274115Y-41355629D01*
X204217120Y-41142924D01*
X204154811Y-41009301D01*
X204126382Y-40948334D01*
X204126379Y-40948329D01*
X204124056Y-40943347D01*
X204107019Y-40919016D01*
X204000908Y-40767473D01*
X204000906Y-40767470D01*
X203997749Y-40762962D01*
X203842038Y-40607251D01*
X203835672Y-40602793D01*
X203762759Y-40551739D01*
X203661654Y-40480944D01*
X203462076Y-40387880D01*
X203249371Y-40330885D01*
X203030000Y-40311693D01*
X202810629Y-40330885D01*
X202597924Y-40387880D01*
X202504562Y-40431415D01*
X202403334Y-40478618D01*
X202403329Y-40478621D01*
X202398347Y-40480944D01*
X202393840Y-40484100D01*
X202393838Y-40484101D01*
X202222473Y-40604092D01*
X202222470Y-40604094D01*
X202217962Y-40607251D01*
X202062251Y-40762962D01*
X202059094Y-40767470D01*
X202059092Y-40767473D01*
X201952981Y-40919016D01*
X201935944Y-40943347D01*
X201933621Y-40948329D01*
X201933618Y-40948334D01*
X201905189Y-41009301D01*
X201842880Y-41142924D01*
X201785885Y-41355629D01*
X201766693Y-41575000D01*
X201381004Y-41575000D01*
X201381408Y-41573671D01*
X201411640Y-41344041D01*
X201412789Y-41297012D01*
X201413245Y-41278365D01*
X201413245Y-41278361D01*
X201413327Y-41275000D01*
X201402784Y-41146763D01*
X201394773Y-41049318D01*
X201394772Y-41049312D01*
X201394349Y-41044167D01*
X201362913Y-40919016D01*
X201339184Y-40824544D01*
X201339183Y-40824540D01*
X201337925Y-40819533D01*
X201326385Y-40792992D01*
X201247630Y-40611868D01*
X201247628Y-40611865D01*
X201245570Y-40607131D01*
X201119764Y-40412665D01*
X201097212Y-40387880D01*
X201029298Y-40313244D01*
X200963887Y-40241358D01*
X200959836Y-40238159D01*
X200959832Y-40238155D01*
X200786177Y-40101011D01*
X200786172Y-40101008D01*
X200782123Y-40097810D01*
X200777607Y-40095317D01*
X200777604Y-40095315D01*
X200583879Y-39988373D01*
X200583875Y-39988371D01*
X200579355Y-39985876D01*
X200574486Y-39984152D01*
X200574482Y-39984150D01*
X200365903Y-39910288D01*
X200365899Y-39910287D01*
X200361028Y-39908562D01*
X200355935Y-39907655D01*
X200355932Y-39907654D01*
X200138095Y-39868851D01*
X200138089Y-39868850D01*
X200133006Y-39867945D01*
X200060096Y-39867054D01*
X199906581Y-39865179D01*
X199906579Y-39865179D01*
X199901411Y-39865116D01*
X199672464Y-39900150D01*
X199452314Y-39972106D01*
X199447726Y-39974494D01*
X199447722Y-39974496D01*
X199255568Y-40074525D01*
X199246872Y-40079052D01*
X199242739Y-40082155D01*
X199242736Y-40082157D01*
X199132705Y-40164771D01*
X199061655Y-40218117D01*
X198901639Y-40385564D01*
X198898725Y-40389836D01*
X198898724Y-40389837D01*
X198884659Y-40410455D01*
X198771119Y-40576899D01*
X198673602Y-40786981D01*
X198611707Y-41010169D01*
X198587095Y-41240469D01*
X188431922Y-41240469D01*
X189309096Y-40363295D01*
X193516985Y-36155405D01*
X193579297Y-36121379D01*
X193606080Y-36118500D01*
X198448991Y-36118500D01*
X198517112Y-36138502D01*
X198563605Y-36192158D01*
X198565903Y-36197694D01*
X198566232Y-36198296D01*
X198569385Y-36206705D01*
X198656739Y-36323261D01*
X198773295Y-36410615D01*
X198909684Y-36461745D01*
X198971866Y-36468500D01*
X199840826Y-36468500D01*
X199845443Y-36468585D01*
X199926673Y-36471564D01*
X199926677Y-36471564D01*
X199931837Y-36471753D01*
X199936957Y-36471097D01*
X199936959Y-36471097D01*
X199949261Y-36469521D01*
X199965271Y-36468500D01*
X200768134Y-36468500D01*
X200830316Y-36461745D01*
X200966705Y-36410615D01*
X201064436Y-36337370D01*
X201130941Y-36312522D01*
X201200324Y-36327575D01*
X201215562Y-36337368D01*
X201313295Y-36410615D01*
X201449684Y-36461745D01*
X201511866Y-36468500D01*
X202380826Y-36468500D01*
X202385443Y-36468585D01*
X202466673Y-36471564D01*
X202466677Y-36471564D01*
X202471837Y-36471753D01*
X202476957Y-36471097D01*
X202476959Y-36471097D01*
X202489261Y-36469521D01*
X202505271Y-36468500D01*
X203308134Y-36468500D01*
X203370316Y-36461745D01*
X203506705Y-36410615D01*
X203623261Y-36323261D01*
X203710615Y-36206705D01*
X203761745Y-36070316D01*
X203768500Y-36008134D01*
X203768500Y-35207856D01*
X203769578Y-35191409D01*
X203771092Y-35179908D01*
X203771529Y-35176590D01*
X203772917Y-35119791D01*
X203773074Y-35113365D01*
X203773074Y-35113361D01*
X203773156Y-35110000D01*
X203768924Y-35058524D01*
X203768500Y-35048200D01*
X203768500Y-32890000D01*
X203788502Y-32821879D01*
X203842158Y-32775386D01*
X203894500Y-32764000D01*
X206005500Y-32764000D01*
X206073621Y-32784002D01*
G37*
%TD.AperFunction*%
%TA.AperFunction,Conductor*%
G36*
X93173621Y-38488502D02*
G01*
X93220114Y-38542158D01*
X93231500Y-38594500D01*
X93231500Y-41030219D01*
X93230787Y-41043607D01*
X93227251Y-41076695D01*
X93227548Y-41081848D01*
X93227548Y-41081851D01*
X93231291Y-41146763D01*
X93231500Y-41154016D01*
X93231500Y-41825500D01*
X93211498Y-41893621D01*
X93157842Y-41940114D01*
X93105500Y-41951500D01*
X90994500Y-41951500D01*
X90926379Y-41931498D01*
X90879886Y-41877842D01*
X90868500Y-41825500D01*
X90868500Y-41207856D01*
X90869578Y-41191409D01*
X90871092Y-41179908D01*
X90871529Y-41176590D01*
X90872352Y-41142924D01*
X90873074Y-41113365D01*
X90873074Y-41113361D01*
X90873156Y-41110000D01*
X90868924Y-41058524D01*
X90868500Y-41048200D01*
X90868500Y-38594500D01*
X90888502Y-38526379D01*
X90942158Y-38479886D01*
X90994500Y-38468500D01*
X93105500Y-38468500D01*
X93173621Y-38488502D01*
G37*
%TD.AperFunction*%
%TA.AperFunction,Conductor*%
G36*
X108935592Y-31834339D02*
G01*
X109104294Y-31928624D01*
X109292392Y-31989740D01*
X109488777Y-32013158D01*
X109494911Y-32012686D01*
X109494912Y-32012686D01*
X109499729Y-32012315D01*
X109530319Y-32009961D01*
X109599771Y-32024677D01*
X109650244Y-32074607D01*
X109665711Y-32143899D01*
X109641260Y-32210552D01*
X109629080Y-32224685D01*
X105439171Y-36414595D01*
X105376859Y-36448621D01*
X105350076Y-36451500D01*
X81949873Y-36451500D01*
X81936703Y-36450810D01*
X81903204Y-36447289D01*
X81903202Y-36447289D01*
X81897075Y-36446645D01*
X81846827Y-36451218D01*
X81842793Y-36451500D01*
X81840231Y-36451500D01*
X81837173Y-36451800D01*
X81837169Y-36451800D01*
X81795404Y-36455895D01*
X81794529Y-36455977D01*
X81772830Y-36457952D01*
X81700112Y-36464570D01*
X81696703Y-36465573D01*
X81693167Y-36465920D01*
X81602279Y-36493361D01*
X81601610Y-36493561D01*
X81510381Y-36520410D01*
X81507228Y-36522058D01*
X81503831Y-36523084D01*
X81419899Y-36567711D01*
X81419319Y-36568016D01*
X81335110Y-36612040D01*
X81332342Y-36614265D01*
X81329204Y-36615934D01*
X81324426Y-36619831D01*
X81255628Y-36675941D01*
X81254944Y-36676494D01*
X81185782Y-36732102D01*
X81185776Y-36732108D01*
X81180975Y-36735968D01*
X81178692Y-36738689D01*
X81175938Y-36740935D01*
X81120668Y-36807746D01*
X81115441Y-36814064D01*
X81114935Y-36814671D01*
X81053846Y-36887474D01*
X81052134Y-36890589D01*
X81049870Y-36893325D01*
X81046939Y-36898746D01*
X81004700Y-36976865D01*
X81004298Y-36977603D01*
X80958567Y-37060787D01*
X80957494Y-37064170D01*
X80955802Y-37067299D01*
X80953978Y-37073192D01*
X80927725Y-37158002D01*
X80927462Y-37158842D01*
X80902349Y-37238009D01*
X80898765Y-37249306D01*
X80898369Y-37252837D01*
X80897318Y-37256232D01*
X80896674Y-37262363D01*
X80887396Y-37350638D01*
X80887311Y-37351421D01*
X80881500Y-37403227D01*
X80881500Y-37405800D01*
X80881180Y-37409776D01*
X80876645Y-37452925D01*
X80877204Y-37459065D01*
X80880981Y-37500570D01*
X80881500Y-37511990D01*
X80881500Y-37888991D01*
X80861498Y-37957112D01*
X80807842Y-38003605D01*
X80802306Y-38005903D01*
X80801704Y-38006232D01*
X80793295Y-38009385D01*
X80676739Y-38096739D01*
X80589385Y-38213295D01*
X80538255Y-38349684D01*
X80531500Y-38411866D01*
X80531500Y-41030219D01*
X80530787Y-41043607D01*
X80527251Y-41076695D01*
X80527548Y-41081848D01*
X80527548Y-41081851D01*
X80531291Y-41146763D01*
X80531500Y-41154016D01*
X80531500Y-41825500D01*
X80511498Y-41893621D01*
X80457842Y-41940114D01*
X80405500Y-41951500D01*
X78294500Y-41951500D01*
X78226379Y-41931498D01*
X78179886Y-41877842D01*
X78168500Y-41825500D01*
X78168500Y-41207856D01*
X78169578Y-41191409D01*
X78171092Y-41179908D01*
X78171529Y-41176590D01*
X78172352Y-41142924D01*
X78173074Y-41113365D01*
X78173074Y-41113361D01*
X78173156Y-41110000D01*
X78168924Y-41058524D01*
X78168500Y-41048200D01*
X78168500Y-38411866D01*
X78161745Y-38349684D01*
X78110615Y-38213295D01*
X78023261Y-38096739D01*
X77906705Y-38009385D01*
X77770316Y-37958255D01*
X77708134Y-37951500D01*
X75911866Y-37951500D01*
X75849684Y-37958255D01*
X75713295Y-38009385D01*
X75615565Y-38082630D01*
X75549059Y-38107478D01*
X75479676Y-38092425D01*
X75464435Y-38082630D01*
X75366705Y-38009385D01*
X75230316Y-37958255D01*
X75168134Y-37951500D01*
X73371866Y-37951500D01*
X73309684Y-37958255D01*
X73173295Y-38009385D01*
X73075565Y-38082630D01*
X73009059Y-38107478D01*
X72939676Y-38092425D01*
X72924435Y-38082630D01*
X72826705Y-38009385D01*
X72690316Y-37958255D01*
X72628134Y-37951500D01*
X70831866Y-37951500D01*
X70769684Y-37958255D01*
X70633295Y-38009385D01*
X70535565Y-38082630D01*
X70469059Y-38107478D01*
X70399676Y-38092425D01*
X70384435Y-38082630D01*
X70286705Y-38009385D01*
X70150316Y-37958255D01*
X70088134Y-37951500D01*
X68291866Y-37951500D01*
X68229684Y-37958255D01*
X68093295Y-38009385D01*
X67976739Y-38096739D01*
X67889385Y-38213295D01*
X67838255Y-38349684D01*
X67831500Y-38411866D01*
X67831500Y-41030219D01*
X67830787Y-41043607D01*
X67827251Y-41076695D01*
X67827548Y-41081848D01*
X67827548Y-41081851D01*
X67831291Y-41146763D01*
X67831500Y-41154016D01*
X67831500Y-41825500D01*
X67811498Y-41893621D01*
X67757842Y-41940114D01*
X67705500Y-41951500D01*
X65594500Y-41951500D01*
X65526379Y-41931498D01*
X65479886Y-41877842D01*
X65468500Y-41825500D01*
X65468500Y-41207856D01*
X65469578Y-41191409D01*
X65471092Y-41179908D01*
X65471529Y-41176590D01*
X65472352Y-41142924D01*
X65473074Y-41113365D01*
X65473074Y-41113361D01*
X65473156Y-41110000D01*
X65468924Y-41058524D01*
X65468500Y-41048200D01*
X65468500Y-38411866D01*
X65461745Y-38349684D01*
X65410615Y-38213295D01*
X65323261Y-38096739D01*
X65206705Y-38009385D01*
X65070316Y-37958255D01*
X65008134Y-37951500D01*
X63211866Y-37951500D01*
X63149684Y-37958255D01*
X63013295Y-38009385D01*
X62915565Y-38082630D01*
X62849059Y-38107478D01*
X62779676Y-38092425D01*
X62764435Y-38082630D01*
X62666705Y-38009385D01*
X62530316Y-37958255D01*
X62468134Y-37951500D01*
X60671866Y-37951500D01*
X60609684Y-37958255D01*
X60473295Y-38009385D01*
X60375565Y-38082630D01*
X60309059Y-38107478D01*
X60239676Y-38092425D01*
X60224435Y-38082630D01*
X60126705Y-38009385D01*
X59990316Y-37958255D01*
X59928134Y-37951500D01*
X58131866Y-37951500D01*
X58069684Y-37958255D01*
X57933295Y-38009385D01*
X57835565Y-38082630D01*
X57769059Y-38107478D01*
X57699676Y-38092425D01*
X57684435Y-38082630D01*
X57586705Y-38009385D01*
X57450316Y-37958255D01*
X57388134Y-37951500D01*
X55591866Y-37951500D01*
X55529684Y-37958255D01*
X55393295Y-38009385D01*
X55276739Y-38096739D01*
X55189385Y-38213295D01*
X55138255Y-38349684D01*
X55131500Y-38411866D01*
X55131500Y-41030219D01*
X55130787Y-41043607D01*
X55127251Y-41076695D01*
X55127548Y-41081848D01*
X55127548Y-41081851D01*
X55131291Y-41146763D01*
X55131500Y-41154016D01*
X55131500Y-41825500D01*
X55111498Y-41893621D01*
X55057842Y-41940114D01*
X55005500Y-41951500D01*
X52894500Y-41951500D01*
X52826379Y-41931498D01*
X52779886Y-41877842D01*
X52768500Y-41825500D01*
X52768500Y-41207856D01*
X52769578Y-41191409D01*
X52771092Y-41179908D01*
X52771529Y-41176590D01*
X52772352Y-41142924D01*
X52773074Y-41113365D01*
X52773074Y-41113361D01*
X52773156Y-41110000D01*
X52768924Y-41058524D01*
X52768500Y-41048200D01*
X52768500Y-38411866D01*
X52761745Y-38349684D01*
X52710615Y-38213295D01*
X52623261Y-38096739D01*
X52506705Y-38009385D01*
X52370316Y-37958255D01*
X52308134Y-37951500D01*
X50511866Y-37951500D01*
X50449684Y-37958255D01*
X50313295Y-38009385D01*
X50215565Y-38082630D01*
X50149059Y-38107478D01*
X50079676Y-38092425D01*
X50064435Y-38082630D01*
X49966705Y-38009385D01*
X49830316Y-37958255D01*
X49768134Y-37951500D01*
X49268825Y-37951500D01*
X49200704Y-37931498D01*
X49154211Y-37877842D01*
X49144107Y-37807568D01*
X49173601Y-37742988D01*
X49179730Y-37736405D01*
X53370729Y-33545405D01*
X53433041Y-33511379D01*
X53459824Y-33508500D01*
X97338276Y-33508500D01*
X97406397Y-33528502D01*
X97452890Y-33582158D01*
X97462994Y-33652432D01*
X97433500Y-33717012D01*
X97427371Y-33723595D01*
X97012891Y-34138075D01*
X96919097Y-34252261D01*
X96825638Y-34426563D01*
X96767813Y-34615698D01*
X96767190Y-34621833D01*
X96749618Y-34794825D01*
X96747826Y-34812462D01*
X96766439Y-35009362D01*
X96786512Y-35076695D01*
X96815293Y-35173240D01*
X96822941Y-35198896D01*
X96915182Y-35373846D01*
X96919058Y-35378632D01*
X96919059Y-35378634D01*
X97035768Y-35522757D01*
X97039647Y-35527547D01*
X97044382Y-35531492D01*
X97124766Y-35598465D01*
X97191596Y-35654146D01*
X97365241Y-35748822D01*
X97449618Y-35775264D01*
X97548086Y-35806122D01*
X97548089Y-35806123D01*
X97553968Y-35807965D01*
X97560091Y-35808630D01*
X97560095Y-35808631D01*
X97744463Y-35828659D01*
X97744467Y-35828659D01*
X97750588Y-35829324D01*
X97947613Y-35812087D01*
X97953530Y-35810368D01*
X97953535Y-35810367D01*
X98084264Y-35772386D01*
X98137536Y-35756909D01*
X98313126Y-35665892D01*
X98379024Y-35613287D01*
X98431423Y-35571458D01*
X98431430Y-35571451D01*
X98434173Y-35569262D01*
X100458029Y-33545405D01*
X100520341Y-33511380D01*
X100547124Y-33508500D01*
X100560127Y-33508500D01*
X100573297Y-33509190D01*
X100606796Y-33512711D01*
X100606798Y-33512711D01*
X100612925Y-33513355D01*
X100663173Y-33508782D01*
X100667207Y-33508500D01*
X100669769Y-33508500D01*
X100672827Y-33508200D01*
X100672831Y-33508200D01*
X100714596Y-33504105D01*
X100715471Y-33504023D01*
X100737170Y-33502048D01*
X100809888Y-33495430D01*
X100813297Y-33494427D01*
X100816833Y-33494080D01*
X100907721Y-33466639D01*
X100908390Y-33466439D01*
X100999619Y-33439590D01*
X101002772Y-33437942D01*
X101006169Y-33436916D01*
X101090101Y-33392289D01*
X101090681Y-33391984D01*
X101174890Y-33347960D01*
X101177658Y-33345735D01*
X101180796Y-33344066D01*
X101218129Y-33313618D01*
X101254372Y-33284059D01*
X101255056Y-33283506D01*
X101324218Y-33227898D01*
X101324224Y-33227892D01*
X101329025Y-33224032D01*
X101331308Y-33221311D01*
X101334062Y-33219065D01*
X101394619Y-33145864D01*
X101395123Y-33145259D01*
X101395539Y-33144764D01*
X101456154Y-33072526D01*
X101457866Y-33069411D01*
X101460130Y-33066675D01*
X101505318Y-32983101D01*
X101505721Y-32982363D01*
X101505947Y-32981953D01*
X101551433Y-32899213D01*
X101552506Y-32895830D01*
X101554198Y-32892701D01*
X101582282Y-32801974D01*
X101582538Y-32801158D01*
X101609373Y-32716565D01*
X101609374Y-32716561D01*
X101611235Y-32710694D01*
X101611631Y-32707163D01*
X101612682Y-32703768D01*
X101622611Y-32609293D01*
X101622699Y-32608486D01*
X101628500Y-32556773D01*
X101628500Y-32554200D01*
X101628820Y-32550224D01*
X101632711Y-32513204D01*
X101632711Y-32513202D01*
X101633355Y-32507075D01*
X101629019Y-32459430D01*
X101628500Y-32448010D01*
X101628500Y-32126424D01*
X101648502Y-32058303D01*
X101702158Y-32011810D01*
X101769419Y-32001310D01*
X101868777Y-32013158D01*
X101874912Y-32012686D01*
X101874914Y-32012686D01*
X102059830Y-31998457D01*
X102059834Y-31998456D01*
X102065972Y-31997984D01*
X102256463Y-31944798D01*
X102261967Y-31942018D01*
X102261969Y-31942017D01*
X102427493Y-31858405D01*
X102427495Y-31858404D01*
X102432996Y-31855625D01*
X102437850Y-31851833D01*
X102437859Y-31851827D01*
X102446548Y-31845038D01*
X102512542Y-31818860D01*
X102585592Y-31834339D01*
X102754294Y-31928624D01*
X102942392Y-31989740D01*
X103138777Y-32013158D01*
X103144912Y-32012686D01*
X103144915Y-32012686D01*
X103173168Y-32010512D01*
X103242622Y-32025230D01*
X103293094Y-32075160D01*
X103308560Y-32144452D01*
X103284108Y-32211105D01*
X103271929Y-32225236D01*
X102354301Y-33142865D01*
X101557891Y-33939275D01*
X101555938Y-33941652D01*
X101555934Y-33941657D01*
X101542865Y-33957568D01*
X101464097Y-34053461D01*
X101370638Y-34227763D01*
X101363148Y-34252261D01*
X101321362Y-34388937D01*
X101312813Y-34416898D01*
X101292826Y-34613662D01*
X101311439Y-34810562D01*
X101313199Y-34816465D01*
X101350530Y-34941690D01*
X101367941Y-35000096D01*
X101460182Y-35175046D01*
X101464058Y-35179832D01*
X101464059Y-35179834D01*
X101497918Y-35221646D01*
X101584647Y-35328747D01*
X101736596Y-35455346D01*
X101910241Y-35550022D01*
X101978644Y-35571458D01*
X102093086Y-35607322D01*
X102093089Y-35607323D01*
X102098968Y-35609165D01*
X102105091Y-35609830D01*
X102105095Y-35609831D01*
X102289463Y-35629859D01*
X102289467Y-35629859D01*
X102295588Y-35630524D01*
X102492613Y-35613287D01*
X102498530Y-35611568D01*
X102498535Y-35611567D01*
X102652735Y-35566767D01*
X102682536Y-35558109D01*
X102858126Y-35467092D01*
X102979173Y-35370462D01*
X102981665Y-35367970D01*
X102981675Y-35367961D01*
X103035058Y-35314578D01*
X103097370Y-35280552D01*
X103168185Y-35285617D01*
X103222073Y-35324378D01*
X103263347Y-35375347D01*
X103415296Y-35501946D01*
X103588941Y-35596622D01*
X103643833Y-35613824D01*
X103771786Y-35653922D01*
X103771789Y-35653923D01*
X103777668Y-35655765D01*
X103783791Y-35656430D01*
X103783795Y-35656431D01*
X103968163Y-35676459D01*
X103968167Y-35676459D01*
X103974288Y-35677124D01*
X104171313Y-35659887D01*
X104177230Y-35658168D01*
X104177235Y-35658167D01*
X104331710Y-35613287D01*
X104361236Y-35604709D01*
X104536826Y-35513692D01*
X104570937Y-35486462D01*
X104655123Y-35419258D01*
X104655130Y-35419251D01*
X104657873Y-35417062D01*
X106369379Y-33705555D01*
X106379522Y-33696453D01*
X106404218Y-33676597D01*
X106409025Y-33672732D01*
X106441292Y-33634278D01*
X106444472Y-33630631D01*
X106446115Y-33628819D01*
X106448309Y-33626625D01*
X106475642Y-33593351D01*
X106476348Y-33592500D01*
X106515866Y-33545405D01*
X106536154Y-33521226D01*
X106538722Y-33516556D01*
X106542103Y-33512439D01*
X106586015Y-33430542D01*
X106586624Y-33429420D01*
X106628466Y-33353311D01*
X106628468Y-33353306D01*
X106631433Y-33347913D01*
X106633044Y-33342835D01*
X106635563Y-33338137D01*
X106662753Y-33249202D01*
X106663136Y-33247972D01*
X106663206Y-33247753D01*
X106691235Y-33159394D01*
X106691828Y-33154103D01*
X106693388Y-33149002D01*
X106702795Y-33056389D01*
X106702915Y-33055269D01*
X106708500Y-33005473D01*
X106708500Y-33001944D01*
X106708555Y-33000961D01*
X106709004Y-32995256D01*
X106710236Y-32983135D01*
X106713374Y-32952237D01*
X106709059Y-32906588D01*
X106708500Y-32894731D01*
X106708500Y-32126424D01*
X106728502Y-32058303D01*
X106782158Y-32011810D01*
X106849419Y-32001310D01*
X106948777Y-32013158D01*
X106954912Y-32012686D01*
X106954914Y-32012686D01*
X107139830Y-31998457D01*
X107139834Y-31998456D01*
X107145972Y-31997984D01*
X107336463Y-31944798D01*
X107341967Y-31942018D01*
X107341969Y-31942017D01*
X107507493Y-31858405D01*
X107507495Y-31858404D01*
X107512996Y-31855625D01*
X107517850Y-31851833D01*
X107517859Y-31851827D01*
X107526548Y-31845038D01*
X107592542Y-31818860D01*
X107665592Y-31834339D01*
X107834294Y-31928624D01*
X108022392Y-31989740D01*
X108218777Y-32013158D01*
X108224912Y-32012686D01*
X108224914Y-32012686D01*
X108409830Y-31998457D01*
X108409834Y-31998456D01*
X108415972Y-31997984D01*
X108606463Y-31944798D01*
X108611967Y-31942018D01*
X108611969Y-31942017D01*
X108777493Y-31858405D01*
X108777495Y-31858404D01*
X108782996Y-31855625D01*
X108787850Y-31851833D01*
X108787859Y-31851827D01*
X108796548Y-31845038D01*
X108862542Y-31818860D01*
X108935592Y-31834339D01*
G37*
%TD.AperFunction*%
%TA.AperFunction,Conductor*%
G36*
X260775592Y-31834339D02*
G01*
X260944294Y-31928624D01*
X261132392Y-31989740D01*
X261328777Y-32013158D01*
X261334912Y-32012686D01*
X261334914Y-32012686D01*
X261419817Y-32006153D01*
X261475834Y-32001842D01*
X261545287Y-32016559D01*
X261595760Y-32066489D01*
X261611500Y-32127471D01*
X261611500Y-39016675D01*
X261591498Y-39084796D01*
X261574595Y-39105770D01*
X261221153Y-39459212D01*
X261158841Y-39493238D01*
X261088026Y-39488173D01*
X261028845Y-39442388D01*
X260969085Y-39357042D01*
X260929301Y-39300224D01*
X260779776Y-39150699D01*
X260606558Y-39029411D01*
X260601580Y-39027090D01*
X260601577Y-39027088D01*
X260419892Y-38942367D01*
X260419891Y-38942366D01*
X260414910Y-38940044D01*
X260409602Y-38938622D01*
X260409600Y-38938621D01*
X260215970Y-38886738D01*
X260215968Y-38886738D01*
X260210655Y-38885314D01*
X260000000Y-38866884D01*
X259789345Y-38885314D01*
X259784032Y-38886738D01*
X259784030Y-38886738D01*
X259590400Y-38938621D01*
X259590398Y-38938622D01*
X259585090Y-38940044D01*
X259580109Y-38942366D01*
X259580108Y-38942367D01*
X259398427Y-39027086D01*
X259398423Y-39027088D01*
X259393442Y-39029411D01*
X259388940Y-39032563D01*
X259388937Y-39032565D01*
X259365874Y-39048714D01*
X259293604Y-39071500D01*
X258769924Y-39071500D01*
X258701803Y-39051498D01*
X258680829Y-39034595D01*
X256061731Y-36415497D01*
X256027705Y-36353185D01*
X256032770Y-36282370D01*
X256075317Y-36225534D01*
X256139845Y-36200881D01*
X256154134Y-36199631D01*
X256205174Y-36195166D01*
X256205179Y-36195165D01*
X256210655Y-36194686D01*
X256215968Y-36193262D01*
X256215970Y-36193262D01*
X256409600Y-36141379D01*
X256409602Y-36141378D01*
X256414910Y-36139956D01*
X256419892Y-36137633D01*
X256601577Y-36052912D01*
X256601580Y-36052910D01*
X256606558Y-36050589D01*
X256779776Y-35929301D01*
X256929301Y-35779776D01*
X257050589Y-35606558D01*
X257055223Y-35596622D01*
X257137633Y-35419892D01*
X257137634Y-35419891D01*
X257139956Y-35414910D01*
X257194686Y-35210655D01*
X257199641Y-35154016D01*
X257200369Y-35145697D01*
X257206722Y-35119791D01*
X257205563Y-35119437D01*
X257232744Y-35030532D01*
X257233136Y-35029272D01*
X257241398Y-35003229D01*
X257242422Y-35000000D01*
X258786884Y-35000000D01*
X258805314Y-35210655D01*
X258806738Y-35215968D01*
X258806738Y-35215970D01*
X258848160Y-35370557D01*
X258860044Y-35414910D01*
X258862366Y-35419891D01*
X258862367Y-35419892D01*
X258944778Y-35596622D01*
X258949411Y-35606558D01*
X259070699Y-35779776D01*
X259220224Y-35929301D01*
X259393442Y-36050589D01*
X259398420Y-36052910D01*
X259398423Y-36052912D01*
X259580108Y-36137633D01*
X259585090Y-36139956D01*
X259590398Y-36141378D01*
X259590400Y-36141379D01*
X259784030Y-36193262D01*
X259784032Y-36193262D01*
X259789345Y-36194686D01*
X260000000Y-36213116D01*
X260210655Y-36194686D01*
X260215968Y-36193262D01*
X260215970Y-36193262D01*
X260409600Y-36141379D01*
X260409602Y-36141378D01*
X260414910Y-36139956D01*
X260419892Y-36137633D01*
X260601577Y-36052912D01*
X260601580Y-36052910D01*
X260606558Y-36050589D01*
X260779776Y-35929301D01*
X260929301Y-35779776D01*
X261050589Y-35606558D01*
X261055223Y-35596622D01*
X261137633Y-35419892D01*
X261137634Y-35419891D01*
X261139956Y-35414910D01*
X261151841Y-35370557D01*
X261193262Y-35215970D01*
X261193262Y-35215968D01*
X261194686Y-35210655D01*
X261213116Y-35000000D01*
X261194686Y-34789345D01*
X261179732Y-34733537D01*
X261141379Y-34590400D01*
X261141378Y-34590398D01*
X261139956Y-34585090D01*
X261137633Y-34580108D01*
X261052912Y-34398423D01*
X261052910Y-34398420D01*
X261050589Y-34393442D01*
X260929301Y-34220224D01*
X260779776Y-34070699D01*
X260606558Y-33949411D01*
X260601580Y-33947090D01*
X260601577Y-33947088D01*
X260419892Y-33862367D01*
X260419891Y-33862366D01*
X260414910Y-33860044D01*
X260409602Y-33858622D01*
X260409600Y-33858621D01*
X260215970Y-33806738D01*
X260215968Y-33806738D01*
X260210655Y-33805314D01*
X260000000Y-33786884D01*
X259789345Y-33805314D01*
X259784032Y-33806738D01*
X259784030Y-33806738D01*
X259590400Y-33858621D01*
X259590398Y-33858622D01*
X259585090Y-33860044D01*
X259580109Y-33862366D01*
X259580108Y-33862367D01*
X259398423Y-33947088D01*
X259398420Y-33947090D01*
X259393442Y-33949411D01*
X259220224Y-34070699D01*
X259070699Y-34220224D01*
X258949411Y-34393442D01*
X258947090Y-34398420D01*
X258947088Y-34398423D01*
X258862367Y-34580108D01*
X258860044Y-34585090D01*
X258858622Y-34590398D01*
X258858621Y-34590400D01*
X258820268Y-34733537D01*
X258805314Y-34789345D01*
X258786884Y-35000000D01*
X257242422Y-35000000D01*
X257261235Y-34940694D01*
X257261828Y-34935403D01*
X257263388Y-34930302D01*
X257272795Y-34837689D01*
X257272915Y-34836569D01*
X257278500Y-34786773D01*
X257278500Y-34783244D01*
X257278555Y-34782261D01*
X257279004Y-34776556D01*
X257282752Y-34739664D01*
X257282752Y-34739661D01*
X257283374Y-34733537D01*
X257279059Y-34687888D01*
X257278500Y-34676031D01*
X257278500Y-32126424D01*
X257298502Y-32058303D01*
X257352158Y-32011810D01*
X257419419Y-32001310D01*
X257518777Y-32013158D01*
X257524912Y-32012686D01*
X257524914Y-32012686D01*
X257709830Y-31998457D01*
X257709834Y-31998456D01*
X257715972Y-31997984D01*
X257906463Y-31944798D01*
X257911967Y-31942018D01*
X257911969Y-31942017D01*
X258077493Y-31858405D01*
X258077495Y-31858404D01*
X258082996Y-31855625D01*
X258087850Y-31851833D01*
X258087859Y-31851827D01*
X258096548Y-31845038D01*
X258162542Y-31818860D01*
X258235592Y-31834339D01*
X258404294Y-31928624D01*
X258592392Y-31989740D01*
X258788777Y-32013158D01*
X258794912Y-32012686D01*
X258794914Y-32012686D01*
X258979830Y-31998457D01*
X258979834Y-31998456D01*
X258985972Y-31997984D01*
X259176463Y-31944798D01*
X259181967Y-31942018D01*
X259181969Y-31942017D01*
X259347493Y-31858405D01*
X259347495Y-31858404D01*
X259352996Y-31855625D01*
X259357850Y-31851833D01*
X259357859Y-31851827D01*
X259366548Y-31845038D01*
X259432542Y-31818860D01*
X259505592Y-31834339D01*
X259674294Y-31928624D01*
X259862392Y-31989740D01*
X260058777Y-32013158D01*
X260064912Y-32012686D01*
X260064914Y-32012686D01*
X260249830Y-31998457D01*
X260249834Y-31998456D01*
X260255972Y-31997984D01*
X260446463Y-31944798D01*
X260451967Y-31942018D01*
X260451969Y-31942017D01*
X260617493Y-31858405D01*
X260617495Y-31858404D01*
X260622996Y-31855625D01*
X260627850Y-31851833D01*
X260627859Y-31851827D01*
X260636548Y-31845038D01*
X260702542Y-31818860D01*
X260775592Y-31834339D01*
G37*
%TD.AperFunction*%
%TD*%
M02*
