%TF.GenerationSoftware,KiCad,Pcbnew,6.0.10-86aedd382b~118~ubuntu22.04.1*%
%TF.CreationDate,2023-01-16T13:23:36+01:00*%
%TF.ProjectId,tandberg-usb,74616e64-6265-4726-972d-7573622e6b69,rev?*%
%TF.SameCoordinates,Original*%
%TF.FileFunction,Copper,L1,Top*%
%TF.FilePolarity,Positive*%
%FSLAX46Y46*%
G04 Gerber Fmt 4.6, Leading zero omitted, Abs format (unit mm)*
G04 Created by KiCad (PCBNEW 6.0.10-86aedd382b~118~ubuntu22.04.1) date 2023-01-16 13:23:36*
%MOMM*%
%LPD*%
G01*
G04 APERTURE LIST*
%TA.AperFunction,ComponentPad*%
%ADD10C,7.500000*%
%TD*%
%TA.AperFunction,ComponentPad*%
%ADD11R,1.000000X1.000000*%
%TD*%
%TA.AperFunction,ComponentPad*%
%ADD12O,1.150000X2.000000*%
%TD*%
%TA.AperFunction,ComponentPad*%
%ADD13C,1.400000*%
%TD*%
%TA.AperFunction,ComponentPad*%
%ADD14O,1.400000X1.400000*%
%TD*%
%TA.AperFunction,ComponentPad*%
%ADD15C,1.879600*%
%TD*%
%TA.AperFunction,ComponentPad*%
%ADD16R,1.879600X1.879600*%
%TD*%
%TA.AperFunction,ViaPad*%
%ADD17C,0.800000*%
%TD*%
%TA.AperFunction,Conductor*%
%ADD18C,1.000000*%
%TD*%
G04 APERTURE END LIST*
D10*
%TO.P,H1,1,1*%
%TO.N,GNDL*%
X187000000Y-30000000D03*
%TD*%
D11*
%TO.P,J3,1,Pin_1*%
%TO.N,Net-(J3-Pad1)*%
X46000000Y-30000000D03*
%TD*%
D12*
%TO.P,J1,1,Pin_1*%
%TO.N,GNDL*%
X259375000Y-28500000D03*
%TO.P,J1,2,Pin_2*%
%TO.N,Net-(J1-Pad2)*%
X258125000Y-28500000D03*
%TO.P,J1,3,Pin_3*%
%TO.N,Net-(J1-Pad3)*%
X256875000Y-28500000D03*
%TO.P,J1,4,Pin_4*%
%TO.N,unconnected-(J1-Pad4)*%
X255625000Y-28500000D03*
%TO.P,J1,5,Pin_5*%
%TO.N,unconnected-(J1-Pad5)*%
X254375000Y-28500000D03*
%TO.P,J1,6,Pin_6*%
%TO.N,COL1*%
X253125000Y-28500000D03*
%TO.P,J1,7,Pin_7*%
%TO.N,COL2*%
X251875000Y-28500000D03*
%TO.P,J1,8,Pin_8*%
%TO.N,COL3*%
X250625000Y-28500000D03*
%TO.P,J1,9,Pin_9*%
%TO.N,COL4*%
X250050000Y-33500000D03*
%TO.P,J1,10,Pin_10*%
%TO.N,COL5*%
X251300000Y-33500000D03*
%TO.P,J1,11,Pin_11*%
%TO.N,COL6*%
X252550000Y-33500000D03*
%TO.P,J1,12,Pin_12*%
%TO.N,COL7*%
X253800000Y-33500000D03*
%TO.P,J1,13,Pin_13*%
%TO.N,COL8*%
X255050000Y-33500000D03*
%TO.P,J1,14,Pin_14*%
%TO.N,Net-(J1-Pad14)*%
X256300000Y-33500000D03*
%TO.P,J1,15,Pin_15*%
%TO.N,GNDL*%
X257550000Y-33500000D03*
%TO.P,J1,16,Pin_16*%
%TO.N,unconnected-(J1-Pad16)*%
X258800000Y-33500000D03*
%TD*%
D10*
%TO.P,H3,1,1*%
%TO.N,GNDL*%
X270000000Y-69000000D03*
%TD*%
D13*
%TO.P,R3,1*%
%TO.N,Net-(J1-Pad14)*%
X250000000Y-41460000D03*
D14*
%TO.P,R3,2*%
%TO.N,LED3*%
X250000000Y-46540000D03*
%TD*%
D10*
%TO.P,H4,1,1*%
%TO.N,GNDL*%
X27000000Y-68000000D03*
%TD*%
D13*
%TO.P,R2,1*%
%TO.N,Net-(J1-Pad3)*%
X246000000Y-41460000D03*
D14*
%TO.P,R2,2*%
%TO.N,LED2*%
X246000000Y-46540000D03*
%TD*%
D13*
%TO.P,R1,1*%
%TO.N,Net-(J1-Pad2)*%
X242000000Y-41460000D03*
D14*
%TO.P,R1,2*%
%TO.N,LED1*%
X242000000Y-46540000D03*
%TD*%
D15*
%TO.P,U1,1,PB12*%
%TO.N,ROW1*%
X48900000Y-63493000D03*
%TO.P,U1,2,PB13*%
%TO.N,ROW2*%
X51440000Y-63747000D03*
%TO.P,U1,3,PB14*%
%TO.N,ROW3*%
X53980000Y-63493000D03*
%TO.P,U1,4,PB15*%
%TO.N,ROW4*%
X56520000Y-63747000D03*
%TO.P,U1,5,PA8*%
%TO.N,COL7*%
X59060000Y-63493000D03*
%TO.P,U1,6,PA9*%
%TO.N,unconnected-(U1-Pad6)*%
X61600000Y-63747000D03*
%TO.P,U1,7,PA10*%
%TO.N,unconnected-(U1-Pad7)*%
X64140000Y-63493000D03*
%TO.P,U1,8,PA11*%
%TO.N,unconnected-(U1-Pad8)*%
X66680000Y-63747000D03*
%TO.P,U1,9,PA12*%
%TO.N,unconnected-(U1-Pad9)*%
X69220000Y-63493000D03*
%TO.P,U1,10,PA15*%
%TO.N,COL8*%
X71760000Y-63747000D03*
%TO.P,U1,11,PB3*%
%TO.N,ROW16*%
X74300000Y-63493000D03*
%TO.P,U1,12,PB4*%
%TO.N,LED3*%
X76840000Y-63747000D03*
%TO.P,U1,13,PB5*%
%TO.N,ROW15*%
X79380000Y-63493000D03*
%TO.P,U1,14,PB6*%
%TO.N,COL1*%
X81920000Y-63747000D03*
%TO.P,U1,15,PB7*%
%TO.N,COL2*%
X84460000Y-63493000D03*
%TO.P,U1,16,PB8*%
%TO.N,COL3*%
X87000000Y-63747000D03*
%TO.P,U1,17,PB9*%
%TO.N,COL4*%
X89540000Y-63493000D03*
%TO.P,U1,18,5V*%
%TO.N,unconnected-(U1-Pad18)*%
X92080000Y-63747000D03*
%TO.P,U1,19,GND*%
%TO.N,GNDL*%
X94620000Y-63493000D03*
%TO.P,U1,20,3V3*%
%TO.N,unconnected-(U1-Pad20)*%
X97160000Y-63747000D03*
%TO.P,U1,21,VBAT*%
%TO.N,unconnected-(U1-Pad21)*%
X97160000Y-48253000D03*
%TO.P,U1,22,PC13*%
%TO.N,ROW12*%
X94620000Y-48507000D03*
%TO.P,U1,23,PC14*%
%TO.N,ROW13*%
X92080000Y-48253000D03*
%TO.P,U1,24,PC15*%
%TO.N,ROW14*%
X89540000Y-48507000D03*
%TO.P,U1,25,~{RESET}*%
%TO.N,unconnected-(U1-Pad25)*%
X87000000Y-48253000D03*
%TO.P,U1,26,PA0*%
%TO.N,LED2*%
X84460000Y-48507000D03*
%TO.P,U1,27,PA1*%
%TO.N,LED1*%
X81920000Y-48253000D03*
%TO.P,U1,28,PA2*%
%TO.N,ROW5*%
X79380000Y-48507000D03*
%TO.P,U1,29,PA3*%
%TO.N,ROW6*%
X76840000Y-48253000D03*
%TO.P,U1,30,PA4*%
%TO.N,ROW7*%
X74300000Y-48507000D03*
%TO.P,U1,31,PA5*%
%TO.N,ROW8*%
X71760000Y-48253000D03*
%TO.P,U1,32,PA6*%
%TO.N,COL5*%
X69220000Y-48507000D03*
%TO.P,U1,33,PA7*%
%TO.N,COL6*%
X66680000Y-48253000D03*
%TO.P,U1,34,PB0*%
%TO.N,ROW9*%
X64140000Y-48507000D03*
%TO.P,U1,35,PB1*%
%TO.N,ROW10*%
X61600000Y-48253000D03*
%TO.P,U1,36,PB2*%
%TO.N,ROW11*%
X59060000Y-48507000D03*
%TO.P,U1,37,PB10*%
%TO.N,Net-(J3-Pad1)*%
X56520000Y-48253000D03*
%TO.P,U1,38,3V3*%
%TO.N,unconnected-(U1-Pad38)*%
X53980000Y-48507000D03*
%TO.P,U1,39,GND*%
%TO.N,GNDL*%
X51440000Y-48253000D03*
%TO.P,U1,40,5V*%
%TO.N,unconnected-(U1-Pad40)*%
X48900000Y-48507000D03*
D16*
%TO.P,U1,41,3.3V*%
%TO.N,unconnected-(U1-Pad41)*%
X93177000Y-59810000D03*
D15*
%TO.P,U1,42,SWDIO*%
%TO.N,unconnected-(U1-Pad42)*%
X92923000Y-57270000D03*
%TO.P,U1,43,SWSCK*%
%TO.N,unconnected-(U1-Pad43)*%
X93177000Y-54730000D03*
%TO.P,U1,44,GND*%
%TO.N,GNDL*%
X92923000Y-52190000D03*
%TD*%
D10*
%TO.P,H2,1,1*%
%TO.N,GNDL*%
X27000000Y-31000000D03*
%TD*%
D12*
%TO.P,J2,1,Pin_1*%
%TO.N,ROW1*%
X97375000Y-28500000D03*
%TO.P,J2,2,Pin_2*%
%TO.N,ROW2*%
X96125000Y-28500000D03*
%TO.P,J2,3,Pin_3*%
%TO.N,ROW3*%
X94875000Y-28500000D03*
%TO.P,J2,4,Pin_4*%
%TO.N,ROW4*%
X93625000Y-28500000D03*
%TO.P,J2,5,Pin_5*%
%TO.N,ROW5*%
X92375000Y-28500000D03*
%TO.P,J2,6,Pin_6*%
%TO.N,ROW6*%
X91125000Y-28500000D03*
%TO.P,J2,7,Pin_7*%
%TO.N,ROW7*%
X89875000Y-28500000D03*
%TO.P,J2,8,Pin_8*%
%TO.N,ROW8*%
X88625000Y-28500000D03*
%TO.P,J2,9,Pin_9*%
%TO.N,ROW9*%
X88050000Y-33500000D03*
%TO.P,J2,10,Pin_10*%
%TO.N,ROW10*%
X89300000Y-33500000D03*
%TO.P,J2,11,Pin_11*%
%TO.N,ROW11*%
X90550000Y-33500000D03*
%TO.P,J2,12,Pin_12*%
%TO.N,ROW12*%
X91800000Y-33500000D03*
%TO.P,J2,13,Pin_13*%
%TO.N,ROW13*%
X93050000Y-33500000D03*
%TO.P,J2,14,Pin_14*%
%TO.N,ROW14*%
X94300000Y-33500000D03*
%TO.P,J2,15,Pin_15*%
%TO.N,ROW15*%
X95550000Y-33500000D03*
%TO.P,J2,16,Pin_16*%
%TO.N,ROW16*%
X96800000Y-33500000D03*
%TD*%
D17*
%TO.N,GNDL*%
X74000000Y-46500000D03*
X96000000Y-41500000D03*
X175500000Y-60000000D03*
X54500000Y-33500000D03*
X86500000Y-41500000D03*
X72500000Y-32000000D03*
X99500000Y-45500000D03*
%TO.N,COL2*%
X232468400Y-30500000D03*
%TO.N,COL3*%
X233630000Y-28500000D03*
%TO.N,COL4*%
X126404700Y-35279700D03*
%TO.N,COL7*%
X254505900Y-30250000D03*
%TO.N,ROW1*%
X97432600Y-59550700D03*
X107713300Y-31984800D03*
%TO.N,ROW2*%
X44900000Y-47500000D03*
X65500000Y-27000000D03*
%TO.N,ROW5*%
X72707900Y-38345700D03*
%TO.N,ROW7*%
X100053400Y-32919300D03*
X100634200Y-43356800D03*
%TO.N,ROW8*%
X72872700Y-40136900D03*
%TO.N,ROW11*%
X83500000Y-33500000D03*
%TO.N,ROW12*%
X100060300Y-35500000D03*
%TO.N,ROW13*%
X98410700Y-32919300D03*
%TO.N,ROW15*%
X94953600Y-60700800D03*
%TD*%
D18*
%TO.N,Net-(J1-Pad3)*%
X257967100Y-30500000D02*
X256875000Y-30500000D01*
X250288300Y-38991500D02*
X255508300Y-38991500D01*
X256875000Y-28500000D02*
X256875000Y-30500000D01*
X247819800Y-41460000D02*
X250288300Y-38991500D01*
X260025300Y-32558200D02*
X257967100Y-30500000D01*
X255508300Y-38991500D02*
X260025300Y-34474500D01*
X246000000Y-41460000D02*
X247819800Y-41460000D01*
X260025300Y-34474500D02*
X260025300Y-32558200D01*
%TO.N,COL2*%
X251875000Y-30500000D02*
X232468400Y-30500000D01*
X251875000Y-28500000D02*
X251875000Y-30500000D01*
%TO.N,COL3*%
X250625000Y-28500000D02*
X233630000Y-28500000D01*
%TO.N,COL4*%
X247550000Y-38000000D02*
X129125000Y-38000000D01*
X129125000Y-38000000D02*
X126404700Y-35279700D01*
X250050000Y-35500000D02*
X247550000Y-38000000D01*
X250050000Y-33500000D02*
X250050000Y-35500000D01*
%TO.N,COL5*%
X78240500Y-39486500D02*
X69220000Y-48507000D01*
X247748500Y-39486500D02*
X78240500Y-39486500D01*
X251300000Y-33500000D02*
X251300000Y-35935000D01*
X251300000Y-35935000D02*
X247748500Y-39486500D01*
%TO.N,COL6*%
X77642400Y-37290600D02*
X66680000Y-48253000D01*
X251878300Y-31900000D02*
X249563299Y-31900000D01*
X244963299Y-36500000D02*
X129180634Y-36500000D01*
X126860334Y-34179700D02*
X113193600Y-34179700D01*
X252550000Y-33500000D02*
X252550000Y-32571700D01*
X129180634Y-36500000D02*
X126860334Y-34179700D01*
X249563299Y-31900000D02*
X244963299Y-36500000D01*
X110082700Y-37290600D02*
X77642400Y-37290600D01*
X252550000Y-32571700D02*
X251878300Y-31900000D01*
X113193600Y-34179700D02*
X110082700Y-37290600D01*
%TO.N,COL7*%
X253800000Y-33500000D02*
X253800000Y-30955900D01*
X253800000Y-30955900D02*
X254505900Y-30250000D01*
%TO.N,ROW1*%
X97375000Y-28500000D02*
X104228500Y-28500000D01*
X50744000Y-65337000D02*
X48900000Y-63493000D01*
X97432600Y-59550700D02*
X97860400Y-59978500D01*
X97567600Y-65337000D02*
X50744000Y-65337000D01*
X97860400Y-59978500D02*
X97860400Y-65044200D01*
X104228500Y-28500000D02*
X107713300Y-31984800D01*
X97860400Y-65044200D02*
X97567600Y-65337000D01*
%TO.N,ROW2*%
X44900000Y-57207000D02*
X51440000Y-63747000D01*
X65500000Y-27000000D02*
X66804200Y-25695800D01*
X66804200Y-25695800D02*
X95320800Y-25695800D01*
X44900000Y-47500000D02*
X44900000Y-57207000D01*
X95320800Y-25695800D02*
X96125000Y-26500000D01*
X96125000Y-26500000D02*
X96125000Y-28500000D01*
%TO.N,ROW5*%
X83357200Y-26849800D02*
X72707900Y-37499100D01*
X72707900Y-37499100D02*
X72707900Y-38345700D01*
X91671000Y-26849800D02*
X83357200Y-26849800D01*
X92375000Y-27553800D02*
X91671000Y-26849800D01*
X92375000Y-28500000D02*
X92375000Y-27553800D01*
%TO.N,ROW7*%
X89875000Y-28500000D02*
X89875000Y-29428200D01*
X97284300Y-30150200D02*
X100053400Y-32919300D01*
X100634200Y-43356800D02*
X79450200Y-43356800D01*
X89875000Y-29428200D02*
X90597000Y-30150200D01*
X90597000Y-30150200D02*
X97284300Y-30150200D01*
X79450200Y-43356800D02*
X74300000Y-48507000D01*
%TO.N,ROW8*%
X73858000Y-39151600D02*
X73858000Y-38042200D01*
X73858000Y-38042200D02*
X83400200Y-28500000D01*
X72872700Y-40136900D02*
X73858000Y-39151600D01*
X83400200Y-28500000D02*
X88625000Y-28500000D01*
%TO.N,ROW11*%
X85500000Y-31500000D02*
X90550000Y-31500000D01*
X90550000Y-31500000D02*
X90550000Y-33500000D01*
X83500000Y-33500000D02*
X85500000Y-31500000D01*
%TO.N,ROW12*%
X91800000Y-35500000D02*
X100060300Y-35500000D01*
X91800000Y-33500000D02*
X91800000Y-35500000D01*
%TO.N,ROW13*%
X93050000Y-33500000D02*
X93050000Y-31500000D01*
X96991400Y-31500000D02*
X98410700Y-32919300D01*
X93050000Y-31500000D02*
X96991400Y-31500000D01*
%TO.N,ROW15*%
X94953600Y-60700800D02*
X94953600Y-60832400D01*
X93969900Y-61816100D02*
X81056900Y-61816100D01*
X81056900Y-61816100D02*
X79380000Y-63493000D01*
X94953600Y-60832400D02*
X93969900Y-61816100D01*
%TO.N,LED1*%
X83459800Y-46713200D02*
X81920000Y-48253000D01*
X239543000Y-48997000D02*
X100081607Y-48997000D01*
X97797807Y-46713200D02*
X83459800Y-46713200D01*
X100081607Y-48997000D02*
X97797807Y-46713200D01*
X242000000Y-46540000D02*
X239543000Y-48997000D01*
%TO.N,LED2*%
X244300000Y-46540000D02*
X240743000Y-50097000D01*
X240743000Y-50097000D02*
X86050000Y-50097000D01*
X246000000Y-46540000D02*
X244300000Y-46540000D01*
X86050000Y-50097000D02*
X84460000Y-48507000D01*
%TO.N,Net-(J3-Pad1)*%
X46000000Y-30000000D02*
X46000000Y-37733000D01*
X46000000Y-37733000D02*
X56520000Y-48253000D01*
%TD*%
%TA.AperFunction,Conductor*%
%TO.N,GNDL*%
G36*
X66459316Y-24528502D02*
G01*
X66505809Y-24582158D01*
X66515913Y-24652432D01*
X66486419Y-24717012D01*
X66437981Y-24751492D01*
X66433781Y-24753172D01*
X66427863Y-24754891D01*
X66423129Y-24757345D01*
X66418031Y-24758884D01*
X66412587Y-24761778D01*
X66412586Y-24761779D01*
X66336031Y-24802484D01*
X66334863Y-24803098D01*
X66252274Y-24845908D01*
X66248111Y-24849231D01*
X66243404Y-24851734D01*
X66171282Y-24910555D01*
X66170426Y-24911246D01*
X66131227Y-24942538D01*
X66128723Y-24945042D01*
X66128005Y-24945684D01*
X66123672Y-24949385D01*
X66090138Y-24976735D01*
X66086211Y-24981482D01*
X66086209Y-24981484D01*
X66060913Y-25012062D01*
X66052923Y-25020842D01*
X64751691Y-26322075D01*
X64657897Y-26436261D01*
X64564438Y-26610563D01*
X64562636Y-26616458D01*
X64513260Y-26777958D01*
X64506613Y-26799698D01*
X64505990Y-26805833D01*
X64487499Y-26987871D01*
X64486626Y-26996462D01*
X64492095Y-27054314D01*
X64504648Y-27187107D01*
X64505239Y-27193362D01*
X64561741Y-27382896D01*
X64653982Y-27557846D01*
X64657858Y-27562632D01*
X64657859Y-27562634D01*
X64774568Y-27706757D01*
X64778447Y-27711547D01*
X64809576Y-27737483D01*
X64873780Y-27790975D01*
X64930396Y-27838146D01*
X65104041Y-27932822D01*
X65198404Y-27962393D01*
X65286886Y-27990122D01*
X65286889Y-27990123D01*
X65292768Y-27991965D01*
X65298891Y-27992630D01*
X65298895Y-27992631D01*
X65483263Y-28012659D01*
X65483267Y-28012659D01*
X65489388Y-28013324D01*
X65686413Y-27996087D01*
X65692330Y-27994368D01*
X65692335Y-27994367D01*
X65823064Y-27956386D01*
X65876336Y-27940909D01*
X66051926Y-27849892D01*
X66086037Y-27822662D01*
X66170223Y-27755458D01*
X66170230Y-27755451D01*
X66172973Y-27753262D01*
X67185029Y-26741205D01*
X67247341Y-26707180D01*
X67274124Y-26704300D01*
X81772276Y-26704300D01*
X81840397Y-26724302D01*
X81886890Y-26777958D01*
X81896994Y-26848232D01*
X81867500Y-26912812D01*
X81861371Y-26919395D01*
X72038521Y-36742245D01*
X72028378Y-36751347D01*
X71998875Y-36775068D01*
X71966609Y-36813521D01*
X71963428Y-36817169D01*
X71961785Y-36818981D01*
X71959591Y-36821175D01*
X71932258Y-36854449D01*
X71931596Y-36855247D01*
X71871746Y-36926574D01*
X71869178Y-36931244D01*
X71865797Y-36935361D01*
X71855484Y-36954595D01*
X71821923Y-37017186D01*
X71821294Y-37018345D01*
X71779438Y-37094481D01*
X71779435Y-37094489D01*
X71776467Y-37099887D01*
X71774855Y-37104969D01*
X71772338Y-37109663D01*
X71745138Y-37198631D01*
X71744818Y-37199659D01*
X71716665Y-37288406D01*
X71716071Y-37293702D01*
X71714513Y-37298798D01*
X71709092Y-37352171D01*
X71705118Y-37391287D01*
X71704989Y-37392493D01*
X71699400Y-37442327D01*
X71699400Y-37445854D01*
X71699345Y-37446839D01*
X71698898Y-37452519D01*
X71694526Y-37495562D01*
X71695106Y-37501693D01*
X71698841Y-37541209D01*
X71699400Y-37553067D01*
X71699400Y-38395469D01*
X71699700Y-38398525D01*
X71699700Y-38398532D01*
X71700270Y-38404342D01*
X71713820Y-38542533D01*
X71770984Y-38731869D01*
X71863834Y-38906496D01*
X71934191Y-38992762D01*
X71984940Y-39054987D01*
X71984943Y-39054990D01*
X71988835Y-39059762D01*
X71993582Y-39063689D01*
X71993584Y-39063691D01*
X72136475Y-39181901D01*
X72136479Y-39181903D01*
X72141225Y-39185830D01*
X72146645Y-39188760D01*
X72146650Y-39188764D01*
X72158891Y-39195383D01*
X72209298Y-39245379D01*
X72224674Y-39314691D01*
X72200136Y-39381312D01*
X72188054Y-39395312D01*
X72124391Y-39458975D01*
X72030597Y-39573161D01*
X71937138Y-39747463D01*
X71908583Y-39840862D01*
X71881344Y-39929956D01*
X71879313Y-39936598D01*
X71859326Y-40133362D01*
X71877939Y-40330262D01*
X71934441Y-40519796D01*
X72026682Y-40694746D01*
X72151147Y-40848447D01*
X72303096Y-40975046D01*
X72308508Y-40977997D01*
X72313600Y-40981457D01*
X72311943Y-40983895D01*
X72353316Y-41025088D01*
X72368559Y-41094429D01*
X72343894Y-41161004D01*
X72331956Y-41174810D01*
X66739528Y-46767238D01*
X66677216Y-46801264D01*
X66648895Y-46804134D01*
X66583795Y-46803339D01*
X66583793Y-46803339D01*
X66578625Y-46803276D01*
X66343209Y-46839300D01*
X66116838Y-46913289D01*
X65905590Y-47023258D01*
X65901457Y-47026361D01*
X65901454Y-47026363D01*
X65719275Y-47163147D01*
X65715140Y-47166252D01*
X65550602Y-47338431D01*
X65547688Y-47342703D01*
X65547687Y-47342704D01*
X65419559Y-47530532D01*
X65364648Y-47575535D01*
X65294123Y-47583706D01*
X65230376Y-47552452D01*
X65222287Y-47544337D01*
X65139462Y-47453313D01*
X65134602Y-47447972D01*
X65134600Y-47447970D01*
X65131124Y-47444150D01*
X65127073Y-47440951D01*
X65127069Y-47440947D01*
X64948278Y-47299747D01*
X64948273Y-47299744D01*
X64944224Y-47296546D01*
X64939708Y-47294053D01*
X64939705Y-47294051D01*
X64740250Y-47183946D01*
X64740246Y-47183944D01*
X64735726Y-47181449D01*
X64730857Y-47179725D01*
X64730853Y-47179723D01*
X64516105Y-47103676D01*
X64516101Y-47103675D01*
X64511230Y-47101950D01*
X64506140Y-47101043D01*
X64506135Y-47101042D01*
X64378814Y-47078364D01*
X64276764Y-47060186D01*
X64187637Y-47059097D01*
X64043795Y-47057339D01*
X64043793Y-47057339D01*
X64038625Y-47057276D01*
X63803209Y-47093300D01*
X63576838Y-47167289D01*
X63365590Y-47277258D01*
X63361457Y-47280361D01*
X63361454Y-47280363D01*
X63241214Y-47370642D01*
X63175140Y-47420252D01*
X63146492Y-47450231D01*
X63053502Y-47547539D01*
X62991978Y-47582969D01*
X62921065Y-47579512D01*
X62863279Y-47538266D01*
X62856616Y-47528928D01*
X62820086Y-47472460D01*
X62751406Y-47366298D01*
X62712619Y-47323671D01*
X62681349Y-47289306D01*
X62591124Y-47190150D01*
X62587073Y-47186951D01*
X62587069Y-47186947D01*
X62408278Y-47045747D01*
X62408273Y-47045744D01*
X62404224Y-47042546D01*
X62399708Y-47040053D01*
X62399705Y-47040051D01*
X62200250Y-46929946D01*
X62200246Y-46929944D01*
X62195726Y-46927449D01*
X62190857Y-46925725D01*
X62190853Y-46925723D01*
X61976105Y-46849676D01*
X61976101Y-46849675D01*
X61971230Y-46847950D01*
X61966140Y-46847043D01*
X61966135Y-46847042D01*
X61838814Y-46824364D01*
X61736764Y-46806186D01*
X61647637Y-46805097D01*
X61503795Y-46803339D01*
X61503793Y-46803339D01*
X61498625Y-46803276D01*
X61263209Y-46839300D01*
X61036838Y-46913289D01*
X60825590Y-47023258D01*
X60821457Y-47026361D01*
X60821454Y-47026363D01*
X60639275Y-47163147D01*
X60635140Y-47166252D01*
X60470602Y-47338431D01*
X60467688Y-47342703D01*
X60467687Y-47342704D01*
X60339559Y-47530532D01*
X60284648Y-47575535D01*
X60214123Y-47583706D01*
X60150376Y-47552452D01*
X60142287Y-47544337D01*
X60059462Y-47453313D01*
X60054602Y-47447972D01*
X60054600Y-47447970D01*
X60051124Y-47444150D01*
X60047073Y-47440951D01*
X60047069Y-47440947D01*
X59868278Y-47299747D01*
X59868273Y-47299744D01*
X59864224Y-47296546D01*
X59859708Y-47294053D01*
X59859705Y-47294051D01*
X59660250Y-47183946D01*
X59660246Y-47183944D01*
X59655726Y-47181449D01*
X59650857Y-47179725D01*
X59650853Y-47179723D01*
X59436105Y-47103676D01*
X59436101Y-47103675D01*
X59431230Y-47101950D01*
X59426140Y-47101043D01*
X59426135Y-47101042D01*
X59298814Y-47078364D01*
X59196764Y-47060186D01*
X59107637Y-47059097D01*
X58963795Y-47057339D01*
X58963793Y-47057339D01*
X58958625Y-47057276D01*
X58723209Y-47093300D01*
X58496838Y-47167289D01*
X58285590Y-47277258D01*
X58281457Y-47280361D01*
X58281454Y-47280363D01*
X58161214Y-47370642D01*
X58095140Y-47420252D01*
X58066492Y-47450231D01*
X57973502Y-47547539D01*
X57911978Y-47582969D01*
X57841065Y-47579512D01*
X57783279Y-47538266D01*
X57776616Y-47528928D01*
X57740086Y-47472460D01*
X57671406Y-47366298D01*
X57632619Y-47323671D01*
X57601349Y-47289306D01*
X57511124Y-47190150D01*
X57507073Y-47186951D01*
X57507069Y-47186947D01*
X57328278Y-47045747D01*
X57328273Y-47045744D01*
X57324224Y-47042546D01*
X57319708Y-47040053D01*
X57319705Y-47040051D01*
X57120250Y-46929946D01*
X57120246Y-46929944D01*
X57115726Y-46927449D01*
X57110857Y-46925725D01*
X57110853Y-46925723D01*
X56896105Y-46849676D01*
X56896101Y-46849675D01*
X56891230Y-46847950D01*
X56886140Y-46847043D01*
X56886135Y-46847042D01*
X56661853Y-46807092D01*
X56661847Y-46807091D01*
X56656764Y-46806186D01*
X56548760Y-46804867D01*
X56480890Y-46784034D01*
X56461205Y-46767971D01*
X47045405Y-37352171D01*
X47011379Y-37289859D01*
X47008500Y-37263076D01*
X47008500Y-29451866D01*
X47001745Y-29389684D01*
X46950615Y-29253295D01*
X46863261Y-29136739D01*
X46746705Y-29049385D01*
X46610316Y-28998255D01*
X46548134Y-28991500D01*
X46059873Y-28991500D01*
X46046703Y-28990810D01*
X46013204Y-28987289D01*
X46013202Y-28987289D01*
X46007075Y-28986645D01*
X45961309Y-28990810D01*
X45959430Y-28990981D01*
X45948010Y-28991500D01*
X45451866Y-28991500D01*
X45389684Y-28998255D01*
X45253295Y-29049385D01*
X45136739Y-29136739D01*
X45049385Y-29253295D01*
X44998255Y-29389684D01*
X44991500Y-29451866D01*
X44991500Y-37671157D01*
X44990763Y-37684764D01*
X44986676Y-37722388D01*
X44987213Y-37728523D01*
X44991050Y-37772388D01*
X44991379Y-37777214D01*
X44991500Y-37779686D01*
X44991500Y-37782769D01*
X44991801Y-37785837D01*
X44995690Y-37825506D01*
X44995812Y-37826819D01*
X45003913Y-37919413D01*
X45005400Y-37924532D01*
X45005920Y-37929833D01*
X45032791Y-38018834D01*
X45033126Y-38019967D01*
X45049376Y-38075896D01*
X45059091Y-38109336D01*
X45061544Y-38114068D01*
X45063084Y-38119169D01*
X45065978Y-38124612D01*
X45106731Y-38201260D01*
X45107343Y-38202426D01*
X45135961Y-38257635D01*
X45150108Y-38284926D01*
X45153431Y-38289089D01*
X45155934Y-38293796D01*
X45214755Y-38365918D01*
X45215446Y-38366774D01*
X45246738Y-38405973D01*
X45249242Y-38408477D01*
X45249884Y-38409195D01*
X45253585Y-38413528D01*
X45280935Y-38447062D01*
X45285682Y-38450989D01*
X45285684Y-38450991D01*
X45316262Y-38476287D01*
X45325042Y-38484277D01*
X49522619Y-42681853D01*
X53719469Y-46878703D01*
X53753495Y-46941015D01*
X53748430Y-47011830D01*
X53705883Y-47068666D01*
X53653215Y-47090759D01*
X53653349Y-47091320D01*
X53649945Y-47092131D01*
X53649426Y-47092349D01*
X53643209Y-47093300D01*
X53416838Y-47167289D01*
X53205590Y-47277258D01*
X53201457Y-47280361D01*
X53201454Y-47280363D01*
X53081214Y-47370642D01*
X53015140Y-47420252D01*
X52988650Y-47447972D01*
X52870809Y-47571286D01*
X52850602Y-47592431D01*
X52716394Y-47789172D01*
X52714215Y-47793867D01*
X52623870Y-47988500D01*
X52616122Y-48005191D01*
X52552477Y-48234685D01*
X52551928Y-48239819D01*
X52551928Y-48239821D01*
X52546449Y-48291089D01*
X52527170Y-48471494D01*
X52527467Y-48476646D01*
X52527467Y-48476650D01*
X52533502Y-48581313D01*
X52540879Y-48709255D01*
X52542016Y-48714301D01*
X52542017Y-48714307D01*
X52575111Y-48861156D01*
X52593237Y-48941585D01*
X52595179Y-48946367D01*
X52595180Y-48946371D01*
X52642159Y-49062066D01*
X52682837Y-49162244D01*
X52761933Y-49291317D01*
X52804572Y-49360896D01*
X52807274Y-49365306D01*
X52963204Y-49545317D01*
X53146442Y-49697444D01*
X53150894Y-49700046D01*
X53150899Y-49700049D01*
X53249333Y-49757569D01*
X53352065Y-49817601D01*
X53574552Y-49902560D01*
X53579618Y-49903591D01*
X53579619Y-49903591D01*
X53633956Y-49914646D01*
X53807928Y-49950041D01*
X53942121Y-49954962D01*
X54040760Y-49958579D01*
X54040764Y-49958579D01*
X54045924Y-49958768D01*
X54051044Y-49958112D01*
X54051046Y-49958112D01*
X54277023Y-49929164D01*
X54277024Y-49929164D01*
X54282151Y-49928507D01*
X54365200Y-49903591D01*
X54505316Y-49861554D01*
X54505317Y-49861553D01*
X54510262Y-49860070D01*
X54724133Y-49755295D01*
X54728336Y-49752297D01*
X54728341Y-49752294D01*
X54913816Y-49619996D01*
X54913818Y-49619994D01*
X54918020Y-49616997D01*
X55086716Y-49448889D01*
X55225690Y-49255486D01*
X55231204Y-49244328D01*
X55279317Y-49192123D01*
X55348018Y-49174215D01*
X55415494Y-49196293D01*
X55439398Y-49217658D01*
X55499818Y-49287409D01*
X55499823Y-49287414D01*
X55503204Y-49291317D01*
X55686442Y-49443444D01*
X55690894Y-49446046D01*
X55690899Y-49446049D01*
X55887607Y-49560996D01*
X55892065Y-49563601D01*
X56114552Y-49648560D01*
X56119618Y-49649591D01*
X56119619Y-49649591D01*
X56173956Y-49660646D01*
X56347928Y-49696041D01*
X56482121Y-49700962D01*
X56580760Y-49704579D01*
X56580764Y-49704579D01*
X56585924Y-49704768D01*
X56591044Y-49704112D01*
X56591046Y-49704112D01*
X56817023Y-49675164D01*
X56817024Y-49675164D01*
X56822151Y-49674507D01*
X56905200Y-49649591D01*
X57045316Y-49607554D01*
X57045317Y-49607553D01*
X57050262Y-49606070D01*
X57264133Y-49501295D01*
X57268336Y-49498297D01*
X57268341Y-49498294D01*
X57453816Y-49365996D01*
X57453818Y-49365994D01*
X57458020Y-49362997D01*
X57610637Y-49210912D01*
X57673009Y-49176996D01*
X57743816Y-49182184D01*
X57800577Y-49224830D01*
X57807009Y-49234328D01*
X57884571Y-49360896D01*
X57884574Y-49360901D01*
X57887274Y-49365306D01*
X58043204Y-49545317D01*
X58226442Y-49697444D01*
X58230894Y-49700046D01*
X58230899Y-49700049D01*
X58329333Y-49757569D01*
X58432065Y-49817601D01*
X58654552Y-49902560D01*
X58659618Y-49903591D01*
X58659619Y-49903591D01*
X58713956Y-49914646D01*
X58887928Y-49950041D01*
X59022121Y-49954962D01*
X59120760Y-49958579D01*
X59120764Y-49958579D01*
X59125924Y-49958768D01*
X59131044Y-49958112D01*
X59131046Y-49958112D01*
X59357023Y-49929164D01*
X59357024Y-49929164D01*
X59362151Y-49928507D01*
X59445200Y-49903591D01*
X59585316Y-49861554D01*
X59585317Y-49861553D01*
X59590262Y-49860070D01*
X59804133Y-49755295D01*
X59808336Y-49752297D01*
X59808341Y-49752294D01*
X59993816Y-49619996D01*
X59993818Y-49619994D01*
X59998020Y-49616997D01*
X60166716Y-49448889D01*
X60305690Y-49255486D01*
X60311204Y-49244328D01*
X60359317Y-49192123D01*
X60428018Y-49174215D01*
X60495494Y-49196293D01*
X60519398Y-49217658D01*
X60579818Y-49287409D01*
X60579823Y-49287414D01*
X60583204Y-49291317D01*
X60766442Y-49443444D01*
X60770894Y-49446046D01*
X60770899Y-49446049D01*
X60967607Y-49560996D01*
X60972065Y-49563601D01*
X61194552Y-49648560D01*
X61199618Y-49649591D01*
X61199619Y-49649591D01*
X61253956Y-49660646D01*
X61427928Y-49696041D01*
X61562121Y-49700962D01*
X61660760Y-49704579D01*
X61660764Y-49704579D01*
X61665924Y-49704768D01*
X61671044Y-49704112D01*
X61671046Y-49704112D01*
X61897023Y-49675164D01*
X61897024Y-49675164D01*
X61902151Y-49674507D01*
X61985200Y-49649591D01*
X62125316Y-49607554D01*
X62125317Y-49607553D01*
X62130262Y-49606070D01*
X62344133Y-49501295D01*
X62348336Y-49498297D01*
X62348341Y-49498294D01*
X62533816Y-49365996D01*
X62533818Y-49365994D01*
X62538020Y-49362997D01*
X62690637Y-49210912D01*
X62753009Y-49176996D01*
X62823816Y-49182184D01*
X62880577Y-49224830D01*
X62887009Y-49234328D01*
X62964571Y-49360896D01*
X62964574Y-49360901D01*
X62967274Y-49365306D01*
X63123204Y-49545317D01*
X63306442Y-49697444D01*
X63310894Y-49700046D01*
X63310899Y-49700049D01*
X63409333Y-49757569D01*
X63512065Y-49817601D01*
X63734552Y-49902560D01*
X63739618Y-49903591D01*
X63739619Y-49903591D01*
X63793956Y-49914646D01*
X63967928Y-49950041D01*
X64102121Y-49954962D01*
X64200760Y-49958579D01*
X64200764Y-49958579D01*
X64205924Y-49958768D01*
X64211044Y-49958112D01*
X64211046Y-49958112D01*
X64437023Y-49929164D01*
X64437024Y-49929164D01*
X64442151Y-49928507D01*
X64525200Y-49903591D01*
X64665316Y-49861554D01*
X64665317Y-49861553D01*
X64670262Y-49860070D01*
X64884133Y-49755295D01*
X64888336Y-49752297D01*
X64888341Y-49752294D01*
X65073816Y-49619996D01*
X65073818Y-49619994D01*
X65078020Y-49616997D01*
X65246716Y-49448889D01*
X65385690Y-49255486D01*
X65391204Y-49244328D01*
X65439317Y-49192123D01*
X65508018Y-49174215D01*
X65575494Y-49196293D01*
X65599398Y-49217658D01*
X65659818Y-49287409D01*
X65659823Y-49287414D01*
X65663204Y-49291317D01*
X65846442Y-49443444D01*
X65850894Y-49446046D01*
X65850899Y-49446049D01*
X66047607Y-49560996D01*
X66052065Y-49563601D01*
X66274552Y-49648560D01*
X66279618Y-49649591D01*
X66279619Y-49649591D01*
X66333956Y-49660646D01*
X66507928Y-49696041D01*
X66642121Y-49700962D01*
X66740760Y-49704579D01*
X66740764Y-49704579D01*
X66745924Y-49704768D01*
X66751044Y-49704112D01*
X66751046Y-49704112D01*
X66977023Y-49675164D01*
X66977024Y-49675164D01*
X66982151Y-49674507D01*
X67065200Y-49649591D01*
X67205316Y-49607554D01*
X67205317Y-49607553D01*
X67210262Y-49606070D01*
X67424133Y-49501295D01*
X67428336Y-49498297D01*
X67428341Y-49498294D01*
X67613816Y-49365996D01*
X67613818Y-49365994D01*
X67618020Y-49362997D01*
X67770637Y-49210912D01*
X67833009Y-49176996D01*
X67903816Y-49182184D01*
X67960577Y-49224830D01*
X67967009Y-49234328D01*
X68044571Y-49360896D01*
X68044574Y-49360901D01*
X68047274Y-49365306D01*
X68203204Y-49545317D01*
X68386442Y-49697444D01*
X68390894Y-49700046D01*
X68390899Y-49700049D01*
X68489333Y-49757569D01*
X68592065Y-49817601D01*
X68814552Y-49902560D01*
X68819618Y-49903591D01*
X68819619Y-49903591D01*
X68873956Y-49914646D01*
X69047928Y-49950041D01*
X69182121Y-49954962D01*
X69280760Y-49958579D01*
X69280764Y-49958579D01*
X69285924Y-49958768D01*
X69291044Y-49958112D01*
X69291046Y-49958112D01*
X69517023Y-49929164D01*
X69517024Y-49929164D01*
X69522151Y-49928507D01*
X69605200Y-49903591D01*
X69745316Y-49861554D01*
X69745317Y-49861553D01*
X69750262Y-49860070D01*
X69964133Y-49755295D01*
X69968336Y-49752297D01*
X69968341Y-49752294D01*
X70153816Y-49619996D01*
X70153818Y-49619994D01*
X70158020Y-49616997D01*
X70326716Y-49448889D01*
X70465690Y-49255486D01*
X70471204Y-49244328D01*
X70519317Y-49192123D01*
X70588018Y-49174215D01*
X70655494Y-49196293D01*
X70679398Y-49217658D01*
X70739818Y-49287409D01*
X70739823Y-49287414D01*
X70743204Y-49291317D01*
X70926442Y-49443444D01*
X70930894Y-49446046D01*
X70930899Y-49446049D01*
X71127607Y-49560996D01*
X71132065Y-49563601D01*
X71354552Y-49648560D01*
X71359618Y-49649591D01*
X71359619Y-49649591D01*
X71413956Y-49660646D01*
X71587928Y-49696041D01*
X71722121Y-49700962D01*
X71820760Y-49704579D01*
X71820764Y-49704579D01*
X71825924Y-49704768D01*
X71831044Y-49704112D01*
X71831046Y-49704112D01*
X72057023Y-49675164D01*
X72057024Y-49675164D01*
X72062151Y-49674507D01*
X72145200Y-49649591D01*
X72285316Y-49607554D01*
X72285317Y-49607553D01*
X72290262Y-49606070D01*
X72504133Y-49501295D01*
X72508336Y-49498297D01*
X72508341Y-49498294D01*
X72693816Y-49365996D01*
X72693818Y-49365994D01*
X72698020Y-49362997D01*
X72850637Y-49210912D01*
X72913009Y-49176996D01*
X72983816Y-49182184D01*
X73040577Y-49224830D01*
X73047009Y-49234328D01*
X73124571Y-49360896D01*
X73124574Y-49360901D01*
X73127274Y-49365306D01*
X73283204Y-49545317D01*
X73466442Y-49697444D01*
X73470894Y-49700046D01*
X73470899Y-49700049D01*
X73569333Y-49757569D01*
X73672065Y-49817601D01*
X73894552Y-49902560D01*
X73899618Y-49903591D01*
X73899619Y-49903591D01*
X73953956Y-49914646D01*
X74127928Y-49950041D01*
X74262121Y-49954962D01*
X74360760Y-49958579D01*
X74360764Y-49958579D01*
X74365924Y-49958768D01*
X74371044Y-49958112D01*
X74371046Y-49958112D01*
X74597023Y-49929164D01*
X74597024Y-49929164D01*
X74602151Y-49928507D01*
X74685200Y-49903591D01*
X74825316Y-49861554D01*
X74825317Y-49861553D01*
X74830262Y-49860070D01*
X75044133Y-49755295D01*
X75048336Y-49752297D01*
X75048341Y-49752294D01*
X75233816Y-49619996D01*
X75233818Y-49619994D01*
X75238020Y-49616997D01*
X75406716Y-49448889D01*
X75545690Y-49255486D01*
X75551204Y-49244328D01*
X75599317Y-49192123D01*
X75668018Y-49174215D01*
X75735494Y-49196293D01*
X75759398Y-49217658D01*
X75819818Y-49287409D01*
X75819823Y-49287414D01*
X75823204Y-49291317D01*
X76006442Y-49443444D01*
X76010894Y-49446046D01*
X76010899Y-49446049D01*
X76207607Y-49560996D01*
X76212065Y-49563601D01*
X76434552Y-49648560D01*
X76439618Y-49649591D01*
X76439619Y-49649591D01*
X76493956Y-49660646D01*
X76667928Y-49696041D01*
X76802121Y-49700962D01*
X76900760Y-49704579D01*
X76900764Y-49704579D01*
X76905924Y-49704768D01*
X76911044Y-49704112D01*
X76911046Y-49704112D01*
X77137023Y-49675164D01*
X77137024Y-49675164D01*
X77142151Y-49674507D01*
X77225200Y-49649591D01*
X77365316Y-49607554D01*
X77365317Y-49607553D01*
X77370262Y-49606070D01*
X77584133Y-49501295D01*
X77588336Y-49498297D01*
X77588341Y-49498294D01*
X77773816Y-49365996D01*
X77773818Y-49365994D01*
X77778020Y-49362997D01*
X77930637Y-49210912D01*
X77993009Y-49176996D01*
X78063816Y-49182184D01*
X78120577Y-49224830D01*
X78127009Y-49234328D01*
X78204571Y-49360896D01*
X78204574Y-49360901D01*
X78207274Y-49365306D01*
X78363204Y-49545317D01*
X78546442Y-49697444D01*
X78550894Y-49700046D01*
X78550899Y-49700049D01*
X78649333Y-49757569D01*
X78752065Y-49817601D01*
X78974552Y-49902560D01*
X78979618Y-49903591D01*
X78979619Y-49903591D01*
X79033956Y-49914646D01*
X79207928Y-49950041D01*
X79342121Y-49954962D01*
X79440760Y-49958579D01*
X79440764Y-49958579D01*
X79445924Y-49958768D01*
X79451044Y-49958112D01*
X79451046Y-49958112D01*
X79677023Y-49929164D01*
X79677024Y-49929164D01*
X79682151Y-49928507D01*
X79765200Y-49903591D01*
X79905316Y-49861554D01*
X79905317Y-49861553D01*
X79910262Y-49860070D01*
X80124133Y-49755295D01*
X80128336Y-49752297D01*
X80128341Y-49752294D01*
X80313816Y-49619996D01*
X80313818Y-49619994D01*
X80318020Y-49616997D01*
X80486716Y-49448889D01*
X80625690Y-49255486D01*
X80631204Y-49244328D01*
X80679317Y-49192123D01*
X80748018Y-49174215D01*
X80815494Y-49196293D01*
X80839398Y-49217658D01*
X80899818Y-49287409D01*
X80899823Y-49287414D01*
X80903204Y-49291317D01*
X81086442Y-49443444D01*
X81090894Y-49446046D01*
X81090899Y-49446049D01*
X81287607Y-49560996D01*
X81292065Y-49563601D01*
X81514552Y-49648560D01*
X81519618Y-49649591D01*
X81519619Y-49649591D01*
X81573956Y-49660646D01*
X81747928Y-49696041D01*
X81882121Y-49700962D01*
X81980760Y-49704579D01*
X81980764Y-49704579D01*
X81985924Y-49704768D01*
X81991044Y-49704112D01*
X81991046Y-49704112D01*
X82217023Y-49675164D01*
X82217024Y-49675164D01*
X82222151Y-49674507D01*
X82305200Y-49649591D01*
X82445316Y-49607554D01*
X82445317Y-49607553D01*
X82450262Y-49606070D01*
X82664133Y-49501295D01*
X82668336Y-49498297D01*
X82668341Y-49498294D01*
X82853816Y-49365996D01*
X82853818Y-49365994D01*
X82858020Y-49362997D01*
X83010637Y-49210912D01*
X83073009Y-49176996D01*
X83143816Y-49182184D01*
X83200577Y-49224830D01*
X83207009Y-49234328D01*
X83284571Y-49360896D01*
X83284574Y-49360901D01*
X83287274Y-49365306D01*
X83443204Y-49545317D01*
X83626442Y-49697444D01*
X83630894Y-49700046D01*
X83630899Y-49700049D01*
X83729333Y-49757569D01*
X83832065Y-49817601D01*
X84054552Y-49902560D01*
X84059618Y-49903591D01*
X84059619Y-49903591D01*
X84113956Y-49914646D01*
X84287928Y-49950041D01*
X84392758Y-49953885D01*
X84434524Y-49955417D01*
X84501866Y-49977902D01*
X84519001Y-49992236D01*
X85293149Y-50766383D01*
X85302251Y-50776527D01*
X85325968Y-50806025D01*
X85330696Y-50809992D01*
X85364421Y-50838291D01*
X85368070Y-50841473D01*
X85369883Y-50843117D01*
X85372075Y-50845309D01*
X85405276Y-50872580D01*
X85406164Y-50873318D01*
X85441437Y-50902915D01*
X85472753Y-50929193D01*
X85472756Y-50929195D01*
X85477474Y-50933154D01*
X85482147Y-50935723D01*
X85486262Y-50939103D01*
X85491691Y-50942014D01*
X85491694Y-50942016D01*
X85568180Y-50983028D01*
X85569338Y-50983657D01*
X85645388Y-51025465D01*
X85650787Y-51028433D01*
X85655865Y-51030044D01*
X85660563Y-51032563D01*
X85749498Y-51059753D01*
X85750702Y-51060128D01*
X85839306Y-51088235D01*
X85844597Y-51088828D01*
X85849698Y-51090388D01*
X85942311Y-51099795D01*
X85943431Y-51099915D01*
X85993227Y-51105500D01*
X85996756Y-51105500D01*
X85997739Y-51105555D01*
X86003426Y-51106003D01*
X86023683Y-51108060D01*
X86040336Y-51109752D01*
X86040339Y-51109752D01*
X86046463Y-51110374D01*
X86092112Y-51106059D01*
X86103969Y-51105500D01*
X240681157Y-51105500D01*
X240694764Y-51106237D01*
X240726262Y-51109659D01*
X240726267Y-51109659D01*
X240732388Y-51110324D01*
X240758638Y-51108027D01*
X240782388Y-51105950D01*
X240787214Y-51105621D01*
X240789686Y-51105500D01*
X240792769Y-51105500D01*
X240804738Y-51104326D01*
X240835506Y-51101310D01*
X240836819Y-51101188D01*
X240881084Y-51097315D01*
X240929413Y-51093087D01*
X240934532Y-51091600D01*
X240939833Y-51091080D01*
X241028834Y-51064209D01*
X241029967Y-51063874D01*
X241113414Y-51039630D01*
X241113418Y-51039628D01*
X241119336Y-51037909D01*
X241124068Y-51035456D01*
X241129169Y-51033916D01*
X241141360Y-51027434D01*
X241211260Y-50990269D01*
X241212426Y-50989657D01*
X241289453Y-50949729D01*
X241294926Y-50946892D01*
X241299089Y-50943569D01*
X241303796Y-50941066D01*
X241309997Y-50936009D01*
X241318354Y-50929193D01*
X241375918Y-50882245D01*
X241376774Y-50881554D01*
X241415973Y-50850262D01*
X241418477Y-50847758D01*
X241419195Y-50847116D01*
X241423528Y-50843415D01*
X241457062Y-50816065D01*
X241486288Y-50780737D01*
X241494277Y-50771958D01*
X243084051Y-49182184D01*
X244680829Y-47585405D01*
X244743141Y-47551379D01*
X244769924Y-47548500D01*
X245293604Y-47548500D01*
X245365874Y-47571286D01*
X245388937Y-47587435D01*
X245388940Y-47587437D01*
X245393442Y-47590589D01*
X245398423Y-47592912D01*
X245398427Y-47592914D01*
X245580108Y-47677633D01*
X245585090Y-47679956D01*
X245590398Y-47681378D01*
X245590400Y-47681379D01*
X245784030Y-47733262D01*
X245784032Y-47733262D01*
X245789345Y-47734686D01*
X246000000Y-47753116D01*
X246210655Y-47734686D01*
X246215968Y-47733262D01*
X246215970Y-47733262D01*
X246409600Y-47681379D01*
X246409602Y-47681378D01*
X246414910Y-47679956D01*
X246419892Y-47677633D01*
X246601577Y-47592912D01*
X246601580Y-47592910D01*
X246606558Y-47590589D01*
X246779776Y-47469301D01*
X246929301Y-47319776D01*
X247050589Y-47146558D01*
X247070586Y-47103676D01*
X247137633Y-46959892D01*
X247137634Y-46959891D01*
X247139956Y-46954910D01*
X247144165Y-46939204D01*
X247193262Y-46755970D01*
X247193262Y-46755968D01*
X247194686Y-46750655D01*
X247213116Y-46540000D01*
X248786884Y-46540000D01*
X248805314Y-46750655D01*
X248806738Y-46755968D01*
X248806738Y-46755970D01*
X248855836Y-46939204D01*
X248860044Y-46954910D01*
X248862366Y-46959891D01*
X248862367Y-46959892D01*
X248929415Y-47103676D01*
X248949411Y-47146558D01*
X249070699Y-47319776D01*
X249220224Y-47469301D01*
X249393442Y-47590589D01*
X249398420Y-47592910D01*
X249398423Y-47592912D01*
X249580108Y-47677633D01*
X249585090Y-47679956D01*
X249590398Y-47681378D01*
X249590400Y-47681379D01*
X249784030Y-47733262D01*
X249784032Y-47733262D01*
X249789345Y-47734686D01*
X250000000Y-47753116D01*
X250210655Y-47734686D01*
X250215968Y-47733262D01*
X250215970Y-47733262D01*
X250409600Y-47681379D01*
X250409602Y-47681378D01*
X250414910Y-47679956D01*
X250419892Y-47677633D01*
X250601577Y-47592912D01*
X250601580Y-47592910D01*
X250606558Y-47590589D01*
X250779776Y-47469301D01*
X250929301Y-47319776D01*
X251050589Y-47146558D01*
X251070586Y-47103676D01*
X251137633Y-46959892D01*
X251137634Y-46959891D01*
X251139956Y-46954910D01*
X251144165Y-46939204D01*
X251193262Y-46755970D01*
X251193262Y-46755968D01*
X251194686Y-46750655D01*
X251213116Y-46540000D01*
X251194686Y-46329345D01*
X251139956Y-46125090D01*
X251085814Y-46008982D01*
X251052912Y-45938423D01*
X251052910Y-45938420D01*
X251050589Y-45933442D01*
X250929301Y-45760224D01*
X250779776Y-45610699D01*
X250606558Y-45489411D01*
X250601580Y-45487090D01*
X250601577Y-45487088D01*
X250419892Y-45402367D01*
X250419891Y-45402366D01*
X250414910Y-45400044D01*
X250409602Y-45398622D01*
X250409600Y-45398621D01*
X250215970Y-45346738D01*
X250215968Y-45346738D01*
X250210655Y-45345314D01*
X250000000Y-45326884D01*
X249789345Y-45345314D01*
X249784032Y-45346738D01*
X249784030Y-45346738D01*
X249590400Y-45398621D01*
X249590398Y-45398622D01*
X249585090Y-45400044D01*
X249580109Y-45402366D01*
X249580108Y-45402367D01*
X249398423Y-45487088D01*
X249398420Y-45487090D01*
X249393442Y-45489411D01*
X249220224Y-45610699D01*
X249070699Y-45760224D01*
X248949411Y-45933442D01*
X248947090Y-45938420D01*
X248947088Y-45938423D01*
X248914186Y-46008982D01*
X248860044Y-46125090D01*
X248805314Y-46329345D01*
X248786884Y-46540000D01*
X247213116Y-46540000D01*
X247194686Y-46329345D01*
X247139956Y-46125090D01*
X247085814Y-46008982D01*
X247052912Y-45938423D01*
X247052910Y-45938420D01*
X247050589Y-45933442D01*
X246929301Y-45760224D01*
X246779776Y-45610699D01*
X246606558Y-45489411D01*
X246601580Y-45487090D01*
X246601577Y-45487088D01*
X246419892Y-45402367D01*
X246419891Y-45402366D01*
X246414910Y-45400044D01*
X246409602Y-45398622D01*
X246409600Y-45398621D01*
X246215970Y-45346738D01*
X246215968Y-45346738D01*
X246210655Y-45345314D01*
X246000000Y-45326884D01*
X245789345Y-45345314D01*
X245784032Y-45346738D01*
X245784030Y-45346738D01*
X245590400Y-45398621D01*
X245590398Y-45398622D01*
X245585090Y-45400044D01*
X245580109Y-45402366D01*
X245580108Y-45402367D01*
X245398427Y-45487086D01*
X245398423Y-45487088D01*
X245393442Y-45489411D01*
X245388940Y-45492563D01*
X245388937Y-45492565D01*
X245365874Y-45508714D01*
X245293604Y-45531500D01*
X244361850Y-45531500D01*
X244348242Y-45530763D01*
X244347662Y-45530700D01*
X244310612Y-45526675D01*
X244260570Y-45531053D01*
X244255788Y-45531379D01*
X244253310Y-45531500D01*
X244250231Y-45531500D01*
X244247177Y-45531799D01*
X244247166Y-45531800D01*
X244207529Y-45535687D01*
X244206215Y-45535809D01*
X244170688Y-45538917D01*
X244113587Y-45543913D01*
X244108468Y-45545400D01*
X244103167Y-45545920D01*
X244014166Y-45572791D01*
X244013033Y-45573126D01*
X243929586Y-45597370D01*
X243929582Y-45597372D01*
X243923664Y-45599091D01*
X243918932Y-45601544D01*
X243913831Y-45603084D01*
X243908388Y-45605978D01*
X243831740Y-45646731D01*
X243830574Y-45647343D01*
X243753547Y-45687271D01*
X243748074Y-45690108D01*
X243743911Y-45693431D01*
X243739204Y-45695934D01*
X243734429Y-45699828D01*
X243734428Y-45699829D01*
X243667102Y-45754739D01*
X243666075Y-45755567D01*
X243629792Y-45784531D01*
X243629787Y-45784536D01*
X243627028Y-45786738D01*
X243624527Y-45789239D01*
X243623809Y-45789881D01*
X243619461Y-45793594D01*
X243585938Y-45820935D01*
X243582015Y-45825677D01*
X243582013Y-45825679D01*
X243556703Y-45856273D01*
X243548713Y-45865053D01*
X243314493Y-46099273D01*
X243252181Y-46133299D01*
X243181366Y-46128234D01*
X243124530Y-46085687D01*
X243111203Y-46063428D01*
X243052912Y-45938423D01*
X243052910Y-45938420D01*
X243050589Y-45933442D01*
X242929301Y-45760224D01*
X242779776Y-45610699D01*
X242606558Y-45489411D01*
X242601580Y-45487090D01*
X242601577Y-45487088D01*
X242419892Y-45402367D01*
X242419891Y-45402366D01*
X242414910Y-45400044D01*
X242409602Y-45398622D01*
X242409600Y-45398621D01*
X242215970Y-45346738D01*
X242215968Y-45346738D01*
X242210655Y-45345314D01*
X242000000Y-45326884D01*
X241789345Y-45345314D01*
X241784032Y-45346738D01*
X241784030Y-45346738D01*
X241590400Y-45398621D01*
X241590398Y-45398622D01*
X241585090Y-45400044D01*
X241580109Y-45402366D01*
X241580108Y-45402367D01*
X241398423Y-45487088D01*
X241398420Y-45487090D01*
X241393442Y-45489411D01*
X241220224Y-45610699D01*
X241070699Y-45760224D01*
X240949411Y-45933442D01*
X240947090Y-45938420D01*
X240947088Y-45938423D01*
X240914186Y-46008982D01*
X240860044Y-46125090D01*
X240828616Y-46242382D01*
X240821699Y-46268195D01*
X240789087Y-46324679D01*
X239162171Y-47951595D01*
X239099859Y-47985621D01*
X239073076Y-47988500D01*
X100551532Y-47988500D01*
X100483411Y-47968498D01*
X100462437Y-47951595D01*
X98554662Y-46043821D01*
X98545560Y-46033678D01*
X98525704Y-46008982D01*
X98521839Y-46004175D01*
X98483385Y-45971908D01*
X98479738Y-45968728D01*
X98477926Y-45967085D01*
X98475732Y-45964891D01*
X98442458Y-45937558D01*
X98441660Y-45936896D01*
X98370333Y-45877046D01*
X98365663Y-45874478D01*
X98361546Y-45871097D01*
X98279721Y-45827223D01*
X98278562Y-45826594D01*
X98202426Y-45784738D01*
X98202418Y-45784735D01*
X98197020Y-45781767D01*
X98191938Y-45780155D01*
X98187244Y-45777638D01*
X98098276Y-45750438D01*
X98097248Y-45750118D01*
X98008501Y-45721965D01*
X98003205Y-45721371D01*
X97998109Y-45719813D01*
X97905550Y-45710410D01*
X97904414Y-45710289D01*
X97870799Y-45706519D01*
X97858077Y-45705092D01*
X97858073Y-45705092D01*
X97854580Y-45704700D01*
X97851053Y-45704700D01*
X97850068Y-45704645D01*
X97844388Y-45704198D01*
X97814982Y-45701211D01*
X97807470Y-45700448D01*
X97807468Y-45700448D01*
X97801345Y-45699826D01*
X97759066Y-45703823D01*
X97755698Y-45704141D01*
X97743840Y-45704700D01*
X83521643Y-45704700D01*
X83508036Y-45703963D01*
X83476538Y-45700541D01*
X83476533Y-45700541D01*
X83470412Y-45699876D01*
X83444162Y-45702173D01*
X83420412Y-45704250D01*
X83415586Y-45704579D01*
X83413114Y-45704700D01*
X83410031Y-45704700D01*
X83398062Y-45705874D01*
X83367294Y-45708890D01*
X83365981Y-45709012D01*
X83321716Y-45712885D01*
X83273387Y-45717113D01*
X83268268Y-45718600D01*
X83262967Y-45719120D01*
X83173966Y-45745991D01*
X83172833Y-45746326D01*
X83089386Y-45770570D01*
X83089382Y-45770572D01*
X83083464Y-45772291D01*
X83078732Y-45774744D01*
X83073631Y-45776284D01*
X83068188Y-45779178D01*
X82991540Y-45819931D01*
X82990374Y-45820543D01*
X82921446Y-45856273D01*
X82907874Y-45863308D01*
X82903711Y-45866631D01*
X82899004Y-45869134D01*
X82826882Y-45927955D01*
X82826026Y-45928646D01*
X82786827Y-45959938D01*
X82784323Y-45962442D01*
X82783605Y-45963084D01*
X82779272Y-45966785D01*
X82745738Y-45994135D01*
X82741811Y-45998882D01*
X82741809Y-45998884D01*
X82716513Y-46029462D01*
X82708523Y-46038242D01*
X81979527Y-46767238D01*
X81917215Y-46801264D01*
X81888894Y-46804134D01*
X81823795Y-46803339D01*
X81823793Y-46803339D01*
X81818625Y-46803276D01*
X81583209Y-46839300D01*
X81356838Y-46913289D01*
X81145590Y-47023258D01*
X81141457Y-47026361D01*
X81141454Y-47026363D01*
X80959275Y-47163147D01*
X80955140Y-47166252D01*
X80790602Y-47338431D01*
X80787688Y-47342703D01*
X80787687Y-47342704D01*
X80659559Y-47530532D01*
X80604648Y-47575535D01*
X80534123Y-47583706D01*
X80470376Y-47552452D01*
X80462287Y-47544337D01*
X80379462Y-47453313D01*
X80374602Y-47447972D01*
X80374600Y-47447970D01*
X80371124Y-47444150D01*
X80367073Y-47440951D01*
X80367069Y-47440947D01*
X80188278Y-47299747D01*
X80188273Y-47299744D01*
X80184224Y-47296546D01*
X80179708Y-47294053D01*
X80179705Y-47294051D01*
X79980250Y-47183946D01*
X79980246Y-47183944D01*
X79975726Y-47181449D01*
X79970857Y-47179725D01*
X79970853Y-47179723D01*
X79756105Y-47103676D01*
X79756101Y-47103675D01*
X79751230Y-47101950D01*
X79746140Y-47101043D01*
X79746135Y-47101042D01*
X79618814Y-47078364D01*
X79516764Y-47060186D01*
X79427637Y-47059097D01*
X79283795Y-47057339D01*
X79283793Y-47057339D01*
X79278625Y-47057276D01*
X79043209Y-47093300D01*
X78816838Y-47167289D01*
X78605590Y-47277258D01*
X78601457Y-47280361D01*
X78601454Y-47280363D01*
X78481214Y-47370642D01*
X78415140Y-47420252D01*
X78386492Y-47450231D01*
X78293502Y-47547539D01*
X78231978Y-47582969D01*
X78161065Y-47579512D01*
X78103279Y-47538266D01*
X78096616Y-47528928D01*
X78060086Y-47472460D01*
X77991406Y-47366298D01*
X77952619Y-47323671D01*
X77921349Y-47289306D01*
X77831124Y-47190150D01*
X77827073Y-47186951D01*
X77827069Y-47186947D01*
X77648278Y-47045747D01*
X77648273Y-47045744D01*
X77644224Y-47042546D01*
X77639706Y-47040052D01*
X77639700Y-47040048D01*
X77498654Y-46962187D01*
X77448683Y-46911754D01*
X77433911Y-46842311D01*
X77459027Y-46775906D01*
X77470452Y-46762783D01*
X79831029Y-44402205D01*
X79893341Y-44368180D01*
X79920124Y-44365300D01*
X100683969Y-44365300D01*
X100687025Y-44365000D01*
X100687032Y-44365000D01*
X100745540Y-44359263D01*
X100831033Y-44350880D01*
X100836934Y-44349098D01*
X100836936Y-44349098D01*
X100910253Y-44326962D01*
X101020369Y-44293716D01*
X101194996Y-44200866D01*
X101281262Y-44130509D01*
X101343487Y-44079760D01*
X101343490Y-44079757D01*
X101348262Y-44075865D01*
X101352191Y-44071116D01*
X101470401Y-43928225D01*
X101470403Y-43928221D01*
X101474330Y-43923475D01*
X101568398Y-43749501D01*
X101626882Y-43560568D01*
X101647555Y-43363875D01*
X101629630Y-43166912D01*
X101573790Y-42977181D01*
X101482160Y-42801910D01*
X101358232Y-42647775D01*
X101351921Y-42642479D01*
X101313683Y-42610394D01*
X101206726Y-42520646D01*
X101201328Y-42517679D01*
X101201323Y-42517675D01*
X101038808Y-42428333D01*
X101038809Y-42428333D01*
X101033413Y-42425367D01*
X101027546Y-42423506D01*
X101027544Y-42423505D01*
X100850764Y-42367427D01*
X100850763Y-42367427D01*
X100844894Y-42365565D01*
X100690973Y-42348300D01*
X79512050Y-42348300D01*
X79498442Y-42347563D01*
X79497862Y-42347500D01*
X79460812Y-42343475D01*
X79410770Y-42347853D01*
X79405988Y-42348179D01*
X79403510Y-42348300D01*
X79400431Y-42348300D01*
X79397377Y-42348599D01*
X79397366Y-42348600D01*
X79357729Y-42352487D01*
X79356415Y-42352609D01*
X79320888Y-42355717D01*
X79263787Y-42360713D01*
X79258668Y-42362200D01*
X79253367Y-42362720D01*
X79164366Y-42389591D01*
X79163233Y-42389926D01*
X79079786Y-42414170D01*
X79079782Y-42414172D01*
X79073864Y-42415891D01*
X79069132Y-42418344D01*
X79064031Y-42419884D01*
X79058588Y-42422778D01*
X78981940Y-42463531D01*
X78980774Y-42464143D01*
X78928411Y-42491286D01*
X78898274Y-42506908D01*
X78894111Y-42510231D01*
X78889404Y-42512734D01*
X78884629Y-42516628D01*
X78884628Y-42516629D01*
X78817302Y-42571539D01*
X78816275Y-42572367D01*
X78779992Y-42601331D01*
X78779987Y-42601336D01*
X78777228Y-42603538D01*
X78774727Y-42606039D01*
X78774009Y-42606681D01*
X78769661Y-42610394D01*
X78736138Y-42637735D01*
X78732215Y-42642477D01*
X78732213Y-42642479D01*
X78706903Y-42673073D01*
X78698913Y-42681853D01*
X74359528Y-47021238D01*
X74297216Y-47055264D01*
X74268895Y-47058134D01*
X74203795Y-47057339D01*
X74203793Y-47057339D01*
X74198625Y-47057276D01*
X73963209Y-47093300D01*
X73736838Y-47167289D01*
X73525590Y-47277258D01*
X73521457Y-47280361D01*
X73521454Y-47280363D01*
X73401214Y-47370642D01*
X73335140Y-47420252D01*
X73306492Y-47450231D01*
X73213502Y-47547539D01*
X73151978Y-47582969D01*
X73081065Y-47579512D01*
X73023279Y-47538266D01*
X73016616Y-47528928D01*
X72980086Y-47472460D01*
X72911406Y-47366298D01*
X72872619Y-47323671D01*
X72841349Y-47289306D01*
X72751124Y-47190150D01*
X72747073Y-47186951D01*
X72747069Y-47186947D01*
X72568278Y-47045747D01*
X72568273Y-47045744D01*
X72564224Y-47042546D01*
X72559706Y-47040052D01*
X72559700Y-47040048D01*
X72418654Y-46962187D01*
X72368683Y-46911754D01*
X72353911Y-46842311D01*
X72379027Y-46775906D01*
X72390452Y-46762783D01*
X78621330Y-40531905D01*
X78683642Y-40497879D01*
X78710425Y-40495000D01*
X240958351Y-40495000D01*
X241026472Y-40515002D01*
X241072965Y-40568658D01*
X241083069Y-40638932D01*
X241061564Y-40693270D01*
X240949411Y-40853442D01*
X240947090Y-40858420D01*
X240947088Y-40858423D01*
X240888580Y-40983895D01*
X240860044Y-41045090D01*
X240858622Y-41050398D01*
X240858621Y-41050400D01*
X240806738Y-41244030D01*
X240805314Y-41249345D01*
X240786884Y-41460000D01*
X240805314Y-41670655D01*
X240806738Y-41675968D01*
X240806738Y-41675970D01*
X240853933Y-41852102D01*
X240860044Y-41874910D01*
X240949411Y-42066558D01*
X241070699Y-42239776D01*
X241220224Y-42389301D01*
X241393442Y-42510589D01*
X241398420Y-42512910D01*
X241398423Y-42512912D01*
X241524975Y-42571924D01*
X241585090Y-42599956D01*
X241590398Y-42601378D01*
X241590400Y-42601379D01*
X241784030Y-42653262D01*
X241784032Y-42653262D01*
X241789345Y-42654686D01*
X242000000Y-42673116D01*
X242210655Y-42654686D01*
X242215968Y-42653262D01*
X242215970Y-42653262D01*
X242409600Y-42601379D01*
X242409602Y-42601378D01*
X242414910Y-42599956D01*
X242475025Y-42571924D01*
X242601577Y-42512912D01*
X242601580Y-42512910D01*
X242606558Y-42510589D01*
X242779776Y-42389301D01*
X242929301Y-42239776D01*
X243050589Y-42066558D01*
X243139956Y-41874910D01*
X243146068Y-41852102D01*
X243193262Y-41675970D01*
X243193262Y-41675968D01*
X243194686Y-41670655D01*
X243213116Y-41460000D01*
X243194686Y-41249345D01*
X243193262Y-41244030D01*
X243141379Y-41050400D01*
X243141378Y-41050398D01*
X243139956Y-41045090D01*
X243111420Y-40983895D01*
X243052912Y-40858423D01*
X243052910Y-40858420D01*
X243050589Y-40853442D01*
X242938436Y-40693270D01*
X242915748Y-40625996D01*
X242933033Y-40557136D01*
X242984803Y-40508552D01*
X243041649Y-40495000D01*
X244958351Y-40495000D01*
X245026472Y-40515002D01*
X245072965Y-40568658D01*
X245083069Y-40638932D01*
X245061564Y-40693270D01*
X244949411Y-40853442D01*
X244947090Y-40858420D01*
X244947088Y-40858423D01*
X244888580Y-40983895D01*
X244860044Y-41045090D01*
X244858622Y-41050398D01*
X244858621Y-41050400D01*
X244806738Y-41244030D01*
X244805314Y-41249345D01*
X244786884Y-41460000D01*
X244805314Y-41670655D01*
X244806738Y-41675968D01*
X244806738Y-41675970D01*
X244853933Y-41852102D01*
X244860044Y-41874910D01*
X244949411Y-42066558D01*
X245070699Y-42239776D01*
X245220224Y-42389301D01*
X245393442Y-42510589D01*
X245398420Y-42512910D01*
X245398423Y-42512912D01*
X245524975Y-42571924D01*
X245585090Y-42599956D01*
X245590398Y-42601378D01*
X245590400Y-42601379D01*
X245784030Y-42653262D01*
X245784032Y-42653262D01*
X245789345Y-42654686D01*
X246000000Y-42673116D01*
X246210655Y-42654686D01*
X246215968Y-42653262D01*
X246215970Y-42653262D01*
X246409600Y-42601379D01*
X246409602Y-42601378D01*
X246414910Y-42599956D01*
X246475025Y-42571924D01*
X246601573Y-42512914D01*
X246601577Y-42512912D01*
X246606558Y-42510589D01*
X246611060Y-42507437D01*
X246611063Y-42507435D01*
X246634126Y-42491286D01*
X246706396Y-42468500D01*
X247757957Y-42468500D01*
X247771564Y-42469237D01*
X247803062Y-42472659D01*
X247803067Y-42472659D01*
X247809188Y-42473324D01*
X247835438Y-42471027D01*
X247859188Y-42468950D01*
X247864014Y-42468621D01*
X247866486Y-42468500D01*
X247869569Y-42468500D01*
X247881538Y-42467326D01*
X247912306Y-42464310D01*
X247913619Y-42464188D01*
X247957884Y-42460315D01*
X248006213Y-42456087D01*
X248011332Y-42454600D01*
X248016633Y-42454080D01*
X248105634Y-42427209D01*
X248106767Y-42426874D01*
X248190214Y-42402630D01*
X248190218Y-42402628D01*
X248196136Y-42400909D01*
X248200868Y-42398456D01*
X248205969Y-42396916D01*
X248219116Y-42389926D01*
X248288060Y-42353269D01*
X248289226Y-42352657D01*
X248366253Y-42312729D01*
X248371726Y-42309892D01*
X248375889Y-42306569D01*
X248380596Y-42304066D01*
X248452718Y-42245245D01*
X248453574Y-42244554D01*
X248492773Y-42213262D01*
X248495277Y-42210758D01*
X248495995Y-42210116D01*
X248500328Y-42206415D01*
X248533862Y-42179065D01*
X248563088Y-42143737D01*
X248571077Y-42134958D01*
X248723606Y-41982429D01*
X248785918Y-41948403D01*
X248856733Y-41953468D01*
X248913569Y-41996015D01*
X248926895Y-42018272D01*
X248949411Y-42066558D01*
X249070699Y-42239776D01*
X249220224Y-42389301D01*
X249393442Y-42510589D01*
X249398420Y-42512910D01*
X249398423Y-42512912D01*
X249524975Y-42571924D01*
X249585090Y-42599956D01*
X249590398Y-42601378D01*
X249590400Y-42601379D01*
X249784030Y-42653262D01*
X249784032Y-42653262D01*
X249789345Y-42654686D01*
X250000000Y-42673116D01*
X250210655Y-42654686D01*
X250215968Y-42653262D01*
X250215970Y-42653262D01*
X250409600Y-42601379D01*
X250409602Y-42601378D01*
X250414910Y-42599956D01*
X250475025Y-42571924D01*
X250601577Y-42512912D01*
X250601580Y-42512910D01*
X250606558Y-42510589D01*
X250779776Y-42389301D01*
X250929301Y-42239776D01*
X251050589Y-42066558D01*
X251139956Y-41874910D01*
X251146068Y-41852102D01*
X251193262Y-41675970D01*
X251193262Y-41675968D01*
X251194686Y-41670655D01*
X251213116Y-41460000D01*
X251194686Y-41249345D01*
X251193262Y-41244030D01*
X251141379Y-41050400D01*
X251141378Y-41050398D01*
X251139956Y-41045090D01*
X251111420Y-40983895D01*
X251052912Y-40858423D01*
X251052910Y-40858420D01*
X251050589Y-40853442D01*
X250929301Y-40680224D01*
X250779776Y-40530699D01*
X250606558Y-40409411D01*
X250601580Y-40407090D01*
X250601577Y-40407088D01*
X250558275Y-40386896D01*
X250504990Y-40339978D01*
X250485529Y-40271701D01*
X250506071Y-40203741D01*
X250522429Y-40183606D01*
X250669129Y-40036905D01*
X250731441Y-40002880D01*
X250758225Y-40000000D01*
X255446457Y-40000000D01*
X255460064Y-40000737D01*
X255491562Y-40004159D01*
X255491567Y-40004159D01*
X255497688Y-40004824D01*
X255523938Y-40002527D01*
X255547688Y-40000450D01*
X255552514Y-40000121D01*
X255554986Y-40000000D01*
X255558069Y-40000000D01*
X255570038Y-39998826D01*
X255600806Y-39995810D01*
X255602119Y-39995688D01*
X255646384Y-39991815D01*
X255694713Y-39987587D01*
X255699832Y-39986100D01*
X255705133Y-39985580D01*
X255794134Y-39958709D01*
X255795267Y-39958374D01*
X255878714Y-39934130D01*
X255878718Y-39934128D01*
X255884636Y-39932409D01*
X255889368Y-39929956D01*
X255894469Y-39928416D01*
X255899912Y-39925522D01*
X255976560Y-39884769D01*
X255977726Y-39884157D01*
X256054753Y-39844229D01*
X256060226Y-39841392D01*
X256064389Y-39838069D01*
X256069096Y-39835566D01*
X256141218Y-39776745D01*
X256142074Y-39776054D01*
X256181273Y-39744762D01*
X256183777Y-39742258D01*
X256184495Y-39741616D01*
X256188828Y-39737915D01*
X256222362Y-39710565D01*
X256251588Y-39675237D01*
X256259577Y-39666458D01*
X260694679Y-35231355D01*
X260704822Y-35222253D01*
X260729518Y-35202397D01*
X260734325Y-35198532D01*
X260766592Y-35160078D01*
X260769772Y-35156431D01*
X260771415Y-35154619D01*
X260773609Y-35152425D01*
X260800942Y-35119151D01*
X260801648Y-35118300D01*
X260818518Y-35098196D01*
X260861454Y-35047026D01*
X260864022Y-35042356D01*
X260867403Y-35038239D01*
X260911315Y-34956342D01*
X260911924Y-34955220D01*
X260953766Y-34879111D01*
X260953768Y-34879106D01*
X260956733Y-34873713D01*
X260958344Y-34868635D01*
X260960863Y-34863937D01*
X260988053Y-34775002D01*
X260988436Y-34773772D01*
X260997688Y-34744608D01*
X261016535Y-34685194D01*
X261017128Y-34679903D01*
X261018688Y-34674802D01*
X261028095Y-34582189D01*
X261028215Y-34581069D01*
X261033800Y-34531273D01*
X261033800Y-34527744D01*
X261033855Y-34526761D01*
X261034304Y-34521056D01*
X261035623Y-34508079D01*
X261037307Y-34491500D01*
X261038052Y-34484164D01*
X261038052Y-34484161D01*
X261038674Y-34478037D01*
X261034359Y-34432388D01*
X261033800Y-34420531D01*
X261033800Y-32620040D01*
X261034537Y-32606432D01*
X261037959Y-32574936D01*
X261037959Y-32574932D01*
X261038624Y-32568811D01*
X261036363Y-32542964D01*
X261034250Y-32518809D01*
X261033921Y-32513984D01*
X261033800Y-32511513D01*
X261033800Y-32508431D01*
X261029609Y-32465689D01*
X261029487Y-32464374D01*
X261026664Y-32432113D01*
X261021387Y-32371787D01*
X261019900Y-32366668D01*
X261019380Y-32361367D01*
X260992518Y-32272394D01*
X260992162Y-32271194D01*
X260966209Y-32181863D01*
X260963755Y-32177129D01*
X260962216Y-32172031D01*
X260940636Y-32131445D01*
X260918616Y-32090031D01*
X260918002Y-32088863D01*
X260878026Y-32011741D01*
X260878025Y-32011740D01*
X260875192Y-32006274D01*
X260871869Y-32002111D01*
X260869366Y-31997404D01*
X260810545Y-31925282D01*
X260809854Y-31924426D01*
X260778562Y-31885227D01*
X260776058Y-31882723D01*
X260775416Y-31882005D01*
X260771715Y-31877672D01*
X260744365Y-31844138D01*
X260709037Y-31814912D01*
X260700258Y-31806923D01*
X258827589Y-29934254D01*
X258793563Y-29871942D01*
X258798628Y-29801127D01*
X258833712Y-29750700D01*
X258836201Y-29748935D01*
X258979173Y-29599585D01*
X259002742Y-29563084D01*
X259076747Y-29448469D01*
X259091323Y-29425894D01*
X259127490Y-29336154D01*
X259166362Y-29239699D01*
X259166363Y-29239696D01*
X259168606Y-29234130D01*
X259208233Y-29031212D01*
X259208500Y-29025753D01*
X259208500Y-28023349D01*
X259193791Y-27869183D01*
X259135590Y-27670793D01*
X259130920Y-27661725D01*
X259043670Y-27492318D01*
X259043668Y-27492315D01*
X259040924Y-27486987D01*
X258913209Y-27324399D01*
X258757053Y-27188894D01*
X258578092Y-27085362D01*
X258415794Y-27029003D01*
X258388446Y-27019506D01*
X258388444Y-27019506D01*
X258382781Y-27017539D01*
X258376846Y-27016678D01*
X258376844Y-27016678D01*
X258184109Y-26988732D01*
X258184106Y-26988732D01*
X258178169Y-26987871D01*
X257971639Y-26997431D01*
X257843463Y-27028321D01*
X257776476Y-27044465D01*
X257776474Y-27044466D01*
X257770643Y-27045871D01*
X257765185Y-27048353D01*
X257765181Y-27048354D01*
X257688115Y-27083394D01*
X257582432Y-27131445D01*
X257577542Y-27134914D01*
X257569938Y-27140308D01*
X257502803Y-27163404D01*
X257433946Y-27146600D01*
X257333288Y-27088368D01*
X257328092Y-27085362D01*
X257165794Y-27029003D01*
X257138446Y-27019506D01*
X257138444Y-27019506D01*
X257132781Y-27017539D01*
X257126846Y-27016678D01*
X257126844Y-27016678D01*
X256934109Y-26988732D01*
X256934106Y-26988732D01*
X256928169Y-26987871D01*
X256721639Y-26997431D01*
X256593463Y-27028321D01*
X256526476Y-27044465D01*
X256526474Y-27044466D01*
X256520643Y-27045871D01*
X256515185Y-27048353D01*
X256515181Y-27048354D01*
X256438115Y-27083394D01*
X256332432Y-27131445D01*
X256327542Y-27134914D01*
X256319938Y-27140308D01*
X256252803Y-27163404D01*
X256183946Y-27146600D01*
X256083288Y-27088368D01*
X256078092Y-27085362D01*
X255915794Y-27029003D01*
X255888446Y-27019506D01*
X255888444Y-27019506D01*
X255882781Y-27017539D01*
X255876846Y-27016678D01*
X255876844Y-27016678D01*
X255684109Y-26988732D01*
X255684106Y-26988732D01*
X255678169Y-26987871D01*
X255471639Y-26997431D01*
X255343463Y-27028321D01*
X255276476Y-27044465D01*
X255276474Y-27044466D01*
X255270643Y-27045871D01*
X255265185Y-27048353D01*
X255265181Y-27048354D01*
X255188115Y-27083394D01*
X255082432Y-27131445D01*
X255077542Y-27134914D01*
X255069938Y-27140308D01*
X255002803Y-27163404D01*
X254933946Y-27146600D01*
X254833288Y-27088368D01*
X254828092Y-27085362D01*
X254665794Y-27029003D01*
X254638446Y-27019506D01*
X254638444Y-27019506D01*
X254632781Y-27017539D01*
X254626846Y-27016678D01*
X254626844Y-27016678D01*
X254434109Y-26988732D01*
X254434106Y-26988732D01*
X254428169Y-26987871D01*
X254221639Y-26997431D01*
X254093463Y-27028321D01*
X254026476Y-27044465D01*
X254026474Y-27044466D01*
X254020643Y-27045871D01*
X254015185Y-27048353D01*
X254015181Y-27048354D01*
X253938115Y-27083394D01*
X253832432Y-27131445D01*
X253827542Y-27134914D01*
X253819938Y-27140308D01*
X253752803Y-27163404D01*
X253683946Y-27146600D01*
X253583288Y-27088368D01*
X253578092Y-27085362D01*
X253415794Y-27029003D01*
X253388446Y-27019506D01*
X253388444Y-27019506D01*
X253382781Y-27017539D01*
X253376846Y-27016678D01*
X253376844Y-27016678D01*
X253184109Y-26988732D01*
X253184106Y-26988732D01*
X253178169Y-26987871D01*
X252971639Y-26997431D01*
X252843463Y-27028321D01*
X252776476Y-27044465D01*
X252776474Y-27044466D01*
X252770643Y-27045871D01*
X252765185Y-27048353D01*
X252765181Y-27048354D01*
X252688115Y-27083394D01*
X252582432Y-27131445D01*
X252577542Y-27134914D01*
X252569938Y-27140308D01*
X252502803Y-27163404D01*
X252433946Y-27146600D01*
X252333288Y-27088368D01*
X252328092Y-27085362D01*
X252165794Y-27029003D01*
X252138446Y-27019506D01*
X252138444Y-27019506D01*
X252132781Y-27017539D01*
X252126846Y-27016678D01*
X252126844Y-27016678D01*
X251934109Y-26988732D01*
X251934106Y-26988732D01*
X251928169Y-26987871D01*
X251721639Y-26997431D01*
X251593463Y-27028321D01*
X251526476Y-27044465D01*
X251526474Y-27044466D01*
X251520643Y-27045871D01*
X251515185Y-27048353D01*
X251515181Y-27048354D01*
X251438115Y-27083394D01*
X251332432Y-27131445D01*
X251327542Y-27134914D01*
X251319938Y-27140308D01*
X251252803Y-27163404D01*
X251183946Y-27146600D01*
X251083288Y-27088368D01*
X251078092Y-27085362D01*
X250915794Y-27029003D01*
X250888446Y-27019506D01*
X250888444Y-27019506D01*
X250882781Y-27017539D01*
X250876846Y-27016678D01*
X250876844Y-27016678D01*
X250684109Y-26988732D01*
X250684106Y-26988732D01*
X250678169Y-26987871D01*
X250471639Y-26997431D01*
X250343463Y-27028321D01*
X250276476Y-27044465D01*
X250276474Y-27044466D01*
X250270643Y-27045871D01*
X250265185Y-27048353D01*
X250265181Y-27048354D01*
X250177175Y-27088368D01*
X250082432Y-27131445D01*
X249913799Y-27251065D01*
X249909661Y-27255388D01*
X249909656Y-27255392D01*
X249839080Y-27329117D01*
X249770827Y-27400415D01*
X249749240Y-27433848D01*
X249695488Y-27480225D01*
X249643389Y-27491500D01*
X233580231Y-27491500D01*
X233577175Y-27491800D01*
X233577168Y-27491800D01*
X233521915Y-27497218D01*
X233433167Y-27505920D01*
X233427266Y-27507702D01*
X233427264Y-27507702D01*
X233353947Y-27529838D01*
X233243831Y-27563084D01*
X233069204Y-27655934D01*
X233006889Y-27706757D01*
X232920713Y-27777040D01*
X232920710Y-27777043D01*
X232915938Y-27780935D01*
X232912011Y-27785682D01*
X232912009Y-27785684D01*
X232793799Y-27928575D01*
X232793797Y-27928579D01*
X232789870Y-27933325D01*
X232695802Y-28107299D01*
X232637318Y-28296232D01*
X232616645Y-28492925D01*
X232634570Y-28689888D01*
X232690410Y-28879619D01*
X232782040Y-29054890D01*
X232905968Y-29209025D01*
X232977420Y-29268981D01*
X233016745Y-29328088D01*
X233017871Y-29399076D01*
X232980440Y-29459404D01*
X232916335Y-29489917D01*
X232896427Y-29491500D01*
X232418631Y-29491500D01*
X232415575Y-29491800D01*
X232415568Y-29491800D01*
X232357060Y-29497537D01*
X232271567Y-29505920D01*
X232265666Y-29507702D01*
X232265664Y-29507702D01*
X232196772Y-29528502D01*
X232082231Y-29563084D01*
X231907604Y-29655934D01*
X231824644Y-29723595D01*
X231759113Y-29777040D01*
X231759110Y-29777043D01*
X231754338Y-29780935D01*
X231750411Y-29785682D01*
X231750409Y-29785684D01*
X231632199Y-29928575D01*
X231632197Y-29928579D01*
X231628270Y-29933325D01*
X231534202Y-30107299D01*
X231475718Y-30296232D01*
X231475074Y-30302357D01*
X231475074Y-30302358D01*
X231460170Y-30444167D01*
X231455045Y-30492925D01*
X231459900Y-30546273D01*
X231470235Y-30659830D01*
X231472970Y-30689888D01*
X231474708Y-30695794D01*
X231474709Y-30695798D01*
X231491722Y-30753604D01*
X231528810Y-30879619D01*
X231531663Y-30885077D01*
X231531665Y-30885081D01*
X231535074Y-30891601D01*
X231620440Y-31054890D01*
X231744368Y-31209025D01*
X231895874Y-31336154D01*
X231901272Y-31339121D01*
X231901277Y-31339125D01*
X231995790Y-31391083D01*
X232069187Y-31431433D01*
X232075054Y-31433294D01*
X232075056Y-31433295D01*
X232251836Y-31489373D01*
X232257706Y-31491235D01*
X232411627Y-31508500D01*
X248224375Y-31508500D01*
X248292496Y-31528502D01*
X248338989Y-31582158D01*
X248349093Y-31652432D01*
X248319599Y-31717012D01*
X248313470Y-31723595D01*
X244582470Y-35454595D01*
X244520158Y-35488621D01*
X244493375Y-35491500D01*
X129650558Y-35491500D01*
X129582437Y-35471498D01*
X129561463Y-35454595D01*
X127617189Y-33510321D01*
X127608087Y-33500178D01*
X127588231Y-33475482D01*
X127584366Y-33470675D01*
X127545912Y-33438408D01*
X127542265Y-33435228D01*
X127540453Y-33433585D01*
X127538259Y-33431391D01*
X127504985Y-33404058D01*
X127504187Y-33403396D01*
X127432860Y-33343546D01*
X127428190Y-33340978D01*
X127424073Y-33337597D01*
X127353391Y-33299698D01*
X127342248Y-33293723D01*
X127341089Y-33293094D01*
X127264953Y-33251238D01*
X127264945Y-33251235D01*
X127259547Y-33248267D01*
X127254465Y-33246655D01*
X127249771Y-33244138D01*
X127160803Y-33216938D01*
X127159775Y-33216618D01*
X127071028Y-33188465D01*
X127065732Y-33187871D01*
X127060636Y-33186313D01*
X126968077Y-33176910D01*
X126966941Y-33176789D01*
X126933326Y-33173019D01*
X126920604Y-33171592D01*
X126920600Y-33171592D01*
X126917107Y-33171200D01*
X126913580Y-33171200D01*
X126912595Y-33171145D01*
X126906915Y-33170698D01*
X126877509Y-33167711D01*
X126869997Y-33166948D01*
X126869995Y-33166948D01*
X126863872Y-33166326D01*
X126821593Y-33170323D01*
X126818225Y-33170641D01*
X126806367Y-33171200D01*
X113255443Y-33171200D01*
X113241836Y-33170463D01*
X113210338Y-33167041D01*
X113210333Y-33167041D01*
X113204212Y-33166376D01*
X113177962Y-33168673D01*
X113154212Y-33170750D01*
X113149386Y-33171079D01*
X113146914Y-33171200D01*
X113143831Y-33171200D01*
X113131862Y-33172374D01*
X113101094Y-33175390D01*
X113099781Y-33175512D01*
X113055516Y-33179385D01*
X113007187Y-33183613D01*
X113002068Y-33185100D01*
X112996767Y-33185620D01*
X112907766Y-33212491D01*
X112906633Y-33212826D01*
X112823186Y-33237070D01*
X112823182Y-33237072D01*
X112817264Y-33238791D01*
X112812532Y-33241244D01*
X112807431Y-33242784D01*
X112801988Y-33245678D01*
X112725340Y-33286431D01*
X112724174Y-33287043D01*
X112681081Y-33309381D01*
X112641674Y-33329808D01*
X112637511Y-33333131D01*
X112632804Y-33335634D01*
X112560682Y-33394455D01*
X112559826Y-33395146D01*
X112520627Y-33426438D01*
X112518123Y-33428942D01*
X112517405Y-33429584D01*
X112513072Y-33433285D01*
X112479538Y-33460635D01*
X112475611Y-33465382D01*
X112475609Y-33465384D01*
X112450313Y-33495962D01*
X112442323Y-33504742D01*
X111067955Y-34879111D01*
X109701871Y-36245195D01*
X109639559Y-36279221D01*
X109612776Y-36282100D01*
X100989979Y-36282100D01*
X100921858Y-36262098D01*
X100875365Y-36208442D01*
X100865261Y-36138168D01*
X100892892Y-36075787D01*
X100896501Y-36071424D01*
X100900430Y-36066675D01*
X100994498Y-35892701D01*
X101052982Y-35703768D01*
X101054966Y-35684889D01*
X101073011Y-35513204D01*
X101073011Y-35513202D01*
X101073655Y-35507075D01*
X101055730Y-35310112D01*
X101053702Y-35303219D01*
X101019850Y-35188200D01*
X100999890Y-35120381D01*
X100979964Y-35082265D01*
X100943297Y-35012129D01*
X100908260Y-34945110D01*
X100784332Y-34790975D01*
X100632826Y-34663846D01*
X100627428Y-34660879D01*
X100627423Y-34660875D01*
X100464908Y-34571533D01*
X100464909Y-34571533D01*
X100459513Y-34568567D01*
X100453646Y-34566706D01*
X100453644Y-34566705D01*
X100276864Y-34510627D01*
X100276863Y-34510627D01*
X100270994Y-34508765D01*
X100117073Y-34491500D01*
X97926509Y-34491500D01*
X97858388Y-34471498D01*
X97811895Y-34417842D01*
X97801791Y-34347568D01*
X97809641Y-34318407D01*
X97843606Y-34234130D01*
X97883233Y-34031212D01*
X97883500Y-34025753D01*
X97883500Y-33983023D01*
X97903502Y-33914902D01*
X97957158Y-33868409D01*
X98027432Y-33858305D01*
X98046339Y-33862529D01*
X98204500Y-33910884D01*
X98204502Y-33910884D01*
X98210398Y-33912687D01*
X98268251Y-33918564D01*
X98401034Y-33932052D01*
X98401039Y-33932052D01*
X98407162Y-33932674D01*
X98531225Y-33920946D01*
X98597929Y-33914641D01*
X98597931Y-33914641D01*
X98604062Y-33914061D01*
X98708604Y-33882896D01*
X98787693Y-33859319D01*
X98787695Y-33859318D01*
X98793596Y-33857559D01*
X98968546Y-33765318D01*
X99050115Y-33699265D01*
X99117457Y-33644732D01*
X99117458Y-33644731D01*
X99122247Y-33640853D01*
X99136851Y-33623324D01*
X99195824Y-33583792D01*
X99266807Y-33582419D01*
X99322750Y-33614884D01*
X99375475Y-33667609D01*
X99377852Y-33669562D01*
X99377857Y-33669566D01*
X99406827Y-33693362D01*
X99489661Y-33761403D01*
X99663963Y-33854863D01*
X99755654Y-33882896D01*
X99847200Y-33910885D01*
X99847202Y-33910885D01*
X99853098Y-33912688D01*
X99872326Y-33914641D01*
X100043735Y-33932052D01*
X100043739Y-33932052D01*
X100049863Y-33932674D01*
X100246762Y-33914062D01*
X100252657Y-33912305D01*
X100252660Y-33912304D01*
X100399901Y-33868409D01*
X100436296Y-33857559D01*
X100611247Y-33765318D01*
X100692816Y-33699265D01*
X100760158Y-33644732D01*
X100760159Y-33644731D01*
X100764948Y-33640853D01*
X100786585Y-33614884D01*
X100887606Y-33493635D01*
X100887609Y-33493630D01*
X100891547Y-33488904D01*
X100986222Y-33315259D01*
X101008510Y-33244138D01*
X101043522Y-33132414D01*
X101043523Y-33132411D01*
X101045365Y-33126532D01*
X101046460Y-33116458D01*
X101066059Y-32936037D01*
X101066059Y-32936033D01*
X101066724Y-32929912D01*
X101049487Y-32732887D01*
X101047768Y-32726970D01*
X101047767Y-32726965D01*
X101001818Y-32568811D01*
X100994309Y-32542964D01*
X100903292Y-32367374D01*
X100872752Y-32329117D01*
X100808860Y-32249081D01*
X100808857Y-32249078D01*
X100806662Y-32246328D01*
X98283929Y-29723595D01*
X98249903Y-29661283D01*
X98254968Y-29590468D01*
X98297515Y-29533632D01*
X98364035Y-29508821D01*
X98373024Y-29508500D01*
X103758575Y-29508500D01*
X103826696Y-29528502D01*
X103847670Y-29545405D01*
X105447858Y-31145592D01*
X107035375Y-32733109D01*
X107149561Y-32826902D01*
X107323863Y-32920362D01*
X107375866Y-32936261D01*
X107507100Y-32976384D01*
X107507102Y-32976384D01*
X107512998Y-32978187D01*
X107570851Y-32984064D01*
X107703634Y-32997552D01*
X107703639Y-32997552D01*
X107709762Y-32998174D01*
X107833825Y-32986446D01*
X107900529Y-32980141D01*
X107900531Y-32980141D01*
X107906662Y-32979561D01*
X108033686Y-32941694D01*
X108090293Y-32924819D01*
X108090295Y-32924818D01*
X108096196Y-32923059D01*
X108271146Y-32830818D01*
X108280816Y-32822988D01*
X108420057Y-32710232D01*
X108420058Y-32710231D01*
X108424847Y-32706353D01*
X108449685Y-32676541D01*
X108547505Y-32559135D01*
X108547508Y-32559130D01*
X108551446Y-32554404D01*
X108556353Y-32545405D01*
X108643174Y-32386164D01*
X108646121Y-32380759D01*
X108705264Y-32192031D01*
X108705930Y-32185904D01*
X108725959Y-32001536D01*
X108725959Y-32001532D01*
X108726624Y-31995411D01*
X108709387Y-31798387D01*
X108654209Y-31608463D01*
X108563192Y-31432874D01*
X108491495Y-31343061D01*
X108468759Y-31314580D01*
X108468756Y-31314577D01*
X108466561Y-31311827D01*
X104985355Y-27830621D01*
X104976253Y-27820478D01*
X104956397Y-27795782D01*
X104952532Y-27790975D01*
X104914078Y-27758708D01*
X104910431Y-27755528D01*
X104908619Y-27753885D01*
X104906425Y-27751691D01*
X104873151Y-27724358D01*
X104872353Y-27723696D01*
X104801026Y-27663846D01*
X104796356Y-27661278D01*
X104792239Y-27657897D01*
X104710414Y-27614023D01*
X104709255Y-27613394D01*
X104633119Y-27571538D01*
X104633111Y-27571535D01*
X104627713Y-27568567D01*
X104622631Y-27566955D01*
X104617937Y-27564438D01*
X104528969Y-27537238D01*
X104527941Y-27536918D01*
X104439194Y-27508765D01*
X104433898Y-27508171D01*
X104428802Y-27506613D01*
X104336243Y-27497210D01*
X104335107Y-27497089D01*
X104301492Y-27493319D01*
X104288770Y-27491892D01*
X104288766Y-27491892D01*
X104285273Y-27491500D01*
X104281746Y-27491500D01*
X104280761Y-27491445D01*
X104275081Y-27490998D01*
X104245675Y-27488011D01*
X104238163Y-27487248D01*
X104238161Y-27487248D01*
X104232038Y-27486626D01*
X104189759Y-27490623D01*
X104186391Y-27490941D01*
X104174533Y-27491500D01*
X98355719Y-27491500D01*
X98287598Y-27471498D01*
X98256633Y-27443333D01*
X98222921Y-27400415D01*
X98163209Y-27324399D01*
X98007053Y-27188894D01*
X97828092Y-27085362D01*
X97665794Y-27029003D01*
X97638446Y-27019506D01*
X97638444Y-27019506D01*
X97632781Y-27017539D01*
X97626846Y-27016678D01*
X97626844Y-27016678D01*
X97434109Y-26988732D01*
X97434106Y-26988732D01*
X97428169Y-26987871D01*
X97265325Y-26995409D01*
X97196354Y-26978578D01*
X97147429Y-26927130D01*
X97133500Y-26869544D01*
X97133500Y-26561850D01*
X97134237Y-26548242D01*
X97137660Y-26516737D01*
X97137660Y-26516733D01*
X97138325Y-26510612D01*
X97133949Y-26460589D01*
X97133619Y-26455752D01*
X97133500Y-26453314D01*
X97133500Y-26450231D01*
X97129318Y-26407580D01*
X97129196Y-26406265D01*
X97121625Y-26319723D01*
X97121625Y-26319721D01*
X97121088Y-26313587D01*
X97119599Y-26308463D01*
X97119080Y-26303167D01*
X97092211Y-26214172D01*
X97091870Y-26213022D01*
X97067628Y-26129582D01*
X97065909Y-26123664D01*
X97063456Y-26118932D01*
X97061916Y-26113831D01*
X97018269Y-26031740D01*
X97017657Y-26030574D01*
X96977729Y-25953547D01*
X96974892Y-25948074D01*
X96971569Y-25943911D01*
X96969066Y-25939204D01*
X96910261Y-25867102D01*
X96909433Y-25866075D01*
X96880469Y-25829792D01*
X96880464Y-25829787D01*
X96878262Y-25827028D01*
X96875761Y-25824527D01*
X96875119Y-25823809D01*
X96871406Y-25819461D01*
X96863642Y-25809941D01*
X96844065Y-25785938D01*
X96839323Y-25782015D01*
X96839321Y-25782013D01*
X96808727Y-25756703D01*
X96799947Y-25748713D01*
X96077655Y-25026421D01*
X96068553Y-25016278D01*
X96048697Y-24991582D01*
X96044832Y-24986775D01*
X96006378Y-24954508D01*
X96002731Y-24951328D01*
X96000919Y-24949685D01*
X95998725Y-24947491D01*
X95965451Y-24920158D01*
X95964653Y-24919496D01*
X95893326Y-24859646D01*
X95888656Y-24857078D01*
X95884539Y-24853697D01*
X95802714Y-24809823D01*
X95801555Y-24809194D01*
X95725419Y-24767338D01*
X95725411Y-24767335D01*
X95720013Y-24764367D01*
X95714931Y-24762755D01*
X95710237Y-24760238D01*
X95693084Y-24754994D01*
X95633789Y-24715949D01*
X95605015Y-24651045D01*
X95615899Y-24580887D01*
X95662985Y-24527752D01*
X95729924Y-24508500D01*
X276365500Y-24508500D01*
X276433621Y-24528502D01*
X276480114Y-24582158D01*
X276491500Y-24634500D01*
X276491500Y-74365500D01*
X276471498Y-74433621D01*
X276417842Y-74480114D01*
X276365500Y-74491500D01*
X21634500Y-74491500D01*
X21566379Y-74471498D01*
X21519886Y-74417842D01*
X21508500Y-74365500D01*
X21508500Y-57196388D01*
X43886676Y-57196388D01*
X43887213Y-57202523D01*
X43891050Y-57246388D01*
X43891379Y-57251214D01*
X43891500Y-57253686D01*
X43891500Y-57256769D01*
X43892674Y-57268738D01*
X43895690Y-57299506D01*
X43895812Y-57300819D01*
X43903913Y-57393413D01*
X43905400Y-57398532D01*
X43905920Y-57403833D01*
X43932791Y-57492834D01*
X43933126Y-57493967D01*
X43959091Y-57583336D01*
X43961544Y-57588068D01*
X43963084Y-57593169D01*
X43965978Y-57598612D01*
X44006731Y-57675260D01*
X44007343Y-57676426D01*
X44047271Y-57753453D01*
X44050108Y-57758926D01*
X44053431Y-57763089D01*
X44055934Y-57767796D01*
X44114755Y-57839918D01*
X44115446Y-57840774D01*
X44146738Y-57879973D01*
X44149242Y-57882477D01*
X44149884Y-57883195D01*
X44153585Y-57887528D01*
X44180935Y-57921062D01*
X44185682Y-57924989D01*
X44185684Y-57924991D01*
X44216262Y-57950287D01*
X44225042Y-57958277D01*
X46307116Y-60040350D01*
X48270055Y-62003289D01*
X48304081Y-62065601D01*
X48299016Y-62136416D01*
X48256469Y-62193252D01*
X48239141Y-62204147D01*
X48125590Y-62263258D01*
X48121457Y-62266361D01*
X48121454Y-62266363D01*
X47939275Y-62403147D01*
X47935140Y-62406252D01*
X47918231Y-62423946D01*
X47779269Y-62569362D01*
X47770602Y-62578431D01*
X47767688Y-62582703D01*
X47767687Y-62582704D01*
X47713139Y-62662669D01*
X47636394Y-62775172D01*
X47607832Y-62836704D01*
X47560589Y-62938482D01*
X47536122Y-62991191D01*
X47472477Y-63220685D01*
X47447170Y-63457494D01*
X47447467Y-63462646D01*
X47447467Y-63462650D01*
X47450177Y-63509644D01*
X47460879Y-63695255D01*
X47462016Y-63700301D01*
X47462017Y-63700307D01*
X47487784Y-63814640D01*
X47513237Y-63927585D01*
X47515179Y-63932367D01*
X47515180Y-63932371D01*
X47566621Y-64059055D01*
X47602837Y-64148244D01*
X47727274Y-64351306D01*
X47883204Y-64531317D01*
X48066442Y-64683444D01*
X48070894Y-64686046D01*
X48070899Y-64686049D01*
X48267607Y-64800996D01*
X48272065Y-64803601D01*
X48494552Y-64888560D01*
X48499618Y-64889591D01*
X48499619Y-64889591D01*
X48553956Y-64900646D01*
X48727928Y-64936041D01*
X48838946Y-64940112D01*
X48874525Y-64941417D01*
X48941867Y-64963902D01*
X48959002Y-64978237D01*
X49987145Y-66006379D01*
X49996247Y-66016522D01*
X50019968Y-66046025D01*
X50024696Y-66049992D01*
X50058421Y-66078291D01*
X50062069Y-66081472D01*
X50063881Y-66083115D01*
X50066075Y-66085309D01*
X50099349Y-66112642D01*
X50100147Y-66113304D01*
X50171474Y-66173154D01*
X50176144Y-66175722D01*
X50180261Y-66179103D01*
X50262120Y-66222995D01*
X50263280Y-66223624D01*
X50339389Y-66265466D01*
X50339394Y-66265468D01*
X50344787Y-66268433D01*
X50349865Y-66270044D01*
X50354563Y-66272563D01*
X50443498Y-66299753D01*
X50444702Y-66300128D01*
X50533306Y-66328235D01*
X50538597Y-66328828D01*
X50543698Y-66330388D01*
X50549830Y-66331011D01*
X50549836Y-66331012D01*
X50610338Y-66337157D01*
X50636263Y-66339790D01*
X50637450Y-66339916D01*
X50666838Y-66343213D01*
X50683730Y-66345108D01*
X50683735Y-66345108D01*
X50687227Y-66345500D01*
X50690752Y-66345500D01*
X50691737Y-66345555D01*
X50697432Y-66346003D01*
X50709342Y-66347213D01*
X50734334Y-66349752D01*
X50734339Y-66349752D01*
X50740462Y-66350374D01*
X50786108Y-66346059D01*
X50797967Y-66345500D01*
X97505757Y-66345500D01*
X97519364Y-66346237D01*
X97550862Y-66349659D01*
X97550867Y-66349659D01*
X97556988Y-66350324D01*
X97583238Y-66348027D01*
X97606988Y-66345950D01*
X97611814Y-66345621D01*
X97614286Y-66345500D01*
X97617369Y-66345500D01*
X97629338Y-66344326D01*
X97660106Y-66341310D01*
X97661419Y-66341188D01*
X97705684Y-66337315D01*
X97754013Y-66333087D01*
X97759132Y-66331600D01*
X97764433Y-66331080D01*
X97853434Y-66304209D01*
X97854567Y-66303874D01*
X97938014Y-66279630D01*
X97938018Y-66279628D01*
X97943936Y-66277909D01*
X97948668Y-66275456D01*
X97953769Y-66273916D01*
X97969662Y-66265466D01*
X98035860Y-66230269D01*
X98037026Y-66229657D01*
X98114053Y-66189729D01*
X98119526Y-66186892D01*
X98123689Y-66183569D01*
X98128396Y-66181066D01*
X98200518Y-66122245D01*
X98201374Y-66121554D01*
X98240573Y-66090262D01*
X98243077Y-66087758D01*
X98243795Y-66087116D01*
X98248128Y-66083415D01*
X98281662Y-66056065D01*
X98310884Y-66020742D01*
X98318872Y-66011963D01*
X98529784Y-65801050D01*
X98539928Y-65791948D01*
X98564618Y-65772097D01*
X98564619Y-65772096D01*
X98569425Y-65768232D01*
X98601692Y-65729778D01*
X98604872Y-65726131D01*
X98606515Y-65724319D01*
X98608709Y-65722125D01*
X98636042Y-65688851D01*
X98636748Y-65688000D01*
X98692595Y-65621444D01*
X98696554Y-65616726D01*
X98699122Y-65612056D01*
X98702503Y-65607939D01*
X98746415Y-65526042D01*
X98747024Y-65524920D01*
X98788866Y-65448811D01*
X98788868Y-65448806D01*
X98791833Y-65443413D01*
X98793444Y-65438335D01*
X98795963Y-65433637D01*
X98823153Y-65344702D01*
X98823536Y-65343472D01*
X98849771Y-65260770D01*
X98851635Y-65254894D01*
X98852228Y-65249603D01*
X98853788Y-65244502D01*
X98863195Y-65151889D01*
X98863315Y-65150769D01*
X98868900Y-65100973D01*
X98868900Y-65097444D01*
X98868955Y-65096461D01*
X98869404Y-65090756D01*
X98873152Y-65053864D01*
X98873152Y-65053861D01*
X98873774Y-65047737D01*
X98869459Y-65002088D01*
X98868900Y-64990231D01*
X98868900Y-60040350D01*
X98869637Y-60026742D01*
X98873059Y-59995239D01*
X98873725Y-59989112D01*
X98869347Y-59939070D01*
X98869021Y-59934288D01*
X98868900Y-59931810D01*
X98868900Y-59928731D01*
X98868601Y-59925677D01*
X98868600Y-59925666D01*
X98864713Y-59886029D01*
X98864591Y-59884715D01*
X98857023Y-59798218D01*
X98856487Y-59792087D01*
X98855000Y-59786968D01*
X98854480Y-59781667D01*
X98827609Y-59692666D01*
X98827274Y-59691533D01*
X98803030Y-59608086D01*
X98803028Y-59608082D01*
X98801309Y-59602164D01*
X98798856Y-59597432D01*
X98797316Y-59592331D01*
X98753669Y-59510240D01*
X98753057Y-59509074D01*
X98713129Y-59432047D01*
X98710292Y-59426574D01*
X98706969Y-59422411D01*
X98704466Y-59417704D01*
X98645661Y-59345602D01*
X98644833Y-59344575D01*
X98615869Y-59308292D01*
X98615864Y-59308287D01*
X98613662Y-59305528D01*
X98611161Y-59303027D01*
X98610519Y-59302309D01*
X98606806Y-59297961D01*
X98599042Y-59288441D01*
X98579465Y-59264438D01*
X98574723Y-59260515D01*
X98574721Y-59260513D01*
X98544127Y-59235203D01*
X98535347Y-59227213D01*
X98110525Y-58802391D01*
X97996339Y-58708597D01*
X97822037Y-58615138D01*
X97713381Y-58581918D01*
X97638800Y-58559116D01*
X97638798Y-58559116D01*
X97632902Y-58557313D01*
X97575049Y-58551436D01*
X97442266Y-58537948D01*
X97442261Y-58537948D01*
X97436138Y-58537326D01*
X97312075Y-58549054D01*
X97245371Y-58555359D01*
X97245369Y-58555359D01*
X97239238Y-58555939D01*
X97144471Y-58584190D01*
X97055607Y-58610681D01*
X97055605Y-58610682D01*
X97049704Y-58612441D01*
X96874754Y-58704682D01*
X96721053Y-58829147D01*
X96594454Y-58981096D01*
X96499778Y-59154741D01*
X96497935Y-59160623D01*
X96452525Y-59305528D01*
X96440635Y-59343468D01*
X96439970Y-59349591D01*
X96439969Y-59349595D01*
X96422645Y-59509074D01*
X96419276Y-59540088D01*
X96436513Y-59737113D01*
X96438232Y-59743030D01*
X96438233Y-59743035D01*
X96471558Y-59857739D01*
X96491691Y-59927036D01*
X96582708Y-60102626D01*
X96586548Y-60107436D01*
X96677142Y-60220923D01*
X96677149Y-60220930D01*
X96679338Y-60223673D01*
X96814995Y-60359330D01*
X96849021Y-60421642D01*
X96851900Y-60448425D01*
X96851900Y-62232546D01*
X96831898Y-62300667D01*
X96778242Y-62347160D01*
X96765048Y-62352310D01*
X96596838Y-62407289D01*
X96385590Y-62517258D01*
X96381457Y-62520361D01*
X96381454Y-62520363D01*
X96199275Y-62657147D01*
X96195140Y-62660252D01*
X96191568Y-62663990D01*
X96042090Y-62820410D01*
X96030602Y-62832431D01*
X95896394Y-63029172D01*
X95796122Y-63245191D01*
X95732477Y-63474685D01*
X95731928Y-63479819D01*
X95731928Y-63479821D01*
X95726449Y-63531089D01*
X95707170Y-63711494D01*
X95707467Y-63716646D01*
X95707467Y-63716650D01*
X95713502Y-63821313D01*
X95720879Y-63949255D01*
X95722016Y-63954301D01*
X95722017Y-63954307D01*
X95753700Y-64094892D01*
X95764645Y-64143457D01*
X95771708Y-64174799D01*
X95767172Y-64245651D01*
X95725050Y-64302802D01*
X95658717Y-64328108D01*
X95648791Y-64328500D01*
X93587047Y-64328500D01*
X93518926Y-64308498D01*
X93472433Y-64254842D01*
X93462329Y-64184568D01*
X93466488Y-64165872D01*
X93498941Y-64059055D01*
X93498941Y-64059054D01*
X93500443Y-64054111D01*
X93517101Y-63927585D01*
X93531092Y-63821313D01*
X93531092Y-63821309D01*
X93531529Y-63817992D01*
X93533264Y-63747000D01*
X93513750Y-63509644D01*
X93455731Y-63278663D01*
X93360767Y-63060259D01*
X93334101Y-63019040D01*
X93313894Y-62950980D01*
X93333690Y-62882800D01*
X93387205Y-62836145D01*
X93439893Y-62824600D01*
X93908057Y-62824600D01*
X93921664Y-62825337D01*
X93953162Y-62828759D01*
X93953167Y-62828759D01*
X93959288Y-62829424D01*
X93985538Y-62827127D01*
X94009288Y-62825050D01*
X94014114Y-62824721D01*
X94016586Y-62824600D01*
X94019669Y-62824600D01*
X94036303Y-62822969D01*
X94062406Y-62820410D01*
X94063719Y-62820288D01*
X94107984Y-62816415D01*
X94156313Y-62812187D01*
X94161432Y-62810700D01*
X94166733Y-62810180D01*
X94255734Y-62783309D01*
X94256867Y-62782974D01*
X94340314Y-62758730D01*
X94340318Y-62758728D01*
X94346236Y-62757009D01*
X94350968Y-62754556D01*
X94356069Y-62753016D01*
X94361512Y-62750122D01*
X94438160Y-62709369D01*
X94439326Y-62708757D01*
X94516353Y-62668829D01*
X94521826Y-62665992D01*
X94525989Y-62662669D01*
X94530696Y-62660166D01*
X94602818Y-62601345D01*
X94603674Y-62600654D01*
X94642873Y-62569362D01*
X94645377Y-62566858D01*
X94646095Y-62566216D01*
X94650428Y-62562515D01*
X94683962Y-62535165D01*
X94713191Y-62499833D01*
X94721172Y-62491063D01*
X95622983Y-61589251D01*
X95633127Y-61580149D01*
X95657818Y-61560297D01*
X95662625Y-61556432D01*
X95694892Y-61517978D01*
X95698072Y-61514331D01*
X95699715Y-61512519D01*
X95701909Y-61510325D01*
X95729242Y-61477051D01*
X95729948Y-61476200D01*
X95785795Y-61409644D01*
X95789754Y-61404926D01*
X95792322Y-61400256D01*
X95795703Y-61396139D01*
X95839577Y-61314314D01*
X95840206Y-61313155D01*
X95882062Y-61237019D01*
X95882065Y-61237011D01*
X95885033Y-61231613D01*
X95886645Y-61226531D01*
X95889162Y-61221837D01*
X95916347Y-61132923D01*
X95916739Y-61131665D01*
X95942972Y-61048967D01*
X95944835Y-61043094D01*
X95945429Y-61037803D01*
X95946988Y-61032702D01*
X95956390Y-60940137D01*
X95956525Y-60938870D01*
X95958291Y-60923134D01*
X95962100Y-60889173D01*
X95962100Y-60885648D01*
X95962155Y-60884663D01*
X95962604Y-60878959D01*
X95962706Y-60877961D01*
X95963813Y-60867058D01*
X95966352Y-60842066D01*
X95966352Y-60842061D01*
X95966974Y-60835938D01*
X95962659Y-60790291D01*
X95962100Y-60778433D01*
X95962100Y-60651031D01*
X95947680Y-60503967D01*
X95890516Y-60314631D01*
X95797666Y-60140004D01*
X95716390Y-60040350D01*
X95676560Y-59991513D01*
X95676557Y-59991510D01*
X95672665Y-59986738D01*
X95667916Y-59982809D01*
X95525025Y-59864599D01*
X95525021Y-59864597D01*
X95520275Y-59860670D01*
X95346301Y-59766602D01*
X95157368Y-59708118D01*
X95151243Y-59707474D01*
X95151242Y-59707474D01*
X94966804Y-59688089D01*
X94966802Y-59688089D01*
X94960675Y-59687445D01*
X94763712Y-59705370D01*
X94763472Y-59702738D01*
X94704221Y-59696952D01*
X94648508Y-59652946D01*
X94625300Y-59580078D01*
X94625300Y-58822066D01*
X94618545Y-58759884D01*
X94567415Y-58623495D01*
X94480061Y-58506939D01*
X94363505Y-58419585D01*
X94227116Y-58368455D01*
X94193075Y-58364757D01*
X94168316Y-58362067D01*
X94168309Y-58362067D01*
X94164934Y-58361700D01*
X94161539Y-58361700D01*
X94160837Y-58361662D01*
X94093899Y-58338003D01*
X94050378Y-58281909D01*
X94044093Y-58211191D01*
X94065334Y-58162321D01*
X94092939Y-58123905D01*
X94168690Y-58018486D01*
X94198448Y-57958277D01*
X94271917Y-57809624D01*
X94271918Y-57809622D01*
X94274211Y-57804982D01*
X94343443Y-57577111D01*
X94366285Y-57403609D01*
X94374092Y-57344313D01*
X94374092Y-57344309D01*
X94374529Y-57340992D01*
X94376264Y-57270000D01*
X94356750Y-57032644D01*
X94298731Y-56801663D01*
X94203767Y-56583259D01*
X94186694Y-56556867D01*
X94077216Y-56387642D01*
X94074406Y-56383298D01*
X93914124Y-56207150D01*
X93894985Y-56192035D01*
X93853923Y-56134117D01*
X93850693Y-56063194D01*
X93886319Y-56001783D01*
X93912335Y-55983697D01*
X93912049Y-55983217D01*
X93916492Y-55980569D01*
X93921133Y-55978295D01*
X93925336Y-55975297D01*
X93925341Y-55975294D01*
X94110816Y-55842996D01*
X94110818Y-55842994D01*
X94115020Y-55839997D01*
X94283716Y-55671889D01*
X94422690Y-55478486D01*
X94468774Y-55385244D01*
X94525917Y-55269624D01*
X94525918Y-55269622D01*
X94528211Y-55264982D01*
X94597443Y-55037111D01*
X94628529Y-54800992D01*
X94630264Y-54730000D01*
X94610750Y-54492644D01*
X94552731Y-54261663D01*
X94457767Y-54043259D01*
X94440694Y-54016867D01*
X94331216Y-53847642D01*
X94328406Y-53843298D01*
X94168124Y-53667150D01*
X94164073Y-53663951D01*
X94164069Y-53663947D01*
X93985278Y-53522747D01*
X93985273Y-53522744D01*
X93981224Y-53519546D01*
X93976708Y-53517053D01*
X93976705Y-53517051D01*
X93777250Y-53406946D01*
X93777246Y-53406944D01*
X93772726Y-53404449D01*
X93767857Y-53402725D01*
X93767853Y-53402723D01*
X93553105Y-53326676D01*
X93553101Y-53326675D01*
X93548230Y-53324950D01*
X93543140Y-53324043D01*
X93543135Y-53324042D01*
X93415814Y-53301364D01*
X93313764Y-53283186D01*
X93224637Y-53282097D01*
X93080795Y-53280339D01*
X93080793Y-53280339D01*
X93075625Y-53280276D01*
X92840209Y-53316300D01*
X92613838Y-53390289D01*
X92402590Y-53500258D01*
X92398457Y-53503361D01*
X92398454Y-53503363D01*
X92372637Y-53522747D01*
X92212140Y-53643252D01*
X92047602Y-53815431D01*
X91913394Y-54012172D01*
X91813122Y-54228191D01*
X91749477Y-54457685D01*
X91748928Y-54462819D01*
X91748928Y-54462821D01*
X91743449Y-54514089D01*
X91724170Y-54694494D01*
X91724467Y-54699646D01*
X91724467Y-54699650D01*
X91730502Y-54804313D01*
X91737879Y-54932255D01*
X91739016Y-54937301D01*
X91739017Y-54937307D01*
X91772111Y-55084156D01*
X91790237Y-55164585D01*
X91792179Y-55169367D01*
X91792180Y-55169371D01*
X91877893Y-55380457D01*
X91879837Y-55385244D01*
X92004274Y-55588306D01*
X92160204Y-55768317D01*
X92211137Y-55810602D01*
X92250772Y-55869504D01*
X92252270Y-55940485D01*
X92215156Y-56001008D01*
X92188834Y-56019308D01*
X92148590Y-56040258D01*
X92144457Y-56043361D01*
X92144454Y-56043363D01*
X91962275Y-56180147D01*
X91958140Y-56183252D01*
X91793602Y-56355431D01*
X91659394Y-56552172D01*
X91559122Y-56768191D01*
X91495477Y-56997685D01*
X91494928Y-57002819D01*
X91494928Y-57002821D01*
X91489449Y-57054089D01*
X91470170Y-57234494D01*
X91470467Y-57239646D01*
X91470467Y-57239650D01*
X91479263Y-57392199D01*
X91483879Y-57472255D01*
X91485016Y-57477301D01*
X91485017Y-57477307D01*
X91512355Y-57598612D01*
X91536237Y-57704585D01*
X91538179Y-57709367D01*
X91538180Y-57709371D01*
X91610531Y-57887550D01*
X91625837Y-57925244D01*
X91750274Y-58128306D01*
X91753655Y-58132209D01*
X91906204Y-58308317D01*
X91905305Y-58309095D01*
X91937192Y-58366069D01*
X91932865Y-58436934D01*
X91889922Y-58494961D01*
X91873939Y-58506939D01*
X91786585Y-58623495D01*
X91735455Y-58759884D01*
X91728700Y-58822066D01*
X91728700Y-60681600D01*
X91708698Y-60749721D01*
X91655042Y-60796214D01*
X91602700Y-60807600D01*
X81118750Y-60807600D01*
X81105142Y-60806863D01*
X81104562Y-60806800D01*
X81067512Y-60802775D01*
X81017470Y-60807153D01*
X81012688Y-60807479D01*
X81010210Y-60807600D01*
X81007131Y-60807600D01*
X81004077Y-60807899D01*
X81004066Y-60807900D01*
X80964429Y-60811787D01*
X80963115Y-60811909D01*
X80927588Y-60815017D01*
X80870487Y-60820013D01*
X80865368Y-60821500D01*
X80860067Y-60822020D01*
X80771066Y-60848891D01*
X80769933Y-60849226D01*
X80686486Y-60873470D01*
X80686482Y-60873472D01*
X80680564Y-60875191D01*
X80675832Y-60877644D01*
X80670731Y-60879184D01*
X80665288Y-60882078D01*
X80588640Y-60922831D01*
X80587474Y-60923443D01*
X80510447Y-60963371D01*
X80504974Y-60966208D01*
X80500811Y-60969531D01*
X80496104Y-60972034D01*
X80491329Y-60975928D01*
X80491328Y-60975929D01*
X80424002Y-61030839D01*
X80422975Y-61031667D01*
X80386692Y-61060631D01*
X80386687Y-61060636D01*
X80383928Y-61062838D01*
X80381427Y-61065339D01*
X80380709Y-61065981D01*
X80376361Y-61069694D01*
X80342838Y-61097035D01*
X80338915Y-61101777D01*
X80338913Y-61101779D01*
X80313603Y-61132373D01*
X80305613Y-61141153D01*
X79439528Y-62007238D01*
X79377216Y-62041264D01*
X79348895Y-62044134D01*
X79283795Y-62043339D01*
X79283793Y-62043339D01*
X79278625Y-62043276D01*
X79043209Y-62079300D01*
X78816838Y-62153289D01*
X78605590Y-62263258D01*
X78601457Y-62266361D01*
X78601454Y-62266363D01*
X78419275Y-62403147D01*
X78415140Y-62406252D01*
X78398231Y-62423946D01*
X78259269Y-62569362D01*
X78250602Y-62578431D01*
X78247688Y-62582703D01*
X78247687Y-62582704D01*
X78119559Y-62770532D01*
X78064648Y-62815535D01*
X77994123Y-62823706D01*
X77930376Y-62792452D01*
X77922287Y-62784337D01*
X77831124Y-62684150D01*
X77827073Y-62680951D01*
X77827069Y-62680947D01*
X77648278Y-62539747D01*
X77648273Y-62539744D01*
X77644224Y-62536546D01*
X77639708Y-62534053D01*
X77639705Y-62534051D01*
X77440250Y-62423946D01*
X77440246Y-62423944D01*
X77435726Y-62421449D01*
X77430857Y-62419725D01*
X77430853Y-62419723D01*
X77216105Y-62343676D01*
X77216101Y-62343675D01*
X77211230Y-62341950D01*
X77206140Y-62341043D01*
X77206135Y-62341042D01*
X77078814Y-62318364D01*
X76976764Y-62300186D01*
X76887637Y-62299097D01*
X76743795Y-62297339D01*
X76743793Y-62297339D01*
X76738625Y-62297276D01*
X76503209Y-62333300D01*
X76276838Y-62407289D01*
X76065590Y-62517258D01*
X76061457Y-62520361D01*
X76061454Y-62520363D01*
X75879275Y-62657147D01*
X75875140Y-62660252D01*
X75757711Y-62783135D01*
X75753502Y-62787539D01*
X75691978Y-62822969D01*
X75621065Y-62819512D01*
X75563279Y-62778266D01*
X75556616Y-62768928D01*
X75548906Y-62757009D01*
X75451406Y-62606298D01*
X75446190Y-62600565D01*
X75368212Y-62514869D01*
X75291124Y-62430150D01*
X75287073Y-62426951D01*
X75287069Y-62426947D01*
X75108278Y-62285747D01*
X75108273Y-62285744D01*
X75104224Y-62282546D01*
X75099708Y-62280053D01*
X75099705Y-62280051D01*
X74900250Y-62169946D01*
X74900246Y-62169944D01*
X74895726Y-62167449D01*
X74890857Y-62165725D01*
X74890853Y-62165723D01*
X74676105Y-62089676D01*
X74676101Y-62089675D01*
X74671230Y-62087950D01*
X74666140Y-62087043D01*
X74666135Y-62087042D01*
X74538814Y-62064364D01*
X74436764Y-62046186D01*
X74347637Y-62045097D01*
X74203795Y-62043339D01*
X74203793Y-62043339D01*
X74198625Y-62043276D01*
X73963209Y-62079300D01*
X73736838Y-62153289D01*
X73525590Y-62263258D01*
X73521457Y-62266361D01*
X73521454Y-62266363D01*
X73339275Y-62403147D01*
X73335140Y-62406252D01*
X73318231Y-62423946D01*
X73179269Y-62569362D01*
X73170602Y-62578431D01*
X73167688Y-62582703D01*
X73167687Y-62582704D01*
X73039559Y-62770532D01*
X72984648Y-62815535D01*
X72914123Y-62823706D01*
X72850376Y-62792452D01*
X72842287Y-62784337D01*
X72751124Y-62684150D01*
X72747073Y-62680951D01*
X72747069Y-62680947D01*
X72568278Y-62539747D01*
X72568273Y-62539744D01*
X72564224Y-62536546D01*
X72559708Y-62534053D01*
X72559705Y-62534051D01*
X72360250Y-62423946D01*
X72360246Y-62423944D01*
X72355726Y-62421449D01*
X72350857Y-62419725D01*
X72350853Y-62419723D01*
X72136105Y-62343676D01*
X72136101Y-62343675D01*
X72131230Y-62341950D01*
X72126140Y-62341043D01*
X72126135Y-62341042D01*
X71998814Y-62318364D01*
X71896764Y-62300186D01*
X71807637Y-62299097D01*
X71663795Y-62297339D01*
X71663793Y-62297339D01*
X71658625Y-62297276D01*
X71423209Y-62333300D01*
X71196838Y-62407289D01*
X70985590Y-62517258D01*
X70981457Y-62520361D01*
X70981454Y-62520363D01*
X70799275Y-62657147D01*
X70795140Y-62660252D01*
X70677711Y-62783135D01*
X70673502Y-62787539D01*
X70611978Y-62822969D01*
X70541065Y-62819512D01*
X70483279Y-62778266D01*
X70476616Y-62768928D01*
X70468906Y-62757009D01*
X70371406Y-62606298D01*
X70366190Y-62600565D01*
X70288212Y-62514869D01*
X70211124Y-62430150D01*
X70207073Y-62426951D01*
X70207069Y-62426947D01*
X70028278Y-62285747D01*
X70028273Y-62285744D01*
X70024224Y-62282546D01*
X70019708Y-62280053D01*
X70019705Y-62280051D01*
X69820250Y-62169946D01*
X69820246Y-62169944D01*
X69815726Y-62167449D01*
X69810857Y-62165725D01*
X69810853Y-62165723D01*
X69596105Y-62089676D01*
X69596101Y-62089675D01*
X69591230Y-62087950D01*
X69586140Y-62087043D01*
X69586135Y-62087042D01*
X69458814Y-62064364D01*
X69356764Y-62046186D01*
X69267637Y-62045097D01*
X69123795Y-62043339D01*
X69123793Y-62043339D01*
X69118625Y-62043276D01*
X68883209Y-62079300D01*
X68656838Y-62153289D01*
X68445590Y-62263258D01*
X68441457Y-62266361D01*
X68441454Y-62266363D01*
X68259275Y-62403147D01*
X68255140Y-62406252D01*
X68238231Y-62423946D01*
X68099269Y-62569362D01*
X68090602Y-62578431D01*
X68087688Y-62582703D01*
X68087687Y-62582704D01*
X67959559Y-62770532D01*
X67904648Y-62815535D01*
X67834123Y-62823706D01*
X67770376Y-62792452D01*
X67762287Y-62784337D01*
X67671124Y-62684150D01*
X67667073Y-62680951D01*
X67667069Y-62680947D01*
X67488278Y-62539747D01*
X67488273Y-62539744D01*
X67484224Y-62536546D01*
X67479708Y-62534053D01*
X67479705Y-62534051D01*
X67280250Y-62423946D01*
X67280246Y-62423944D01*
X67275726Y-62421449D01*
X67270857Y-62419725D01*
X67270853Y-62419723D01*
X67056105Y-62343676D01*
X67056101Y-62343675D01*
X67051230Y-62341950D01*
X67046140Y-62341043D01*
X67046135Y-62341042D01*
X66918814Y-62318364D01*
X66816764Y-62300186D01*
X66727637Y-62299097D01*
X66583795Y-62297339D01*
X66583793Y-62297339D01*
X66578625Y-62297276D01*
X66343209Y-62333300D01*
X66116838Y-62407289D01*
X65905590Y-62517258D01*
X65901457Y-62520361D01*
X65901454Y-62520363D01*
X65719275Y-62657147D01*
X65715140Y-62660252D01*
X65597711Y-62783135D01*
X65593502Y-62787539D01*
X65531978Y-62822969D01*
X65461065Y-62819512D01*
X65403279Y-62778266D01*
X65396616Y-62768928D01*
X65388906Y-62757009D01*
X65291406Y-62606298D01*
X65286190Y-62600565D01*
X65208212Y-62514869D01*
X65131124Y-62430150D01*
X65127073Y-62426951D01*
X65127069Y-62426947D01*
X64948278Y-62285747D01*
X64948273Y-62285744D01*
X64944224Y-62282546D01*
X64939708Y-62280053D01*
X64939705Y-62280051D01*
X64740250Y-62169946D01*
X64740246Y-62169944D01*
X64735726Y-62167449D01*
X64730857Y-62165725D01*
X64730853Y-62165723D01*
X64516105Y-62089676D01*
X64516101Y-62089675D01*
X64511230Y-62087950D01*
X64506140Y-62087043D01*
X64506135Y-62087042D01*
X64378814Y-62064364D01*
X64276764Y-62046186D01*
X64187637Y-62045097D01*
X64043795Y-62043339D01*
X64043793Y-62043339D01*
X64038625Y-62043276D01*
X63803209Y-62079300D01*
X63576838Y-62153289D01*
X63365590Y-62263258D01*
X63361457Y-62266361D01*
X63361454Y-62266363D01*
X63179275Y-62403147D01*
X63175140Y-62406252D01*
X63158231Y-62423946D01*
X63019269Y-62569362D01*
X63010602Y-62578431D01*
X63007688Y-62582703D01*
X63007687Y-62582704D01*
X62879559Y-62770532D01*
X62824648Y-62815535D01*
X62754123Y-62823706D01*
X62690376Y-62792452D01*
X62682287Y-62784337D01*
X62591124Y-62684150D01*
X62587073Y-62680951D01*
X62587069Y-62680947D01*
X62408278Y-62539747D01*
X62408273Y-62539744D01*
X62404224Y-62536546D01*
X62399708Y-62534053D01*
X62399705Y-62534051D01*
X62200250Y-62423946D01*
X62200246Y-62423944D01*
X62195726Y-62421449D01*
X62190857Y-62419725D01*
X62190853Y-62419723D01*
X61976105Y-62343676D01*
X61976101Y-62343675D01*
X61971230Y-62341950D01*
X61966140Y-62341043D01*
X61966135Y-62341042D01*
X61838814Y-62318364D01*
X61736764Y-62300186D01*
X61647637Y-62299097D01*
X61503795Y-62297339D01*
X61503793Y-62297339D01*
X61498625Y-62297276D01*
X61263209Y-62333300D01*
X61036838Y-62407289D01*
X60825590Y-62517258D01*
X60821457Y-62520361D01*
X60821454Y-62520363D01*
X60639275Y-62657147D01*
X60635140Y-62660252D01*
X60517711Y-62783135D01*
X60513502Y-62787539D01*
X60451978Y-62822969D01*
X60381065Y-62819512D01*
X60323279Y-62778266D01*
X60316616Y-62768928D01*
X60308906Y-62757009D01*
X60211406Y-62606298D01*
X60206190Y-62600565D01*
X60128212Y-62514869D01*
X60051124Y-62430150D01*
X60047073Y-62426951D01*
X60047069Y-62426947D01*
X59868278Y-62285747D01*
X59868273Y-62285744D01*
X59864224Y-62282546D01*
X59859708Y-62280053D01*
X59859705Y-62280051D01*
X59660250Y-62169946D01*
X59660246Y-62169944D01*
X59655726Y-62167449D01*
X59650857Y-62165725D01*
X59650853Y-62165723D01*
X59436105Y-62089676D01*
X59436101Y-62089675D01*
X59431230Y-62087950D01*
X59426140Y-62087043D01*
X59426135Y-62087042D01*
X59298814Y-62064364D01*
X59196764Y-62046186D01*
X59107637Y-62045097D01*
X58963795Y-62043339D01*
X58963793Y-62043339D01*
X58958625Y-62043276D01*
X58723209Y-62079300D01*
X58496838Y-62153289D01*
X58285590Y-62263258D01*
X58281457Y-62266361D01*
X58281454Y-62266363D01*
X58099275Y-62403147D01*
X58095140Y-62406252D01*
X58078231Y-62423946D01*
X57939269Y-62569362D01*
X57930602Y-62578431D01*
X57927688Y-62582703D01*
X57927687Y-62582704D01*
X57799559Y-62770532D01*
X57744648Y-62815535D01*
X57674123Y-62823706D01*
X57610376Y-62792452D01*
X57602287Y-62784337D01*
X57511124Y-62684150D01*
X57507073Y-62680951D01*
X57507069Y-62680947D01*
X57328278Y-62539747D01*
X57328273Y-62539744D01*
X57324224Y-62536546D01*
X57319708Y-62534053D01*
X57319705Y-62534051D01*
X57120250Y-62423946D01*
X57120246Y-62423944D01*
X57115726Y-62421449D01*
X57110857Y-62419725D01*
X57110853Y-62419723D01*
X56896105Y-62343676D01*
X56896101Y-62343675D01*
X56891230Y-62341950D01*
X56886140Y-62341043D01*
X56886135Y-62341042D01*
X56758814Y-62318364D01*
X56656764Y-62300186D01*
X56567637Y-62299097D01*
X56423795Y-62297339D01*
X56423793Y-62297339D01*
X56418625Y-62297276D01*
X56183209Y-62333300D01*
X55956838Y-62407289D01*
X55745590Y-62517258D01*
X55741457Y-62520361D01*
X55741454Y-62520363D01*
X55559275Y-62657147D01*
X55555140Y-62660252D01*
X55437711Y-62783135D01*
X55433502Y-62787539D01*
X55371978Y-62822969D01*
X55301065Y-62819512D01*
X55243279Y-62778266D01*
X55236616Y-62768928D01*
X55228906Y-62757009D01*
X55131406Y-62606298D01*
X55126190Y-62600565D01*
X55048212Y-62514869D01*
X54971124Y-62430150D01*
X54967073Y-62426951D01*
X54967069Y-62426947D01*
X54788278Y-62285747D01*
X54788273Y-62285744D01*
X54784224Y-62282546D01*
X54779708Y-62280053D01*
X54779705Y-62280051D01*
X54580250Y-62169946D01*
X54580246Y-62169944D01*
X54575726Y-62167449D01*
X54570857Y-62165725D01*
X54570853Y-62165723D01*
X54356105Y-62089676D01*
X54356101Y-62089675D01*
X54351230Y-62087950D01*
X54346140Y-62087043D01*
X54346135Y-62087042D01*
X54218814Y-62064364D01*
X54116764Y-62046186D01*
X54027637Y-62045097D01*
X53883795Y-62043339D01*
X53883793Y-62043339D01*
X53878625Y-62043276D01*
X53643209Y-62079300D01*
X53416838Y-62153289D01*
X53205590Y-62263258D01*
X53201457Y-62266361D01*
X53201454Y-62266363D01*
X53019275Y-62403147D01*
X53015140Y-62406252D01*
X52998231Y-62423946D01*
X52859269Y-62569362D01*
X52850602Y-62578431D01*
X52847688Y-62582703D01*
X52847687Y-62582704D01*
X52719559Y-62770532D01*
X52664648Y-62815535D01*
X52594123Y-62823706D01*
X52530376Y-62792452D01*
X52522287Y-62784337D01*
X52431124Y-62684150D01*
X52427073Y-62680951D01*
X52427069Y-62680947D01*
X52248278Y-62539747D01*
X52248273Y-62539744D01*
X52244224Y-62536546D01*
X52239708Y-62534053D01*
X52239705Y-62534051D01*
X52040250Y-62423946D01*
X52040246Y-62423944D01*
X52035726Y-62421449D01*
X52030857Y-62419725D01*
X52030853Y-62419723D01*
X51816105Y-62343676D01*
X51816101Y-62343675D01*
X51811230Y-62341950D01*
X51806140Y-62341043D01*
X51806135Y-62341042D01*
X51581853Y-62301092D01*
X51581847Y-62301091D01*
X51576764Y-62300186D01*
X51468760Y-62298867D01*
X51400890Y-62278034D01*
X51381205Y-62261971D01*
X45945405Y-56826171D01*
X45911379Y-56763859D01*
X45908500Y-56737076D01*
X45908500Y-48471494D01*
X47447170Y-48471494D01*
X47447467Y-48476646D01*
X47447467Y-48476650D01*
X47453502Y-48581313D01*
X47460879Y-48709255D01*
X47462016Y-48714301D01*
X47462017Y-48714307D01*
X47495111Y-48861156D01*
X47513237Y-48941585D01*
X47515179Y-48946367D01*
X47515180Y-48946371D01*
X47562159Y-49062066D01*
X47602837Y-49162244D01*
X47681933Y-49291317D01*
X47724572Y-49360896D01*
X47727274Y-49365306D01*
X47883204Y-49545317D01*
X48066442Y-49697444D01*
X48070894Y-49700046D01*
X48070899Y-49700049D01*
X48169333Y-49757569D01*
X48272065Y-49817601D01*
X48494552Y-49902560D01*
X48499618Y-49903591D01*
X48499619Y-49903591D01*
X48553956Y-49914646D01*
X48727928Y-49950041D01*
X48862121Y-49954962D01*
X48960760Y-49958579D01*
X48960764Y-49958579D01*
X48965924Y-49958768D01*
X48971044Y-49958112D01*
X48971046Y-49958112D01*
X49197023Y-49929164D01*
X49197024Y-49929164D01*
X49202151Y-49928507D01*
X49285200Y-49903591D01*
X49425316Y-49861554D01*
X49425317Y-49861553D01*
X49430262Y-49860070D01*
X49644133Y-49755295D01*
X49648336Y-49752297D01*
X49648341Y-49752294D01*
X49833816Y-49619996D01*
X49833818Y-49619994D01*
X49838020Y-49616997D01*
X50006716Y-49448889D01*
X50145690Y-49255486D01*
X50181919Y-49182184D01*
X50248917Y-49046624D01*
X50248918Y-49046622D01*
X50251211Y-49041982D01*
X50299410Y-48883339D01*
X50318941Y-48819055D01*
X50318941Y-48819054D01*
X50320443Y-48814111D01*
X50351529Y-48577992D01*
X50353264Y-48507000D01*
X50333750Y-48269644D01*
X50275731Y-48038663D01*
X50180767Y-47820259D01*
X50163694Y-47793867D01*
X50054216Y-47624642D01*
X50051406Y-47620298D01*
X49891124Y-47444150D01*
X49887073Y-47440951D01*
X49887069Y-47440947D01*
X49708278Y-47299747D01*
X49708273Y-47299744D01*
X49704224Y-47296546D01*
X49699708Y-47294053D01*
X49699705Y-47294051D01*
X49500250Y-47183946D01*
X49500246Y-47183944D01*
X49495726Y-47181449D01*
X49490857Y-47179725D01*
X49490853Y-47179723D01*
X49276105Y-47103676D01*
X49276101Y-47103675D01*
X49271230Y-47101950D01*
X49266140Y-47101043D01*
X49266135Y-47101042D01*
X49138814Y-47078364D01*
X49036764Y-47060186D01*
X48947637Y-47059097D01*
X48803795Y-47057339D01*
X48803793Y-47057339D01*
X48798625Y-47057276D01*
X48563209Y-47093300D01*
X48336838Y-47167289D01*
X48125590Y-47277258D01*
X48121457Y-47280361D01*
X48121454Y-47280363D01*
X48001214Y-47370642D01*
X47935140Y-47420252D01*
X47908650Y-47447972D01*
X47790809Y-47571286D01*
X47770602Y-47592431D01*
X47636394Y-47789172D01*
X47634215Y-47793867D01*
X47543870Y-47988500D01*
X47536122Y-48005191D01*
X47472477Y-48234685D01*
X47471928Y-48239819D01*
X47471928Y-48239821D01*
X47466449Y-48291089D01*
X47447170Y-48471494D01*
X45908500Y-48471494D01*
X45908500Y-47450231D01*
X45907814Y-47443227D01*
X45899895Y-47362471D01*
X45894080Y-47303167D01*
X45836916Y-47113831D01*
X45744066Y-46939204D01*
X45635528Y-46806123D01*
X45622960Y-46790713D01*
X45622957Y-46790710D01*
X45619065Y-46785938D01*
X45612724Y-46780692D01*
X45471425Y-46663799D01*
X45471421Y-46663797D01*
X45466675Y-46659870D01*
X45292701Y-46565802D01*
X45103768Y-46507318D01*
X45097643Y-46506674D01*
X45097642Y-46506674D01*
X44913204Y-46487289D01*
X44913202Y-46487289D01*
X44907075Y-46486645D01*
X44824576Y-46494153D01*
X44716251Y-46504011D01*
X44716248Y-46504012D01*
X44710112Y-46504570D01*
X44704206Y-46506308D01*
X44704202Y-46506309D01*
X44608332Y-46534525D01*
X44520381Y-46560410D01*
X44514923Y-46563263D01*
X44514919Y-46563265D01*
X44424147Y-46610720D01*
X44345110Y-46652040D01*
X44190975Y-46775968D01*
X44063846Y-46927474D01*
X44060879Y-46932872D01*
X44060875Y-46932877D01*
X43991659Y-47058783D01*
X43968567Y-47100787D01*
X43966706Y-47106654D01*
X43966705Y-47106656D01*
X43913345Y-47274869D01*
X43908765Y-47289306D01*
X43891500Y-47443227D01*
X43891500Y-57145157D01*
X43890763Y-57158764D01*
X43886676Y-57196388D01*
X21508500Y-57196388D01*
X21508500Y-24634500D01*
X21528502Y-24566379D01*
X21582158Y-24519886D01*
X21634500Y-24508500D01*
X66391195Y-24508500D01*
X66459316Y-24528502D01*
G37*
%TD.AperFunction*%
%TA.AperFunction,Conductor*%
G36*
X255803647Y-30021422D02*
G01*
X255852571Y-30072870D01*
X255866500Y-30130456D01*
X255866500Y-30440127D01*
X255865810Y-30453297D01*
X255861645Y-30492925D01*
X255866218Y-30543173D01*
X255866500Y-30547207D01*
X255866500Y-30549769D01*
X255866800Y-30552827D01*
X255866800Y-30552831D01*
X255870895Y-30594596D01*
X255870977Y-30595471D01*
X255879570Y-30689888D01*
X255880573Y-30693297D01*
X255880920Y-30696833D01*
X255907746Y-30785684D01*
X255908334Y-30787630D01*
X255908561Y-30788390D01*
X255935410Y-30879619D01*
X255937058Y-30882772D01*
X255938084Y-30886169D01*
X255940971Y-30891599D01*
X255940972Y-30891601D01*
X255982669Y-30970022D01*
X255983016Y-30970681D01*
X256027040Y-31054890D01*
X256029265Y-31057658D01*
X256030934Y-31060796D01*
X256034831Y-31065574D01*
X256090941Y-31134372D01*
X256091494Y-31135056D01*
X256147102Y-31204218D01*
X256147108Y-31204224D01*
X256150968Y-31209025D01*
X256153689Y-31211308D01*
X256155935Y-31214062D01*
X256229136Y-31274619D01*
X256229671Y-31275065D01*
X256246643Y-31289306D01*
X256278748Y-31316245D01*
X256302474Y-31336154D01*
X256305589Y-31337866D01*
X256308325Y-31340130D01*
X256313746Y-31343061D01*
X256391865Y-31385300D01*
X256392603Y-31385702D01*
X256475787Y-31431433D01*
X256479170Y-31432506D01*
X256482299Y-31434198D01*
X256573002Y-31462275D01*
X256573842Y-31462538D01*
X256658435Y-31489373D01*
X256658439Y-31489374D01*
X256664306Y-31491235D01*
X256667837Y-31491631D01*
X256671232Y-31492682D01*
X256765707Y-31502611D01*
X256766421Y-31502689D01*
X256818227Y-31508500D01*
X256820800Y-31508500D01*
X256824776Y-31508820D01*
X256861796Y-31512711D01*
X256861798Y-31512711D01*
X256867925Y-31513355D01*
X256915570Y-31509019D01*
X256926990Y-31508500D01*
X257497175Y-31508500D01*
X257565296Y-31528502D01*
X257586270Y-31545405D01*
X258102349Y-32061484D01*
X258136375Y-32123796D01*
X258131310Y-32194611D01*
X258095582Y-32245963D01*
X258093693Y-32247593D01*
X258088799Y-32251065D01*
X257945827Y-32400415D01*
X257942573Y-32405454D01*
X257942571Y-32405457D01*
X257863123Y-32528502D01*
X257833677Y-32574106D01*
X257831435Y-32579669D01*
X257831433Y-32579673D01*
X257769597Y-32733109D01*
X257756394Y-32765870D01*
X257755244Y-32771760D01*
X257725354Y-32924819D01*
X257716767Y-32968788D01*
X257716500Y-32974247D01*
X257716500Y-33976651D01*
X257731209Y-34130817D01*
X257789410Y-34329207D01*
X257792154Y-34334534D01*
X257792154Y-34334535D01*
X257875359Y-34496087D01*
X257884076Y-34513013D01*
X258011791Y-34675601D01*
X258116409Y-34766384D01*
X258154749Y-34826135D01*
X258154699Y-34897132D01*
X258122923Y-34950643D01*
X255127471Y-37946095D01*
X255065159Y-37980121D01*
X255038376Y-37983000D01*
X250982425Y-37983000D01*
X250914304Y-37962998D01*
X250867811Y-37909342D01*
X250857707Y-37839068D01*
X250887201Y-37774488D01*
X250893330Y-37767905D01*
X251969384Y-36691851D01*
X251979527Y-36682749D01*
X252004218Y-36662897D01*
X252009025Y-36659032D01*
X252041312Y-36620554D01*
X252044467Y-36616938D01*
X252046123Y-36615112D01*
X252048309Y-36612926D01*
X252050264Y-36610546D01*
X252050273Y-36610536D01*
X252075576Y-36579732D01*
X252076418Y-36578717D01*
X252132194Y-36512245D01*
X252136154Y-36507526D01*
X252138723Y-36502852D01*
X252142102Y-36498739D01*
X252185975Y-36416915D01*
X252186584Y-36415793D01*
X252228464Y-36339614D01*
X252228465Y-36339612D01*
X252231433Y-36334213D01*
X252233045Y-36329131D01*
X252235562Y-36324437D01*
X252262762Y-36235469D01*
X252263108Y-36234358D01*
X252267960Y-36219065D01*
X252291235Y-36145694D01*
X252291829Y-36140398D01*
X252293387Y-36135302D01*
X252302785Y-36042778D01*
X252302905Y-36041658D01*
X252308500Y-35991773D01*
X252308500Y-35988246D01*
X252308556Y-35987243D01*
X252309003Y-35981559D01*
X252313373Y-35938538D01*
X252309059Y-35892899D01*
X252308500Y-35881043D01*
X252308500Y-35130409D01*
X252328502Y-35062288D01*
X252382158Y-35015795D01*
X252452580Y-35005713D01*
X252490891Y-35011268D01*
X252490894Y-35011268D01*
X252496831Y-35012129D01*
X252703361Y-35002569D01*
X252831537Y-34971679D01*
X252898524Y-34955535D01*
X252898526Y-34955534D01*
X252904357Y-34954129D01*
X252909815Y-34951647D01*
X252909819Y-34951646D01*
X252997825Y-34911632D01*
X253092568Y-34868555D01*
X253105063Y-34859692D01*
X253172197Y-34836596D01*
X253241054Y-34853400D01*
X253316648Y-34897132D01*
X253346908Y-34914638D01*
X253420825Y-34940306D01*
X253536554Y-34980494D01*
X253536556Y-34980494D01*
X253542219Y-34982461D01*
X253548154Y-34983322D01*
X253548156Y-34983322D01*
X253740891Y-35011268D01*
X253740894Y-35011268D01*
X253746831Y-35012129D01*
X253953361Y-35002569D01*
X254081537Y-34971679D01*
X254148524Y-34955535D01*
X254148526Y-34955534D01*
X254154357Y-34954129D01*
X254159815Y-34951647D01*
X254159819Y-34951646D01*
X254247825Y-34911632D01*
X254342568Y-34868555D01*
X254355063Y-34859692D01*
X254422197Y-34836596D01*
X254491054Y-34853400D01*
X254566648Y-34897132D01*
X254596908Y-34914638D01*
X254670825Y-34940306D01*
X254786554Y-34980494D01*
X254786556Y-34980494D01*
X254792219Y-34982461D01*
X254798154Y-34983322D01*
X254798156Y-34983322D01*
X254990891Y-35011268D01*
X254990894Y-35011268D01*
X254996831Y-35012129D01*
X255203361Y-35002569D01*
X255331537Y-34971679D01*
X255398524Y-34955535D01*
X255398526Y-34955534D01*
X255404357Y-34954129D01*
X255409815Y-34951647D01*
X255409819Y-34951646D01*
X255497825Y-34911632D01*
X255592568Y-34868555D01*
X255605063Y-34859692D01*
X255672197Y-34836596D01*
X255741054Y-34853400D01*
X255816648Y-34897132D01*
X255846908Y-34914638D01*
X255920825Y-34940306D01*
X256036554Y-34980494D01*
X256036556Y-34980494D01*
X256042219Y-34982461D01*
X256048154Y-34983322D01*
X256048156Y-34983322D01*
X256240891Y-35011268D01*
X256240894Y-35011268D01*
X256246831Y-35012129D01*
X256453361Y-35002569D01*
X256581537Y-34971679D01*
X256648524Y-34955535D01*
X256648526Y-34955534D01*
X256654357Y-34954129D01*
X256659815Y-34951647D01*
X256659819Y-34951646D01*
X256829453Y-34874518D01*
X256842568Y-34868555D01*
X257011201Y-34748935D01*
X257015339Y-34744612D01*
X257015344Y-34744608D01*
X257150025Y-34603918D01*
X257154173Y-34599585D01*
X257175404Y-34566705D01*
X257263068Y-34430935D01*
X257266323Y-34425894D01*
X257297890Y-34347568D01*
X257341362Y-34239699D01*
X257341363Y-34239696D01*
X257343606Y-34234130D01*
X257383233Y-34031212D01*
X257383500Y-34025753D01*
X257383500Y-33023349D01*
X257368791Y-32869183D01*
X257310590Y-32670793D01*
X257307846Y-32665465D01*
X257218670Y-32492318D01*
X257218668Y-32492315D01*
X257215924Y-32486987D01*
X257088209Y-32324399D01*
X256932053Y-32188894D01*
X256753092Y-32085362D01*
X256635320Y-32044465D01*
X256563446Y-32019506D01*
X256563444Y-32019506D01*
X256557781Y-32017539D01*
X256551846Y-32016678D01*
X256551844Y-32016678D01*
X256359109Y-31988732D01*
X256359106Y-31988732D01*
X256353169Y-31987871D01*
X256146639Y-31997431D01*
X256018463Y-32028321D01*
X255951476Y-32044465D01*
X255951474Y-32044466D01*
X255945643Y-32045871D01*
X255940185Y-32048353D01*
X255940181Y-32048354D01*
X255863115Y-32083394D01*
X255757432Y-32131445D01*
X255752542Y-32134914D01*
X255744938Y-32140308D01*
X255677803Y-32163404D01*
X255608946Y-32146600D01*
X255508288Y-32088368D01*
X255503092Y-32085362D01*
X255385320Y-32044465D01*
X255313446Y-32019506D01*
X255313444Y-32019506D01*
X255307781Y-32017539D01*
X255301846Y-32016678D01*
X255301844Y-32016678D01*
X255109109Y-31988732D01*
X255109106Y-31988732D01*
X255103169Y-31987871D01*
X254940325Y-31995409D01*
X254871354Y-31978578D01*
X254822429Y-31927130D01*
X254808500Y-31869544D01*
X254808500Y-31425826D01*
X254828502Y-31357705D01*
X254845404Y-31336731D01*
X255252038Y-30930096D01*
X255254209Y-30927925D01*
X255348002Y-30813739D01*
X255433717Y-30653881D01*
X255438549Y-30644870D01*
X255438550Y-30644869D01*
X255441462Y-30639437D01*
X255483060Y-30503377D01*
X255497484Y-30456200D01*
X255497484Y-30456198D01*
X255499287Y-30450302D01*
X255514315Y-30302358D01*
X255518652Y-30259666D01*
X255518652Y-30259661D01*
X255519274Y-30253538D01*
X255509223Y-30147213D01*
X255522726Y-30077512D01*
X255571768Y-30026176D01*
X255628837Y-30009490D01*
X255734675Y-30004591D01*
X255803647Y-30021422D01*
G37*
%TD.AperFunction*%
%TD*%
M02*
