%TF.GenerationSoftware,KiCad,Pcbnew,6.0.10-86aedd382b~118~ubuntu22.04.1*%
%TF.CreationDate,2023-01-16T13:23:36+01:00*%
%TF.ProjectId,tandberg-usb,74616e64-6265-4726-972d-7573622e6b69,rev?*%
%TF.SameCoordinates,Original*%
%TF.FileFunction,Legend,Top*%
%TF.FilePolarity,Positive*%
%FSLAX46Y46*%
G04 Gerber Fmt 4.6, Leading zero omitted, Abs format (unit mm)*
G04 Created by KiCad (PCBNEW 6.0.10-86aedd382b~118~ubuntu22.04.1) date 2023-01-16 13:23:36*
%MOMM*%
%LPD*%
G01*
G04 APERTURE LIST*
%ADD10C,0.150000*%
%ADD11C,0.120000*%
G04 APERTURE END LIST*
D10*
X102738095Y-37452380D02*
X102404761Y-36976190D01*
X102166666Y-37452380D02*
X102166666Y-36452380D01*
X102547619Y-36452380D01*
X102642857Y-36500000D01*
X102690476Y-36547619D01*
X102738095Y-36642857D01*
X102738095Y-36785714D01*
X102690476Y-36880952D01*
X102642857Y-36928571D01*
X102547619Y-36976190D01*
X102166666Y-36976190D01*
X103357142Y-36452380D02*
X103547619Y-36452380D01*
X103642857Y-36500000D01*
X103738095Y-36595238D01*
X103785714Y-36785714D01*
X103785714Y-37119047D01*
X103738095Y-37309523D01*
X103642857Y-37404761D01*
X103547619Y-37452380D01*
X103357142Y-37452380D01*
X103261904Y-37404761D01*
X103166666Y-37309523D01*
X103119047Y-37119047D01*
X103119047Y-36785714D01*
X103166666Y-36595238D01*
X103261904Y-36500000D01*
X103357142Y-36452380D01*
X104119047Y-36452380D02*
X104357142Y-37452380D01*
X104547619Y-36738095D01*
X104738095Y-37452380D01*
X104976190Y-36452380D01*
X105309523Y-37404761D02*
X105452380Y-37452380D01*
X105690476Y-37452380D01*
X105785714Y-37404761D01*
X105833333Y-37357142D01*
X105880952Y-37261904D01*
X105880952Y-37166666D01*
X105833333Y-37071428D01*
X105785714Y-37023809D01*
X105690476Y-36976190D01*
X105500000Y-36928571D01*
X105404761Y-36880952D01*
X105357142Y-36833333D01*
X105309523Y-36738095D01*
X105309523Y-36642857D01*
X105357142Y-36547619D01*
X105404761Y-36500000D01*
X105500000Y-36452380D01*
X105738095Y-36452380D01*
X105880952Y-36500000D01*
%TO.C,H1*%
X186238095Y-25702380D02*
X186238095Y-24702380D01*
X186238095Y-25178571D02*
X186809523Y-25178571D01*
X186809523Y-25702380D02*
X186809523Y-24702380D01*
X187809523Y-25702380D02*
X187238095Y-25702380D01*
X187523809Y-25702380D02*
X187523809Y-24702380D01*
X187428571Y-24845238D01*
X187333333Y-24940476D01*
X187238095Y-24988095D01*
%TO.C,J3*%
X45666666Y-27757380D02*
X45666666Y-28471666D01*
X45619047Y-28614523D01*
X45523809Y-28709761D01*
X45380952Y-28757380D01*
X45285714Y-28757380D01*
X46047619Y-27757380D02*
X46666666Y-27757380D01*
X46333333Y-28138333D01*
X46476190Y-28138333D01*
X46571428Y-28185952D01*
X46619047Y-28233571D01*
X46666666Y-28328809D01*
X46666666Y-28566904D01*
X46619047Y-28662142D01*
X46571428Y-28709761D01*
X46476190Y-28757380D01*
X46190476Y-28757380D01*
X46095238Y-28709761D01*
X46047619Y-28662142D01*
%TO.C,J1*%
X260902380Y-31333333D02*
X261616666Y-31333333D01*
X261759523Y-31380952D01*
X261854761Y-31476190D01*
X261902380Y-31619047D01*
X261902380Y-31714285D01*
X261902380Y-30333333D02*
X261902380Y-30904761D01*
X261902380Y-30619047D02*
X260902380Y-30619047D01*
X261045238Y-30714285D01*
X261140476Y-30809523D01*
X261188095Y-30904761D01*
%TO.C,H3*%
X269238095Y-64702380D02*
X269238095Y-63702380D01*
X269238095Y-64178571D02*
X269809523Y-64178571D01*
X269809523Y-64702380D02*
X269809523Y-63702380D01*
X270190476Y-63702380D02*
X270809523Y-63702380D01*
X270476190Y-64083333D01*
X270619047Y-64083333D01*
X270714285Y-64130952D01*
X270761904Y-64178571D01*
X270809523Y-64273809D01*
X270809523Y-64511904D01*
X270761904Y-64607142D01*
X270714285Y-64654761D01*
X270619047Y-64702380D01*
X270333333Y-64702380D01*
X270238095Y-64654761D01*
X270190476Y-64607142D01*
%TO.C,R3*%
X250452380Y-44166666D02*
X249976190Y-44500000D01*
X250452380Y-44738095D02*
X249452380Y-44738095D01*
X249452380Y-44357142D01*
X249500000Y-44261904D01*
X249547619Y-44214285D01*
X249642857Y-44166666D01*
X249785714Y-44166666D01*
X249880952Y-44214285D01*
X249928571Y-44261904D01*
X249976190Y-44357142D01*
X249976190Y-44738095D01*
X249452380Y-43833333D02*
X249452380Y-43214285D01*
X249833333Y-43547619D01*
X249833333Y-43404761D01*
X249880952Y-43309523D01*
X249928571Y-43261904D01*
X250023809Y-43214285D01*
X250261904Y-43214285D01*
X250357142Y-43261904D01*
X250404761Y-43309523D01*
X250452380Y-43404761D01*
X250452380Y-43690476D01*
X250404761Y-43785714D01*
X250357142Y-43833333D01*
%TO.C,H4*%
X26238095Y-63702380D02*
X26238095Y-62702380D01*
X26238095Y-63178571D02*
X26809523Y-63178571D01*
X26809523Y-63702380D02*
X26809523Y-62702380D01*
X27714285Y-63035714D02*
X27714285Y-63702380D01*
X27476190Y-62654761D02*
X27238095Y-63369047D01*
X27857142Y-63369047D01*
%TO.C,R2*%
X246452380Y-44166666D02*
X245976190Y-44500000D01*
X246452380Y-44738095D02*
X245452380Y-44738095D01*
X245452380Y-44357142D01*
X245500000Y-44261904D01*
X245547619Y-44214285D01*
X245642857Y-44166666D01*
X245785714Y-44166666D01*
X245880952Y-44214285D01*
X245928571Y-44261904D01*
X245976190Y-44357142D01*
X245976190Y-44738095D01*
X245547619Y-43785714D02*
X245500000Y-43738095D01*
X245452380Y-43642857D01*
X245452380Y-43404761D01*
X245500000Y-43309523D01*
X245547619Y-43261904D01*
X245642857Y-43214285D01*
X245738095Y-43214285D01*
X245880952Y-43261904D01*
X246452380Y-43833333D01*
X246452380Y-43214285D01*
%TO.C,R1*%
X242452380Y-44166666D02*
X241976190Y-44500000D01*
X242452380Y-44738095D02*
X241452380Y-44738095D01*
X241452380Y-44357142D01*
X241500000Y-44261904D01*
X241547619Y-44214285D01*
X241642857Y-44166666D01*
X241785714Y-44166666D01*
X241880952Y-44214285D01*
X241928571Y-44261904D01*
X241976190Y-44357142D01*
X241976190Y-44738095D01*
X242452380Y-43214285D02*
X242452380Y-43785714D01*
X242452380Y-43500000D02*
X241452380Y-43500000D01*
X241595238Y-43595238D01*
X241690476Y-43690476D01*
X241738095Y-43785714D01*
%TO.C,U1*%
X73213095Y-55402380D02*
X73213095Y-56211904D01*
X73260714Y-56307142D01*
X73308333Y-56354761D01*
X73403571Y-56402380D01*
X73594047Y-56402380D01*
X73689285Y-56354761D01*
X73736904Y-56307142D01*
X73784523Y-56211904D01*
X73784523Y-55402380D01*
X74784523Y-56402380D02*
X74213095Y-56402380D01*
X74498809Y-56402380D02*
X74498809Y-55402380D01*
X74403571Y-55545238D01*
X74308333Y-55640476D01*
X74213095Y-55688095D01*
%TO.C,H2*%
X26238095Y-26702380D02*
X26238095Y-25702380D01*
X26238095Y-26178571D02*
X26809523Y-26178571D01*
X26809523Y-26702380D02*
X26809523Y-25702380D01*
X27238095Y-25797619D02*
X27285714Y-25750000D01*
X27380952Y-25702380D01*
X27619047Y-25702380D01*
X27714285Y-25750000D01*
X27761904Y-25797619D01*
X27809523Y-25892857D01*
X27809523Y-25988095D01*
X27761904Y-26130952D01*
X27190476Y-26702380D01*
X27809523Y-26702380D01*
%TO.C,J2*%
X98902380Y-31333333D02*
X99616666Y-31333333D01*
X99759523Y-31380952D01*
X99854761Y-31476190D01*
X99902380Y-31619047D01*
X99902380Y-31714285D01*
X98997619Y-30904761D02*
X98950000Y-30857142D01*
X98902380Y-30761904D01*
X98902380Y-30523809D01*
X98950000Y-30428571D01*
X98997619Y-30380952D01*
X99092857Y-30333333D01*
X99188095Y-30333333D01*
X99330952Y-30380952D01*
X99902380Y-30952380D01*
X99902380Y-30333333D01*
D11*
%TO.C,J3*%
X44890000Y-30000000D02*
X44890000Y-29240000D01*
X44890000Y-30760000D02*
X45436529Y-30760000D01*
X44890000Y-29240000D02*
X46000000Y-29240000D01*
X46563471Y-30760000D02*
X47110000Y-30760000D01*
X44890000Y-30760000D02*
X47110000Y-30760000D01*
X47110000Y-30760000D02*
X47110000Y-30695000D01*
X44890000Y-30760000D02*
X44890000Y-30695000D01*
%TO.C,R3*%
X249080000Y-42080000D02*
X249080000Y-45920000D01*
X250920000Y-42080000D02*
X250920000Y-45920000D01*
%TO.C,R2*%
X245080000Y-42080000D02*
X245080000Y-45920000D01*
X246920000Y-42080000D02*
X246920000Y-45920000D01*
%TO.C,R1*%
X241080000Y-42080000D02*
X241080000Y-45920000D01*
X242920000Y-42080000D02*
X242920000Y-45920000D01*
%TD*%
M02*
