M48
; DRILL file {KiCad 6.0.10-86aedd382b~118~ubuntu22.04.1} date ma. 16. jan. 2023 kl. 13.23 +0100
; FORMAT={-:-/ absolute / metric / decimal}
; #@! TF.CreationDate,2023-01-16T13:23:34+01:00
; #@! TF.GenerationSoftware,Kicad,Pcbnew,6.0.10-86aedd382b~118~ubuntu22.04.1
; #@! TF.FileFunction,Plated,1,2,PTH
FMAT,2
METRIC
; #@! TA.AperFunction,Plated,PTH,ViaDrill
T1C0.400
; #@! TA.AperFunction,Plated,PTH,ComponentDrill
T2C0.650
; #@! TA.AperFunction,Plated,PTH,ComponentDrill
T3C0.700
; #@! TA.AperFunction,Plated,PTH,ComponentDrill
T4C0.800
; #@! TA.AperFunction,Plated,PTH,ComponentDrill
T5C1.016
; #@! TA.AperFunction,Plated,PTH,ComponentDrill
T6C4.300
%
G90
G05
T1
X44.9Y-47.5
X54.5Y-33.5
X65.5Y-27.0
X72.5Y-32.0
X72.708Y-38.346
X72.873Y-40.137
X74.0Y-46.5
X83.5Y-33.5
X86.5Y-41.5
X94.954Y-60.701
X96.0Y-41.5
X97.433Y-59.551
X98.411Y-32.919
X99.5Y-45.5
X100.053Y-32.919
X100.06Y-35.5
X100.634Y-43.357
X107.713Y-31.985
X126.405Y-35.28
X175.5Y-60.0
X232.468Y-30.5
X233.63Y-28.5
X254.506Y-30.25
T2
X46.0Y-30.0
T3
X242.0Y-41.46
X242.0Y-46.54
X246.0Y-41.46
X246.0Y-46.54
X250.0Y-41.46
X250.0Y-46.54
T4
X88.05Y-33.5
X88.625Y-28.5
X89.3Y-33.5
X89.875Y-28.5
X90.55Y-33.5
X91.125Y-28.5
X91.8Y-33.5
X92.375Y-28.5
X93.05Y-33.5
X93.625Y-28.5
X94.3Y-33.5
X94.875Y-28.5
X95.55Y-33.5
X96.125Y-28.5
X96.8Y-33.5
X97.375Y-28.5
X250.05Y-33.5
X250.625Y-28.5
X251.3Y-33.5
X251.875Y-28.5
X252.55Y-33.5
X253.125Y-28.5
X253.8Y-33.5
X254.375Y-28.5
X255.05Y-33.5
X255.625Y-28.5
X256.3Y-33.5
X256.875Y-28.5
X257.55Y-33.5
X258.125Y-28.5
X258.8Y-33.5
X259.375Y-28.5
T5
X48.9Y-48.507
X48.9Y-63.493
X51.44Y-48.253
X51.44Y-63.747
X53.98Y-48.507
X53.98Y-63.493
X56.52Y-48.253
X56.52Y-63.747
X59.06Y-48.507
X59.06Y-63.493
X61.6Y-48.253
X61.6Y-63.747
X64.14Y-48.507
X64.14Y-63.493
X66.68Y-48.253
X66.68Y-63.747
X69.22Y-48.507
X69.22Y-63.493
X71.76Y-48.253
X71.76Y-63.747
X74.3Y-48.507
X74.3Y-63.493
X76.84Y-48.253
X76.84Y-63.747
X79.38Y-48.507
X79.38Y-63.493
X81.92Y-48.253
X81.92Y-63.747
X84.46Y-48.507
X84.46Y-63.493
X87.0Y-48.253
X87.0Y-63.747
X89.54Y-48.507
X89.54Y-63.493
X92.08Y-48.253
X92.08Y-63.747
X92.923Y-52.19
X92.923Y-57.27
X93.177Y-54.73
X93.177Y-59.81
X94.62Y-48.507
X94.62Y-63.493
X97.16Y-48.253
X97.16Y-63.747
T6
X27.0Y-31.0
X27.0Y-68.0
X187.0Y-30.0
X270.0Y-69.0
T0
M30
