%TF.GenerationSoftware,KiCad,Pcbnew,6.0.10-86aedd382b~118~ubuntu22.04.1*%
%TF.CreationDate,2023-01-16T13:23:36+01:00*%
%TF.ProjectId,tandberg-usb,74616e64-6265-4726-972d-7573622e6b69,rev?*%
%TF.SameCoordinates,Original*%
%TF.FileFunction,Soldermask,Bot*%
%TF.FilePolarity,Negative*%
%FSLAX46Y46*%
G04 Gerber Fmt 4.6, Leading zero omitted, Abs format (unit mm)*
G04 Created by KiCad (PCBNEW 6.0.10-86aedd382b~118~ubuntu22.04.1) date 2023-01-16 13:23:36*
%MOMM*%
%LPD*%
G01*
G04 APERTURE LIST*
G04 Aperture macros list*
%AMRoundRect*
0 Rectangle with rounded corners*
0 $1 Rounding radius*
0 $2 $3 $4 $5 $6 $7 $8 $9 X,Y pos of 4 corners*
0 Add a 4 corners polygon primitive as box body*
4,1,4,$2,$3,$4,$5,$6,$7,$8,$9,$2,$3,0*
0 Add four circle primitives for the rounded corners*
1,1,$1+$1,$2,$3*
1,1,$1+$1,$4,$5*
1,1,$1+$1,$6,$7*
1,1,$1+$1,$8,$9*
0 Add four rect primitives between the rounded corners*
20,1,$1+$1,$2,$3,$4,$5,0*
20,1,$1+$1,$4,$5,$6,$7,0*
20,1,$1+$1,$6,$7,$8,$9,0*
20,1,$1+$1,$8,$9,$2,$3,0*%
G04 Aperture macros list end*
%ADD10C,7.500000*%
%ADD11R,1.000000X1.000000*%
%ADD12O,1.150000X2.000000*%
%ADD13C,1.400000*%
%ADD14O,1.400000X1.400000*%
%ADD15C,2.082800*%
%ADD16RoundRect,0.101600X0.939800X0.939800X-0.939800X0.939800X-0.939800X-0.939800X0.939800X-0.939800X0*%
G04 APERTURE END LIST*
D10*
%TO.C,H1*%
X187000000Y-30000000D03*
%TD*%
D11*
%TO.C,J3*%
X46000000Y-30000000D03*
%TD*%
D12*
%TO.C,J1*%
X259375000Y-28500000D03*
X258125000Y-28500000D03*
X256875000Y-28500000D03*
X255625000Y-28500000D03*
X254375000Y-28500000D03*
X253125000Y-28500000D03*
X251875000Y-28500000D03*
X250625000Y-28500000D03*
X250050000Y-33500000D03*
X251300000Y-33500000D03*
X252550000Y-33500000D03*
X253800000Y-33500000D03*
X255050000Y-33500000D03*
X256300000Y-33500000D03*
X257550000Y-33500000D03*
X258800000Y-33500000D03*
%TD*%
D10*
%TO.C,H3*%
X270000000Y-69000000D03*
%TD*%
D13*
%TO.C,R3*%
X250000000Y-41460000D03*
D14*
X250000000Y-46540000D03*
%TD*%
D10*
%TO.C,H4*%
X27000000Y-68000000D03*
%TD*%
D13*
%TO.C,R2*%
X246000000Y-41460000D03*
D14*
X246000000Y-46540000D03*
%TD*%
D13*
%TO.C,R1*%
X242000000Y-41460000D03*
D14*
X242000000Y-46540000D03*
%TD*%
D15*
%TO.C,U1*%
X48900000Y-63493000D03*
X51440000Y-63747000D03*
X53980000Y-63493000D03*
X56520000Y-63747000D03*
X59060000Y-63493000D03*
X61600000Y-63747000D03*
X64140000Y-63493000D03*
X66680000Y-63747000D03*
X69220000Y-63493000D03*
X71760000Y-63747000D03*
X74300000Y-63493000D03*
X76840000Y-63747000D03*
X79380000Y-63493000D03*
X81920000Y-63747000D03*
X84460000Y-63493000D03*
X87000000Y-63747000D03*
X89540000Y-63493000D03*
X92080000Y-63747000D03*
X94620000Y-63493000D03*
X97160000Y-63747000D03*
X97160000Y-48253000D03*
X94620000Y-48507000D03*
X92080000Y-48253000D03*
X89540000Y-48507000D03*
X87000000Y-48253000D03*
X84460000Y-48507000D03*
X81920000Y-48253000D03*
X79380000Y-48507000D03*
X76840000Y-48253000D03*
X74300000Y-48507000D03*
X71760000Y-48253000D03*
X69220000Y-48507000D03*
X66680000Y-48253000D03*
X64140000Y-48507000D03*
X61600000Y-48253000D03*
X59060000Y-48507000D03*
X56520000Y-48253000D03*
X53980000Y-48507000D03*
X51440000Y-48253000D03*
X48900000Y-48507000D03*
D16*
X93177000Y-59810000D03*
D15*
X92923000Y-57270000D03*
X93177000Y-54730000D03*
X92923000Y-52190000D03*
%TD*%
D10*
%TO.C,H2*%
X27000000Y-31000000D03*
%TD*%
D12*
%TO.C,J2*%
X97375000Y-28500000D03*
X96125000Y-28500000D03*
X94875000Y-28500000D03*
X93625000Y-28500000D03*
X92375000Y-28500000D03*
X91125000Y-28500000D03*
X89875000Y-28500000D03*
X88625000Y-28500000D03*
X88050000Y-33500000D03*
X89300000Y-33500000D03*
X90550000Y-33500000D03*
X91800000Y-33500000D03*
X93050000Y-33500000D03*
X94300000Y-33500000D03*
X95550000Y-33500000D03*
X96800000Y-33500000D03*
%TD*%
M02*
